<svg xmlns="http://www.w3.org/2000/svg" viewBox="0 0 600 1000">
	<path fill="#29abe2" d="m299.5 408.5c-170 0-291 122-291 291s121 291 291 291 291-122 291-291-121-291-291-291"/>
	<g fill="#c63a8e">
		<path d="m139.5 636.8c-42.5 0-72.8 30.5-72.8 72.7 0 42.3 30.3 72.8 72.8 72.8 42.5 0 72.7-30.5 72.7-72.8 0-42.3-30.2-72.7-72.7-72.7"/>
		<path d="m459.5 636.8c-42.5 0-72.8 30.5-72.8 72.7 0 42.3 30.3 72.8 72.8 72.8 42.5 0 72.7-30.5 72.7-72.8 0-42.3-30.2-72.7-72.7-72.7"/>
	</g>
	<path d="m269.5 625.5c0-38-18-64-48-64s-49 26-49 64 19 64 49 64 48-26 48-64"/>
	<path d="m426.5 625.5c0-38-19-64-49-64s-48 26-48 64 18 64 48 64 49-26 49-64"/>
	<path fill="#42210b" d="m299.5 877.5c88 0 145-49 155-130l-34-13c-18 52-62 75-121 75s-103-23-121-75l-34 13c10 81 67 130 155 130"/>
	<g fill="#fff">
		<path d="m193.5 617.5c0-9 5-15 13-15s13 6 13 15-5 15-13 15-13-6-13-15"/>
		<path d="m350.5 617.5c0-9 5-15 13-15s12 6 12 15-4 15-12 15-13-6-13-15"/>
	</g>
</svg>
