<font horiz-adv-x="1000">
<!-- Source is a trademark of Adobe Systems Incorporated in the United States and/or other countries. -->
<font-face font-family="SourceCodePro-Regular" units-per-em="1000" underline-position="-100" underline-thickness="50"/>
<missing-glyph horiz-adv-x="600" d="M62,0l476,0l0,660l-476,0 z M127,110l0,462l128,-232 z M345,340l127,232l0,-462 z M170,58l74,132l54,103l4,0l52,-103l73,-132 z M298,387l-50,94l-66,119l235,0l-66,-119l-49,-94z"/>
<glyph unicode=" " horiz-adv-x="600"/>
<glyph unicode="A" horiz-adv-x="600" d="M201,267l31,100C255,440 276,512 297,588l4,0C322,512 343,440 366,367l31,-100 z M480,0l88,0l-221,656l-94,0l-221,-656l85,0l63,200l238,0z"/>
<glyph unicode="B" horiz-adv-x="600" d="M103,0l195,0C444,0 545,63 545,192C545,282 489,334 393,349l0,4C470,373 508,431 508,496C508,611 417,656 283,656l-180,0 z M187,376l0,214l86,0C374,590 426,560 426,489C426,416 381,376 269,376 z M187,66l0,248l99,0C401,314 463,277 463,196C463,107 398,66 286,66z"/>
<glyph unicode="C" horiz-adv-x="600" d="M66,328C66,114 189,-12 354,-12C438,-12 502,23 554,83l-48,51C464,87 419,61 359,61C233,61 152,165 152,330C152,493 233,595 359,595C414,595 457,571 491,535l47,53C500,630 438,668 359,668C188,668 66,539 66,328z"/>
<glyph unicode="D" horiz-adv-x="600" d="M85,0l164,0C443,0 549,122 549,331C549,539 443,656 245,656l-160,0 z M168,68l0,520l72,0C389,588 463,496 463,331C463,165 389,68 240,68z"/>
<glyph unicode="E" horiz-adv-x="600" d="M115,0l415,0l0,71l-331,0l0,238l271,0l0,71l-271,0l0,206l321,0l0,70l-405,0z"/>
<glyph unicode="F" horiz-adv-x="600" d="M135,0l83,0l0,294l269,0l0,70l-269,0l0,222l318,0l0,70l-401,0z"/>
<glyph unicode="G" horiz-adv-x="600" d="M53,328C53,114 172,-12 337,-12C422,-12 491,22 533,64l0,276l-208,0l0,-69l131,0l0,-171C431,76 388,61 342,61C213,61 140,165 140,330C140,493 221,595 344,595C407,595 446,569 478,535l47,53C488,627 431,668 344,668C174,668 53,540 53,328z"/>
<glyph unicode="H" horiz-adv-x="600" d="M79,0l84,0l0,309l274,0l0,-309l84,0l0,656l-84,0l0,-275l-274,0l0,275l-84,0z"/>
<glyph unicode="I" horiz-adv-x="600" d="M95,0l410,0l0,71l-163,0l0,515l163,0l0,70l-410,0l0,-70l163,0l0,-515l-163,0z"/>
<glyph unicode="J" horiz-adv-x="600" d="M81,97C126,21 202,-12 276,-12C439,-12 493,88 493,210l0,447l-358,0l0,-70l275,0l0,-370C410,109 368,61 274,61C223,61 173,89 135,147z"/>
<glyph unicode="K" horiz-adv-x="600" d="M98,0l84,0l0,208l114,133l190,-341l93,0l-231,406l207,250l-94,0l-276,-329l-3,0l0,329l-84,0z"/>
<glyph unicode="L" horiz-adv-x="600" d="M134,0l407,0l0,71l-325,0l0,585l-82,0z"/>
<glyph unicode="M" horiz-adv-x="600" d="M81,0l70,0l0,369C151,423 144,518 140,571l3,0l44,-140l90,-253l45,0l90,253l43,140l3,0C454,518 448,423 448,369l0,-369l71,0l0,656l-92,0l-92,-279l-32,-106l-4,0l-33,106l-93,279l-92,0z"/>
<glyph unicode="N" horiz-adv-x="600" d="M83,0l79,0l0,343C162,411 154,481 151,548l2,0l66,-134l213,-414l85,0l0,656l-79,0l0,-340C438,247 446,173 449,108l-2,0l-66,134l-213,414l-85,0z"/>
<glyph unicode="O" horiz-adv-x="600" d="M300,-12C448,-12 552,120 552,331C552,540 448,668 300,668C152,668 48,541 48,331C48,120 152,-12 300,-12 z M300,61C200,61 134,167 134,331C134,494 200,595 300,595C400,595 466,494 466,331C466,167 400,61 300,61z"/>
<glyph unicode="P" horiz-adv-x="600" d="M102,0l83,0l0,260l118,0C447,260 545,325 545,463C545,607 448,656 303,656l-201,0 z M185,328l0,261l107,0C406,589 462,558 462,463C462,370 407,328 292,328z"/>
<glyph unicode="Q" horiz-adv-x="600" d="M134,331C134,494 198,597 299,597C399,597 463,494 463,331C463,168 399,60 299,60C198,60 134,168 134,331 z M538,-82C526,-87 509,-92 489,-92C421,-92 369,-63 347,-7C468,18 548,144 548,331C548,540 447,669 299,669C150,669 49,541 49,331C49,141 132,14 258,-8C291,-97 363,-163 479,-163C508,-163 532,-157 553,-149z"/>
<glyph unicode="R" horiz-adv-x="600" d="M183,589l109,0C394,589 450,558 450,472C450,387 394,345 292,345l-109,0 z M553,0l-167,286C475,309 533,370 533,472C533,608 437,656 304,656l-204,0l0,-656l83,0l0,277l117,0l158,-277z"/>
<glyph unicode="S" horiz-adv-x="600" d="M67,85C126,26 209,-12 305,-12C449,-12 537,71 537,175C537,272 473,317 392,350l-92,40C244,413 183,436 183,499C183,558 234,595 313,595C378,595 428,571 471,533l44,54C467,635 395,668 313,668C188,668 98,594 98,494C98,398 174,351 240,325l94,-41C401,256 452,235 452,168C452,104 399,61 306,61C234,61 166,94 117,143z"/>
<glyph unicode="T" horiz-adv-x="600" d="M258,0l84,0l0,586l216,0l0,70l-516,0l0,-70l216,0z"/>
<glyph unicode="U" horiz-adv-x="600" d="M79,248C79,60 172,-12 301,-12C429,-12 521,60 521,248l0,408l-81,0l0,-410C440,110 380,61 301,61C222,61 163,110 163,246l0,410l-84,0z"/>
<glyph unicode="V" horiz-adv-x="600" d="M252,0l97,0l208,656l-85,0l-105,-354C345,224 328,162 304,85l-4,0C276,162 260,224 237,302l-106,354l-88,0z"/>
<glyph unicode="W" horiz-adv-x="600" d="M111,0l90,0l72,275C283,314 291,354 299,393l3,0C309,354 317,314 326,275l75,-275l92,0l97,657l-79,0l-50,-412C457,191 451,137 447,83l-4,0C429,137 414,192 402,245l-69,242l-59,0l-69,-242C192,191 177,137 163,83l-3,0C156,137 149,190 146,245l-53,412l-83,0z"/>
<glyph unicode="X" horiz-adv-x="600" d="M54,0l88,0l98,177C257,209 274,242 293,282l4,0C319,242 337,209 355,177l99,-177l92,0l-196,335l183,321l-88,0l-90,-168C339,458 326,431 308,393l-4,0C283,431 268,458 251,488l-92,168l-92,0l183,-317z"/>
<glyph unicode="Y" horiz-adv-x="600" d="M258,0l84,0l0,234l220,422l-86,0l-95,-194C356,411 330,361 304,308l-4,0C273,361 250,411 225,461l-99,195l-88,0l220,-422z"/>
<glyph unicode="Z" horiz-adv-x="600" d="M65,0l474,0l0,71l-373,0l368,536l0,50l-437,0l0,-70l335,0l-367,-537z"/>
<glyph unicode="a" horiz-adv-x="600" d="M81,126C81,39 155,-12 246,-12C315,-12 384,24 438,66l3,0l7,-66l67,0l0,298C515,419 451,498 318,498C233,498 151,460 102,428l32,-56C179,400 241,430 304,430C398,430 431,374 433,308C182,288 81,235 81,126 z M161,132C161,196 225,237 433,254l0,-128C378,80 323,54 268,54C212,54 161,77 161,132z"/>
<glyph unicode="b" horiz-adv-x="600" d="M93,0l66,0l7,54l3,0C215,13 273,-12 320,-12C436,-12 540,85 540,251C540,401 469,498 338,498C281,498 219,469 173,424l2,94l0,194l-82,0 z M175,114l0,242C225,406 275,429 318,429C415,429 455,357 455,250C455,130 392,57 307,57C272,57 221,73 175,114z"/>
<glyph unicode="c" horiz-adv-x="600" d="M80,242C80,81 194,-12 346,-12C418,-12 486,16 539,64l-36,53C462,83 412,56 352,56C240,56 165,131 165,242C165,354 242,430 354,430C405,430 447,409 487,374l41,53C488,466 430,498 351,498C204,498 80,405 80,242z"/>
<glyph unicode="d" horiz-adv-x="600" d="M60,242C60,80 144,-12 271,-12C331,-12 389,23 429,64l3,0l7,-64l68,0l0,712l-82,0l0,-187l3,-90C383,474 340,498 281,498C166,498 60,400 60,242 z M145,243C145,354 213,429 297,429C339,429 381,413 425,372l0,-242C382,82 336,57 288,57C198,57 145,127 145,243z"/>
<glyph unicode="e" horiz-adv-x="600" d="M69,242C69,83 186,-12 330,-12C408,-12 469,14 517,45l-29,54C443,71 397,54 340,54C234,54 158,120 154,223l380,0C536,235 537,253 537,270C537,407 455,498 316,498C190,498 69,401 69,242 z M153,282C166,377 238,433 317,433C407,433 461,379 461,282z"/>
<glyph unicode="f" horiz-adv-x="600" d="M578,696C532,715 486,724 438,724C304,724 242,646 242,527l0,-41l-139,-5l0,-62l139,0l0,-419l81,0l0,419l204,0l0,67l-204,0l0,44C323,609 359,657 446,657C488,657 519,652 559,634z"/>
<glyph unicode="g" horiz-adv-x="600" d="M143,-81C143,-53 159,-25 205,0C226,-6 251,-8 279,-8l95,0C448,-8 485,-21 485,-67C485,-117 415,-167 302,-167C198,-167 143,-132 143,-81 z M72,-89C72,-175 154,-224 296,-224C461,-224 566,-145 566,-54C566,28 506,60 381,60l-109,0C208,60 171,77 171,116C171,139 185,157 209,172C236,160 266,154 291,154C396,154 479,217 479,321C479,364 457,399 434,423l130,0l0,63l-201,0C342,494 319,498 291,498C188,498 100,430 100,324C100,266 127,223 160,198l0,-4C123,169 102,134 102,103C102,62 126,37 152,23l0,-4C100,-11 72,-50 72,-89 z M291,209C230,209 179,254 179,324C179,392 230,438 291,438C353,438 403,392 403,324C403,254 353,209 291,209z"/>
<glyph unicode="h" horiz-adv-x="600" d="M93,0l82,0l0,339C232,398 271,427 329,427C409,427 441,383 441,291l0,-291l82,0l0,302C523,430 470,498 355,498C279,498 223,457 171,403l4,115l0,194l-82,0z"/>
<glyph unicode="i" horiz-adv-x="600" d="M90,419l226,0l0,-419l82,0l0,486l-308,0 z M348,586C385,586 414,611 414,649C414,688 385,713 348,713C310,713 282,688 282,649C282,611 310,586 348,586z"/>
<glyph unicode="j" horiz-adv-x="600" d="M90,419l226,0l0,-437C316,-101 290,-150 193,-150C156,-150 117,-140 82,-123l-27,-61C94,-203 143,-217 194,-217C351,-217 398,-132 398,-12l0,498l-308,0 z M348,586C385,586 414,611 414,649C414,688 385,713 348,713C310,713 282,688 282,649C282,611 310,586 348,586z"/>
<glyph unicode="k" horiz-adv-x="600" d="M106,0l82,0l0,132l115,111l179,-243l92,0l-220,293l194,193l-94,0l-262,-256l-4,0l0,482l-82,0z"/>
<glyph unicode="l" horiz-adv-x="600" d="M81,645l166,0l0,-482C247,48 303,-12 406,-12C459,-12 493,1 537,17l-21,62C480,63 452,56 424,56C366,56 329,86 329,157l0,555l-248,0z"/>
<glyph unicode="m" horiz-adv-x="600" d="M60,0l79,0l0,352C164,402 186,427 220,427C256,427 275,398 275,341l0,-341l66,0l0,352C366,402 389,427 424,427C460,427 477,398 477,341l0,-341l79,0l0,348C556,445 517,498 450,498C396,498 364,465 335,414C323,470 292,498 243,498C188,498 158,467 134,422l-3,0l-7,64l-64,0z"/>
<glyph unicode="n" horiz-adv-x="600" d="M93,0l82,0l0,339C232,398 271,427 329,427C409,427 441,383 441,291l0,-291l82,0l0,302C523,430 470,498 355,498C279,498 223,457 172,403l-4,0l-7,83l-68,0z"/>
<glyph unicode="o" horiz-adv-x="600" d="M60,242C60,81 172,-12 300,-12C428,-12 540,81 540,242C540,405 428,498 300,498C172,498 60,405 60,242 z M145,242C145,354 207,430 300,430C393,430 455,354 455,242C455,131 393,56 300,56C207,56 145,131 145,242z"/>
<glyph unicode="p" horiz-adv-x="600" d="M173,51C217,11 274,-12 319,-12C436,-12 540,85 540,250C540,401 470,498 339,498C279,498 216,467 171,424l-3,0l-7,62l-68,0l0,-691l82,0l0,164 z M175,114l0,242C225,406 275,429 318,429C415,429 455,357 455,250C455,130 392,57 305,57C272,57 221,73 175,114z"/>
<glyph unicode="q" horiz-adv-x="600" d="M60,242C60,80 144,-12 271,-12C330,-12 386,21 429,62l-4,-88l0,-179l82,0l0,691l-66,0l-7,-54l-3,0C385,475 340,498 281,498C166,498 60,400 60,242 z M145,243C145,354 213,429 297,429C339,429 381,413 425,372l0,-242C382,82 336,57 288,57C198,57 145,127 145,243z"/>
<glyph unicode="r" horiz-adv-x="600" d="M146,0l82,0l0,285C286,386 355,424 428,424C466,424 484,419 518,407l19,71C507,493 477,498 441,498C351,498 275,449 224,371l-3,0l-7,115l-68,0z"/>
<glyph unicode="s" horiz-adv-x="600" d="M72,64C131,23 215,-12 310,-12C449,-12 526,54 526,133C526,207 463,245 332,278C244,300 184,324 184,364C184,402 213,434 304,434C364,434 416,413 459,383l40,53C451,469 377,498 304,498C170,498 100,438 100,360C100,291 185,247 285,222C404,193 443,166 443,128C443,86 400,52 313,52C226,52 166,78 112,118z"/>
<glyph unicode="t" horiz-adv-x="600" d="M206,189C206,69 252,-12 393,-12C446,-12 502,1 546,17l-18,60C494,64 457,55 411,55C317,55 288,101 288,188l0,231l239,0l0,67l-239,0l0,136l-68,0l-11,-136l-140,-5l0,-62l137,0z"/>
<glyph unicode="u" horiz-adv-x="600" d="M505,486l-82,0l0,-337C369,86 328,59 272,59C191,59 160,103 160,195l0,291l-83,0l0,-302C77,56 130,-12 246,-12C321,-12 378,28 427,85l4,0l7,-85l67,0z"/>
<glyph unicode="v" horiz-adv-x="600" d="M256,0l92,0l201,486l-79,0l-112,-276C338,161 322,113 305,67l-4,0C284,113 266,161 246,210l-112,276l-83,0z"/>
<glyph unicode="w" horiz-adv-x="600" d="M117,0l98,0l56,245C283,301 290,345 298,387l4,0C312,338 320,292 329,246l58,-246l99,0l106,486l-78,0l-59,-281C447,159 440,115 431,70l-4,0C417,115 408,159 397,205l-60,252l-70,0l-59,-252C197,160 188,115 179,70l-4,0C168,115 160,159 151,205l-59,281l-84,0z"/>
<glyph unicode="x" horiz-adv-x="600" d="M64,0l88,0l80,112C252,143 272,171 292,200l4,0C317,172 340,140 360,112l85,-112l90,0l-186,245l173,241l-87,0l-73,-105C345,354 325,324 307,297l-4,0C283,324 263,353 246,379l-77,107l-91,0l171,-234z"/>
<glyph unicode="y" horiz-adv-x="600" d="M84,-134l-17,-65C84,-205 108,-209 131,-209C241,-209 301,-136 337,-40l214,526l-78,0l-106,-269C351,173 332,122 315,76l-4,0C291,123 270,174 251,217l-119,269l-83,0l227,-487l-15,-36C237,-97 196,-141 128,-141C113,-141 97,-138 84,-134z"/>
<glyph unicode="z" horiz-adv-x="600" d="M71,0l461,0l0,67l-344,0l334,375l0,44l-414,0l0,-67l296,0l-333,-375z"/>
<glyph unicode="&#xC0;" horiz-adv-x="600" d="M351,706l-88,112l-94,0l113,-112 z M201,267l31,100C255,440 276,512 297,588l4,0C322,512 343,440 366,367l31,-100 z M480,0l88,0l-221,656l-94,0l-221,-656l85,0l63,200l238,0z"/>
<glyph unicode="&#xC1;" horiz-adv-x="600" d="M431,818l-94,0l-88,-112l69,0 z M201,267l31,100C255,440 276,512 297,588l4,0C322,512 343,440 366,367l31,-100 z M480,0l88,0l-221,656l-94,0l-221,-656l85,0l63,200l238,0z"/>
<glyph unicode="&#xC2;" horiz-adv-x="600" d="M298,774l4,0l67,-68l67,0l-96,112l-80,0l-96,-112l67,0 z M201,267l31,100C255,440 276,512 297,588l4,0C322,512 343,440 366,367l31,-100 z M480,0l88,0l-221,656l-94,0l-221,-656l85,0l63,200l238,0z"/>
<glyph unicode="&#xC3;" horiz-adv-x="600" d="M399,819C394,786 378,767 359,767C322,767 293,819 240,819C192,819 161,773 155,711l46,0C206,745 222,763 241,763C278,763 307,711 360,711C408,711 439,758 445,819 z M201,267l31,100C255,440 276,512 297,588l4,0C322,512 343,440 366,367l31,-100 z M480,0l88,0l-221,656l-94,0l-221,-656l85,0l63,200l238,0z"/>
<glyph unicode="&#xC4;" horiz-adv-x="600" d="M386,715C415,715 435,736 435,764C435,793 415,813 386,813C358,813 337,793 337,764C337,736 358,715 386,715 z M214,715C242,715 263,736 263,764C263,793 242,813 214,813C185,813 165,793 165,764C165,736 185,715 214,715 z M201,267l31,100C255,440 276,512 297,588l4,0C322,512 343,440 366,367l31,-100 z M480,0l88,0l-221,656l-94,0l-221,-656l85,0l63,200l238,0z"/>
<glyph unicode="&#x100;" horiz-adv-x="600" d="M424,786l-248,0l0,-57l248,0 z M201,267l31,100C255,440 276,512 297,588l4,0C322,512 343,440 366,367l31,-100 z M480,0l88,0l-221,656l-94,0l-221,-656l85,0l63,200l238,0z"/>
<glyph unicode="&#x102;" horiz-adv-x="600" d="M373,818C367,786 345,755 300,755C255,755 233,786 227,818l-50,0C184,762 220,708 300,708C380,708 416,762 423,818 z M201,267l31,100C255,440 276,512 297,588l4,0C322,512 343,440 366,367l31,-100 z M480,0l88,0l-221,656l-94,0l-221,-656l85,0l63,200l238,0z"/>
<glyph unicode="&#xC5;" horiz-adv-x="600" d="M300,838C325,838 347,818 347,787C347,754 325,735 300,735C273,735 252,754 252,787C252,818 273,838 300,838 z M300,699C353,699 393,733 393,787C393,840 353,875 300,875C246,875 207,840 207,787C207,733 246,699 300,699 z M201,267l31,100C255,440 276,512 297,588l4,0C322,512 343,440 366,367l31,-100 z M480,0l88,0l-221,656l-94,0l-221,-656l85,0l63,200l238,0z"/>
<glyph unicode="&#x1CD;" horiz-adv-x="600" d="M340,706l96,112l-67,0l-67,-68l-4,0l-67,68l-67,0l96,-112 z M201,267l31,100C255,440 276,512 297,588l4,0C322,512 343,440 366,367l31,-100 z M480,0l88,0l-221,656l-94,0l-221,-656l85,0l63,200l238,0z"/>
<glyph unicode="&#x1EA0;" horiz-adv-x="600" d="M300,-99C263,-99 234,-124 234,-163C234,-201 263,-226 300,-226C337,-226 366,-201 366,-163C366,-124 337,-99 300,-99 z M201,267l31,100C255,440 276,512 297,588l4,0C322,512 343,440 366,367l31,-100 z M568,0l-221,656l-94,0l-221,-656l85,0l63,200l238,0l62,-200z"/>
<glyph unicode="&#x1EA2;" horiz-adv-x="600" d="M272,698C330,708 383,733 383,791C383,842 332,869 245,872l-9,-48C291,822 319,808 319,782C319,757 295,745 263,736 z M201,267l31,100C255,440 276,512 297,588l4,0C322,512 343,440 366,367l31,-100 z M480,0l88,0l-221,656l-94,0l-221,-656l85,0l63,200l238,0z"/>
<glyph unicode="&#x1EA4;" horiz-adv-x="600" d="M534,881l-72,0l-71,-111l52,0 z M298,768l4,0l63,-62l63,0l-92,106l-72,0l-92,-106l63,0 z M201,267l31,100C255,440 276,512 297,588l4,0C322,512 343,440 366,367l31,-100 z M480,0l88,0l-221,656l-94,0l-221,-656l85,0l63,200l238,0z"/>
<glyph unicode="&#x1EA6;" horiz-adv-x="600" d="M484,770l-71,111l-72,0l91,-111 z M298,768l4,0l63,-62l63,0l-92,106l-72,0l-92,-106l63,0 z M201,267l31,100C255,440 276,512 297,588l4,0C322,512 343,440 366,367l31,-100 z M480,0l88,0l-221,656l-94,0l-221,-656l85,0l63,200l238,0z"/>
<glyph unicode="&#x1EA8;" horiz-adv-x="600" d="M415,754C463,762 507,782 507,833C507,879 465,903 387,906l-9,-42C428,861 449,851 449,825C449,804 429,795 404,789 z M298,768l4,0l63,-62l63,0l-92,106l-72,0l-92,-106l63,0 z M201,267l31,100C255,440 276,512 297,588l4,0C322,512 343,440 366,367l31,-100 z M480,0l88,0l-221,656l-94,0l-221,-656l85,0l63,200l238,0z"/>
<glyph unicode="&#x1EAA;" horiz-adv-x="600" d="M390,938C386,910 371,896 351,896C319,896 297,938 246,938C200,938 173,900 168,848l42,0C214,876 229,890 249,890C281,890 303,848 354,848C400,848 427,885 432,938 z M264,812l-92,-106l63,0l63,62l4,0l63,-62l63,0l-92,106 z M201,267l31,100C255,440 276,512 297,588l4,0C322,512 343,440 366,367l31,-100 z M480,0l88,0l-221,656l-94,0l-221,-656l85,0l63,200l238,0z"/>
<glyph unicode="&#x1EAC;" horiz-adv-x="600" d="M298,774l4,0l67,-68l67,0l-96,112l-80,0l-96,-112l67,0 z M300,-99C263,-99 234,-124 234,-163C234,-201 263,-226 300,-226C337,-226 366,-201 366,-163C366,-124 337,-99 300,-99 z M201,267l31,100C255,440 276,512 297,588l4,0C322,512 343,440 366,367l31,-100 z M568,0l-221,656l-94,0l-221,-656l85,0l63,200l238,0l62,-200z"/>
<glyph unicode="&#x1EAE;" horiz-adv-x="600" d="M407,907l-72,0l-74,-105l49,0 z M377,815C369,781 348,751 300,751C252,751 231,781 223,815l-45,0C185,760 223,708 300,708C377,708 415,760 422,815 z M201,267l31,100C255,440 276,512 297,588l4,0C322,512 343,440 366,367l31,-100 z M480,0l88,0l-221,656l-94,0l-221,-656l85,0l63,200l238,0z"/>
<glyph unicode="&#x1EB0;" horiz-adv-x="600" d="M339,802l-74,105l-72,0l97,-105 z M377,815C369,781 348,751 300,751C252,751 231,781 223,815l-45,0C185,760 223,708 300,708C377,708 415,760 422,815 z M201,267l31,100C255,440 276,512 297,588l4,0C322,512 343,440 366,367l31,-100 z M480,0l88,0l-221,656l-94,0l-221,-656l85,0l63,200l238,0z"/>
<glyph unicode="&#x1EB2;" horiz-adv-x="600" d="M277,800C325,808 370,828 370,879C370,926 327,949 249,952l-8,-42C290,907 311,897 311,871C311,850 291,841 267,835 z M377,815C369,781 348,751 300,751C252,751 231,781 223,815l-45,0C185,760 223,708 300,708C377,708 415,760 422,815 z M201,267l31,100C255,440 276,512 297,588l4,0C322,512 343,440 366,367l31,-100 z M480,0l88,0l-221,656l-94,0l-221,-656l85,0l63,200l238,0z"/>
<glyph unicode="&#x1EB4;" horiz-adv-x="600" d="M389,939C384,911 369,894 349,894C317,894 292,939 246,939C200,939 171,899 167,846l42,0C213,874 229,891 249,891C281,891 305,846 352,846C398,846 426,887 431,939 z M178,815C185,760 223,708 300,708C377,708 415,760 422,815l-45,0C369,781 348,751 300,751C252,751 231,781 223,815 z M201,267l31,100C255,440 276,512 297,588l4,0C322,512 343,440 366,367l31,-100 z M480,0l88,0l-221,656l-94,0l-221,-656l85,0l63,200l238,0z"/>
<glyph unicode="&#x1EB6;" horiz-adv-x="600" d="M373,818C367,786 345,755 300,755C255,755 233,786 227,818l-50,0C184,762 220,708 300,708C380,708 416,762 423,818 z M300,-99C263,-99 234,-124 234,-163C234,-201 263,-226 300,-226C337,-226 366,-201 366,-163C366,-124 337,-99 300,-99 z M201,267l31,100C255,440 276,512 297,588l4,0C322,512 343,440 366,367l31,-100 z M568,0l-221,656l-94,0l-221,-656l85,0l63,200l238,0l62,-200z"/>
<glyph unicode="&#x104;" horiz-adv-x="600" d="M201,267l31,100C255,440 276,512 297,588l4,0C322,512 343,440 366,367l31,-100 z M576,-139C564,-148 551,-153 534,-153C511,-153 488,-138 488,-107C488,-65 522,-19 568,0l-221,656l-94,0l-221,-656l85,0l63,200l238,0l62,-200l19,0C464,-23 424,-71 424,-125C424,-182 466,-212 519,-212C546,-212 580,-199 599,-184z"/>
<glyph unicode="&#xC6;" horiz-adv-x="600" d="M185,258l46,119C258,448 287,518 314,590l3,0l0,-332 z M393,71l0,239l147,0l0,71l-147,0l0,205l189,0l0,70l-323,0l-260,-656l87,0l73,191l158,0l0,-191l274,0l0,71z"/>
<glyph unicode="&#x243;" horiz-adv-x="600" d="M187,63l0,114l143,0l0,47l-143,0l0,101l107,0C409,325 473,286 473,200C473,107 406,63 294,63 z M187,594l94,0C382,594 435,564 435,492C435,418 388,380 277,380l-90,0 z M401,360C479,380 516,434 516,498C516,610 425,656 291,656l-187,0l0,-432l-77,-5l0,-42l77,0l0,-177l202,0C453,0 553,64 553,196C553,288 497,341 401,356z"/>
<glyph unicode="&#xC7;" horiz-adv-x="600" d="M506,134C464,87 419,61 359,61C233,61 152,165 152,330C152,493 233,595 359,595C414,595 457,571 491,535l47,53C500,630 438,668 359,668C188,668 66,539 66,328C66,131 170,9 316,-10l-34,-65C323,-85 346,-98 346,-124C346,-151 309,-165 257,-172l8,-41C341,-206 410,-179 410,-121C410,-80 383,-61 350,-50l19,38C446,-8 505,27 554,83z"/>
<glyph unicode="&#x106;" horiz-adv-x="600" d="M66,328C66,114 189,-12 354,-12C438,-12 502,23 554,83l-48,51C464,87 419,61 359,61C233,61 152,165 152,330C152,493 233,595 359,595C414,595 457,571 491,535l47,53C500,630 438,668 359,668C188,668 66,539 66,328 z M478,818l-94,0l-88,-112l69,0z"/>
<glyph unicode="&#x108;" horiz-adv-x="600" d="M66,328C66,114 189,-12 354,-12C438,-12 502,23 554,83l-48,51C464,87 419,61 359,61C233,61 152,165 152,330C152,493 233,595 359,595C414,595 457,571 491,535l47,53C500,630 438,668 359,668C188,668 66,539 66,328 z M278,706l67,68l4,0l67,-68l67,0l-96,112l-80,0l-96,-112z"/>
<glyph unicode="&#x10C;" horiz-adv-x="600" d="M66,328C66,114 189,-12 354,-12C438,-12 502,23 554,83l-48,51C464,87 419,61 359,61C233,61 152,165 152,330C152,493 233,595 359,595C414,595 457,571 491,535l47,53C500,630 438,668 359,668C188,668 66,539 66,328 z M416,818l-67,-68l-4,0l-67,68l-67,0l96,-112l80,0l96,112z"/>
<glyph unicode="&#x10A;" horiz-adv-x="600" d="M66,328C66,114 189,-12 354,-12C438,-12 502,23 554,83l-48,51C464,87 419,61 359,61C233,61 152,165 152,330C152,493 233,595 359,595C414,595 457,571 491,535l47,53C500,630 438,668 359,668C188,668 66,539 66,328 z M347,714C379,714 404,736 404,768C404,799 379,821 347,821C315,821 290,799 290,768C290,736 315,714 347,714z"/>
<glyph unicode="&#x10E;" horiz-adv-x="600" d="M85,0l164,0C443,0 549,122 549,331C549,539 443,656 245,656l-160,0 z M168,68l0,520l72,0C389,588 463,496 463,331C463,165 389,68 240,68 z M367,818l-66,-68l-4,0l-67,68l-67,0l96,-112l79,0l96,112z"/>
<glyph unicode="&#x1E0C;" horiz-adv-x="600" d="M85,0l164,0C443,0 549,122 549,331C549,539 443,656 245,656l-160,0 z M168,68l0,520l72,0C389,588 463,496 463,331C463,165 389,68 240,68 z M290,-226C327,-226 356,-201 356,-163C356,-124 327,-99 290,-99C253,-99 224,-124 224,-163C224,-201 253,-226 290,-226z"/>
<glyph unicode="&#x1E0E;" horiz-adv-x="600" d="M85,0l164,0C443,0 549,122 549,331C549,539 443,656 245,656l-160,0 z M168,68l0,520l72,0C389,588 463,496 463,331C463,165 389,68 240,68 z M413,-113l-247,0l0,-58l247,0z"/>
<glyph unicode="&#x110;" horiz-adv-x="600" d="M91,0l164,0C448,0 555,122 555,331C555,539 448,656 252,656l-161,0l0,-288l-75,-5l0,-42l75,0 z M174,68l0,253l143,0l0,47l-143,0l0,220l72,0C395,588 469,496 469,331C469,165 395,68 246,68z"/>
<glyph unicode="&#xC8;" horiz-adv-x="600" d="M115,0l415,0l0,71l-331,0l0,238l271,0l0,71l-271,0l0,206l321,0l0,70l-405,0 z M313,706l69,0l-88,112l-94,0z"/>
<glyph unicode="&#xC9;" horiz-adv-x="600" d="M115,0l415,0l0,71l-331,0l0,238l271,0l0,71l-271,0l0,206l321,0l0,70l-405,0 z M462,818l-94,0l-88,-112l69,0z"/>
<glyph unicode="&#xCA;" horiz-adv-x="600" d="M115,0l415,0l0,71l-331,0l0,238l271,0l0,71l-271,0l0,206l321,0l0,70l-405,0 z M262,706l67,68l4,0l67,-68l66,0l-96,112l-79,0l-96,-112z"/>
<glyph unicode="&#x11A;" horiz-adv-x="600" d="M115,0l415,0l0,71l-331,0l0,238l271,0l0,71l-271,0l0,206l321,0l0,70l-405,0 z M400,818l-67,-68l-4,0l-67,68l-67,0l96,-112l79,0l96,112z"/>
<glyph unicode="&#xCB;" horiz-adv-x="600" d="M115,0l415,0l0,71l-331,0l0,238l271,0l0,71l-271,0l0,206l321,0l0,70l-405,0 z M244,715C273,715 293,736 293,764C293,793 273,813 244,813C216,813 195,793 195,764C195,736 216,715 244,715 z M417,715C445,715 466,736 466,764C466,793 445,813 417,813C389,813 368,793 368,764C368,736 389,715 417,715z"/>
<glyph unicode="&#x112;" horiz-adv-x="600" d="M115,0l415,0l0,71l-331,0l0,238l271,0l0,71l-271,0l0,206l321,0l0,70l-405,0 z M207,729l248,0l0,57l-248,0z"/>
<glyph unicode="&#x114;" horiz-adv-x="600" d="M115,0l415,0l0,71l-331,0l0,238l271,0l0,71l-271,0l0,206l321,0l0,70l-405,0 z M331,708C411,708 447,762 454,818l-51,0C397,786 376,755 331,755C285,755 264,786 258,818l-50,0C214,762 251,708 331,708z"/>
<glyph unicode="&#x116;" horiz-adv-x="600" d="M115,0l415,0l0,71l-331,0l0,238l271,0l0,71l-271,0l0,206l321,0l0,70l-405,0 z M331,714C363,714 387,736 387,768C387,799 363,821 331,821C299,821 274,799 274,768C274,736 299,714 331,714z"/>
<glyph unicode="&#x1EB8;" horiz-adv-x="600" d="M115,0l415,0l0,71l-331,0l0,238l271,0l0,71l-271,0l0,206l321,0l0,70l-405,0 z M332,-226C370,-226 398,-201 398,-163C398,-124 370,-99 332,-99C295,-99 267,-124 267,-163C267,-201 295,-226 332,-226z"/>
<glyph unicode="&#x1EBA;" horiz-adv-x="600" d="M115,0l415,0l0,71l-331,0l0,238l271,0l0,71l-271,0l0,206l321,0l0,70l-405,0 z M303,698C361,708 414,733 414,791C414,842 363,869 275,872l-8,-48C322,822 350,808 350,782C350,757 325,745 293,736z"/>
<glyph unicode="&#x1EBC;" horiz-adv-x="600" d="M115,0l415,0l0,71l-331,0l0,238l271,0l0,71l-271,0l0,206l321,0l0,70l-405,0 z M391,711C439,711 470,758 475,819l-45,0C424,786 409,767 389,767C352,767 323,819 270,819C223,819 192,773 186,711l46,0C237,745 252,763 272,763C309,763 338,711 391,711z"/>
<glyph unicode="&#x1EBE;" horiz-adv-x="600" d="M115,0l415,0l0,71l-331,0l0,238l271,0l0,71l-271,0l0,206l321,0l0,70l-405,0 z M422,770l52,0l90,111l-72,0 z M202,706l63,0l64,62l4,0l63,-62l63,0l-92,106l-72,0z"/>
<glyph unicode="&#x1EC0;" horiz-adv-x="600" d="M115,0l415,0l0,71l-331,0l0,238l271,0l0,71l-271,0l0,206l321,0l0,70l-405,0 z M444,881l-72,0l91,-111l51,0 z M202,706l63,0l64,62l4,0l63,-62l63,0l-92,106l-72,0z"/>
<glyph unicode="&#x1EC2;" horiz-adv-x="600" d="M115,0l415,0l0,71l-331,0l0,238l271,0l0,71l-271,0l0,206l321,0l0,70l-405,0 z M446,754C493,762 538,782 538,833C538,879 495,903 417,906l-8,-42C458,861 479,851 479,825C479,804 460,795 435,789 z M202,706l63,0l64,62l4,0l63,-62l63,0l-92,106l-72,0z"/>
<glyph unicode="&#x1EC4;" horiz-adv-x="600" d="M115,0l415,0l0,71l-331,0l0,238l271,0l0,71l-271,0l0,206l321,0l0,70l-405,0 z M202,706l63,0l64,62l4,0l63,-62l63,0l-92,106l-72,0 z M240,848C245,876 260,890 279,890C312,890 334,848 384,848C430,848 458,885 463,938l-42,0C416,910 402,896 382,896C350,896 327,938 277,938C231,938 204,900 199,848z"/>
<glyph unicode="&#x1EC6;" horiz-adv-x="600" d="M115,0l415,0l0,71l-331,0l0,238l271,0l0,71l-271,0l0,206l321,0l0,70l-405,0 z M262,706l67,68l4,0l67,-68l66,0l-96,112l-79,0l-96,-112 z M332,-226C370,-226 398,-201 398,-163C398,-124 370,-99 332,-99C295,-99 267,-124 267,-163C267,-201 295,-226 332,-226z"/>
<glyph unicode="&#x118;" horiz-adv-x="600" d="M115,0l330,0C408,-24 370,-70 370,-125C370,-182 413,-212 465,-212C492,-212 526,-199 545,-184l-22,45C510,-148 498,-153 482,-153C458,-153 435,-138 435,-107C435,-54 481,-6 526,0l4,0l0,71l-331,0l0,238l271,0l0,71l-271,0l0,206l321,0l0,70l-405,0z"/>
<glyph unicode="&#x11C;" horiz-adv-x="600" d="M53,328C53,114 172,-12 337,-12C422,-12 491,22 533,64l0,276l-208,0l0,-69l131,0l0,-171C431,76 388,61 342,61C213,61 140,165 140,330C140,493 221,595 344,595C407,595 446,569 478,535l47,53C488,627 431,668 344,668C174,668 53,540 53,328 z M262,706l67,68l4,0l67,-68l67,0l-96,112l-79,0l-96,-112z"/>
<glyph unicode="&#x11E;" horiz-adv-x="600" d="M53,328C53,114 172,-12 337,-12C422,-12 491,22 533,64l0,276l-208,0l0,-69l131,0l0,-171C431,76 388,61 342,61C213,61 140,165 140,330C140,493 221,595 344,595C407,595 446,569 478,535l47,53C488,627 431,668 344,668C174,668 53,540 53,328 z M331,708C411,708 448,762 454,818l-50,0C398,786 376,755 331,755C286,755 265,786 259,818l-51,0C215,762 251,708 331,708z"/>
<glyph unicode="&#x120;" horiz-adv-x="600" d="M53,328C53,114 172,-12 337,-12C422,-12 491,22 533,64l0,276l-208,0l0,-69l131,0l0,-171C431,76 388,61 342,61C213,61 140,165 140,330C140,493 221,595 344,595C407,595 446,569 478,535l47,53C488,627 431,668 344,668C174,668 53,540 53,328 z M331,714C363,714 388,736 388,768C388,799 363,821 331,821C299,821 274,799 274,768C274,736 299,714 331,714z"/>
<glyph unicode="&#x122;" horiz-adv-x="600" d="M53,328C53,114 172,-12 337,-12C422,-12 491,22 533,64l0,276l-208,0l0,-69l131,0l0,-171C431,76 388,61 342,61C213,61 140,165 140,330C140,493 221,595 344,595C407,595 446,569 478,535l47,53C488,627 431,668 344,668C174,668 53,540 53,328 z M306,-48l-18,-38C317,-93 339,-104 339,-130C339,-156 303,-169 251,-176l8,-40C334,-210 403,-183 403,-125C403,-80 374,-58 306,-48z"/>
<glyph unicode="&#x1E6;" horiz-adv-x="600" d="M53,328C53,114 172,-12 337,-12C422,-12 491,22 533,64l0,276l-208,0l0,-69l131,0l0,-171C431,76 388,61 342,61C213,61 140,165 140,330C140,493 221,595 344,595C407,595 446,569 478,535l47,53C488,627 431,668 344,668C174,668 53,540 53,328 z M400,818l-67,-68l-4,0l-67,68l-66,0l96,-112l79,0l96,112z"/>
<glyph unicode="&#x1E20;" horiz-adv-x="600" d="M53,328C53,114 172,-12 337,-12C422,-12 491,22 533,64l0,276l-208,0l0,-69l131,0l0,-171C431,76 388,61 342,61C213,61 140,165 140,330C140,493 221,595 344,595C407,595 446,569 478,535l47,53C488,627 431,668 344,668C174,668 53,540 53,328 z M207,729l248,0l0,57l-248,0z"/>
<glyph unicode="&#xE000;" horiz-adv-x="600" d="M53,328C53,114 172,-12 337,-12C422,-12 491,22 533,64l0,276l-208,0l0,-69l131,0l0,-171C431,76 388,61 342,61C213,61 140,165 140,330C140,493 221,595 344,595C407,595 446,569 478,535l47,53C488,627 431,668 344,668C174,668 53,540 53,328 z M391,711C439,711 470,758 476,819l-46,0C425,786 410,767 390,767C353,767 324,819 271,819C223,819 192,773 187,711l45,0C238,745 253,763 273,763C310,763 339,711 391,711z"/>
<glyph unicode="&#x124;" horiz-adv-x="600" d="M79,0l84,0l0,309l274,0l0,-309l84,0l0,656l-84,0l0,-275l-274,0l0,275l-84,0 z M231,706l67,68l4,0l67,-68l66,0l-96,112l-79,0l-96,-112z"/>
<glyph unicode="&#x1E24;" horiz-adv-x="600" d="M79,0l84,0l0,309l274,0l0,-309l84,0l0,656l-84,0l0,-275l-274,0l0,275l-84,0 z M300,-226C337,-226 365,-201 365,-163C365,-124 337,-99 300,-99C262,-99 234,-124 234,-163C234,-201 262,-226 300,-226z"/>
<glyph unicode="&#x1E2A;" horiz-adv-x="600" d="M79,0l84,0l0,309l274,0l0,-309l84,0l0,656l-84,0l0,-275l-274,0l0,275l-84,0 z M300,-206C386,-206 421,-138 426,-79l-51,0C370,-118 346,-155 300,-155C253,-155 230,-118 224,-79l-51,0C178,-138 214,-206 300,-206z"/>
<glyph unicode="&#x126;" horiz-adv-x="600" d="M437,381l-274,0l0,111l274,0 z M590,539l-69,0l0,117l-84,0l0,-117l-274,0l0,117l-84,0l0,-117l-69,-5l0,-42l69,0l0,-492l84,0l0,309l274,0l0,-309l84,0l0,492l69,0z"/>
<glyph unicode="&#xCC;" horiz-adv-x="600" d="M95,0l410,0l0,71l-163,0l0,515l163,0l0,70l-410,0l0,-70l163,0l0,-515l-163,0 z M282,706l69,0l-88,112l-94,0z"/>
<glyph unicode="&#xCD;" horiz-adv-x="600" d="M95,0l410,0l0,71l-163,0l0,515l163,0l0,70l-410,0l0,-70l163,0l0,-515l-163,0 z M431,818l-94,0l-88,-112l69,0z"/>
<glyph unicode="&#xCE;" horiz-adv-x="600" d="M95,0l410,0l0,71l-163,0l0,515l163,0l0,70l-410,0l0,-70l163,0l0,-515l-163,0 z M231,706l67,68l4,0l67,-68l67,0l-96,112l-80,0l-96,-112z"/>
<glyph unicode="&#x128;" horiz-adv-x="600" d="M95,0l410,0l0,71l-163,0l0,515l163,0l0,70l-410,0l0,-70l163,0l0,-515l-163,0 z M360,711C408,711 439,758 445,819l-46,0C394,786 378,767 359,767C322,767 293,819 240,819C192,819 161,773 155,711l46,0C206,745 222,763 241,763C278,763 307,711 360,711z"/>
<glyph unicode="&#xCF;" horiz-adv-x="600" d="M95,0l410,0l0,71l-163,0l0,515l163,0l0,70l-410,0l0,-70l163,0l0,-515l-163,0 z M214,715C242,715 263,736 263,764C263,793 242,813 214,813C185,813 165,793 165,764C165,736 185,715 214,715 z M386,715C415,715 435,736 435,764C435,793 415,813 386,813C358,813 337,793 337,764C337,736 358,715 386,715z"/>
<glyph unicode="&#x12A;" horiz-adv-x="600" d="M95,0l410,0l0,71l-163,0l0,515l163,0l0,70l-410,0l0,-70l163,0l0,-515l-163,0 z M176,729l248,0l0,57l-248,0z"/>
<glyph unicode="&#x12C;" horiz-adv-x="600" d="M95,0l410,0l0,71l-163,0l0,515l163,0l0,70l-410,0l0,-70l163,0l0,-515l-163,0 z M300,708C380,708 416,762 423,818l-50,0C367,786 345,755 300,755C255,755 233,786 227,818l-50,0C184,762 220,708 300,708z"/>
<glyph unicode="&#x130;" horiz-adv-x="600" d="M95,0l410,0l0,71l-163,0l0,515l163,0l0,70l-410,0l0,-70l163,0l0,-515l-163,0 z M300,714C332,714 357,736 357,768C357,799 332,821 300,821C268,821 243,799 243,768C243,736 268,714 300,714z"/>
<glyph unicode="&#x1CF;" horiz-adv-x="600" d="M95,0l410,0l0,71l-163,0l0,515l163,0l0,70l-410,0l0,-70l163,0l0,-515l-163,0 z M369,818l-67,-68l-4,0l-67,68l-67,0l96,-112l80,0l96,112z"/>
<glyph unicode="&#x1EC8;" horiz-adv-x="600" d="M95,0l410,0l0,71l-163,0l0,515l163,0l0,70l-410,0l0,-70l163,0l0,-515l-163,0 z M272,698C330,708 383,733 383,791C383,842 332,869 245,872l-9,-48C291,822 319,808 319,782C319,757 295,745 263,736z"/>
<glyph unicode="&#x1ECA;" horiz-adv-x="600" d="M95,0l410,0l0,71l-163,0l0,515l163,0l0,70l-410,0l0,-70l163,0l0,-515l-163,0 z M301,-226C338,-226 366,-201 366,-163C366,-124 338,-99 301,-99C263,-99 235,-124 235,-163C235,-201 263,-226 301,-226z"/>
<glyph unicode="&#x12E;" horiz-adv-x="600" d="M95,0l183,0C246,-29 212,-68 212,-125C212,-182 254,-212 307,-212C334,-212 368,-199 387,-184l-23,45C353,-148 340,-153 324,-153C300,-153 276,-138 276,-107C276,-66 300,-32 342,0l163,0l0,71l-163,0l0,515l163,0l0,70l-410,0l0,-70l163,0l0,-515l-163,0z"/>
<glyph unicode="&#x134;" horiz-adv-x="600" d="M81,97C126,21 202,-12 276,-12C439,-12 493,88 493,210l0,447l-358,0l0,-70l275,0l0,-370C410,109 368,61 274,61C223,61 173,89 135,147 z M252,706l67,68l4,0l67,-68l66,0l-96,112l-79,0l-96,-112z"/>
<glyph unicode="&#x136;" horiz-adv-x="600" d="M98,0l84,0l0,208l114,133l190,-341l93,0l-231,406l207,250l-94,0l-276,-329l-3,0l0,329l-84,0 z M308,-48l-18,-38C319,-93 342,-104 342,-130C342,-156 305,-169 253,-176l8,-40C337,-210 406,-183 406,-125C406,-80 376,-58 308,-48z"/>
<glyph unicode="&#x139;" horiz-adv-x="600" d="M134,0l407,0l0,71l-325,0l0,585l-82,0 z M321,818l-94,0l-88,-112l69,0z"/>
<glyph unicode="&#x13D;" horiz-adv-x="600" d="M134,0l407,0l0,71l-325,0l0,585l-82,0 z M430,514l14,155l1,57l-59,0l3,-212z"/>
<glyph unicode="&#x13B;" horiz-adv-x="600" d="M134,0l407,0l0,71l-325,0l0,585l-82,0 z M317,-48l-18,-38C328,-93 350,-104 350,-130C350,-156 314,-169 262,-176l8,-40C345,-210 414,-183 414,-125C414,-80 385,-58 317,-48z"/>
<glyph unicode="&#x13F;" horiz-adv-x="600" d="M134,0l407,0l0,71l-325,0l0,585l-82,0 z M430,284C468,284 496,309 496,347C496,386 468,411 430,411C393,411 365,386 365,347C365,309 393,284 430,284z"/>
<glyph unicode="&#x1E36;" horiz-adv-x="600" d="M134,0l407,0l0,71l-325,0l0,585l-82,0 z M346,-226C384,-226 412,-201 412,-163C412,-124 384,-99 346,-99C309,-99 280,-124 280,-163C280,-201 309,-226 346,-226z"/>
<glyph unicode="&#x1E38;" horiz-adv-x="600" d="M134,0l407,0l0,71l-325,0l0,585l-82,0 z M66,729l248,0l0,57l-248,0 z M346,-226C384,-226 412,-201 412,-163C412,-124 384,-99 346,-99C309,-99 280,-124 280,-163C280,-201 309,-226 346,-226z"/>
<glyph unicode="&#x1E3A;" horiz-adv-x="600" d="M134,0l407,0l0,71l-325,0l0,585l-82,0 z M469,-113l-247,0l0,-58l247,0z"/>
<glyph unicode="&#x141;" horiz-adv-x="600" d="M216,71l0,196l226,120l0,68l-226,-120l0,321l-82,0l0,-361l-81,-44l0,-67l81,43l0,-227l407,0l0,71z"/>
<glyph unicode="&#x1E42;" horiz-adv-x="600" d="M81,0l70,0l0,369C151,423 144,518 140,571l3,0l44,-140l90,-253l45,0l90,253l43,140l3,0C454,518 448,423 448,369l0,-369l71,0l0,656l-92,0l-92,-279l-32,-106l-4,0l-33,106l-93,279l-92,0 z M300,-226C337,-226 366,-201 366,-163C366,-124 337,-99 300,-99C263,-99 234,-124 234,-163C234,-201 263,-226 300,-226z"/>
<glyph unicode="&#x143;" horiz-adv-x="600" d="M83,0l79,0l0,343C162,411 154,481 151,548l2,0l66,-134l213,-414l85,0l0,656l-79,0l0,-340C438,247 446,173 449,108l-2,0l-66,134l-213,414l-85,0 z M437,818l-94,0l-88,-112l69,0z"/>
<glyph unicode="&#x147;" horiz-adv-x="600" d="M83,0l79,0l0,343C162,411 154,481 151,548l2,0l66,-134l213,-414l85,0l0,656l-79,0l0,-340C438,247 446,173 449,108l-2,0l-66,134l-213,414l-85,0 z M375,818l-67,-68l-4,0l-67,68l-67,0l96,-112l80,0l96,112z"/>
<glyph unicode="&#xD1;" horiz-adv-x="600" d="M83,0l79,0l0,343C162,411 154,481 151,548l2,0l66,-134l213,-414l85,0l0,656l-79,0l0,-340C438,247 446,173 449,108l-2,0l-66,134l-213,414l-85,0 z M366,711C414,711 445,758 451,819l-46,0C400,786 384,767 365,767C328,767 299,819 246,819C198,819 167,773 161,711l46,0C212,745 228,763 247,763C284,763 313,711 366,711z"/>
<glyph unicode="&#x145;" horiz-adv-x="600" d="M83,0l79,0l0,343C162,411 154,481 151,548l2,0l66,-134l213,-414l85,0l0,656l-79,0l0,-340C438,247 446,173 449,108l-2,0l-66,134l-213,414l-85,0 z M271,-48l-18,-38C281,-93 304,-104 304,-130C304,-156 268,-169 215,-176l8,-40C299,-210 368,-183 368,-125C368,-80 339,-58 271,-48z"/>
<glyph unicode="&#x1E44;" horiz-adv-x="600" d="M83,0l79,0l0,343C162,411 154,481 151,548l2,0l66,-134l213,-414l85,0l0,656l-79,0l0,-340C438,247 446,173 449,108l-2,0l-66,134l-213,414l-85,0 z M306,714C338,714 363,736 363,768C363,799 338,821 306,821C274,821 249,799 249,768C249,736 274,714 306,714z"/>
<glyph unicode="&#x1E46;" horiz-adv-x="600" d="M83,0l79,0l0,343C162,411 154,481 151,548l2,0l66,-134l213,-414l85,0l0,656l-79,0l0,-340C438,247 446,173 449,108l-2,0l-66,134l-213,414l-85,0 z M300,-226C337,-226 366,-201 366,-163C366,-124 337,-99 300,-99C263,-99 234,-124 234,-163C234,-201 263,-226 300,-226z"/>
<glyph unicode="&#x1E48;" horiz-adv-x="600" d="M83,0l79,0l0,343C162,411 154,481 151,548l2,0l66,-134l213,-414l85,0l0,656l-79,0l0,-340C438,247 446,173 449,108l-2,0l-66,134l-213,414l-85,0 z M423,-113l-247,0l0,-58l247,0z"/>
<glyph unicode="&#xD2;" horiz-adv-x="600" d="M300,-12C448,-12 552,120 552,331C552,540 448,668 300,668C152,668 48,541 48,331C48,120 152,-12 300,-12 z M300,61C200,61 134,167 134,331C134,494 200,595 300,595C400,595 466,494 466,331C466,167 400,61 300,61 z M282,706l69,0l-88,112l-94,0z"/>
<glyph unicode="&#xD3;" horiz-adv-x="600" d="M300,-12C448,-12 552,120 552,331C552,540 448,668 300,668C152,668 48,541 48,331C48,120 152,-12 300,-12 z M300,61C200,61 134,167 134,331C134,494 200,595 300,595C400,595 466,494 466,331C466,167 400,61 300,61 z M431,818l-94,0l-88,-112l69,0z"/>
<glyph unicode="&#xD4;" horiz-adv-x="600" d="M300,-12C448,-12 552,120 552,331C552,540 448,668 300,668C152,668 48,541 48,331C48,120 152,-12 300,-12 z M300,61C200,61 134,167 134,331C134,494 200,595 300,595C400,595 466,494 466,331C466,167 400,61 300,61 z M231,706l67,68l4,0l67,-68l67,0l-96,112l-80,0l-96,-112z"/>
<glyph unicode="&#xD5;" horiz-adv-x="600" d="M300,-12C448,-12 552,120 552,331C552,540 448,668 300,668C152,668 48,541 48,331C48,120 152,-12 300,-12 z M300,61C200,61 134,167 134,331C134,494 200,595 300,595C400,595 466,494 466,331C466,167 400,61 300,61 z M360,711C408,711 439,758 445,819l-46,0C394,786 378,767 359,767C322,767 293,819 240,819C192,819 161,773 155,711l46,0C206,745 222,763 241,763C278,763 307,711 360,711z"/>
<glyph unicode="&#xD6;" horiz-adv-x="600" d="M300,-12C448,-12 552,120 552,331C552,540 448,668 300,668C152,668 48,541 48,331C48,120 152,-12 300,-12 z M300,61C200,61 134,167 134,331C134,494 200,595 300,595C400,595 466,494 466,331C466,167 400,61 300,61 z M214,715C242,715 263,736 263,764C263,793 242,813 214,813C185,813 165,793 165,764C165,736 185,715 214,715 z M386,715C415,715 435,736 435,764C435,793 415,813 386,813C358,813 337,793 337,764C337,736 358,715 386,715z"/>
<glyph unicode="&#x14C;" horiz-adv-x="600" d="M300,-12C448,-12 552,120 552,331C552,540 448,668 300,668C152,668 48,541 48,331C48,120 152,-12 300,-12 z M300,61C200,61 134,167 134,331C134,494 200,595 300,595C400,595 466,494 466,331C466,167 400,61 300,61 z M176,729l248,0l0,57l-248,0z"/>
<glyph unicode="&#x14E;" horiz-adv-x="600" d="M300,-12C448,-12 552,120 552,331C552,540 448,668 300,668C152,668 48,541 48,331C48,120 152,-12 300,-12 z M300,61C200,61 134,167 134,331C134,494 200,595 300,595C400,595 466,494 466,331C466,167 400,61 300,61 z M300,708C380,708 416,762 423,818l-50,0C367,786 345,755 300,755C255,755 233,786 227,818l-50,0C184,762 220,708 300,708z"/>
<glyph unicode="&#x150;" horiz-adv-x="600" d="M300,-12C448,-12 552,120 552,331C552,540 448,668 300,668C152,668 48,541 48,331C48,120 152,-12 300,-12 z M300,61C200,61 134,167 134,331C134,494 200,595 300,595C400,595 466,494 466,331C466,167 400,61 300,61 z M251,706l83,112l-77,0l-66,-112 z M349,706l59,0l84,112l-77,0z"/>
<glyph unicode="&#x1D1;" horiz-adv-x="600" d="M300,-12C448,-12 552,120 552,331C552,540 448,668 300,668C152,668 48,541 48,331C48,120 152,-12 300,-12 z M300,61C200,61 134,167 134,331C134,494 200,595 300,595C400,595 466,494 466,331C466,167 400,61 300,61 z M369,818l-67,-68l-4,0l-67,68l-67,0l96,-112l80,0l96,112z"/>
<glyph unicode="&#x1ECC;" horiz-adv-x="600" d="M300,-12C448,-12 552,120 552,331C552,540 448,668 300,668C152,668 48,541 48,331C48,120 152,-12 300,-12 z M300,61C200,61 134,167 134,331C134,494 200,595 300,595C400,595 466,494 466,331C466,167 400,61 300,61 z M300,-226C337,-226 366,-201 366,-163C366,-124 337,-99 300,-99C263,-99 234,-124 234,-163C234,-201 263,-226 300,-226z"/>
<glyph unicode="&#x1ECE;" horiz-adv-x="600" d="M300,-12C448,-12 552,120 552,331C552,540 448,668 300,668C152,668 48,541 48,331C48,120 152,-12 300,-12 z M300,61C200,61 134,167 134,331C134,494 200,595 300,595C400,595 466,494 466,331C466,167 400,61 300,61 z M272,698C330,708 383,733 383,791C383,842 332,869 245,872l-9,-48C291,822 319,808 319,782C319,757 295,745 263,736z"/>
<glyph unicode="&#x1ED0;" horiz-adv-x="600" d="M300,-12C448,-12 552,120 552,331C552,540 448,668 300,668C152,668 48,541 48,331C48,120 152,-12 300,-12 z M300,61C200,61 134,167 134,331C134,494 200,595 300,595C400,595 466,494 466,331C466,167 400,61 300,61 z M391,770l52,0l91,111l-72,0 z M172,706l63,0l63,62l4,0l63,-62l63,0l-92,106l-72,0z"/>
<glyph unicode="&#x1ED2;" horiz-adv-x="600" d="M300,-12C448,-12 552,120 552,331C552,540 448,668 300,668C152,668 48,541 48,331C48,120 152,-12 300,-12 z M300,61C200,61 134,167 134,331C134,494 200,595 300,595C400,595 466,494 466,331C466,167 400,61 300,61 z M413,881l-72,0l91,-111l52,0 z M172,706l63,0l63,62l4,0l63,-62l63,0l-92,106l-72,0z"/>
<glyph unicode="&#x1ED4;" horiz-adv-x="600" d="M300,-12C448,-12 552,120 552,331C552,540 448,668 300,668C152,668 48,541 48,331C48,120 152,-12 300,-12 z M300,61C200,61 134,167 134,331C134,494 200,595 300,595C400,595 466,494 466,331C466,167 400,61 300,61 z M415,754C463,762 507,782 507,833C507,879 465,903 387,906l-9,-42C428,861 449,851 449,825C449,804 429,795 404,789 z M172,706l63,0l63,62l4,0l63,-62l63,0l-92,106l-72,0z"/>
<glyph unicode="&#x1ED6;" horiz-adv-x="600" d="M300,-12C448,-12 552,120 552,331C552,540 448,668 300,668C152,668 48,541 48,331C48,120 152,-12 300,-12 z M300,61C200,61 134,167 134,331C134,494 200,595 300,595C400,595 466,494 466,331C466,167 400,61 300,61 z M172,706l63,0l63,62l4,0l63,-62l63,0l-92,106l-72,0 z M210,848C214,876 229,890 249,890C281,890 303,848 354,848C400,848 427,885 432,938l-42,0C386,910 371,896 351,896C319,896 297,938 246,938C200,938 173,900 168,848z"/>
<glyph unicode="&#x1ED8;" horiz-adv-x="600" d="M300,-12C448,-12 552,120 552,331C552,540 448,668 300,668C152,668 48,541 48,331C48,120 152,-12 300,-12 z M300,61C200,61 134,167 134,331C134,494 200,595 300,595C400,595 466,494 466,331C466,167 400,61 300,61 z M231,706l67,68l4,0l67,-68l67,0l-96,112l-80,0l-96,-112 z M300,-226C337,-226 366,-201 366,-163C366,-124 337,-99 300,-99C263,-99 234,-124 234,-163C234,-201 263,-226 300,-226z"/>
<glyph unicode="&#xD8;" horiz-adv-x="600" d="M441,484C457,443 466,391 466,331C466,167 400,61 300,61C257,61 220,81 192,116 z M161,172C143,215 134,269 134,331C134,494 200,595 300,595C344,595 382,575 410,540 z M556,654l-47,32l-54,-79C414,647 361,668 300,668C152,668 48,541 48,331C48,234 70,154 108,95l-63,-93l48,-32l53,79C188,9 240,-12 300,-12C448,-12 552,120 552,331C552,426 531,504 493,561z"/>
<glyph unicode="&#x152;" horiz-adv-x="600" d="M33,331C33,122 132,0 296,0l295,0l0,71l-204,0l0,238l148,0l0,71l-148,0l0,207l194,0l0,70l-282,0C133,657 33,540 33,331 z M119,331C119,498 175,588 289,588l21,0l0,-520l-21,0C175,68 119,164 119,331z"/>
<glyph unicode="&#x1A0;" horiz-adv-x="600" d="M300,61C200,61 134,167 134,331C134,494 200,595 300,595C400,595 466,494 466,331C466,167 400,61 300,61 z M480,744C489,731 495,718 495,703C495,663 468,645 416,637C382,657 343,668 300,668C152,668 48,541 48,331C48,120 152,-12 300,-12C448,-12 552,120 552,331C552,451 518,545 460,602C520,616 562,649 562,708C562,733 553,755 539,773z"/>
<glyph unicode="&#x1EDA;" horiz-adv-x="600" d="M431,818l-94,0l-88,-112l69,0 z M300,61C200,61 134,167 134,331C134,494 200,595 300,595C400,595 466,494 466,331C466,167 400,61 300,61 z M480,744C489,731 495,718 495,703C495,663 468,645 416,637C382,657 343,668 300,668C152,668 48,541 48,331C48,120 152,-12 300,-12C448,-12 552,120 552,331C552,451 518,545 460,602C520,616 562,649 562,708C562,733 553,755 539,773z"/>
<glyph unicode="&#x1EDC;" horiz-adv-x="600" d="M351,706l-88,112l-94,0l113,-112 z M300,61C200,61 134,167 134,331C134,494 200,595 300,595C400,595 466,494 466,331C466,167 400,61 300,61 z M480,744C489,731 495,718 495,703C495,663 468,645 416,637C382,657 343,668 300,668C152,668 48,541 48,331C48,120 152,-12 300,-12C448,-12 552,120 552,331C552,451 518,545 460,602C520,616 562,649 562,708C562,733 553,755 539,773z"/>
<glyph unicode="&#x1EDE;" horiz-adv-x="600" d="M272,698C330,708 383,733 383,791C383,842 332,869 245,872l-9,-48C291,822 319,808 319,782C319,757 295,745 263,736 z M300,61C200,61 134,167 134,331C134,494 200,595 300,595C400,595 466,494 466,331C466,167 400,61 300,61 z M480,744C489,731 495,718 495,703C495,663 468,645 416,637C382,657 343,668 300,668C152,668 48,541 48,331C48,120 152,-12 300,-12C448,-12 552,120 552,331C552,451 518,545 460,602C520,616 562,649 562,708C562,733 553,755 539,773z"/>
<glyph unicode="&#x1EE0;" horiz-adv-x="600" d="M399,819C394,786 378,767 359,767C322,767 293,819 240,819C192,819 161,773 155,711l46,0C206,745 222,763 241,763C278,763 307,711 360,711C408,711 439,758 445,819 z M300,61C200,61 134,167 134,331C134,494 200,595 300,595C400,595 466,494 466,331C466,167 400,61 300,61 z M480,744C489,731 495,718 495,703C495,663 468,645 416,637C382,657 343,668 300,668C152,668 48,541 48,331C48,120 152,-12 300,-12C448,-12 552,120 552,331C552,451 518,545 460,602C520,616 562,649 562,708C562,733 553,755 539,773z"/>
<glyph unicode="&#x1EE2;" horiz-adv-x="600" d="M300,-99C263,-99 234,-124 234,-163C234,-201 263,-226 300,-226C337,-226 366,-201 366,-163C366,-124 337,-99 300,-99 z M300,61C200,61 134,167 134,331C134,494 200,595 300,595C400,595 466,494 466,331C466,167 400,61 300,61 z M480,744C489,731 495,718 495,703C495,663 468,645 416,637C382,657 343,668 300,668C152,668 48,541 48,331C48,120 152,-12 300,-12C448,-12 552,120 552,331C552,451 518,545 460,602C520,616 562,649 562,708C562,733 553,755 539,773z"/>
<glyph unicode="&#x1EA;" horiz-adv-x="600" d="M387,-139C375,-148 362,-153 346,-153C323,-153 299,-138 299,-107C299,-71 323,-23 377,0C483,46 552,154 552,331C552,540 448,668 300,668C152,668 48,541 48,331C48,157 124,-6 296,-11C261,-40 234,-81 234,-125C234,-182 277,-212 330,-212C356,-212 390,-199 410,-184 z M300,61C200,61 134,167 134,331C134,494 200,595 300,595C400,595 466,494 466,331C466,167 400,61 300,61z"/>
<glyph unicode="&#x154;" horiz-adv-x="600" d="M436,818l-94,0l-89,-112l69,0 z M183,589l109,0C394,589 450,558 450,472C450,387 394,345 292,345l-109,0 z M553,0l-167,286C475,309 533,370 533,472C533,608 437,656 304,656l-204,0l0,-656l83,0l0,277l117,0l158,-277z"/>
<glyph unicode="&#x158;" horiz-adv-x="600" d="M344,706l96,112l-67,0l-66,-68l-4,0l-67,68l-67,0l96,-112 z M183,589l109,0C394,589 450,558 450,472C450,387 394,345 292,345l-109,0 z M553,0l-167,286C475,309 533,370 533,472C533,608 437,656 304,656l-204,0l0,-656l83,0l0,277l117,0l158,-277z"/>
<glyph unicode="&#x156;" horiz-adv-x="600" d="M273,-86C301,-93 324,-104 324,-130C324,-156 288,-169 235,-176l8,-40C319,-210 388,-183 388,-125C388,-80 359,-58 291,-48 z M183,589l109,0C394,589 450,558 450,472C450,387 394,345 292,345l-109,0 z M386,286C475,309 533,370 533,472C533,608 437,656 304,656l-204,0l0,-656l83,0l0,277l117,0l158,-277l95,0z"/>
<glyph unicode="&#x1E5A;" horiz-adv-x="600" d="M320,-99C283,-99 254,-124 254,-163C254,-201 283,-226 320,-226C357,-226 386,-201 386,-163C386,-124 357,-99 320,-99 z M183,589l109,0C394,589 450,558 450,472C450,387 394,345 292,345l-109,0 z M386,286C475,309 533,370 533,472C533,608 437,656 304,656l-204,0l0,-656l83,0l0,277l117,0l158,-277l95,0z"/>
<glyph unicode="&#x1E5C;" horiz-adv-x="600" d="M429,786l-248,0l0,-57l248,0 z M320,-99C283,-99 254,-124 254,-163C254,-201 283,-226 320,-226C357,-226 386,-201 386,-163C386,-124 357,-99 320,-99 z M183,589l109,0C394,589 450,558 450,472C450,387 394,345 292,345l-109,0 z M386,286C475,309 533,370 533,472C533,608 437,656 304,656l-204,0l0,-656l83,0l0,277l117,0l158,-277l95,0z"/>
<glyph unicode="&#x1E5E;" horiz-adv-x="600" d="M196,-171l247,0l0,58l-247,0 z M183,589l109,0C394,589 450,558 450,472C450,387 394,345 292,345l-109,0 z M386,286C475,309 533,370 533,472C533,608 437,656 304,656l-204,0l0,-656l83,0l0,277l117,0l158,-277l95,0z"/>
<glyph unicode="&#x15A;" horiz-adv-x="600" d="M67,85C126,26 209,-12 305,-12C449,-12 537,71 537,175C537,272 473,317 392,350l-92,40C244,413 183,436 183,499C183,558 234,595 313,595C378,595 428,571 471,533l44,54C467,635 395,668 313,668C188,668 98,594 98,494C98,398 174,351 240,325l94,-41C401,256 452,235 452,168C452,104 399,61 306,61C234,61 166,94 117,143 z M442,818l-94,0l-88,-112l69,0z"/>
<glyph unicode="&#x15C;" horiz-adv-x="600" d="M67,85C126,26 209,-12 305,-12C449,-12 537,71 537,175C537,272 473,317 392,350l-92,40C244,413 183,436 183,499C183,558 234,595 313,595C378,595 428,571 471,533l44,54C467,635 395,668 313,668C188,668 98,594 98,494C98,398 174,351 240,325l94,-41C401,256 452,235 452,168C452,104 399,61 306,61C234,61 166,94 117,143 z M242,706l67,68l4,0l67,-68l67,0l-96,112l-80,0l-96,-112z"/>
<glyph unicode="&#x160;" horiz-adv-x="600" d="M67,85C126,26 209,-12 305,-12C449,-12 537,71 537,175C537,272 473,317 392,350l-92,40C244,413 183,436 183,499C183,558 234,595 313,595C378,595 428,571 471,533l44,54C467,635 395,668 313,668C188,668 98,594 98,494C98,398 174,351 240,325l94,-41C401,256 452,235 452,168C452,104 399,61 306,61C234,61 166,94 117,143 z M380,818l-67,-68l-4,0l-67,68l-67,0l96,-112l80,0l96,112z"/>
<glyph unicode="&#x15E;" horiz-adv-x="600" d="M300,390C244,413 183,436 183,499C183,558 234,595 313,595C378,595 428,571 471,533l44,54C467,635 395,668 313,668C188,668 98,594 98,494C98,398 174,351 240,325l94,-41C401,256 452,235 452,168C452,104 399,61 306,61C234,61 166,94 117,143l-50,-58C121,31 195,-5 281,-11l-33,-64C289,-85 312,-98 312,-124C312,-151 275,-165 223,-172l8,-41C307,-206 376,-179 376,-121C376,-80 349,-61 316,-50l19,39C461,0 537,78 537,175C537,272 473,317 392,350z"/>
<glyph unicode="&#x218;" horiz-adv-x="600" d="M67,85C126,26 209,-12 305,-12C449,-12 537,71 537,175C537,272 473,317 392,350l-92,40C244,413 183,436 183,499C183,558 234,595 313,595C378,595 428,571 471,533l44,54C467,635 395,668 313,668C188,668 98,594 98,494C98,398 174,351 240,325l94,-41C401,256 452,235 452,168C452,104 399,61 306,61C234,61 166,94 117,143 z M281,-48l-18,-38C291,-93 314,-104 314,-130C314,-156 278,-169 225,-176l8,-40C309,-210 378,-183 378,-125C378,-80 349,-58 281,-48z"/>
<glyph unicode="&#x1E60;" horiz-adv-x="600" d="M67,85C126,26 209,-12 305,-12C449,-12 537,71 537,175C537,272 473,317 392,350l-92,40C244,413 183,436 183,499C183,558 234,595 313,595C378,595 428,571 471,533l44,54C467,635 395,668 313,668C188,668 98,594 98,494C98,398 174,351 240,325l94,-41C401,256 452,235 452,168C452,104 399,61 306,61C234,61 166,94 117,143 z M311,714C343,714 368,736 368,768C368,799 343,821 311,821C279,821 254,799 254,768C254,736 279,714 311,714z"/>
<glyph unicode="&#x1E62;" horiz-adv-x="600" d="M67,85C126,26 209,-12 305,-12C449,-12 537,71 537,175C537,272 473,317 392,350l-92,40C244,413 183,436 183,499C183,558 234,595 313,595C378,595 428,571 471,533l44,54C467,635 395,668 313,668C188,668 98,594 98,494C98,398 174,351 240,325l94,-41C401,256 452,235 452,168C452,104 399,61 306,61C234,61 166,94 117,143 z M310,-226C347,-226 376,-201 376,-163C376,-124 347,-99 310,-99C273,-99 244,-124 244,-163C244,-201 273,-226 310,-226z"/>
<glyph unicode="&#x1E9E;" horiz-adv-x="600" d="M79,0l85,0l0,416C164,541 218,599 308,599C366,599 404,562 423,517l-118,-153l5,-54C440,284 475,233 475,171C475,105 441,58 383,58C343,58 310,75 277,114l-48,-53C265,17 322,-12 391,-12C497,-12 563,67 563,171C563,266 509,334 393,362l117,152C479,607 414,668 311,668C153,668 79,566 79,432z"/>
<glyph unicode="&#x164;" horiz-adv-x="600" d="M258,0l84,0l0,586l216,0l0,70l-516,0l0,-70l216,0 z M368,818l-67,-68l-4,0l-67,68l-66,0l96,-112l79,0l96,112z"/>
<glyph unicode="&#x162;" horiz-adv-x="600" d="M342,0l0,586l216,0l0,70l-516,0l0,-70l216,0l0,-586l15,0l-38,-75C276,-85 299,-98 299,-124C299,-151 263,-165 210,-172l8,-41C294,-206 363,-179 363,-121C363,-80 336,-61 304,-50l24,50z"/>
<glyph unicode="&#x21A;" horiz-adv-x="600" d="M258,0l84,0l0,586l216,0l0,70l-516,0l0,-70l216,0 z M271,-48l-18,-38C282,-93 305,-104 305,-130C305,-156 268,-169 216,-176l8,-40C300,-210 369,-183 369,-125C369,-80 339,-58 271,-48z"/>
<glyph unicode="&#x1E6C;" horiz-adv-x="600" d="M258,0l84,0l0,586l216,0l0,70l-516,0l0,-70l216,0 z M301,-226C338,-226 366,-201 366,-163C366,-124 338,-99 301,-99C263,-99 235,-124 235,-163C235,-201 263,-226 301,-226z"/>
<glyph unicode="&#x1E6E;" horiz-adv-x="600" d="M258,0l84,0l0,586l216,0l0,70l-516,0l0,-70l216,0 z M423,-113l-246,0l0,-58l246,0z"/>
<glyph unicode="&#xD9;" horiz-adv-x="600" d="M79,248C79,60 172,-12 301,-12C429,-12 521,60 521,248l0,408l-81,0l0,-410C440,110 380,61 301,61C222,61 163,110 163,246l0,410l-84,0 z M282,706l69,0l-88,112l-94,0z"/>
<glyph unicode="&#xDA;" horiz-adv-x="600" d="M79,248C79,60 172,-12 301,-12C429,-12 521,60 521,248l0,408l-81,0l0,-410C440,110 380,61 301,61C222,61 163,110 163,246l0,410l-84,0 z M431,818l-94,0l-88,-112l69,0z"/>
<glyph unicode="&#xDB;" horiz-adv-x="600" d="M79,248C79,60 172,-12 301,-12C429,-12 521,60 521,248l0,408l-81,0l0,-410C440,110 380,61 301,61C222,61 163,110 163,246l0,410l-84,0 z M231,706l67,68l4,0l67,-68l67,0l-96,112l-80,0l-96,-112z"/>
<glyph unicode="&#x168;" horiz-adv-x="600" d="M79,248C79,60 172,-12 301,-12C429,-12 521,60 521,248l0,408l-81,0l0,-410C440,110 380,61 301,61C222,61 163,110 163,246l0,410l-84,0 z M360,711C408,711 439,758 445,819l-46,0C394,786 378,767 359,767C322,767 293,819 240,819C192,819 161,773 155,711l46,0C206,745 222,763 241,763C278,763 307,711 360,711z"/>
<glyph unicode="&#xDC;" horiz-adv-x="600" d="M79,248C79,60 172,-12 301,-12C429,-12 521,60 521,248l0,408l-81,0l0,-410C440,110 380,61 301,61C222,61 163,110 163,246l0,410l-84,0 z M214,715C242,715 263,736 263,764C263,793 242,813 214,813C185,813 165,793 165,764C165,736 185,715 214,715 z M386,715C415,715 435,736 435,764C435,793 415,813 386,813C358,813 337,793 337,764C337,736 358,715 386,715z"/>
<glyph unicode="&#x16A;" horiz-adv-x="600" d="M79,248C79,60 172,-12 301,-12C429,-12 521,60 521,248l0,408l-81,0l0,-410C440,110 380,61 301,61C222,61 163,110 163,246l0,410l-84,0 z M176,729l248,0l0,57l-248,0z"/>
<glyph unicode="&#x16C;" horiz-adv-x="600" d="M79,248C79,60 172,-12 301,-12C429,-12 521,60 521,248l0,408l-81,0l0,-410C440,110 380,61 301,61C222,61 163,110 163,246l0,410l-84,0 z M300,708C380,708 416,762 423,818l-50,0C367,786 345,755 300,755C255,755 233,786 227,818l-50,0C184,762 220,708 300,708z"/>
<glyph unicode="&#x16E;" horiz-adv-x="600" d="M79,248C79,60 172,-12 301,-12C429,-12 521,60 521,248l0,408l-81,0l0,-410C440,110 380,61 301,61C222,61 163,110 163,246l0,410l-84,0 z M300,699C353,699 393,733 393,787C393,840 353,875 300,875C246,875 207,840 207,787C207,733 246,699 300,699 z M300,735C273,735 252,754 252,787C252,818 273,838 300,838C325,838 347,818 347,787C347,754 325,735 300,735z"/>
<glyph unicode="&#x170;" horiz-adv-x="600" d="M79,248C79,60 172,-12 301,-12C429,-12 521,60 521,248l0,408l-81,0l0,-410C440,110 380,61 301,61C222,61 163,110 163,246l0,410l-84,0 z M251,706l83,112l-77,0l-66,-112 z M349,706l59,0l84,112l-77,0z"/>
<glyph unicode="&#x1D3;" horiz-adv-x="600" d="M79,248C79,60 172,-12 301,-12C429,-12 521,60 521,248l0,408l-81,0l0,-410C440,110 380,61 301,61C222,61 163,110 163,246l0,410l-84,0 z M369,818l-67,-68l-4,0l-67,68l-67,0l96,-112l80,0l96,112z"/>
<glyph unicode="&#x1D5;" horiz-adv-x="600" d="M79,248C79,60 172,-12 301,-12C429,-12 521,60 521,248l0,408l-81,0l0,-410C440,110 380,61 301,61C222,61 163,110 163,246l0,410l-84,0 z M176,861l248,0l0,46l-248,0 z M214,715C240,715 259,734 259,761C259,787 240,806 214,806C188,806 168,787 168,761C168,734 188,715 214,715 z M386,715C412,715 432,734 432,761C432,787 412,806 386,806C360,806 341,787 341,761C341,734 360,715 386,715z"/>
<glyph unicode="&#x1D7;" horiz-adv-x="600" d="M79,248C79,60 172,-12 301,-12C429,-12 521,60 521,248l0,408l-81,0l0,-410C440,110 380,61 301,61C222,61 163,110 163,246l0,410l-84,0 z M249,839l68,0l112,111l-91,0 z M214,715C240,715 259,734 259,761C259,787 240,806 214,806C188,806 168,787 168,761C168,734 188,715 214,715 z M386,715C412,715 432,734 432,761C432,787 412,806 386,806C360,806 341,787 341,761C341,734 360,715 386,715z"/>
<glyph unicode="&#x1D9;" horiz-adv-x="600" d="M79,248C79,60 172,-12 301,-12C429,-12 521,60 521,248l0,408l-81,0l0,-410C440,110 380,61 301,61C222,61 163,110 163,246l0,410l-84,0 z M214,715C240,715 259,734 259,761C259,787 240,806 214,806C188,806 168,787 168,761C168,734 188,715 214,715 z M386,715C412,715 432,734 432,761C432,787 412,806 386,806C360,806 341,787 341,761C341,734 360,715 386,715 z M369,950l-67,-68l-4,0l-67,68l-67,0l96,-111l80,0l96,111z"/>
<glyph unicode="&#x1DB;" horiz-adv-x="600" d="M79,248C79,60 172,-12 301,-12C429,-12 521,60 521,248l0,408l-81,0l0,-410C440,110 380,61 301,61C222,61 163,110 163,246l0,410l-84,0 z M262,950l-91,0l112,-111l68,0 z M386,715C412,715 432,734 432,761C432,787 412,806 386,806C360,806 341,787 341,761C341,734 360,715 386,715 z M214,715C240,715 259,734 259,761C259,787 240,806 214,806C188,806 168,787 168,761C168,734 188,715 214,715z"/>
<glyph unicode="&#x1EE4;" horiz-adv-x="600" d="M79,248C79,60 172,-12 301,-12C429,-12 521,60 521,248l0,408l-81,0l0,-410C440,110 380,61 301,61C222,61 163,110 163,246l0,410l-84,0 z M300,-226C337,-226 366,-201 366,-163C366,-124 337,-99 300,-99C263,-99 234,-124 234,-163C234,-201 263,-226 300,-226z"/>
<glyph unicode="&#x1EE6;" horiz-adv-x="600" d="M79,248C79,60 172,-12 301,-12C429,-12 521,60 521,248l0,408l-81,0l0,-410C440,110 380,61 301,61C222,61 163,110 163,246l0,410l-84,0 z M272,698C330,708 383,733 383,791C383,842 332,869 245,872l-9,-48C291,822 319,808 319,782C319,757 295,745 263,736z"/>
<glyph unicode="&#x172;" horiz-adv-x="600" d="M79,248C79,83 150,-9 296,-11C271,-36 231,-70 231,-125C231,-182 274,-212 327,-212C353,-212 387,-199 406,-184l-22,45C371,-148 359,-153 343,-153C319,-153 296,-138 296,-107C296,-71 327,-27 397,5C471,39 521,112 521,248l0,408l-81,0l0,-410C440,110 379,61 300,61C221,61 163,110 163,246l0,410l-84,0z"/>
<glyph unicode="&#x1AF;" horiz-adv-x="600" d="M548,764C557,751 563,738 563,723C563,677 528,663 475,656l-35,0l0,-410C440,110 380,61 301,61C222,61 163,110 163,246l0,410l-84,0l0,-408C79,60 172,-12 301,-12C429,-12 521,60 521,248l0,372C579,633 630,662 630,728C630,753 621,775 607,793z"/>
<glyph unicode="&#x1EE8;" horiz-adv-x="600" d="M431,818l-94,0l-88,-112l69,0 z M548,764C557,751 563,738 563,723C563,677 528,663 475,656l-35,0l0,-410C440,110 380,61 301,61C222,61 163,110 163,246l0,410l-84,0l0,-408C79,60 172,-12 301,-12C429,-12 521,60 521,248l0,372C579,633 630,662 630,728C630,753 621,775 607,793z"/>
<glyph unicode="&#x1EEA;" horiz-adv-x="600" d="M351,706l-88,112l-94,0l113,-112 z M548,764C557,751 563,738 563,723C563,677 528,663 475,656l-35,0l0,-410C440,110 380,61 301,61C222,61 163,110 163,246l0,410l-84,0l0,-408C79,60 172,-12 301,-12C429,-12 521,60 521,248l0,372C579,633 630,662 630,728C630,753 621,775 607,793z"/>
<glyph unicode="&#x1EEC;" horiz-adv-x="600" d="M272,698C330,708 383,733 383,791C383,842 332,869 245,872l-9,-48C291,822 319,808 319,782C319,757 295,745 263,736 z M548,764C557,751 563,738 563,723C563,677 528,663 475,656l-35,0l0,-410C440,110 380,61 301,61C222,61 163,110 163,246l0,410l-84,0l0,-408C79,60 172,-12 301,-12C429,-12 521,60 521,248l0,372C579,633 630,662 630,728C630,753 621,775 607,793z"/>
<glyph unicode="&#x1EEE;" horiz-adv-x="600" d="M399,819C394,786 378,767 359,767C322,767 293,819 240,819C192,819 161,773 155,711l46,0C206,745 222,763 241,763C278,763 307,711 360,711C408,711 439,758 445,819 z M548,764C557,751 563,738 563,723C563,677 528,663 475,656l-35,0l0,-410C440,110 380,61 301,61C222,61 163,110 163,246l0,410l-84,0l0,-408C79,60 172,-12 301,-12C429,-12 521,60 521,248l0,372C579,633 630,662 630,728C630,753 621,775 607,793z"/>
<glyph unicode="&#x1EF0;" horiz-adv-x="600" d="M300,-99C263,-99 234,-124 234,-163C234,-201 263,-226 300,-226C337,-226 366,-201 366,-163C366,-124 337,-99 300,-99 z M548,764C557,751 563,738 563,723C563,677 528,663 475,656l-35,0l0,-410C440,110 380,61 301,61C222,61 163,110 163,246l0,410l-84,0l0,-408C79,60 172,-12 301,-12C429,-12 521,60 521,248l0,372C579,633 630,662 630,728C630,753 621,775 607,793z"/>
<glyph unicode="&#x1E80;" horiz-adv-x="600" d="M111,0l90,0l72,275C283,314 291,354 299,393l3,0C309,354 317,314 326,275l75,-275l92,0l97,657l-79,0l-50,-412C457,191 451,137 447,83l-4,0C429,137 414,192 402,245l-69,242l-59,0l-69,-242C192,191 177,137 163,83l-3,0C156,137 149,190 146,245l-53,412l-83,0 z M282,706l69,0l-88,112l-94,0z"/>
<glyph unicode="&#x1E82;" horiz-adv-x="600" d="M111,0l90,0l72,275C283,314 291,354 299,393l3,0C309,354 317,314 326,275l75,-275l92,0l97,657l-79,0l-50,-412C457,191 451,137 447,83l-4,0C429,137 414,192 402,245l-69,242l-59,0l-69,-242C192,191 177,137 163,83l-3,0C156,137 149,190 146,245l-53,412l-83,0 z M431,818l-94,0l-88,-112l69,0z"/>
<glyph unicode="&#x174;" horiz-adv-x="600" d="M111,0l90,0l72,275C283,314 291,354 299,393l3,0C309,354 317,314 326,275l75,-275l92,0l97,657l-79,0l-50,-412C457,191 451,137 447,83l-4,0C429,137 414,192 402,245l-69,242l-59,0l-69,-242C192,191 177,137 163,83l-3,0C156,137 149,190 146,245l-53,412l-83,0 z M231,706l67,68l4,0l67,-68l67,0l-96,112l-80,0l-96,-112z"/>
<glyph unicode="&#x1E84;" horiz-adv-x="600" d="M111,0l90,0l72,275C283,314 291,354 299,393l3,0C309,354 317,314 326,275l75,-275l92,0l97,657l-79,0l-50,-412C457,191 451,137 447,83l-4,0C429,137 414,192 402,245l-69,242l-59,0l-69,-242C192,191 177,137 163,83l-3,0C156,137 149,190 146,245l-53,412l-83,0 z M214,715C242,715 263,736 263,764C263,793 242,813 214,813C185,813 165,793 165,764C165,736 185,715 214,715 z M386,715C415,715 435,736 435,764C435,793 415,813 386,813C358,813 337,793 337,764C337,736 358,715 386,715z"/>
<glyph unicode="&#x1EF2;" horiz-adv-x="600" d="M258,0l84,0l0,234l220,422l-86,0l-95,-194C356,411 330,361 304,308l-4,0C273,361 250,411 225,461l-99,195l-88,0l220,-422 z M282,706l69,0l-88,112l-94,0z"/>
<glyph unicode="&#xDD;" horiz-adv-x="600" d="M258,0l84,0l0,234l220,422l-86,0l-95,-194C356,411 330,361 304,308l-4,0C273,361 250,411 225,461l-99,195l-88,0l220,-422 z M431,818l-94,0l-88,-112l69,0z"/>
<glyph unicode="&#x176;" horiz-adv-x="600" d="M258,0l84,0l0,234l220,422l-86,0l-95,-194C356,411 330,361 304,308l-4,0C273,361 250,411 225,461l-99,195l-88,0l220,-422 z M231,706l67,68l4,0l67,-68l67,0l-96,112l-80,0l-96,-112z"/>
<glyph unicode="&#x178;" horiz-adv-x="600" d="M258,0l84,0l0,234l220,422l-86,0l-95,-194C356,411 330,361 304,308l-4,0C273,361 250,411 225,461l-99,195l-88,0l220,-422 z M214,715C242,715 263,736 263,764C263,793 242,813 214,813C185,813 165,793 165,764C165,736 185,715 214,715 z M386,715C415,715 435,736 435,764C435,793 415,813 386,813C358,813 337,793 337,764C337,736 358,715 386,715z"/>
<glyph unicode="&#x1E8E;" horiz-adv-x="600" d="M258,0l84,0l0,234l220,422l-86,0l-95,-194C356,411 330,361 304,308l-4,0C273,361 250,411 225,461l-99,195l-88,0l220,-422 z M300,714C332,714 357,736 357,768C357,799 332,821 300,821C268,821 243,799 243,768C243,736 268,714 300,714z"/>
<glyph unicode="&#x1EF4;" horiz-adv-x="600" d="M258,0l84,0l0,234l220,422l-86,0l-95,-194C356,411 330,361 304,308l-4,0C273,361 250,411 225,461l-99,195l-88,0l220,-422 z M300,-226C337,-226 366,-201 366,-163C366,-124 337,-99 300,-99C263,-99 234,-124 234,-163C234,-201 263,-226 300,-226z"/>
<glyph unicode="&#x1EF6;" horiz-adv-x="600" d="M258,0l84,0l0,234l220,422l-86,0l-95,-194C356,411 330,361 304,308l-4,0C273,361 250,411 225,461l-99,195l-88,0l220,-422 z M272,698C330,708 383,733 383,791C383,842 332,869 245,872l-9,-48C291,822 319,808 319,782C319,757 295,745 263,736z"/>
<glyph unicode="&#x1EF8;" horiz-adv-x="600" d="M258,0l84,0l0,234l220,422l-86,0l-95,-194C356,411 330,361 304,308l-4,0C273,361 250,411 225,461l-99,195l-88,0l220,-422 z M360,711C408,711 439,758 445,819l-46,0C394,786 378,767 359,767C322,767 293,819 240,819C192,819 161,773 155,711l46,0C206,745 222,763 241,763C278,763 307,711 360,711z"/>
<glyph unicode="&#x179;" horiz-adv-x="600" d="M65,0l474,0l0,71l-373,0l368,536l0,50l-437,0l0,-70l335,0l-367,-537 z M446,818l-94,0l-88,-112l69,0z"/>
<glyph unicode="&#x17D;" horiz-adv-x="600" d="M65,0l474,0l0,71l-373,0l368,536l0,50l-437,0l0,-70l335,0l-367,-537 z M384,818l-67,-68l-4,0l-67,68l-66,0l96,-112l79,0l96,112z"/>
<glyph unicode="&#x17B;" horiz-adv-x="600" d="M65,0l474,0l0,71l-373,0l368,536l0,50l-437,0l0,-70l335,0l-367,-537 z M315,714C347,714 372,736 372,768C372,799 347,821 315,821C283,821 258,799 258,768C258,736 283,714 315,714z"/>
<glyph unicode="&#x1E92;" horiz-adv-x="600" d="M65,0l474,0l0,71l-373,0l368,536l0,50l-437,0l0,-70l335,0l-367,-537 z M311,-226C349,-226 377,-201 377,-163C377,-124 349,-99 311,-99C274,-99 246,-124 246,-163C246,-201 274,-226 311,-226z"/>
<glyph unicode="&#xD0;" horiz-adv-x="600" d="M91,0l164,0C448,0 555,122 555,331C555,539 448,656 252,656l-161,0l0,-288l-75,-5l0,-42l75,0 z M174,68l0,253l143,0l0,47l-143,0l0,220l72,0C395,588 469,496 469,331C469,165 395,68 246,68z"/>
<glyph unicode="&#xDE;" horiz-adv-x="600" d="M101,0l84,0l0,150l118,0C446,150 545,214 545,353C545,496 448,546 303,546l-118,0l0,110l-84,0 z M185,218l0,260l107,0C405,478 462,447 462,353C462,259 407,218 292,218z"/>
<glyph unicode="&#x18F;" horiz-adv-x="600" d="M465,284C454,145 392,59 302,59C214,59 156,143 147,283 z M169,538C202,572 246,597 300,597C406,597 463,503 467,347l-403,0C63,340 62,332 62,325C62,123 155,-12 302,-12C450,-12 550,120 550,330C550,540 457,668 306,668C229,668 172,637 131,595z"/>
<glyph unicode="&#xE0;" horiz-adv-x="600" d="M81,126C81,39 155,-12 246,-12C315,-12 384,24 438,66l3,0l7,-66l67,0l0,298C515,419 451,498 318,498C233,498 151,460 102,428l32,-56C179,400 241,430 304,430C398,430 431,374 433,308C182,288 81,235 81,126 z M161,132C161,196 225,237 433,254l0,-128C378,80 323,54 268,54C212,54 161,77 161,132 z M316,573l63,0l-91,148l-89,0z"/>
<glyph unicode="&#xE1;" horiz-adv-x="600" d="M81,126C81,39 155,-12 246,-12C315,-12 384,24 438,66l3,0l7,-66l67,0l0,298C515,419 451,498 318,498C233,498 151,460 102,428l32,-56C179,400 241,430 304,430C398,430 431,374 433,308C182,288 81,235 81,126 z M161,132C161,196 225,237 433,254l0,-128C378,80 323,54 268,54C212,54 161,77 161,132 z M428,721l-89,0l-91,-148l64,0z"/>
<glyph unicode="&#xE2;" horiz-adv-x="600" d="M81,126C81,39 155,-12 246,-12C315,-12 384,24 438,66l3,0l7,-66l67,0l0,298C515,419 451,498 318,498C233,498 151,460 102,428l32,-56C179,400 241,430 304,430C398,430 431,374 433,308C182,288 81,235 81,126 z M161,132C161,196 225,237 433,254l0,-128C378,80 323,54 268,54C212,54 161,77 161,132 z M181,573l64,0l67,99l4,0l67,-99l63,0l-97,148l-71,0z"/>
<glyph unicode="&#xE3;" horiz-adv-x="600" d="M81,126C81,39 155,-12 246,-12C315,-12 384,24 438,66l3,0l7,-66l67,0l0,298C515,419 451,498 318,498C233,498 151,460 102,428l32,-56C179,400 241,430 304,430C398,430 431,374 433,308C182,288 81,235 81,126 z M161,132C161,196 225,237 433,254l0,-128C378,80 323,54 268,54C212,54 161,77 161,132 z M172,579l47,0C225,616 237,634 259,634C292,634 319,579 368,579C421,579 449,626 455,688l-47,0C402,652 390,634 368,634C336,634 308,688 260,688C206,688 178,642 172,579z"/>
<glyph unicode="&#xE4;" horiz-adv-x="600" d="M81,126C81,39 155,-12 246,-12C315,-12 384,24 438,66l3,0l7,-66l67,0l0,298C515,419 451,498 318,498C233,498 151,460 102,428l32,-56C179,400 241,430 304,430C398,430 431,374 433,308C182,288 81,235 81,126 z M161,132C161,196 225,237 433,254l0,-128C378,80 323,54 268,54C212,54 161,77 161,132 z M217,588C249,588 271,612 271,643C271,674 249,698 217,698C186,698 163,674 163,643C163,612 186,588 217,588 z M410,588C442,588 464,612 464,643C464,674 442,698 410,698C378,698 356,674 356,643C356,612 378,588 410,588z"/>
<glyph unicode="&#x101;" horiz-adv-x="600" d="M81,126C81,39 155,-12 246,-12C315,-12 384,24 438,66l3,0l7,-66l67,0l0,298C515,419 451,498 318,498C233,498 151,460 102,428l32,-56C179,400 241,430 304,430C398,430 431,374 433,308C182,288 81,235 81,126 z M161,132C161,196 225,237 433,254l0,-128C378,80 323,54 268,54C212,54 161,77 161,132 z M191,601l245,0l0,57l-245,0z"/>
<glyph unicode="&#x103;" horiz-adv-x="600" d="M81,126C81,39 155,-12 246,-12C315,-12 384,24 438,66l3,0l7,-66l67,0l0,298C515,419 451,498 318,498C233,498 151,460 102,428l32,-56C179,400 241,430 304,430C398,430 431,374 433,308C182,288 81,235 81,126 z M161,132C161,196 225,237 433,254l0,-128C378,80 323,54 268,54C212,54 161,77 161,132 z M314,575C402,575 439,646 444,709l-51,0C387,666 363,626 314,626C265,626 240,666 235,709l-51,0C188,646 225,575 314,575z"/>
<glyph unicode="&#xE5;" horiz-adv-x="600" d="M81,126C81,39 155,-12 246,-12C315,-12 384,24 438,66l3,0l7,-66l67,0l0,298C515,419 451,498 318,498C233,498 151,460 102,428l32,-56C179,400 241,430 304,430C398,430 431,374 433,308C182,288 81,235 81,126 z M161,132C161,196 225,237 433,254l0,-128C378,80 323,54 268,54C212,54 161,77 161,132 z M314,542C368,542 407,579 407,635C407,690 368,727 314,727C259,727 220,690 220,635C220,579 259,542 314,542 z M314,579C287,579 265,601 265,635C265,668 287,690 314,690C340,690 362,668 362,635C362,601 340,579 314,579z"/>
<glyph unicode="&#x1CE;" horiz-adv-x="600" d="M81,126C81,39 155,-12 246,-12C315,-12 384,24 438,66l3,0l7,-66l67,0l0,298C515,419 451,498 318,498C233,498 151,460 102,428l32,-56C179,400 241,430 304,430C398,430 431,374 433,308C182,288 81,235 81,126 z M161,132C161,196 225,237 433,254l0,-128C378,80 323,54 268,54C212,54 161,77 161,132 z M278,573l71,0l97,148l-63,0l-67,-99l-4,0l-67,99l-64,0z"/>
<glyph unicode="&#x1EA1;" horiz-adv-x="600" d="M81,126C81,39 155,-12 246,-12C315,-12 384,24 438,66l3,0l7,-66l67,0l0,298C515,419 451,498 318,498C233,498 151,460 102,428l32,-56C179,400 241,430 304,430C398,430 431,374 433,308C182,288 81,235 81,126 z M161,132C161,196 225,237 433,254l0,-128C378,80 323,54 268,54C212,54 161,77 161,132 z M303,-226C341,-226 369,-201 369,-163C369,-124 341,-99 303,-99C266,-99 237,-124 237,-163C237,-201 266,-226 303,-226z"/>
<glyph unicode="&#x1EA3;" horiz-adv-x="600" d="M81,126C81,39 155,-12 246,-12C315,-12 384,24 438,66l3,0l7,-66l67,0l0,298C515,419 451,498 318,498C233,498 151,460 102,428l32,-56C179,400 241,430 304,430C398,430 431,374 433,308C182,288 81,235 81,126 z M161,132C161,196 225,237 433,254l0,-128C378,80 323,54 268,54C212,54 161,77 161,132 z M286,553C344,563 397,588 397,646C397,697 346,724 258,727l-8,-48C305,677 333,663 333,637C333,612 308,600 276,591z"/>
<glyph unicode="&#x1EA5;" horiz-adv-x="600" d="M81,126C81,39 155,-12 246,-12C315,-12 384,24 438,66l3,0l7,-66l67,0l0,298C515,419 451,498 318,498C233,498 151,460 102,428l32,-56C179,400 241,430 304,430C398,430 431,374 433,308C182,288 81,235 81,126 z M161,132C161,196 225,237 433,254l0,-128C378,80 323,54 268,54C212,54 161,77 161,132 z M197,573l56,0l59,73l4,0l58,-73l56,0l-83,119l-67,0 z M402,640l51,0l93,114l-70,0z"/>
<glyph unicode="&#x1EA7;" horiz-adv-x="600" d="M81,126C81,39 155,-12 246,-12C315,-12 384,24 438,66l3,0l7,-66l67,0l0,298C515,419 451,498 318,498C233,498 151,460 102,428l32,-56C179,400 241,430 304,430C398,430 431,374 433,308C182,288 81,235 81,126 z M161,132C161,196 225,237 433,254l0,-128C378,80 323,54 268,54C212,54 161,77 161,132 z M197,573l56,0l59,73l4,0l58,-73l56,0l-83,119l-67,0 z M441,754l-70,0l93,-114l51,0z"/>
<glyph unicode="&#x1EA9;" horiz-adv-x="600" d="M81,126C81,39 155,-12 246,-12C315,-12 384,24 438,66l3,0l7,-66l67,0l0,298C515,419 451,498 318,498C233,498 151,460 102,428l32,-56C179,400 241,430 304,430C398,430 431,374 433,308C182,288 81,235 81,126 z M161,132C161,196 225,237 433,254l0,-128C378,80 323,54 268,54C212,54 161,77 161,132 z M197,573l56,0l59,73l4,0l58,-73l56,0l-83,119l-67,0 z M429,628C476,639 522,657 522,711C522,758 479,781 401,784l-7,-41C443,740 463,728 463,702C463,681 445,670 421,663z"/>
<glyph unicode="&#x1EAB;" horiz-adv-x="600" d="M81,126C81,39 155,-12 246,-12C315,-12 384,24 438,66l3,0l7,-66l67,0l0,298C515,419 451,498 318,498C233,498 151,460 102,428l32,-56C179,400 241,430 304,430C398,430 431,374 433,308C182,288 81,235 81,126 z M161,132C161,196 225,237 433,254l0,-128C378,80 323,54 268,54C212,54 161,77 161,132 z M189,571l58,0l65,65l4,0l64,-65l58,0l-87,104l-75,0 z M225,711C229,740 244,754 264,754C296,754 316,711 366,711C412,711 439,749 444,802l-42,0C398,773 383,759 363,759C331,759 312,802 261,802C215,802 188,764 183,711z"/>
<glyph unicode="&#x1EAD;" horiz-adv-x="600" d="M81,126C81,39 155,-12 246,-12C315,-12 384,24 438,66l3,0l7,-66l67,0l0,298C515,419 451,498 318,498C233,498 151,460 102,428l32,-56C179,400 241,430 304,430C398,430 431,374 433,308C182,288 81,235 81,126 z M161,132C161,196 225,237 433,254l0,-128C378,80 323,54 268,54C212,54 161,77 161,132 z M181,573l64,0l67,99l4,0l67,-99l63,0l-97,148l-71,0 z M303,-226C341,-226 369,-201 369,-163C369,-124 341,-99 303,-99C266,-99 237,-124 237,-163C237,-201 266,-226 303,-226z"/>
<glyph unicode="&#x1EAF;" horiz-adv-x="600" d="M81,126C81,39 155,-12 246,-12C315,-12 384,24 438,66l3,0l7,-66l67,0l0,298C515,419 451,498 318,498C233,498 151,460 102,428l32,-56C179,400 241,430 304,430C398,430 431,374 433,308C182,288 81,235 81,126 z M161,132C161,196 225,237 433,254l0,-128C378,80 323,54 268,54C212,54 161,77 161,132 z M276,677l49,0l87,112l-68,0 z M314,575C399,575 435,643 440,702l-44,0C390,661 365,622 314,622C262,622 237,661 231,702l-44,0C192,643 228,575 314,575z"/>
<glyph unicode="&#x1EB1;" horiz-adv-x="600" d="M81,126C81,39 155,-12 246,-12C315,-12 384,24 438,66l3,0l7,-66l67,0l0,298C515,419 451,498 318,498C233,498 151,460 102,428l32,-56C179,400 241,430 304,430C398,430 431,374 433,308C182,288 81,235 81,126 z M161,132C161,196 225,237 433,254l0,-128C378,80 323,54 268,54C212,54 161,77 161,132 z M283,789l-68,0l87,-112l49,0 z M314,575C399,575 435,643 440,702l-44,0C390,661 365,622 314,622C262,622 237,661 231,702l-44,0C192,643 228,575 314,575z"/>
<glyph unicode="&#x1EB3;" horiz-adv-x="600" d="M81,126C81,39 155,-12 246,-12C315,-12 384,24 438,66l3,0l7,-66l67,0l0,298C515,419 451,498 318,498C233,498 151,460 102,428l32,-56C179,400 241,430 304,430C398,430 431,374 433,308C182,288 81,235 81,126 z M161,132C161,196 225,237 433,254l0,-128C378,80 323,54 268,54C212,54 161,77 161,132 z M314,575C399,575 435,643 440,702l-44,0C390,661 365,622 314,622C262,622 237,661 231,702l-44,0C192,643 228,575 314,575 z M287,683C334,694 380,713 380,766C380,814 337,837 259,839l-7,-41C301,796 321,783 321,757C321,736 303,725 278,718z"/>
<glyph unicode="&#x1EB5;" horiz-adv-x="600" d="M81,126C81,39 155,-12 246,-12C315,-12 384,24 438,66l3,0l7,-66l67,0l0,298C515,419 451,498 318,498C233,498 151,460 102,428l32,-56C179,400 241,430 304,430C398,430 431,374 433,308C182,288 81,235 81,126 z M161,132C161,196 225,237 433,254l0,-128C378,80 323,54 268,54C212,54 161,77 161,132 z M314,575C399,575 434,629 439,682l-46,0C387,650 364,620 314,620C264,620 240,650 234,682l-45,0C193,629 228,575 314,575 z M183,711l42,0C229,740 244,754 264,754C296,754 316,711 366,711C412,711 439,749 444,802l-42,0C398,773 383,759 363,759C331,759 312,802 261,802C215,802 188,764 183,711z"/>
<glyph unicode="&#x1EB7;" horiz-adv-x="600" d="M81,126C81,39 155,-12 246,-12C315,-12 384,24 438,66l3,0l7,-66l67,0l0,298C515,419 451,498 318,498C233,498 151,460 102,428l32,-56C179,400 241,430 304,430C398,430 431,374 433,308C182,288 81,235 81,126 z M161,132C161,196 225,237 433,254l0,-128C378,80 323,54 268,54C212,54 161,77 161,132 z M314,575C402,575 439,646 444,709l-51,0C387,666 363,626 314,626C265,626 240,666 235,709l-51,0C188,646 225,575 314,575 z M303,-226C341,-226 369,-201 369,-163C369,-124 341,-99 303,-99C266,-99 237,-124 237,-163C237,-201 266,-226 303,-226z"/>
<glyph unicode="&#x105;" horiz-adv-x="600" d="M81,126C81,39 155,-12 246,-12C315,-12 384,24 438,66l3,0l7,-62C409,-21 368,-67 368,-121C368,-177 408,-206 458,-206C483,-206 518,-194 537,-179l-22,41C504,-146 491,-151 475,-151C451,-151 429,-136 429,-105C429,-66 460,-22 515,0l0,298C515,419 451,498 318,498C233,498 151,460 102,428l32,-56C179,400 241,430 304,430C398,430 431,374 433,308C182,288 81,235 81,126 z M161,132C161,196 225,237 433,254l0,-128C378,80 323,54 268,54C212,54 161,77 161,132z"/>
<glyph unicode="&#xE6;" horiz-adv-x="600" d="M17,129C17,42 68,-12 147,-12C198,-12 251,20 305,79C337,22 384,-12 454,-12C504,-12 549,8 582,31l-29,54C525,68 494,54 457,54C379,54 339,122 335,223l258,0C595,240 597,257 597,276C597,395 549,498 450,498C386,498 341,462 309,400C291,456 251,498 188,498C128,498 73,472 33,446l31,-56C95,411 143,431 178,431C241,431 264,380 265,308C101,283 17,226 17,129 z M334,278C340,375 381,433 443,433C508,433 528,361 528,278 z M93,133C93,195 142,233 264,254l1,-25C266,191 271,154 281,125C246,79 201,54 167,54C122,54 93,81 93,133z"/>
<glyph unicode="&#x180;" horiz-adv-x="600" d="M175,336C225,386 275,409 318,409C415,409 455,341 455,240C455,126 392,57 307,57C272,57 221,73 175,114 z M175,498l0,73l212,0l0,48l-212,0l0,93l-82,0l0,-93l-73,-5l0,-43l73,0l0,-571l66,0l7,54l3,0C215,13 273,-12 320,-12C436,-12 540,81 540,241C540,385 469,478 338,478C281,478 219,449 173,404z"/>
<glyph unicode="&#xE7;" horiz-adv-x="600" d="M369,-11C433,-6 492,21 539,64l-36,53C462,83 412,56 352,56C240,56 165,131 165,242C165,354 242,430 354,430C405,430 447,409 487,374l41,53C488,466 430,498 351,498C204,498 80,405 80,242C80,92 179,1 315,-11l-33,-64C323,-85 346,-98 346,-124C346,-151 309,-165 257,-172l8,-41C341,-206 410,-179 410,-121C410,-80 383,-61 351,-50z"/>
<glyph unicode="&#x107;" horiz-adv-x="600" d="M80,242C80,81 194,-12 346,-12C418,-12 486,16 539,64l-36,53C462,83 412,56 352,56C240,56 165,131 165,242C165,354 242,430 354,430C405,430 447,409 487,374l41,53C488,466 430,498 351,498C204,498 80,405 80,242 z M458,721l-90,0l-90,-148l63,0z"/>
<glyph unicode="&#x109;" horiz-adv-x="600" d="M80,242C80,81 194,-12 346,-12C418,-12 486,16 539,64l-36,53C462,83 412,56 352,56C240,56 165,131 165,242C165,354 242,430 354,430C405,430 447,409 487,374l41,53C488,466 430,498 351,498C204,498 80,405 80,242 z M211,573l63,0l67,99l4,0l67,-99l63,0l-96,148l-71,0z"/>
<glyph unicode="&#x10D;" horiz-adv-x="600" d="M80,242C80,81 194,-12 346,-12C418,-12 486,16 539,64l-36,53C462,83 412,56 352,56C240,56 165,131 165,242C165,354 242,430 354,430C405,430 447,409 487,374l41,53C488,466 430,498 351,498C204,498 80,405 80,242 z M308,573l71,0l96,148l-63,0l-67,-99l-4,0l-67,99l-63,0z"/>
<glyph unicode="&#x10B;" horiz-adv-x="600" d="M80,242C80,81 194,-12 346,-12C418,-12 486,16 539,64l-36,53C462,83 412,56 352,56C240,56 165,131 165,242C165,354 242,430 354,430C405,430 447,409 487,374l41,53C488,466 430,498 351,498C204,498 80,405 80,242 z M343,586C381,586 409,611 409,649C409,688 381,713 343,713C306,713 277,688 277,649C277,611 306,586 343,586z"/>
<glyph unicode="&#x10F;" horiz-adv-x="600" d="M50,242C50,80 134,-12 261,-12C321,-12 379,23 419,64l3,0l7,-64l68,0l0,712l-82,0l0,-187l3,-90C373,474 330,498 271,498C156,498 50,400 50,242 z M135,243C135,354 203,429 287,429C329,429 371,413 415,372l0,-242C372,82 326,57 278,57C188,57 135,127 135,243 z M581,548l14,155l1,57l-59,0l4,-212z"/>
<glyph unicode="&#x1E0D;" horiz-adv-x="600" d="M60,242C60,80 144,-12 271,-12C331,-12 389,23 429,64l3,0l7,-64l68,0l0,712l-82,0l0,-187l3,-90C383,474 340,498 281,498C166,498 60,400 60,242 z M145,243C145,354 213,429 297,429C339,429 381,413 425,372l0,-242C382,82 336,57 288,57C198,57 145,127 145,243 z M306,-226C344,-226 372,-201 372,-163C372,-124 344,-99 306,-99C269,-99 240,-124 240,-163C240,-201 269,-226 306,-226z"/>
<glyph unicode="&#x1E0F;" horiz-adv-x="600" d="M60,242C60,80 144,-12 271,-12C331,-12 389,23 429,64l3,0l7,-64l68,0l0,712l-82,0l0,-187l3,-90C383,474 340,498 281,498C166,498 60,400 60,242 z M145,243C145,354 213,429 297,429C339,429 381,413 425,372l0,-242C382,82 336,57 288,57C198,57 145,127 145,243 z M429,-113l-247,0l0,-58l247,0z"/>
<glyph unicode="&#x111;" horiz-adv-x="600" d="M425,130C382,82 336,57 288,57C198,57 145,123 145,233C145,337 213,409 298,409C339,409 381,393 425,352 z M579,619l-72,0l0,93l-82,0l0,-93l-174,0l0,-48l174,0l0,-66l3,-90C383,454 340,478 281,478C166,478 60,384 60,232C60,76 144,-12 271,-12C331,-12 389,23 429,64l3,0l7,-64l68,0l0,571l72,5z"/>
<glyph unicode="&#xE8;" horiz-adv-x="600" d="M69,242C69,83 186,-12 330,-12C408,-12 469,14 517,45l-29,54C443,71 397,54 340,54C234,54 158,120 154,223l380,0C536,235 537,253 537,270C537,407 455,498 316,498C190,498 69,401 69,242 z M153,282C166,377 238,433 317,433C407,433 461,379 461,282 z M316,573l64,0l-91,148l-89,0z"/>
<glyph unicode="&#xE9;" horiz-adv-x="600" d="M69,242C69,83 186,-12 330,-12C408,-12 469,14 517,45l-29,54C443,71 397,54 340,54C234,54 158,120 154,223l380,0C536,235 537,253 537,270C537,407 455,498 316,498C190,498 69,401 69,242 z M153,282C166,377 238,433 317,433C407,433 461,379 461,282 z M429,721l-89,0l-91,-148l64,0z"/>
<glyph unicode="&#xEA;" horiz-adv-x="600" d="M69,242C69,83 186,-12 330,-12C408,-12 469,14 517,45l-29,54C443,71 397,54 340,54C234,54 158,120 154,223l380,0C536,235 537,253 537,270C537,407 455,498 316,498C190,498 69,401 69,242 z M153,282C166,377 238,433 317,433C407,433 461,379 461,282 z M182,573l64,0l67,99l4,0l66,-99l64,0l-97,148l-71,0z"/>
<glyph unicode="&#x11B;" horiz-adv-x="600" d="M69,242C69,83 186,-12 330,-12C408,-12 469,14 517,45l-29,54C443,71 397,54 340,54C234,54 158,120 154,223l380,0C536,235 537,253 537,270C537,407 455,498 316,498C190,498 69,401 69,242 z M153,282C166,377 238,433 317,433C407,433 461,379 461,282 z M279,573l71,0l97,148l-64,0l-66,-99l-4,0l-67,99l-64,0z"/>
<glyph unicode="&#xEB;" horiz-adv-x="600" d="M69,242C69,83 186,-12 330,-12C408,-12 469,14 517,45l-29,54C443,71 397,54 340,54C234,54 158,120 154,223l380,0C536,235 537,253 537,270C537,407 455,498 316,498C190,498 69,401 69,242 z M153,282C166,377 238,433 317,433C407,433 461,379 461,282 z M218,588C250,588 272,612 272,643C272,674 250,698 218,698C187,698 165,674 165,643C165,612 187,588 218,588 z M411,588C443,588 465,612 465,643C465,674 443,698 411,698C379,698 357,674 357,643C357,612 379,588 411,588z"/>
<glyph unicode="&#x113;" horiz-adv-x="600" d="M69,242C69,83 186,-12 330,-12C408,-12 469,14 517,45l-29,54C443,71 397,54 340,54C234,54 158,120 154,223l380,0C536,235 537,253 537,270C537,407 455,498 316,498C190,498 69,401 69,242 z M153,282C166,377 238,433 317,433C407,433 461,379 461,282 z M192,601l245,0l0,57l-245,0z"/>
<glyph unicode="&#x115;" horiz-adv-x="600" d="M69,242C69,83 186,-12 330,-12C408,-12 469,14 517,45l-29,54C443,71 397,54 340,54C234,54 158,120 154,223l380,0C536,235 537,253 537,270C537,407 455,498 316,498C190,498 69,401 69,242 z M153,282C166,377 238,433 317,433C407,433 461,379 461,282 z M315,575C403,575 440,646 445,709l-52,0C388,666 364,626 315,626C266,626 241,666 236,709l-51,0C189,646 226,575 315,575z"/>
<glyph unicode="&#x117;" horiz-adv-x="600" d="M69,242C69,83 186,-12 330,-12C408,-12 469,14 517,45l-29,54C443,71 397,54 340,54C234,54 158,120 154,223l380,0C536,235 537,253 537,270C537,407 455,498 316,498C190,498 69,401 69,242 z M153,282C166,377 238,433 317,433C407,433 461,379 461,282 z M315,586C352,586 380,611 380,649C380,688 352,713 315,713C277,713 249,688 249,649C249,611 277,586 315,586z"/>
<glyph unicode="&#x1EB9;" horiz-adv-x="600" d="M69,242C69,83 186,-12 330,-12C408,-12 469,14 517,45l-29,54C443,71 397,54 340,54C234,54 158,120 154,223l380,0C536,235 537,253 537,270C537,407 455,498 316,498C190,498 69,401 69,242 z M153,282C166,377 238,433 317,433C407,433 461,379 461,282 z M315,-226C352,-226 380,-201 380,-163C380,-124 352,-99 315,-99C277,-99 249,-124 249,-163C249,-201 277,-226 315,-226z"/>
<glyph unicode="&#x1EBB;" horiz-adv-x="600" d="M69,242C69,83 186,-12 330,-12C408,-12 469,14 517,45l-29,54C443,71 397,54 340,54C234,54 158,120 154,223l380,0C536,235 537,253 537,270C537,407 455,498 316,498C190,498 69,401 69,242 z M153,282C166,377 238,433 317,433C407,433 461,379 461,282 z M287,553C345,563 397,588 397,646C397,697 347,724 259,727l-8,-48C306,677 334,663 334,637C334,612 309,600 277,591z"/>
<glyph unicode="&#x1EBD;" horiz-adv-x="600" d="M69,242C69,83 186,-12 330,-12C408,-12 469,14 517,45l-29,54C443,71 397,54 340,54C234,54 158,120 154,223l380,0C536,235 537,253 537,270C537,407 455,498 316,498C190,498 69,401 69,242 z M153,282C166,377 238,433 317,433C407,433 461,379 461,282 z M173,579l47,0C226,616 238,634 260,634C293,634 320,579 369,579C422,579 450,626 456,688l-47,0C403,652 391,634 369,634C337,634 309,688 261,688C207,688 179,642 173,579z"/>
<glyph unicode="&#x1EBF;" horiz-adv-x="600" d="M69,242C69,83 186,-12 330,-12C408,-12 469,14 517,45l-29,54C443,71 397,54 340,54C234,54 158,120 154,223l380,0C536,235 537,253 537,270C537,407 455,498 316,498C190,498 69,401 69,242 z M153,282C166,377 238,433 317,433C407,433 461,379 461,282 z M198,573l56,0l59,73l4,0l58,-73l56,0l-83,119l-67,0 z M403,640l51,0l92,114l-69,0z"/>
<glyph unicode="&#x1EC1;" horiz-adv-x="600" d="M69,242C69,83 186,-12 330,-12C408,-12 469,14 517,45l-29,54C443,71 397,54 340,54C234,54 158,120 154,223l380,0C536,235 537,253 537,270C537,407 455,498 316,498C190,498 69,401 69,242 z M153,282C166,377 238,433 317,433C407,433 461,379 461,282 z M198,573l56,0l59,73l4,0l58,-73l56,0l-83,119l-67,0 z M442,754l-70,0l93,-114l51,0z"/>
<glyph unicode="&#x1EC3;" horiz-adv-x="600" d="M69,242C69,83 186,-12 330,-12C408,-12 469,14 517,45l-29,54C443,71 397,54 340,54C234,54 158,120 154,223l380,0C536,235 537,253 537,270C537,407 455,498 316,498C190,498 69,401 69,242 z M153,282C166,377 238,433 317,433C407,433 461,379 461,282 z M198,573l56,0l59,73l4,0l58,-73l56,0l-83,119l-67,0 z M430,628C477,639 523,657 523,711C523,758 480,781 402,784l-7,-41C444,740 464,728 464,702C464,681 446,670 421,663z"/>
<glyph unicode="&#x1EC5;" horiz-adv-x="600" d="M69,242C69,83 186,-12 330,-12C408,-12 469,14 517,45l-29,54C443,71 397,54 340,54C234,54 158,120 154,223l380,0C536,235 537,253 537,270C537,407 455,498 316,498C190,498 69,401 69,242 z M153,282C166,377 238,433 317,433C407,433 461,379 461,282 z M190,571l58,0l65,65l4,0l64,-65l58,0l-87,104l-75,0 z M226,711C230,740 245,754 265,754C297,754 317,711 367,711C413,711 440,749 445,802l-42,0C399,773 384,759 364,759C332,759 313,802 262,802C216,802 189,764 184,711z"/>
<glyph unicode="&#x1EC7;" horiz-adv-x="600" d="M69,242C69,83 186,-12 330,-12C408,-12 469,14 517,45l-29,54C443,71 397,54 340,54C234,54 158,120 154,223l380,0C536,235 537,253 537,270C537,407 455,498 316,498C190,498 69,401 69,242 z M153,282C166,377 238,433 317,433C407,433 461,379 461,282 z M182,573l64,0l67,99l4,0l66,-99l64,0l-97,148l-71,0 z M315,-226C352,-226 380,-201 380,-163C380,-124 352,-99 315,-99C277,-99 249,-124 249,-163C249,-201 277,-226 315,-226z"/>
<glyph unicode="&#x119;" horiz-adv-x="600" d="M488,99C443,71 397,54 340,54C234,54 158,120 154,223l380,0C536,235 537,253 537,270C537,407 455,498 316,498C190,498 69,401 69,242C69,83 186,-12 330,-12C356,-12 377,-11 406,0C377,-24 340,-69 340,-121C340,-177 379,-206 430,-206C455,-206 489,-194 508,-179l-21,41C474,-146 462,-151 447,-151C422,-151 400,-136 400,-105C400,-61 426,-20 517,45 z M153,282C166,377 238,433 317,433C407,433 461,379 461,282z"/>
<glyph unicode="&#x11D;" horiz-adv-x="600" d="M143,-81C143,-53 159,-25 205,0C226,-6 251,-8 279,-8l95,0C448,-8 485,-21 485,-67C485,-117 415,-167 302,-167C198,-167 143,-132 143,-81 z M72,-89C72,-175 154,-224 296,-224C461,-224 566,-145 566,-54C566,28 506,60 381,60l-109,0C208,60 171,77 171,116C171,139 185,157 209,172C236,160 266,154 291,154C396,154 479,217 479,321C479,364 457,399 434,423l130,0l0,63l-201,0C342,494 319,498 291,498C188,498 100,430 100,324C100,266 127,223 160,198l0,-4C123,169 102,134 102,103C102,62 126,37 152,23l0,-4C100,-11 72,-50 72,-89 z M291,209C230,209 179,254 179,324C179,392 230,438 291,438C353,438 403,392 403,324C403,254 353,209 291,209 z M175,573l63,0l67,99l4,0l67,-99l64,0l-97,148l-71,0z"/>
<glyph unicode="&#x11F;" horiz-adv-x="600" d="M143,-81C143,-53 159,-25 205,0C226,-6 251,-8 279,-8l95,0C448,-8 485,-21 485,-67C485,-117 415,-167 302,-167C198,-167 143,-132 143,-81 z M72,-89C72,-175 154,-224 296,-224C461,-224 566,-145 566,-54C566,28 506,60 381,60l-109,0C208,60 171,77 171,116C171,139 185,157 209,172C236,160 266,154 291,154C396,154 479,217 479,321C479,364 457,399 434,423l130,0l0,63l-201,0C342,494 319,498 291,498C188,498 100,430 100,324C100,266 127,223 160,198l0,-4C123,169 102,134 102,103C102,62 126,37 152,23l0,-4C100,-11 72,-50 72,-89 z M291,209C230,209 179,254 179,324C179,392 230,438 291,438C353,438 403,392 403,324C403,254 353,209 291,209 z M307,575C396,575 433,646 437,709l-51,0C381,666 356,626 307,626C258,626 234,666 228,709l-51,0C182,646 219,575 307,575z"/>
<glyph unicode="&#x121;" horiz-adv-x="600" d="M143,-81C143,-53 159,-25 205,0C226,-6 251,-8 279,-8l95,0C448,-8 485,-21 485,-67C485,-117 415,-167 302,-167C198,-167 143,-132 143,-81 z M72,-89C72,-175 154,-224 296,-224C461,-224 566,-145 566,-54C566,28 506,60 381,60l-109,0C208,60 171,77 171,116C171,139 185,157 209,172C236,160 266,154 291,154C396,154 479,217 479,321C479,364 457,399 434,423l130,0l0,63l-201,0C342,494 319,498 291,498C188,498 100,430 100,324C100,266 127,223 160,198l0,-4C123,169 102,134 102,103C102,62 126,37 152,23l0,-4C100,-11 72,-50 72,-89 z M291,209C230,209 179,254 179,324C179,392 230,438 291,438C353,438 403,392 403,324C403,254 353,209 291,209 z M307,586C345,586 373,611 373,649C373,688 345,713 307,713C270,713 242,688 242,649C242,611 270,586 307,586z"/>
<glyph unicode="&#x123;" horiz-adv-x="600" d="M143,-81C143,-53 159,-25 205,0C226,-6 251,-8 279,-8l95,0C448,-8 485,-21 485,-67C485,-117 415,-167 302,-167C198,-167 143,-132 143,-81 z M72,-89C72,-175 154,-224 296,-224C461,-224 566,-145 566,-54C566,28 506,60 381,60l-109,0C208,60 171,77 171,116C171,139 185,157 209,172C236,160 266,154 291,154C396,154 479,217 479,321C479,364 457,399 434,423l130,0l0,63l-201,0C342,494 319,498 291,498C188,498 100,430 100,324C100,266 127,223 160,198l0,-4C123,169 102,134 102,103C102,62 126,37 152,23l0,-4C100,-11 72,-50 72,-89 z M291,209C230,209 179,254 179,324C179,392 230,438 291,438C353,438 403,392 403,324C403,254 353,209 291,209 z M335,541l18,38C325,586 302,597 302,624C302,649 339,662 391,669l-8,41C307,703 238,676 238,618C238,574 268,551 335,541z"/>
<glyph unicode="&#x1E7;" horiz-adv-x="600" d="M143,-81C143,-53 159,-25 205,0C226,-6 251,-8 279,-8l95,0C448,-8 485,-21 485,-67C485,-117 415,-167 302,-167C198,-167 143,-132 143,-81 z M72,-89C72,-175 154,-224 296,-224C461,-224 566,-145 566,-54C566,28 506,60 381,60l-109,0C208,60 171,77 171,116C171,139 185,157 209,172C236,160 266,154 291,154C396,154 479,217 479,321C479,364 457,399 434,423l130,0l0,63l-201,0C342,494 319,498 291,498C188,498 100,430 100,324C100,266 127,223 160,198l0,-4C123,169 102,134 102,103C102,62 126,37 152,23l0,-4C100,-11 72,-50 72,-89 z M291,209C230,209 179,254 179,324C179,392 230,438 291,438C353,438 403,392 403,324C403,254 353,209 291,209 z M272,573l71,0l97,148l-64,0l-67,-99l-4,0l-67,99l-63,0z"/>
<glyph unicode="&#x1E21;" horiz-adv-x="600" d="M143,-81C143,-53 159,-25 205,0C226,-6 251,-8 279,-8l95,0C448,-8 485,-21 485,-67C485,-117 415,-167 302,-167C198,-167 143,-132 143,-81 z M72,-89C72,-175 154,-224 296,-224C461,-224 566,-145 566,-54C566,28 506,60 381,60l-109,0C208,60 171,77 171,116C171,139 185,157 209,172C236,160 266,154 291,154C396,154 479,217 479,321C479,364 457,399 434,423l130,0l0,63l-201,0C342,494 319,498 291,498C188,498 100,430 100,324C100,266 127,223 160,198l0,-4C123,169 102,134 102,103C102,62 126,37 152,23l0,-4C100,-11 72,-50 72,-89 z M291,209C230,209 179,254 179,324C179,392 230,438 291,438C353,438 403,392 403,324C403,254 353,209 291,209 z M185,601l245,0l0,57l-245,0z"/>
<glyph unicode="&#xE001;" horiz-adv-x="600" d="M143,-81C143,-53 159,-25 205,0C226,-6 251,-8 279,-8l95,0C448,-8 485,-21 485,-67C485,-117 415,-167 302,-167C198,-167 143,-132 143,-81 z M72,-89C72,-175 154,-224 296,-224C461,-224 566,-145 566,-54C566,28 506,60 381,60l-109,0C208,60 171,77 171,116C171,139 185,157 209,172C236,160 266,154 291,154C396,154 479,217 479,321C479,364 457,399 434,423l130,0l0,63l-201,0C342,494 319,498 291,498C188,498 100,430 100,324C100,266 127,223 160,198l0,-4C123,169 102,134 102,103C102,62 126,37 152,23l0,-4C100,-11 72,-50 72,-89 z M291,209C230,209 179,254 179,324C179,392 230,438 291,438C353,438 403,392 403,324C403,254 353,209 291,209 z M166,579l47,0C219,616 231,634 253,634C286,634 313,579 361,579C415,579 443,626 449,688l-47,0C396,652 384,634 362,634C330,634 302,688 253,688C200,688 172,642 166,579z"/>
<glyph unicode="&#x125;" horiz-adv-x="600" d="M93,0l82,0l0,339C232,398 271,427 329,427C409,427 441,383 441,291l0,-291l82,0l0,302C523,430 470,498 355,498C279,498 223,457 171,403l4,115l0,194l-82,0 z M76,749l67,68l4,0l67,-68l67,0l-96,111l-79,0l-96,-111z"/>
<glyph unicode="&#x1E25;" horiz-adv-x="600" d="M93,0l82,0l0,339C232,398 271,427 329,427C409,427 441,383 441,291l0,-291l82,0l0,302C523,430 470,498 355,498C279,498 223,457 171,403l4,115l0,194l-82,0 z M314,-226C351,-226 380,-201 380,-163C380,-124 351,-99 314,-99C276,-99 248,-124 248,-163C248,-201 276,-226 314,-226z"/>
<glyph unicode="&#x1E2B;" horiz-adv-x="600" d="M93,0l82,0l0,339C232,398 271,427 329,427C409,427 441,383 441,291l0,-291l82,0l0,302C523,430 470,498 355,498C279,498 223,457 171,403l4,115l0,194l-82,0 z M313,-206C399,-206 435,-138 440,-79l-52,0C383,-118 360,-155 313,-155C266,-155 243,-118 238,-79l-51,0C191,-138 227,-206 313,-206z"/>
<glyph unicode="&#x127;" horiz-adv-x="600" d="M175,498l0,73l212,0l0,48l-212,0l0,93l-82,0l0,-93l-73,-5l0,-43l73,0l0,-571l82,0l0,319C232,378 271,407 329,407C409,407 441,363 441,271l0,-271l82,0l0,282C523,410 470,478 355,478C279,478 223,437 171,383z"/>
<glyph unicode="&#xEC;" horiz-adv-x="600" d="M90,419l226,0l0,-419l82,0l0,486l-308,0 z M350,573l63,0l-90,148l-90,0z"/>
<glyph unicode="&#xED;" horiz-adv-x="600" d="M90,419l226,0l0,-419l82,0l0,486l-308,0 z M462,721l-89,0l-90,-148l63,0z"/>
<glyph unicode="&#xEE;" horiz-adv-x="600" d="M90,419l226,0l0,-419l82,0l0,486l-308,0 z M216,573l63,0l67,99l4,0l67,-99l63,0l-97,148l-71,0z"/>
<glyph unicode="&#x129;" horiz-adv-x="600" d="M90,419l226,0l0,-419l82,0l0,486l-308,0 z M206,579l47,0C259,616 272,634 293,634C326,634 353,579 402,579C455,579 483,626 489,688l-46,0C436,652 424,634 402,634C371,634 342,688 294,688C241,688 213,642 206,579z"/>
<glyph unicode="&#xEF;" horiz-adv-x="600" d="M90,419l226,0l0,-419l82,0l0,486l-308,0 z M251,588C283,588 305,612 305,643C305,674 283,698 251,698C220,698 198,674 198,643C198,612 220,588 251,588 z M444,588C476,588 498,612 498,643C498,674 476,698 444,698C412,698 390,674 390,643C390,612 412,588 444,588z"/>
<glyph unicode="&#x12B;" horiz-adv-x="600" d="M90,419l226,0l0,-419l82,0l0,486l-308,0 z M225,601l245,0l0,57l-245,0z"/>
<glyph unicode="&#x12D;" horiz-adv-x="600" d="M90,419l226,0l0,-419l82,0l0,486l-308,0 z M348,575C436,575 473,646 478,709l-51,0C421,666 397,626 348,626C299,626 274,666 269,709l-51,0C222,646 259,575 348,575z"/>
<glyph unicode="&#x1D0;" horiz-adv-x="600" d="M90,419l226,0l0,-419l82,0l0,486l-308,0 z M312,573l71,0l97,148l-63,0l-67,-99l-4,0l-67,99l-63,0z"/>
<glyph unicode="&#x1EC9;" horiz-adv-x="600" d="M90,419l226,0l0,-419l82,0l0,486l-308,0 z M320,553C378,563 431,588 431,646C431,697 380,724 292,727l-8,-48C339,677 367,663 367,637C367,612 343,600 310,591z"/>
<glyph unicode="&#x1ECB;" horiz-adv-x="600" d="M90,419l226,0l0,-419l82,0l0,486l-308,0 z M348,586C385,586 414,611 414,649C414,688 385,713 348,713C310,713 282,688 282,649C282,611 310,586 348,586 z M348,-226C385,-226 414,-201 414,-163C414,-124 385,-99 348,-99C310,-99 282,-124 282,-163C282,-201 310,-226 348,-226z"/>
<glyph unicode="&#x12F;" horiz-adv-x="600" d="M316,0l19,0C308,-28 272,-67 272,-121C272,-177 312,-206 363,-206C388,-206 422,-194 441,-179l-21,41C407,-146 395,-151 380,-151C355,-151 333,-136 333,-105C333,-66 358,-29 398,0l0,486l-308,0l0,-67l226,0 z M348,586C385,586 414,611 414,649C414,688 385,713 348,713C310,713 282,688 282,649C282,611 310,586 348,586z"/>
<glyph unicode="&#xE002;" horiz-adv-x="600" d="M316,0l19,0C308,-28 272,-67 272,-121C272,-177 312,-206 363,-206C388,-206 422,-194 441,-179l-21,41C407,-146 395,-151 380,-151C355,-151 333,-136 333,-105C333,-66 358,-29 398,0l0,486l-308,0l0,-67l226,0z"/>
<glyph unicode="&#x131;" horiz-adv-x="600" d="M90,419l226,0l0,-419l82,0l0,486l-308,0z"/>
<glyph unicode="&#x135;" horiz-adv-x="600" d="M90,419l226,0l0,-437C316,-101 290,-150 193,-150C156,-150 117,-140 82,-123l-27,-61C94,-203 143,-217 194,-217C351,-217 398,-132 398,-12l0,498l-308,0 z M216,573l63,0l67,99l4,0l67,-99l63,0l-97,148l-71,0z"/>
<glyph unicode="&#x137;" horiz-adv-x="600" d="M106,0l82,0l0,132l115,111l179,-243l92,0l-220,293l194,193l-94,0l-262,-256l-4,0l0,482l-82,0 z M306,-48l-18,-38C317,-93 339,-104 339,-130C339,-156 303,-169 250,-176l9,-40C334,-210 403,-183 403,-125C403,-80 374,-58 306,-48z"/>
<glyph unicode="&#x138;" horiz-adv-x="600" d="M106,0l82,0l0,130l115,110l179,-240l92,0l-220,293l194,193l-94,0l-263,-255l-3,-1l0,256l-82,0z"/>
<glyph unicode="&#x13A;" horiz-adv-x="600" d="M81,645l166,0l0,-482C247,48 303,-12 406,-12C459,-12 493,1 537,17l-21,62C480,63 452,56 424,56C366,56 329,86 329,157l0,555l-248,0 z M407,870l-94,0l-88,-111l69,0z"/>
<glyph unicode="&#x13E;" horiz-adv-x="600" d="M81,645l166,0l0,-482C247,48 303,-12 406,-12C459,-12 493,1 537,17l-21,62C480,63 452,56 424,56C366,56 329,86 329,157l0,555l-248,0 z M442,548l14,155l1,57l-59,0l4,-212z"/>
<glyph unicode="&#x140;" horiz-adv-x="600" d="M42,645l166,0l0,-482C208,48 264,-12 367,-12C420,-12 454,1 498,17l-21,62C441,63 413,56 386,56C327,56 290,86 290,157l0,555l-248,0 z M437,283C475,283 503,308 503,346C503,385 475,410 437,410C400,410 371,385 371,346C371,308 400,283 437,283z"/>
<glyph unicode="&#x13C;" horiz-adv-x="600" d="M81,645l166,0l0,-482C247,48 303,-12 406,-12C459,-12 493,1 537,17l-21,62C480,63 452,56 424,56C366,56 329,86 329,157l0,555l-248,0 z M341,-48l-18,-38C352,-93 375,-104 375,-130C375,-156 338,-169 286,-176l8,-40C370,-210 439,-183 439,-125C439,-80 409,-58 341,-48z"/>
<glyph unicode="&#x1E37;" horiz-adv-x="600" d="M81,645l166,0l0,-482C247,48 303,-12 406,-12C459,-12 493,1 537,17l-21,62C480,63 452,56 424,56C366,56 329,86 329,157l0,555l-248,0 z M371,-226C408,-226 436,-201 436,-163C436,-124 408,-99 371,-99C333,-99 305,-124 305,-163C305,-201 333,-226 371,-226z"/>
<glyph unicode="&#x1E39;" horiz-adv-x="600" d="M81,645l166,0l0,-482C247,48 303,-12 406,-12C459,-12 493,1 537,17l-21,62C480,63 452,56 424,56C366,56 329,86 329,157l0,555l-248,0 z M161,823l245,0l0,57l-245,0 z M371,-226C408,-226 436,-201 436,-163C436,-124 408,-99 371,-99C333,-99 305,-124 305,-163C305,-201 333,-226 371,-226z"/>
<glyph unicode="&#x1E3B;" horiz-adv-x="600" d="M81,645l166,0l0,-482C247,48 303,-12 406,-12C459,-12 493,1 537,17l-21,62C480,63 452,56 424,56C366,56 329,86 329,157l0,555l-248,0 z M493,-113l-246,0l0,-58l246,0z"/>
<glyph unicode="&#x142;" horiz-adv-x="600" d="M516,79C480,63 452,56 424,56C366,56 329,86 329,157l0,217l163,91l0,71l-163,-91l0,267l-248,0l0,-67l166,0l0,-243l-124,-71l0,-70l124,71l0,-169C247,48 303,-12 406,-12C459,-12 493,1 537,17z"/>
<glyph unicode="&#x1E43;" horiz-adv-x="600" d="M60,0l79,0l0,352C164,402 186,427 220,427C256,427 275,398 275,341l0,-341l66,0l0,352C366,402 389,427 424,427C460,427 477,398 477,341l0,-341l79,0l0,348C556,445 517,498 450,498C396,498 364,465 335,414C323,470 292,498 243,498C188,498 158,467 134,422l-3,0l-7,64l-64,0 z M305,-226C343,-226 371,-201 371,-163C371,-124 343,-99 305,-99C268,-99 239,-124 239,-163C239,-201 268,-226 305,-226z"/>
<glyph unicode="&#x144;" horiz-adv-x="600" d="M93,0l82,0l0,339C232,398 271,427 329,427C409,427 441,383 441,291l0,-291l82,0l0,302C523,430 470,498 355,498C279,498 223,457 172,403l-4,0l-7,83l-68,0 z M432,721l-89,0l-90,-148l63,0z"/>
<glyph unicode="&#x148;" horiz-adv-x="600" d="M93,0l82,0l0,339C232,398 271,427 329,427C409,427 441,383 441,291l0,-291l82,0l0,302C523,430 470,498 355,498C279,498 223,457 172,403l-4,0l-7,83l-68,0 z M282,573l71,0l97,148l-63,0l-67,-99l-4,0l-67,99l-63,0z"/>
<glyph unicode="&#xF1;" horiz-adv-x="600" d="M93,0l82,0l0,339C232,398 271,427 329,427C409,427 441,383 441,291l0,-291l82,0l0,302C523,430 470,498 355,498C279,498 223,457 172,403l-4,0l-7,83l-68,0 z M176,579l47,0C229,616 242,634 263,634C296,634 323,579 372,579C425,579 453,626 459,688l-46,0C406,652 394,634 372,634C341,634 312,688 264,688C211,688 183,642 176,579z"/>
<glyph unicode="&#x146;" horiz-adv-x="600" d="M93,0l82,0l0,339C232,398 271,427 329,427C409,427 441,383 441,291l0,-291l82,0l0,302C523,430 470,498 355,498C279,498 223,457 172,403l-4,0l-7,83l-68,0 z M284,-48l-18,-38C294,-93 317,-104 317,-130C317,-156 280,-169 228,-176l8,-40C312,-210 381,-183 381,-125C381,-80 351,-58 284,-48z"/>
<glyph unicode="&#x1E45;" horiz-adv-x="600" d="M93,0l82,0l0,339C232,398 271,427 329,427C409,427 441,383 441,291l0,-291l82,0l0,302C523,430 470,498 355,498C279,498 223,457 172,403l-4,0l-7,83l-68,0 z M318,586C355,586 384,611 384,649C384,688 355,713 318,713C280,713 252,688 252,649C252,611 280,586 318,586z"/>
<glyph unicode="&#x1E47;" horiz-adv-x="600" d="M93,0l82,0l0,339C232,398 271,427 329,427C409,427 441,383 441,291l0,-291l82,0l0,302C523,430 470,498 355,498C279,498 223,457 172,403l-4,0l-7,83l-68,0 z M313,-226C350,-226 379,-201 379,-163C379,-124 350,-99 313,-99C275,-99 247,-124 247,-163C247,-201 275,-226 313,-226z"/>
<glyph unicode="&#x1E49;" horiz-adv-x="600" d="M93,0l82,0l0,339C232,398 271,427 329,427C409,427 441,383 441,291l0,-291l82,0l0,302C523,430 470,498 355,498C279,498 223,457 172,403l-4,0l-7,83l-68,0 z M435,-113l-246,0l0,-58l246,0z"/>
<glyph unicode="&#x149;" horiz-adv-x="600" d="M6,350C95,396 149,478 149,578C149,654 112,699 59,699C16,699 -15,667 -15,621C-15,579 14,550 56,550C65,550 74,552 82,556C78,486 41,433 -22,398 z M271,410l-7,76l-68,0l0,-486l82,0l0,346C330,399 365,427 417,427C486,427 515,385 515,297l0,-297l83,0l0,308C598,432 548,498 443,498C372,498 322,459 275,410z"/>
<glyph unicode="&#xF2;" horiz-adv-x="600" d="M60,242C60,81 172,-12 300,-12C428,-12 540,81 540,242C540,405 428,498 300,498C172,498 60,405 60,242 z M145,242C145,354 207,430 300,430C393,430 455,354 455,242C455,131 393,56 300,56C207,56 145,131 145,242 z M302,573l63,0l-90,148l-90,0z"/>
<glyph unicode="&#xF3;" horiz-adv-x="600" d="M60,242C60,81 172,-12 300,-12C428,-12 540,81 540,242C540,405 428,498 300,498C172,498 60,405 60,242 z M145,242C145,354 207,430 300,430C393,430 455,354 455,242C455,131 393,56 300,56C207,56 145,131 145,242 z M415,721l-90,0l-90,-148l63,0z"/>
<glyph unicode="&#xF4;" horiz-adv-x="600" d="M60,242C60,81 172,-12 300,-12C428,-12 540,81 540,242C540,405 428,498 300,498C172,498 60,405 60,242 z M145,242C145,354 207,430 300,430C393,430 455,354 455,242C455,131 393,56 300,56C207,56 145,131 145,242 z M168,573l63,0l67,99l4,0l67,-99l63,0l-97,148l-70,0z"/>
<glyph unicode="&#xF5;" horiz-adv-x="600" d="M60,242C60,81 172,-12 300,-12C428,-12 540,81 540,242C540,405 428,498 300,498C172,498 60,405 60,242 z M145,242C145,354 207,430 300,430C393,430 455,354 455,242C455,131 393,56 300,56C207,56 145,131 145,242 z M158,579l47,0C211,616 224,634 245,634C278,634 305,579 354,579C407,579 435,626 442,688l-47,0C389,652 376,634 355,634C323,634 294,688 246,688C193,688 165,642 158,579z"/>
<glyph unicode="&#xF6;" horiz-adv-x="600" d="M60,242C60,81 172,-12 300,-12C428,-12 540,81 540,242C540,405 428,498 300,498C172,498 60,405 60,242 z M145,242C145,354 207,430 300,430C393,430 455,354 455,242C455,131 393,56 300,56C207,56 145,131 145,242 z M204,588C235,588 258,612 258,643C258,674 235,698 204,698C172,698 150,674 150,643C150,612 172,588 204,588 z M396,588C428,588 450,612 450,643C450,674 428,698 396,698C365,698 342,674 342,643C342,612 365,588 396,588z"/>
<glyph unicode="&#x14D;" horiz-adv-x="600" d="M60,242C60,81 172,-12 300,-12C428,-12 540,81 540,242C540,405 428,498 300,498C172,498 60,405 60,242 z M145,242C145,354 207,430 300,430C393,430 455,354 455,242C455,131 393,56 300,56C207,56 145,131 145,242 z M177,601l246,0l0,57l-246,0z"/>
<glyph unicode="&#x14F;" horiz-adv-x="600" d="M60,242C60,81 172,-12 300,-12C428,-12 540,81 540,242C540,405 428,498 300,498C172,498 60,405 60,242 z M145,242C145,354 207,430 300,430C393,430 455,354 455,242C455,131 393,56 300,56C207,56 145,131 145,242 z M300,575C388,575 425,646 430,709l-51,0C373,666 349,626 300,626C251,626 227,666 221,709l-51,0C175,646 212,575 300,575z"/>
<glyph unicode="&#x151;" horiz-adv-x="600" d="M60,242C60,81 172,-12 300,-12C428,-12 540,81 540,242C540,405 428,498 300,498C172,498 60,405 60,242 z M145,242C145,354 207,430 300,430C393,430 455,354 455,242C455,131 393,56 300,56C207,56 145,131 145,242 z M202,571l55,0l88,143l-73,0 z M349,571l55,0l88,143l-72,0z"/>
<glyph unicode="&#x1D2;" horiz-adv-x="600" d="M60,242C60,81 172,-12 300,-12C428,-12 540,81 540,242C540,405 428,498 300,498C172,498 60,405 60,242 z M145,242C145,354 207,430 300,430C393,430 455,354 455,242C455,131 393,56 300,56C207,56 145,131 145,242 z M265,573l70,0l97,148l-63,0l-67,-99l-4,0l-67,99l-63,0z"/>
<glyph unicode="&#x1ECD;" horiz-adv-x="600" d="M60,242C60,81 172,-12 300,-12C428,-12 540,81 540,242C540,405 428,498 300,498C172,498 60,405 60,242 z M145,242C145,354 207,430 300,430C393,430 455,354 455,242C455,131 393,56 300,56C207,56 145,131 145,242 z M301,-226C338,-226 366,-201 366,-163C366,-124 338,-99 301,-99C263,-99 235,-124 235,-163C235,-201 263,-226 301,-226z"/>
<glyph unicode="&#x1ECF;" horiz-adv-x="600" d="M60,242C60,81 172,-12 300,-12C428,-12 540,81 540,242C540,405 428,498 300,498C172,498 60,405 60,242 z M145,242C145,354 207,430 300,430C393,430 455,354 455,242C455,131 393,56 300,56C207,56 145,131 145,242 z M272,553C330,563 383,588 383,646C383,697 332,724 245,727l-9,-48C291,677 319,663 319,637C319,612 295,600 263,591z"/>
<glyph unicode="&#x1ED1;" horiz-adv-x="600" d="M60,242C60,81 172,-12 300,-12C428,-12 540,81 540,242C540,405 428,498 300,498C172,498 60,405 60,242 z M145,242C145,354 207,430 300,430C393,430 455,354 455,242C455,131 393,56 300,56C207,56 145,131 145,242 z M184,573l56,0l58,73l4,0l58,-73l56,0l-82,119l-68,0 z M389,640l51,0l92,114l-70,0z"/>
<glyph unicode="&#x1ED3;" horiz-adv-x="600" d="M60,242C60,81 172,-12 300,-12C428,-12 540,81 540,242C540,405 428,498 300,498C172,498 60,405 60,242 z M145,242C145,354 207,430 300,430C393,430 455,354 455,242C455,131 393,56 300,56C207,56 145,131 145,242 z M184,573l56,0l58,73l4,0l58,-73l56,0l-82,119l-68,0 z M427,754l-69,0l92,-114l51,0z"/>
<glyph unicode="&#x1ED5;" horiz-adv-x="600" d="M60,242C60,81 172,-12 300,-12C428,-12 540,81 540,242C540,405 428,498 300,498C172,498 60,405 60,242 z M145,242C145,354 207,430 300,430C393,430 455,354 455,242C455,131 393,56 300,56C207,56 145,131 145,242 z M184,573l56,0l58,73l4,0l58,-73l56,0l-82,119l-68,0 z M416,628C463,639 509,657 509,711C509,758 465,781 387,784l-7,-41C429,740 449,728 449,702C449,681 432,670 407,663z"/>
<glyph unicode="&#x1ED7;" horiz-adv-x="600" d="M60,242C60,81 172,-12 300,-12C428,-12 540,81 540,242C540,405 428,498 300,498C172,498 60,405 60,242 z M145,242C145,354 207,430 300,430C393,430 455,354 455,242C455,131 393,56 300,56C207,56 145,131 145,242 z M176,571l58,0l64,65l4,0l64,-65l58,0l-86,104l-76,0 z M211,711C216,740 230,754 250,754C283,754 302,711 352,711C398,711 426,749 431,802l-42,0C384,773 370,759 350,759C317,759 298,802 248,802C202,802 174,764 169,711z"/>
<glyph unicode="&#x1ED9;" horiz-adv-x="600" d="M60,242C60,81 172,-12 300,-12C428,-12 540,81 540,242C540,405 428,498 300,498C172,498 60,405 60,242 z M145,242C145,354 207,430 300,430C393,430 455,354 455,242C455,131 393,56 300,56C207,56 145,131 145,242 z M168,573l63,0l67,99l4,0l67,-99l63,0l-97,148l-70,0 z M300,-226C337,-226 366,-201 366,-163C366,-124 337,-99 300,-99C263,-99 234,-124 234,-163C234,-201 263,-226 300,-226z"/>
<glyph unicode="&#xF8;" horiz-adv-x="600" d="M428,356C445,325 455,286 455,242C455,131 393,54 300,54C261,54 227,68 201,92 z M172,130C155,160 145,198 145,242C145,354 207,432 300,432C339,432 373,418 398,394 z M534,480l-37,29l-51,-59C405,481 354,498 300,498C172,498 60,405 60,242C60,170 83,111 119,68l-53,-62l37,-29l51,59C195,5 246,-12 300,-12C428,-12 540,81 540,242C540,315 517,375 481,418z"/>
<glyph unicode="&#x153;" horiz-adv-x="600" d="M88,243C88,354 123,430 191,430C251,430 290,354 290,243C290,132 251,55 191,55C123,55 88,132 88,243 z M11,243C11,81 87,-12 187,-12C249,-12 295,27 323,100C352,27 402,-12 465,-12C511,-12 551,8 582,31l-29,54C526,67 502,54 468,54C396,54 357,122 352,223l241,0C596,244 596,257 596,276C596,396 548,498 456,498C393,498 350,454 323,381C297,455 249,498 187,498C88,498 11,405 11,243 z M351,278C359,373 391,433 450,433C509,433 528,360 528,278z"/>
<glyph unicode="&#x1A1;" horiz-adv-x="600" d="M300,56C207,56 145,131 145,242C145,354 207,430 300,430C393,430 455,354 455,242C455,131 393,56 300,56 z M473,584C482,571 488,557 488,542C488,504 461,484 403,476C372,490 336,498 300,498C172,498 60,405 60,242C60,81 172,-12 300,-12C428,-12 540,81 540,242C540,331 507,399 456,443C514,457 556,490 556,548C556,573 546,595 532,613z"/>
<glyph unicode="&#x1EDB;" horiz-adv-x="600" d="M415,721l-90,0l-90,-148l63,0 z M300,56C207,56 145,131 145,242C145,354 207,430 300,430C393,430 455,354 455,242C455,131 393,56 300,56 z M473,584C482,571 488,557 488,542C488,504 461,484 403,476C372,490 336,498 300,498C172,498 60,405 60,242C60,81 172,-12 300,-12C428,-12 540,81 540,242C540,331 507,399 456,443C514,457 556,490 556,548C556,573 546,595 532,613z"/>
<glyph unicode="&#x1EDD;" horiz-adv-x="600" d="M365,573l-90,148l-90,0l117,-148 z M300,56C207,56 145,131 145,242C145,354 207,430 300,430C393,430 455,354 455,242C455,131 393,56 300,56 z M473,584C482,571 488,557 488,542C488,504 461,484 403,476C372,490 336,498 300,498C172,498 60,405 60,242C60,81 172,-12 300,-12C428,-12 540,81 540,242C540,331 507,399 456,443C514,457 556,490 556,548C556,573 546,595 532,613z"/>
<glyph unicode="&#x1EDF;" horiz-adv-x="600" d="M272,553C330,563 383,588 383,646C383,697 332,724 245,727l-9,-48C291,677 319,663 319,637C319,612 295,600 263,591 z M300,56C207,56 145,131 145,242C145,354 207,430 300,430C393,430 455,354 455,242C455,131 393,56 300,56 z M473,584C482,571 488,557 488,542C488,504 461,484 403,476C372,490 336,498 300,498C172,498 60,405 60,242C60,81 172,-12 300,-12C428,-12 540,81 540,242C540,331 507,399 456,443C514,457 556,490 556,548C556,573 546,595 532,613z"/>
<glyph unicode="&#x1EE1;" horiz-adv-x="600" d="M395,688C389,652 376,634 355,634C323,634 294,688 246,688C193,688 165,642 158,579l47,0C211,616 224,634 245,634C278,634 305,579 354,579C407,579 435,626 442,688 z M300,56C207,56 145,131 145,242C145,354 207,430 300,430C393,430 455,354 455,242C455,131 393,56 300,56 z M473,584C482,571 488,557 488,542C488,504 461,484 403,476C372,490 336,498 300,498C172,498 60,405 60,242C60,81 172,-12 300,-12C428,-12 540,81 540,242C540,331 507,399 456,443C514,457 556,490 556,548C556,573 546,595 532,613z"/>
<glyph unicode="&#x1EE3;" horiz-adv-x="600" d="M301,-99C264,-99 235,-124 235,-163C235,-201 264,-226 301,-226C338,-226 367,-201 367,-163C367,-124 338,-99 301,-99 z M300,56C207,56 145,131 145,242C145,354 207,430 300,430C393,430 455,354 455,242C455,131 393,56 300,56 z M473,584C482,571 488,557 488,542C488,504 461,484 403,476C372,490 336,498 300,498C172,498 60,405 60,242C60,81 172,-12 300,-12C428,-12 540,81 540,242C540,331 507,399 456,443C514,457 556,490 556,548C556,573 546,595 532,613z"/>
<glyph unicode="&#x1EB;" horiz-adv-x="600" d="M234,-121C234,-177 274,-206 324,-206C349,-206 384,-194 403,-179l-22,41C369,-146 357,-151 341,-151C317,-151 295,-136 295,-105C295,-67 320,-25 366,-4C472,39 540,107 540,242C540,405 428,498 300,498C172,498 60,405 60,242C60,88 163,-6 289,-11C267,-30 234,-71 234,-121 z M145,242C145,354 207,430 300,430C393,430 455,354 455,242C455,131 393,56 300,56C207,56 145,131 145,242z"/>
<glyph unicode="&#x155;" horiz-adv-x="600" d="M146,0l82,0l0,285C286,386 355,424 428,424C466,424 484,419 518,407l19,71C507,493 477,498 441,498C351,498 275,449 224,371l-3,0l-7,115l-68,0 z M456,721l-89,0l-90,-148l63,0z"/>
<glyph unicode="&#x157;" horiz-adv-x="600" d="M146,0l82,0l0,285C286,386 355,424 428,424C466,424 484,419 518,407l19,71C507,493 477,498 441,498C351,498 275,449 224,371l-3,0l-7,115l-68,0 z M171,-48l-18,-38C182,-93 204,-104 204,-130C204,-156 168,-169 115,-176l9,-40C199,-210 268,-183 268,-125C268,-80 239,-58 171,-48z"/>
<glyph unicode="&#x159;" horiz-adv-x="600" d="M146,0l82,0l0,285C286,386 355,424 428,424C466,424 484,419 518,407l19,71C507,493 477,498 441,498C351,498 275,449 224,371l-3,0l-7,115l-68,0 z M306,573l71,0l97,148l-63,0l-67,-99l-4,0l-67,99l-63,0z"/>
<glyph unicode="&#x1E5B;" horiz-adv-x="600" d="M146,0l82,0l0,285C286,386 355,424 428,424C466,424 484,419 518,407l19,71C507,493 477,498 441,498C351,498 275,449 224,371l-3,0l-7,115l-68,0 z M200,-226C238,-226 266,-201 266,-163C266,-124 238,-99 200,-99C163,-99 134,-124 134,-163C134,-201 163,-226 200,-226z"/>
<glyph unicode="&#x1E5D;" horiz-adv-x="600" d="M146,0l82,0l0,285C286,386 355,424 428,424C466,424 484,419 518,407l19,71C507,493 477,498 441,498C351,498 275,449 224,371l-3,0l-7,115l-68,0 z M219,601l245,0l0,57l-245,0 z M200,-226C238,-226 266,-201 266,-163C266,-124 238,-99 200,-99C163,-99 134,-124 134,-163C134,-201 163,-226 200,-226z"/>
<glyph unicode="&#x1E5F;" horiz-adv-x="600" d="M146,0l82,0l0,285C286,386 355,424 428,424C466,424 484,419 518,407l19,71C507,493 477,498 441,498C351,498 275,449 224,371l-3,0l-7,115l-68,0 z M323,-113l-247,0l0,-58l247,0z"/>
<glyph unicode="&#x15B;" horiz-adv-x="600" d="M72,64C131,23 215,-12 310,-12C449,-12 526,54 526,133C526,207 463,245 332,278C244,300 184,324 184,364C184,402 213,434 304,434C364,434 416,413 459,383l40,53C451,469 377,498 304,498C170,498 100,438 100,360C100,291 185,247 285,222C404,193 443,166 443,128C443,86 400,52 313,52C226,52 166,78 112,118 z M418,721l-89,0l-91,-148l63,0z"/>
<glyph unicode="&#x15D;" horiz-adv-x="600" d="M72,64C131,23 215,-12 310,-12C449,-12 526,54 526,133C526,207 463,245 332,278C244,300 184,324 184,364C184,402 213,434 304,434C364,434 416,413 459,383l40,53C451,469 377,498 304,498C170,498 100,438 100,360C100,291 185,247 285,222C404,193 443,166 443,128C443,86 400,52 313,52C226,52 166,78 112,118 z M171,573l63,0l67,99l4,0l67,-99l64,0l-97,148l-71,0z"/>
<glyph unicode="&#x161;" horiz-adv-x="600" d="M72,64C131,23 215,-12 310,-12C449,-12 526,54 526,133C526,207 463,245 332,278C244,300 184,324 184,364C184,402 213,434 304,434C364,434 416,413 459,383l40,53C451,469 377,498 304,498C170,498 100,438 100,360C100,291 185,247 285,222C404,193 443,166 443,128C443,86 400,52 313,52C226,52 166,78 112,118 z M268,573l71,0l97,148l-64,0l-67,-99l-4,0l-67,99l-63,0z"/>
<glyph unicode="&#x15F;" horiz-adv-x="600" d="M499,436C451,469 377,498 304,498C170,498 100,438 100,360C100,291 185,247 285,222C404,193 443,166 443,128C443,86 400,52 313,52C226,52 166,78 112,118l-40,-54C126,26 201,-6 287,-11l-33,-64C295,-85 318,-98 318,-124C318,-151 281,-165 229,-172l8,-41C313,-206 382,-179 382,-121C382,-80 355,-61 323,-50l18,39C461,-2 526,60 526,133C526,207 463,245 332,278C244,300 184,324 184,364C184,402 213,434 304,434C364,434 416,413 459,383z"/>
<glyph unicode="&#x219;" horiz-adv-x="600" d="M72,64C131,23 215,-12 310,-12C449,-12 526,54 526,133C526,207 463,245 332,278C244,300 184,324 184,364C184,402 213,434 304,434C364,434 416,413 459,383l40,53C451,469 377,498 304,498C170,498 100,438 100,360C100,291 185,247 285,222C404,193 443,166 443,128C443,86 400,52 313,52C226,52 166,78 112,118 z M281,-48l-18,-38C291,-93 314,-104 314,-130C314,-156 277,-169 225,-176l8,-40C309,-210 378,-183 378,-125C378,-80 348,-58 281,-48z"/>
<glyph unicode="&#x1E61;" horiz-adv-x="600" d="M72,64C131,23 215,-12 310,-12C449,-12 526,54 526,133C526,207 463,245 332,278C244,300 184,324 184,364C184,402 213,434 304,434C364,434 416,413 459,383l40,53C451,469 377,498 304,498C170,498 100,438 100,360C100,291 185,247 285,222C404,193 443,166 443,128C443,86 400,52 313,52C226,52 166,78 112,118 z M303,586C341,586 369,611 369,649C369,688 341,713 303,713C266,713 238,688 238,649C238,611 266,586 303,586z"/>
<glyph unicode="&#x1E63;" horiz-adv-x="600" d="M72,64C131,23 215,-12 310,-12C449,-12 526,54 526,133C526,207 463,245 332,278C244,300 184,324 184,364C184,402 213,434 304,434C364,434 416,413 459,383l40,53C451,469 377,498 304,498C170,498 100,438 100,360C100,291 185,247 285,222C404,193 443,166 443,128C443,86 400,52 313,52C226,52 166,78 112,118 z M310,-226C347,-226 376,-201 376,-163C376,-124 347,-99 310,-99C272,-99 244,-124 244,-163C244,-201 272,-226 310,-226z"/>
<glyph unicode="&#xDF;" horiz-adv-x="600" d="M88,0l82,0l0,507C170,606 215,657 288,657C343,657 374,620 374,571C374,486 284,455 284,364C284,225 486,246 486,130C486,89 455,52 399,52C360,52 327,65 290,91l-33,-58C299,5 345,-12 401,-12C500,-12 564,53 564,137C564,295 363,277 363,374C363,443 453,476 453,576C453,655 395,724 289,724C164,724 88,642 88,519z"/>
<glyph unicode="&#x165;" horiz-adv-x="600" d="M206,189C206,69 252,-12 393,-12C446,-12 502,1 546,17l-18,60C494,64 457,55 411,55C317,55 288,101 288,188l0,231l239,0l0,67l-239,0l0,136l-68,0l-11,-136l-140,-5l0,-62l137,0 z M436,548l14,155l1,57l-59,0l4,-212z"/>
<glyph unicode="&#x163;" horiz-adv-x="600" d="M403,-12C453,-10 505,2 546,17l-18,60C494,64 457,55 411,55C317,55 288,101 288,188l0,231l239,0l0,67l-239,0l0,136l-68,0l-11,-136l-140,-5l0,-62l137,0l0,-230C206,82 242,6 350,-9l-34,-66C357,-85 380,-98 380,-124C380,-151 343,-165 291,-172l8,-41C375,-206 444,-179 444,-121C444,-80 417,-61 385,-50z"/>
<glyph unicode="&#x21B;" horiz-adv-x="600" d="M206,189C206,69 252,-12 393,-12C446,-12 502,1 546,17l-18,60C494,64 457,55 411,55C317,55 288,101 288,188l0,231l239,0l0,67l-239,0l0,136l-68,0l-11,-136l-140,-5l0,-62l137,0 z M350,-48l-18,-38C361,-93 383,-104 383,-130C383,-156 347,-169 294,-176l9,-40C378,-210 447,-183 447,-125C447,-80 418,-58 350,-48z"/>
<glyph unicode="&#x1E6D;" horiz-adv-x="600" d="M206,189C206,69 252,-12 393,-12C446,-12 502,1 546,17l-18,60C494,64 457,55 411,55C317,55 288,101 288,188l0,231l239,0l0,67l-239,0l0,136l-68,0l-11,-136l-140,-5l0,-62l137,0 z M379,-226C417,-226 445,-201 445,-163C445,-124 417,-99 379,-99C342,-99 313,-124 313,-163C313,-201 342,-226 379,-226z"/>
<glyph unicode="&#x1E6F;" horiz-adv-x="600" d="M206,189C206,69 252,-12 393,-12C446,-12 502,1 546,17l-18,60C494,64 457,55 411,55C317,55 288,101 288,188l0,231l239,0l0,67l-239,0l0,136l-68,0l-11,-136l-140,-5l0,-62l137,0 z M502,-113l-247,0l0,-58l247,0z"/>
<glyph unicode="&#x1E97;" horiz-adv-x="600" d="M206,189C206,69 252,-12 393,-12C446,-12 502,1 546,17l-18,60C494,64 457,55 411,55C317,55 288,101 288,188l0,231l239,0l0,67l-239,0l0,136l-68,0l-11,-136l-140,-5l0,-62l137,0 z M167,722C199,722 221,747 221,778C221,809 199,833 167,833C135,833 113,809 113,778C113,747 135,722 167,722 z M360,722C392,722 414,747 414,778C414,809 392,833 360,833C328,833 306,809 306,778C306,747 328,722 360,722z"/>
<glyph unicode="&#xF9;" horiz-adv-x="600" d="M505,486l-82,0l0,-337C369,86 328,59 272,59C191,59 160,103 160,195l0,291l-83,0l0,-302C77,56 130,-12 246,-12C321,-12 378,28 427,85l4,0l7,-85l67,0 z M297,573l63,0l-91,148l-89,0z"/>
<glyph unicode="&#xFA;" horiz-adv-x="600" d="M505,486l-82,0l0,-337C369,86 328,59 272,59C191,59 160,103 160,195l0,291l-83,0l0,-302C77,56 130,-12 246,-12C321,-12 378,28 427,85l4,0l7,-85l67,0 z M409,721l-89,0l-91,-148l64,0z"/>
<glyph unicode="&#xFB;" horiz-adv-x="600" d="M505,486l-82,0l0,-337C369,86 328,59 272,59C191,59 160,103 160,195l0,291l-83,0l0,-302C77,56 130,-12 246,-12C321,-12 378,28 427,85l4,0l7,-85l67,0 z M162,573l64,0l67,99l4,0l67,-99l63,0l-97,148l-71,0z"/>
<glyph unicode="&#x169;" horiz-adv-x="600" d="M505,486l-82,0l0,-337C369,86 328,59 272,59C191,59 160,103 160,195l0,291l-83,0l0,-302C77,56 130,-12 246,-12C321,-12 378,28 427,85l4,0l7,-85l67,0 z M153,579l47,0C206,616 219,634 240,634C273,634 300,579 349,579C402,579 430,626 436,688l-47,0C383,652 371,634 349,634C318,634 289,688 241,688C187,688 160,642 153,579z"/>
<glyph unicode="&#xFC;" horiz-adv-x="600" d="M505,486l-82,0l0,-337C369,86 328,59 272,59C191,59 160,103 160,195l0,291l-83,0l0,-302C77,56 130,-12 246,-12C321,-12 378,28 427,85l4,0l7,-85l67,0 z M198,588C230,588 252,612 252,643C252,674 230,698 198,698C167,698 145,674 145,643C145,612 167,588 198,588 z M391,588C423,588 445,612 445,643C445,674 423,698 391,698C359,698 337,674 337,643C337,612 359,588 391,588z"/>
<glyph unicode="&#x16B;" horiz-adv-x="600" d="M505,486l-82,0l0,-337C369,86 328,59 272,59C191,59 160,103 160,195l0,291l-83,0l0,-302C77,56 130,-12 246,-12C321,-12 378,28 427,85l4,0l7,-85l67,0 z M172,601l245,0l0,57l-245,0z"/>
<glyph unicode="&#x16D;" horiz-adv-x="600" d="M505,486l-82,0l0,-337C369,86 328,59 272,59C191,59 160,103 160,195l0,291l-83,0l0,-302C77,56 130,-12 246,-12C321,-12 378,28 427,85l4,0l7,-85l67,0 z M295,575C383,575 420,646 425,709l-51,0C368,666 344,626 295,626C246,626 221,666 216,709l-51,0C169,646 206,575 295,575z"/>
<glyph unicode="&#x16F;" horiz-adv-x="600" d="M505,486l-82,0l0,-337C369,86 328,59 272,59C191,59 160,103 160,195l0,291l-83,0l0,-302C77,56 130,-12 246,-12C321,-12 378,28 427,85l4,0l7,-85l67,0 z M295,542C349,542 388,579 388,635C388,690 349,727 295,727C240,727 201,690 201,635C201,579 240,542 295,542 z M295,579C268,579 247,601 247,635C247,668 268,690 295,690C321,690 343,668 343,635C343,601 321,579 295,579z"/>
<glyph unicode="&#x171;" horiz-adv-x="600" d="M505,486l-82,0l0,-337C369,86 328,59 272,59C191,59 160,103 160,195l0,291l-83,0l0,-302C77,56 130,-12 246,-12C321,-12 378,28 427,85l4,0l7,-85l67,0 z M197,571l54,0l88,143l-72,0 z M344,571l54,0l88,143l-72,0z"/>
<glyph unicode="&#x1D4;" horiz-adv-x="600" d="M505,486l-82,0l0,-337C369,86 328,59 272,59C191,59 160,103 160,195l0,291l-83,0l0,-302C77,56 130,-12 246,-12C321,-12 378,28 427,85l4,0l7,-85l67,0 z M259,573l71,0l97,148l-63,0l-67,-99l-4,0l-67,99l-64,0z"/>
<glyph unicode="&#x1D6;" horiz-adv-x="600" d="M505,486l-82,0l0,-337C369,86 328,59 272,59C191,59 160,103 160,195l0,291l-83,0l0,-302C77,56 130,-12 246,-12C321,-12 378,28 427,85l4,0l7,-85l67,0 z M208,588C235,588 254,608 254,633C254,659 235,679 208,679C182,679 163,659 163,633C163,608 182,588 208,588 z M381,588C407,588 426,608 426,633C426,659 407,679 381,679C355,679 336,659 336,633C336,608 355,588 381,588 z M171,750l246,0l0,47l-246,0z"/>
<glyph unicode="&#x1D8;" horiz-adv-x="600" d="M505,486l-82,0l0,-337C369,86 328,59 272,59C191,59 160,103 160,195l0,291l-83,0l0,-302C77,56 130,-12 246,-12C321,-12 378,28 427,85l4,0l7,-85l67,0 z M242,720l58,0l103,103l-79,0 z M208,588C235,588 254,608 254,633C254,659 235,679 208,679C182,679 163,659 163,633C163,608 182,588 208,588 z M381,588C407,588 426,608 426,633C426,659 407,679 381,679C355,679 336,659 336,633C336,608 355,588 381,588z"/>
<glyph unicode="&#x1DA;" horiz-adv-x="600" d="M505,486l-82,0l0,-337C369,86 328,59 272,59C191,59 160,103 160,195l0,291l-83,0l0,-302C77,56 130,-12 246,-12C321,-12 378,28 427,85l4,0l7,-85l67,0 z M259,720l71,0l90,103l-61,0l-62,-64l-4,0l-63,64l-61,0 z M208,588C235,588 254,608 254,633C254,659 235,679 208,679C182,679 163,659 163,633C163,608 182,588 208,588 z M381,588C407,588 426,608 426,633C426,659 407,679 381,679C355,679 336,659 336,633C336,608 355,588 381,588z"/>
<glyph unicode="&#x1DC;" horiz-adv-x="600" d="M505,486l-82,0l0,-337C369,86 328,59 272,59C191,59 160,103 160,195l0,291l-83,0l0,-302C77,56 130,-12 246,-12C321,-12 378,28 427,85l4,0l7,-85l67,0 z M266,823l-80,0l104,-103l57,0 z M381,588C407,588 426,608 426,633C426,659 407,679 381,679C355,679 336,659 336,633C336,608 355,588 381,588 z M208,588C235,588 254,608 254,633C254,659 235,679 208,679C182,679 163,659 163,633C163,608 182,588 208,588z"/>
<glyph unicode="&#x1EE5;" horiz-adv-x="600" d="M505,486l-82,0l0,-337C369,86 328,59 272,59C191,59 160,103 160,195l0,291l-83,0l0,-302C77,56 130,-12 246,-12C321,-12 378,28 427,85l4,0l7,-85l67,0 z M321,-226C358,-226 386,-201 386,-163C386,-124 358,-99 321,-99C283,-99 255,-124 255,-163C255,-201 283,-226 321,-226z"/>
<glyph unicode="&#x1EE7;" horiz-adv-x="600" d="M505,486l-82,0l0,-337C369,86 328,59 272,59C191,59 160,103 160,195l0,291l-83,0l0,-302C77,56 130,-12 246,-12C321,-12 378,28 427,85l4,0l7,-85l67,0 z M267,553C325,563 378,588 378,646C378,697 327,724 239,727l-8,-48C286,677 314,663 314,637C314,612 289,600 257,591z"/>
<glyph unicode="&#x173;" horiz-adv-x="600" d="M505,486l-82,0l0,-337C369,86 328,59 272,59C191,59 160,103 160,195l0,291l-83,0l0,-302C77,56 130,-12 246,-12C321,-12 378,28 427,85l4,0l7,-81C395,-27 358,-67 358,-121C358,-177 398,-206 448,-206C473,-206 508,-194 527,-179l-22,41C494,-146 481,-151 465,-151C441,-151 419,-136 419,-105C419,-66 446,-29 505,0z"/>
<glyph unicode="&#x1B0;" horiz-adv-x="600" d="M516,594C524,581 530,567 530,552C530,507 493,491 447,486l-24,0l0,-337C369,86 328,59 272,59C191,59 160,103 160,195l0,291l-83,0l0,-302C77,56 130,-12 246,-12C321,-12 378,28 427,85l4,0l7,-85l67,0l0,454C551,467 598,496 598,558C598,583 588,605 575,623z"/>
<glyph unicode="&#x1EE9;" horiz-adv-x="600" d="M409,721l-90,0l-90,-148l63,0 z M516,594C524,581 530,567 530,552C530,507 493,491 447,486l-24,0l0,-337C369,86 328,59 272,59C191,59 160,103 160,195l0,291l-83,0l0,-302C77,56 130,-12 246,-12C321,-12 378,28 427,85l4,0l7,-85l67,0l0,454C551,467 598,496 598,558C598,583 588,605 575,623z"/>
<glyph unicode="&#x1EEB;" horiz-adv-x="600" d="M359,573l-90,148l-90,0l117,-148 z M516,594C524,581 530,567 530,552C530,507 493,491 447,486l-24,0l0,-337C369,86 328,59 272,59C191,59 160,103 160,195l0,291l-83,0l0,-302C77,56 130,-12 246,-12C321,-12 378,28 427,85l4,0l7,-85l67,0l0,454C551,467 598,496 598,558C598,583 588,605 575,623z"/>
<glyph unicode="&#x1EED;" horiz-adv-x="600" d="M266,553C324,563 377,588 377,646C377,697 326,724 239,727l-9,-48C285,677 313,663 313,637C313,612 289,600 257,591 z M516,594C524,581 530,567 530,552C530,507 493,491 447,486l-24,0l0,-337C369,86 328,59 272,59C191,59 160,103 160,195l0,291l-83,0l0,-302C77,56 130,-12 246,-12C321,-12 378,28 427,85l4,0l7,-85l67,0l0,454C551,467 598,496 598,558C598,583 588,605 575,623z"/>
<glyph unicode="&#x1EEF;" horiz-adv-x="600" d="M389,688C383,652 370,634 349,634C317,634 288,688 240,688C187,688 159,642 152,579l47,0C205,616 218,634 239,634C272,634 299,579 348,579C401,579 429,626 436,688 z M516,594C524,581 530,567 530,552C530,507 493,491 447,486l-24,0l0,-337C369,86 328,59 272,59C191,59 160,103 160,195l0,291l-83,0l0,-302C77,56 130,-12 246,-12C321,-12 378,28 427,85l4,0l7,-85l67,0l0,454C551,467 598,496 598,558C598,583 588,605 575,623z"/>
<glyph unicode="&#x1EF1;" horiz-adv-x="600" d="M308,-99C271,-99 242,-124 242,-163C242,-201 271,-226 308,-226C345,-226 374,-201 374,-163C374,-124 345,-99 308,-99 z M516,594C524,581 530,567 530,552C530,507 493,491 447,486l-24,0l0,-337C369,86 328,59 272,59C191,59 160,103 160,195l0,291l-83,0l0,-302C77,56 130,-12 246,-12C321,-12 378,28 427,85l4,0l7,-85l67,0l0,454C551,467 598,496 598,558C598,583 588,605 575,623z"/>
<glyph unicode="&#x1E81;" horiz-adv-x="600" d="M117,0l98,0l56,245C283,301 290,345 298,387l4,0C312,338 320,292 329,246l58,-246l99,0l106,486l-78,0l-59,-281C447,159 440,115 431,70l-4,0C417,115 408,159 397,205l-60,252l-70,0l-59,-252C197,160 188,115 179,70l-4,0C168,115 160,159 151,205l-59,281l-84,0 z M302,573l64,0l-91,148l-89,0z"/>
<glyph unicode="&#x1E83;" horiz-adv-x="600" d="M117,0l98,0l56,245C283,301 290,345 298,387l4,0C312,338 320,292 329,246l58,-246l99,0l106,486l-78,0l-59,-281C447,159 440,115 431,70l-4,0C417,115 408,159 397,205l-60,252l-70,0l-59,-252C197,160 188,115 179,70l-4,0C168,115 160,159 151,205l-59,281l-84,0 z M415,721l-89,0l-91,-148l63,0z"/>
<glyph unicode="&#x175;" horiz-adv-x="600" d="M117,0l98,0l56,245C283,301 290,345 298,387l4,0C312,338 320,292 329,246l58,-246l99,0l106,486l-78,0l-59,-281C447,159 440,115 431,70l-4,0C417,115 408,159 397,205l-60,252l-70,0l-59,-252C197,160 188,115 179,70l-4,0C168,115 160,159 151,205l-59,281l-84,0 z M168,573l63,0l67,99l4,0l67,-99l64,0l-97,148l-71,0z"/>
<glyph unicode="&#x1E85;" horiz-adv-x="600" d="M117,0l98,0l56,245C283,301 290,345 298,387l4,0C312,338 320,292 329,246l58,-246l99,0l106,486l-78,0l-59,-281C447,159 440,115 431,70l-4,0C417,115 408,159 397,205l-60,252l-70,0l-59,-252C197,160 188,115 179,70l-4,0C168,115 160,159 151,205l-59,281l-84,0 z M204,588C236,588 258,612 258,643C258,674 236,698 204,698C172,698 150,674 150,643C150,612 172,588 204,588 z M397,588C428,588 451,612 451,643C451,674 428,698 397,698C365,698 343,674 343,643C343,612 365,588 397,588z"/>
<glyph unicode="&#x1EF3;" horiz-adv-x="600" d="M84,-134l-17,-65C84,-205 108,-209 131,-209C241,-209 301,-136 337,-40l214,526l-78,0l-106,-269C351,173 332,122 315,76l-4,0C291,123 270,174 251,217l-119,269l-83,0l227,-487l-15,-36C237,-97 196,-141 128,-141C113,-141 97,-138 84,-134 z M306,573l63,0l-90,148l-89,0z"/>
<glyph unicode="&#xFD;" horiz-adv-x="600" d="M84,-134l-17,-65C84,-205 108,-209 131,-209C241,-209 301,-136 337,-40l214,526l-78,0l-106,-269C351,173 332,122 315,76l-4,0C291,123 270,174 251,217l-119,269l-83,0l227,-487l-15,-36C237,-97 196,-141 128,-141C113,-141 97,-138 84,-134 z M419,721l-90,0l-90,-148l63,0z"/>
<glyph unicode="&#x177;" horiz-adv-x="600" d="M84,-134l-17,-65C84,-205 108,-209 131,-209C241,-209 301,-136 337,-40l214,526l-78,0l-106,-269C351,173 332,122 315,76l-4,0C291,123 270,174 251,217l-119,269l-83,0l227,-487l-15,-36C237,-97 196,-141 128,-141C113,-141 97,-138 84,-134 z M172,573l63,0l67,99l4,0l67,-99l63,0l-96,148l-71,0z"/>
<glyph unicode="&#xFF;" horiz-adv-x="600" d="M84,-134l-17,-65C84,-205 108,-209 131,-209C241,-209 301,-136 337,-40l214,526l-78,0l-106,-269C351,173 332,122 315,76l-4,0C291,123 270,174 251,217l-119,269l-83,0l227,-487l-15,-36C237,-97 196,-141 128,-141C113,-141 97,-138 84,-134 z M208,588C240,588 262,612 262,643C262,674 240,698 208,698C176,698 154,674 154,643C154,612 176,588 208,588 z M401,588C432,588 454,612 454,643C454,674 432,698 401,698C369,698 347,674 347,643C347,612 369,588 401,588z"/>
<glyph unicode="&#x1E8F;" horiz-adv-x="600" d="M84,-134l-17,-65C84,-205 108,-209 131,-209C241,-209 301,-136 337,-40l214,526l-78,0l-106,-269C351,173 332,122 315,76l-4,0C291,123 270,174 251,217l-119,269l-83,0l227,-487l-15,-36C237,-97 196,-141 128,-141C113,-141 97,-138 84,-134 z M304,586C342,586 370,611 370,649C370,688 342,713 304,713C267,713 238,688 238,649C238,611 267,586 304,586z"/>
<glyph unicode="&#x1EF5;" horiz-adv-x="600" d="M84,-134l-17,-65C84,-205 108,-209 131,-209C241,-209 301,-136 337,-40l214,526l-78,0l-106,-269C351,173 332,122 315,76l-4,0C291,123 270,174 251,217l-119,269l-83,0l227,-487l-15,-36C237,-97 196,-141 128,-141C113,-141 97,-138 84,-134 z M458,-222C496,-222 524,-198 524,-159C524,-121 496,-95 458,-95C421,-95 393,-121 393,-159C393,-198 421,-222 458,-222z"/>
<glyph unicode="&#x1EF7;" horiz-adv-x="600" d="M84,-134l-17,-65C84,-205 108,-209 131,-209C241,-209 301,-136 337,-40l214,526l-78,0l-106,-269C351,173 332,122 315,76l-4,0C291,123 270,174 251,217l-119,269l-83,0l227,-487l-15,-36C237,-97 196,-141 128,-141C113,-141 97,-138 84,-134 z M282,553C340,563 392,588 392,646C392,697 342,724 254,727l-9,-48C301,677 328,663 328,637C328,612 304,600 272,591z"/>
<glyph unicode="&#x1EF9;" horiz-adv-x="600" d="M84,-134l-17,-65C84,-205 108,-209 131,-209C241,-209 301,-136 337,-40l214,526l-78,0l-106,-269C351,173 332,122 315,76l-4,0C291,123 270,174 251,217l-119,269l-83,0l227,-487l-15,-36C237,-97 196,-141 128,-141C113,-141 97,-138 84,-134 z M163,579l46,0C216,616 228,634 250,634C283,634 309,579 358,579C411,579 439,626 446,688l-47,0C393,652 380,634 359,634C327,634 299,688 250,688C197,688 169,642 163,579z"/>
<glyph unicode="&#x17A;" horiz-adv-x="600" d="M71,0l461,0l0,67l-344,0l334,375l0,44l-414,0l0,-67l296,0l-333,-375 z M435,721l-90,0l-90,-148l63,0z"/>
<glyph unicode="&#x17E;" horiz-adv-x="600" d="M71,0l461,0l0,67l-344,0l334,375l0,44l-414,0l0,-67l296,0l-333,-375 z M285,573l71,0l96,148l-63,0l-67,-99l-4,0l-67,99l-63,0z"/>
<glyph unicode="&#x17C;" horiz-adv-x="600" d="M71,0l461,0l0,67l-344,0l334,375l0,44l-414,0l0,-67l296,0l-333,-375 z M320,586C358,586 386,611 386,649C386,688 358,713 320,713C283,713 254,688 254,649C254,611 283,586 320,586z"/>
<glyph unicode="&#x1E93;" horiz-adv-x="600" d="M71,0l461,0l0,67l-344,0l334,375l0,44l-414,0l0,-67l296,0l-333,-375 z M317,-226C354,-226 382,-201 382,-163C382,-124 354,-99 317,-99C279,-99 251,-124 251,-163C251,-201 279,-226 317,-226z"/>
<glyph unicode="&#xF0;" horiz-adv-x="600" d="M300,56C211,56 137,122 137,222C137,314 193,383 300,383C352,383 409,360 456,298C457,284 457,269 457,254C457,138 406,56 300,56 z M509,671l-23,41l-135,-69C306,677 256,705 203,730l-38,-52C210,656 250,634 285,609l-132,-68l23,-41l150,77C387,524 429,458 447,367C410,417 350,447 288,447C156,447 60,358 60,222C60,77 172,-12 298,-12C444,-12 536,97 536,257C536,418 478,529 390,610z"/>
<glyph unicode="&#xFE;" horiz-adv-x="600" d="M175,-41l-1,92C218,13 271,-12 319,-12C434,-12 540,85 540,250C540,401 468,498 337,498C280,498 220,469 173,424l2,87l0,201l-82,0l0,-917l82,0 z M175,114l0,242C225,406 274,429 317,429C414,429 455,357 455,250C455,130 390,57 305,57C271,57 221,73 175,114z"/>
<glyph unicode="&#x237;" horiz-adv-x="600" d="M90,419l226,0l0,-437C316,-101 290,-150 193,-150C156,-150 117,-140 82,-123l-27,-61C94,-203 143,-217 194,-217C351,-217 398,-132 398,-12l0,498l-308,0z"/>
<glyph unicode="&#x250;" horiz-adv-x="600" d="M529,360C529,448 455,498 363,498C295,498 225,462 172,420l-3,0l-7,66l-68,0l0,-298C94,67 159,-12 292,-12C377,-12 459,26 508,58l-32,56C431,86 369,56 305,56C212,56 179,112 177,179C427,198 529,251 529,360 z M449,354C449,290 385,249 177,232l0,128C232,406 286,432 342,432C398,432 449,409 449,354z"/>
<glyph unicode="&#x251;" horiz-adv-x="600" d="M145,243C145,354 213,429 297,429C339,429 381,413 425,372l0,-242C382,82 336,57 288,57C198,57 145,127 145,243 z M60,242C60,80 145,-12 270,-12C331,-12 390,23 429,64l3,0l7,-64l68,0l0,486l-66,0l-7,-54l-3,0C386,475 339,498 282,498C165,498 60,400 60,242z"/>
<glyph unicode="&#x252;" horiz-adv-x="600" d="M455,247C455,130 391,57 306,57C270,57 222,72 175,114l0,242C218,404 269,429 317,429C414,429 455,357 455,247 z M540,251C540,401 469,498 339,498C274,498 210,463 171,422l-3,0l-7,64l-68,0l0,-486l66,0l7,54l3,0C215,13 272,-12 320,-12C436,-12 540,85 540,251z"/>
<glyph unicode="&#x254;" horiz-adv-x="600" d="M520,242C520,405 404,498 263,498C175,498 112,466 71,427l42,-53C154,409 200,430 258,430C363,430 435,354 435,242C435,131 359,56 249,56C189,56 137,83 98,117l-37,-53C113,16 182,-12 257,-12C405,-12 520,81 520,242z"/>
<glyph unicode="&#x258;" horiz-adv-x="600" d="M531,242C531,401 425,498 295,498C159,498 63,407 63,270C63,253 64,235 66,223l380,0C439,119 366,54 260,54C203,54 157,71 112,99l-29,-54C131,14 192,-12 270,-12C414,-12 531,83 531,242 z M139,282C139,379 208,433 291,433C378,433 434,377 447,282z"/>
<glyph unicode="&#x259;" horiz-adv-x="600" d="M69,222C69,77 158,-12 294,-12C435,-12 537,85 537,244C537,404 438,498 287,498C212,498 148,476 100,446l29,-56C173,416 222,433 278,433C389,433 446,368 452,270l-379,0C71,258 69,240 69,222 z M145,211l308,0C444,111 388,54 292,54C205,54 145,106 145,211z"/>
<glyph unicode="&#x261;" horiz-adv-x="600" d="M125,-106l-30,-59C148,-199 217,-217 280,-217C424,-217 507,-141 507,-19l0,505l-66,0l-7,-54l-3,0C388,473 339,498 282,498C164,498 60,402 60,250C60,97 145,5 270,5C330,5 390,37 428,76l-1,-98C425,-100 373,-151 280,-151C231,-151 175,-138 125,-106 z M288,73C199,73 144,142 144,251C144,355 214,429 296,429C339,429 381,413 425,372l0,-226C381,98 335,73 288,73z"/>
<glyph unicode="&#x265;" horiz-adv-x="600" d="M507,486l-82,0l0,-339C368,89 329,59 271,59C191,59 159,103 159,195l0,291l-82,0l0,-302C77,56 130,-12 245,-12C321,-12 377,30 429,83l-4,-114l0,-174l82,0z"/>
<glyph unicode="&#x26F;" horiz-adv-x="600" d="M542,486l-78,0l0,-352C439,84 416,59 382,59C346,59 328,88 328,145l0,341l-67,0l0,-352C236,84 213,59 178,59C142,59 125,88 125,145l0,341l-79,0l0,-348C46,41 85,-12 153,-12C207,-12 239,21 267,72C279,16 310,-12 359,-12C415,-12 444,19 468,64l3,0l7,-64l64,0z"/>
<glyph unicode="&#x279;" horiz-adv-x="600" d="M454,486l-82,0l0,-285C314,100 245,62 172,62C134,62 116,67 82,79l-19,-71C93,-7 123,-12 159,-12C249,-12 325,37 376,115l3,0l7,-115l68,0z"/>
<glyph unicode="&#x287;" horiz-adv-x="600" d="M394,297C394,417 348,498 207,498C154,498 98,485 54,470l18,-61C106,422 143,431 189,431C283,431 312,385 312,298l0,-231l-239,0l0,-67l239,0l0,-136l68,0l11,136l140,0l0,67l-137,0z"/>
<glyph unicode="&#x28C;" horiz-adv-x="600" d="M344,486l-92,0l-201,-486l79,0l112,276C262,325 278,373 295,420l4,0C316,373 334,325 354,276l112,-276l83,0z"/>
<glyph unicode="&#x28D;" horiz-adv-x="600" d="M483,486l-98,0l-56,-245C317,185 310,141 302,99l-4,0C288,148 280,194 271,240l-58,246l-99,0l-106,-486l78,0l59,281C153,327 160,371 169,416l4,0C183,371 192,327 203,281l60,-252l70,0l59,252C403,326 412,371 421,416l4,0C432,371 440,327 449,281l59,-281l84,0z"/>
<glyph unicode="&#x28E;" horiz-adv-x="600" d="M519,649l18,65C519,720 496,724 473,724C368,724 311,650 275,554l-226,-554l78,0l106,269C249,313 268,364 285,410l4,0C309,363 330,312 349,269l119,-269l83,0l-227,487l27,63C374,611 413,656 477,656C493,656 507,653 519,649z"/>
<glyph unicode="&#x29E;" horiz-adv-x="600" d="M494,486l-82,0l0,-130l-115,-110l-179,240l-92,0l220,-293l-194,-193l94,0l262,255l4,0l0,-460l82,0z"/>
<glyph unicode="&#xFB01;" horiz-adv-x="600" d="M118,486l-66,-5l0,-62l66,0l0,-419l82,0l0,419l103,0l0,67l-103,0l0,77C200,625 223,657 269,657C286,657 305,653 324,645l17,63C319,717 290,724 260,724C163,724 118,662 118,563 z M414,0l82,0l0,486l-82,0 z M455,714C417,714 387,688 387,650C387,612 417,586 455,586C493,586 522,612 522,650C522,688 493,714 455,714z"/>
<glyph unicode="&#xFB02;" horiz-adv-x="600" d="M123,486l-66,-5l0,-62l66,0l0,-419l82,0l0,419l103,0l0,67l-103,0l0,77C205,625 227,657 273,657C291,657 310,653 328,645l18,63C324,717 295,724 265,724C168,724 123,662 123,563 z M524,58C515,56 511,56 506,56C494,56 483,66 483,92l0,620l-82,0l0,-614C401,27 426,-12 488,-12C509,-12 523,-9 535,-4z"/>
<glyph unicode="&#xE003;" horiz-adv-x="600" d="M145,243C145,354 213,429 297,429C339,429 381,413 425,372l0,-242C382,82 336,57 288,57C198,57 145,127 145,243 z M60,242C60,80 145,-12 270,-12C331,-12 390,23 429,64l3,0l7,-64l68,0l0,486l-66,0l-7,-54l-3,0C386,475 339,498 282,498C165,498 60,400 60,242z"/>
<glyph unicode="&#xE004;" horiz-adv-x="600" d="M145,243C145,354 213,429 297,429C339,429 381,413 425,372l0,-242C382,82 336,57 288,57C198,57 145,127 145,243 z M60,242C60,80 145,-12 270,-12C331,-12 390,23 429,64l3,0l7,-64l68,0l0,486l-66,0l-7,-54l-3,0C386,475 339,498 282,498C165,498 60,400 60,242 z M309,573l63,0l-90,148l-89,0z"/>
<glyph unicode="&#xE005;" horiz-adv-x="600" d="M145,243C145,354 213,429 297,429C339,429 381,413 425,372l0,-242C382,82 336,57 288,57C198,57 145,127 145,243 z M60,242C60,80 145,-12 270,-12C331,-12 390,23 429,64l3,0l7,-64l68,0l0,486l-66,0l-7,-54l-3,0C386,475 339,498 282,498C165,498 60,400 60,242 z M422,721l-90,0l-90,-148l63,0z"/>
<glyph unicode="&#xE006;" horiz-adv-x="600" d="M145,243C145,354 213,429 297,429C339,429 381,413 425,372l0,-242C382,82 336,57 288,57C198,57 145,127 145,243 z M60,242C60,80 145,-12 270,-12C331,-12 390,23 429,64l3,0l7,-64l68,0l0,486l-66,0l-7,-54l-3,0C386,475 339,498 282,498C165,498 60,400 60,242 z M175,573l63,0l67,99l4,0l67,-99l63,0l-97,148l-70,0z"/>
<glyph unicode="&#xE007;" horiz-adv-x="600" d="M145,243C145,354 213,429 297,429C339,429 381,413 425,372l0,-242C382,82 336,57 288,57C198,57 145,127 145,243 z M60,242C60,80 145,-12 270,-12C331,-12 390,23 429,64l3,0l7,-64l68,0l0,486l-66,0l-7,-54l-3,0C386,475 339,498 282,498C165,498 60,400 60,242 z M166,579l46,0C219,616 231,634 253,634C286,634 312,579 361,579C414,579 442,626 449,688l-47,0C396,652 383,634 362,634C330,634 302,688 253,688C200,688 172,642 166,579z"/>
<glyph unicode="&#xE008;" horiz-adv-x="600" d="M145,243C145,354 213,429 297,429C339,429 381,413 425,372l0,-242C382,82 336,57 288,57C198,57 145,127 145,243 z M60,242C60,80 145,-12 270,-12C331,-12 390,23 429,64l3,0l7,-64l68,0l0,486l-66,0l-7,-54l-3,0C386,475 339,498 282,498C165,498 60,400 60,242 z M211,588C243,588 265,612 265,643C265,674 243,698 211,698C179,698 157,674 157,643C157,612 179,588 211,588 z M403,588C435,588 457,612 457,643C457,674 435,698 403,698C372,698 350,674 350,643C350,612 372,588 403,588z"/>
<glyph unicode="&#xE009;" horiz-adv-x="600" d="M145,243C145,354 213,429 297,429C339,429 381,413 425,372l0,-242C382,82 336,57 288,57C198,57 145,127 145,243 z M60,242C60,80 145,-12 270,-12C331,-12 390,23 429,64l3,0l7,-64l68,0l0,486l-66,0l-7,-54l-3,0C386,475 339,498 282,498C165,498 60,400 60,242 z M185,601l245,0l0,57l-245,0z"/>
<glyph unicode="&#xE00A;" horiz-adv-x="600" d="M145,243C145,354 213,429 297,429C339,429 381,413 425,372l0,-242C382,82 336,57 288,57C198,57 145,127 145,243 z M60,242C60,80 145,-12 270,-12C331,-12 390,23 429,64l3,0l7,-64l68,0l0,486l-66,0l-7,-54l-3,0C386,475 339,498 282,498C165,498 60,400 60,242 z M307,575C396,575 433,646 437,709l-51,0C380,666 356,626 307,626C258,626 234,666 228,709l-51,0C182,646 219,575 307,575z"/>
<glyph unicode="&#xE00B;" horiz-adv-x="600" d="M145,243C145,354 213,429 297,429C339,429 381,413 425,372l0,-242C382,82 336,57 288,57C198,57 145,127 145,243 z M60,242C60,80 145,-12 270,-12C331,-12 390,23 429,64l3,0l7,-64l68,0l0,486l-66,0l-7,-54l-3,0C386,475 339,498 282,498C165,498 60,400 60,242 z M307,542C361,542 401,579 401,635C401,690 361,727 307,727C253,727 214,690 214,635C214,579 253,542 307,542 z M307,579C280,579 259,601 259,635C259,668 280,690 307,690C334,690 355,668 355,635C355,601 334,579 307,579z"/>
<glyph unicode="&#xE00C;" horiz-adv-x="600" d="M145,243C145,354 213,429 297,429C339,429 381,413 425,372l0,-242C382,82 336,57 288,57C198,57 145,127 145,243 z M60,242C60,80 145,-12 270,-12C331,-12 390,23 429,64l3,0l7,-64l68,0l0,486l-66,0l-7,-54l-3,0C386,475 339,498 282,498C165,498 60,400 60,242 z M272,573l70,0l97,148l-63,0l-67,-99l-4,0l-67,99l-63,0z"/>
<glyph unicode="&#xE00D;" horiz-adv-x="600" d="M145,243C145,354 213,429 297,429C339,429 381,413 425,372l0,-242C382,82 336,57 288,57C198,57 145,127 145,243 z M60,242C60,80 145,-12 270,-12C331,-12 390,23 429,64l3,0l7,-64l68,0l0,486l-66,0l-7,-54l-3,0C386,475 339,498 282,498C165,498 60,400 60,242 z M309,-226C347,-226 375,-201 375,-163C375,-124 347,-99 309,-99C272,-99 243,-124 243,-163C243,-201 272,-226 309,-226z"/>
<glyph unicode="&#xE00E;" horiz-adv-x="600" d="M145,243C145,354 213,429 297,429C339,429 381,413 425,372l0,-242C382,82 336,57 288,57C198,57 145,127 145,243 z M60,242C60,80 145,-12 270,-12C331,-12 390,23 429,64l3,0l7,-64l68,0l0,486l-66,0l-7,-54l-3,0C386,475 339,498 282,498C165,498 60,400 60,242 z M279,553C337,563 390,588 390,646C390,697 339,724 252,727l-9,-48C299,677 326,663 326,637C326,612 302,600 270,591z"/>
<glyph unicode="&#xE00F;" horiz-adv-x="600" d="M145,243C145,354 213,429 297,429C339,429 381,413 425,372l0,-242C382,82 336,57 288,57C198,57 145,127 145,243 z M60,242C60,80 145,-12 270,-12C331,-12 390,23 429,64l3,0l7,-64l68,0l0,486l-66,0l-7,-54l-3,0C386,475 339,498 282,498C165,498 60,400 60,242 z M191,573l56,0l58,73l4,0l59,-73l56,0l-83,119l-68,0 z M396,640l51,0l92,114l-70,0z"/>
<glyph unicode="&#xE010;" horiz-adv-x="600" d="M145,243C145,354 213,429 297,429C339,429 381,413 425,372l0,-242C382,82 336,57 288,57C198,57 145,127 145,243 z M60,242C60,80 145,-12 270,-12C331,-12 390,23 429,64l3,0l7,-64l68,0l0,486l-66,0l-7,-54l-3,0C386,475 339,498 282,498C165,498 60,400 60,242 z M191,573l56,0l58,73l4,0l59,-73l56,0l-83,119l-68,0 z M435,754l-70,0l92,-114l51,0z"/>
<glyph unicode="&#xE011;" horiz-adv-x="600" d="M145,243C145,354 213,429 297,429C339,429 381,413 425,372l0,-242C382,82 336,57 288,57C198,57 145,127 145,243 z M60,242C60,80 145,-12 270,-12C331,-12 390,23 429,64l3,0l7,-64l68,0l0,486l-66,0l-7,-54l-3,0C386,475 339,498 282,498C165,498 60,400 60,242 z M191,573l56,0l58,73l4,0l59,-73l56,0l-83,119l-68,0 z M423,628C470,639 516,657 516,711C516,758 472,781 395,784l-8,-41C437,740 457,728 457,702C457,681 439,670 414,663z"/>
<glyph unicode="&#xE012;" horiz-adv-x="600" d="M145,243C145,354 213,429 297,429C339,429 381,413 425,372l0,-242C382,82 336,57 288,57C198,57 145,127 145,243 z M60,242C60,80 145,-12 270,-12C331,-12 390,23 429,64l3,0l7,-64l68,0l0,486l-66,0l-7,-54l-3,0C386,475 339,498 282,498C165,498 60,400 60,242 z M183,571l58,0l64,65l4,0l64,-65l59,0l-87,104l-75,0 z M218,711C223,740 238,754 257,754C290,754 309,711 359,711C405,711 433,749 438,802l-42,0C391,773 377,759 357,759C325,759 305,802 255,802C209,802 182,764 177,711z"/>
<glyph unicode="&#xE013;" horiz-adv-x="600" d="M145,243C145,354 213,429 297,429C339,429 381,413 425,372l0,-242C382,82 336,57 288,57C198,57 145,127 145,243 z M60,242C60,80 145,-12 270,-12C331,-12 390,23 429,64l3,0l7,-64l68,0l0,486l-66,0l-7,-54l-3,0C386,475 339,498 282,498C165,498 60,400 60,242 z M175,573l63,0l67,99l4,0l67,-99l63,0l-97,148l-70,0 z M308,-226C345,-226 374,-201 374,-163C374,-124 345,-99 308,-99C270,-99 242,-124 242,-163C242,-201 270,-226 308,-226z"/>
<glyph unicode="&#xE014;" horiz-adv-x="600" d="M145,243C145,354 213,429 297,429C339,429 381,413 425,372l0,-242C382,82 336,57 288,57C198,57 145,127 145,243 z M60,242C60,80 145,-12 270,-12C331,-12 390,23 429,64l3,0l7,-64l68,0l0,486l-66,0l-7,-54l-3,0C386,475 339,498 282,498C165,498 60,400 60,242 z M270,677l48,0l88,112l-68,0 z M307,575C393,575 429,643 433,702l-43,0C384,661 358,622 307,622C256,622 231,661 225,702l-44,0C185,643 221,575 307,575z"/>
<glyph unicode="&#xE015;" horiz-adv-x="600" d="M145,243C145,354 213,429 297,429C339,429 381,413 425,372l0,-242C382,82 336,57 288,57C198,57 145,127 145,243 z M60,242C60,80 145,-12 270,-12C331,-12 390,23 429,64l3,0l7,-64l68,0l0,486l-66,0l-7,-54l-3,0C386,475 339,498 282,498C165,498 60,400 60,242 z M277,789l-69,0l88,-112l49,0 z M307,575C393,575 429,643 433,702l-43,0C384,661 358,622 307,622C256,622 231,661 225,702l-44,0C185,643 221,575 307,575z"/>
<glyph unicode="&#xE016;" horiz-adv-x="600" d="M145,243C145,354 213,429 297,429C339,429 381,413 425,372l0,-242C382,82 336,57 288,57C198,57 145,127 145,243 z M60,242C60,80 145,-12 270,-12C331,-12 390,23 429,64l3,0l7,-64l68,0l0,486l-66,0l-7,-54l-3,0C386,475 339,498 282,498C165,498 60,400 60,242 z M307,575C393,575 429,643 433,702l-43,0C384,661 358,622 307,622C256,622 231,661 225,702l-44,0C185,643 221,575 307,575 z M281,683C328,694 374,713 374,766C374,814 330,837 252,839l-7,-41C294,796 314,783 314,757C314,736 297,725 272,718z"/>
<glyph unicode="&#xE017;" horiz-adv-x="600" d="M145,243C145,354 213,429 297,429C339,429 381,413 425,372l0,-242C382,82 336,57 288,57C198,57 145,127 145,243 z M60,242C60,80 145,-12 270,-12C331,-12 390,23 429,64l3,0l7,-64l68,0l0,486l-66,0l-7,-54l-3,0C386,475 339,498 282,498C165,498 60,400 60,242 z M307,575C393,575 428,629 432,682l-45,0C381,650 357,620 307,620C257,620 233,650 227,682l-45,0C187,629 221,575 307,575 z M177,711l41,0C223,740 238,754 257,754C290,754 309,711 359,711C405,711 433,749 438,802l-42,0C391,773 377,759 357,759C325,759 305,802 255,802C209,802 182,764 177,711z"/>
<glyph unicode="&#xE018;" horiz-adv-x="600" d="M145,243C145,354 213,429 297,429C339,429 381,413 425,372l0,-242C382,82 336,57 288,57C198,57 145,127 145,243 z M60,242C60,80 145,-12 270,-12C331,-12 390,23 429,64l3,0l7,-64l68,0l0,486l-66,0l-7,-54l-3,0C386,475 339,498 282,498C165,498 60,400 60,242 z M307,575C396,575 433,646 437,709l-51,0C380,666 356,626 307,626C258,626 234,666 228,709l-51,0C182,646 219,575 307,575 z M308,-226C345,-226 374,-201 374,-163C374,-124 345,-99 308,-99C270,-99 242,-124 242,-163C242,-201 270,-226 308,-226z"/>
<glyph unicode="&#xE019;" horiz-adv-x="600" d="M145,243C145,354 213,429 297,429C339,429 381,413 425,372l0,-242C382,82 336,57 288,57C198,57 145,127 145,243 z M60,242C60,80 145,-12 270,-12C331,-12 390,23 429,64l3,0l8,-60C397,-27 359,-67 359,-121C359,-177 399,-206 450,-206C475,-206 509,-194 528,-179l-21,41C495,-146 482,-151 467,-151C442,-151 420,-136 420,-105C420,-66 448,-29 507,0l0,486l-66,0l-7,-54l-3,0C386,475 339,498 282,498C165,498 60,400 60,242z"/>
<glyph unicode="&#xE01A;" horiz-adv-x="600" d="M125,-106l-30,-59C148,-199 217,-217 280,-217C424,-217 507,-141 507,-19l0,505l-66,0l-7,-54l-3,0C388,473 339,498 282,498C164,498 60,402 60,250C60,97 145,5 270,5C330,5 390,37 428,76l-1,-98C425,-100 373,-151 280,-151C231,-151 175,-138 125,-106 z M288,73C199,73 144,142 144,251C144,355 214,429 296,429C339,429 381,413 425,372l0,-226C381,98 335,73 288,73z"/>
<glyph unicode="&#xE01B;" horiz-adv-x="600" d="M125,-106l-30,-59C148,-199 217,-217 280,-217C424,-217 507,-141 507,-19l0,505l-66,0l-7,-54l-3,0C388,473 339,498 282,498C164,498 60,402 60,250C60,97 145,5 270,5C330,5 390,37 428,76l-1,-98C425,-100 373,-151 280,-151C231,-151 175,-138 125,-106 z M288,73C199,73 144,142 144,251C144,355 214,429 296,429C339,429 381,413 425,372l0,-226C381,98 335,73 288,73 z M175,573l64,0l66,99l4,0l67,-99l64,0l-97,148l-71,0z"/>
<glyph unicode="&#xE01C;" horiz-adv-x="600" d="M125,-106l-30,-59C148,-199 217,-217 280,-217C424,-217 507,-141 507,-19l0,505l-66,0l-7,-54l-3,0C388,473 339,498 282,498C164,498 60,402 60,250C60,97 145,5 270,5C330,5 390,37 428,76l-1,-98C425,-100 373,-151 280,-151C231,-151 175,-138 125,-106 z M288,73C199,73 144,142 144,251C144,355 214,429 296,429C339,429 381,413 425,372l0,-226C381,98 335,73 288,73 z M307,575C396,575 433,646 437,709l-51,0C381,666 356,626 307,626C258,626 234,666 229,709l-52,0C182,646 219,575 307,575z"/>
<glyph unicode="&#xE01D;" horiz-adv-x="600" d="M125,-106l-30,-59C148,-199 217,-217 280,-217C424,-217 507,-141 507,-19l0,505l-66,0l-7,-54l-3,0C388,473 339,498 282,498C164,498 60,402 60,250C60,97 145,5 270,5C330,5 390,37 428,76l-1,-98C425,-100 373,-151 280,-151C231,-151 175,-138 125,-106 z M288,73C199,73 144,142 144,251C144,355 214,429 296,429C339,429 381,413 425,372l0,-226C381,98 335,73 288,73 z M307,586C345,586 373,611 373,649C373,688 345,713 307,713C270,713 242,688 242,649C242,611 270,586 307,586z"/>
<glyph unicode="&#xE01E;" horiz-adv-x="600" d="M125,-106l-30,-59C148,-199 217,-217 280,-217C424,-217 507,-141 507,-19l0,505l-66,0l-7,-54l-3,0C388,473 339,498 282,498C164,498 60,402 60,250C60,97 145,5 270,5C330,5 390,37 428,76l-1,-98C425,-100 373,-151 280,-151C231,-151 175,-138 125,-106 z M288,73C199,73 144,142 144,251C144,355 214,429 296,429C339,429 381,413 425,372l0,-226C381,98 335,73 288,73 z M335,541l18,38C325,586 302,597 302,624C302,649 339,662 391,669l-8,41C307,703 238,676 238,618C238,574 268,551 335,541z"/>
<glyph unicode="&#xE01F;" horiz-adv-x="600" d="M125,-106l-30,-59C148,-199 217,-217 280,-217C424,-217 507,-141 507,-19l0,505l-66,0l-7,-54l-3,0C388,473 339,498 282,498C164,498 60,402 60,250C60,97 145,5 270,5C330,5 390,37 428,76l-1,-98C425,-100 373,-151 280,-151C231,-151 175,-138 125,-106 z M288,73C199,73 144,142 144,251C144,355 214,429 296,429C339,429 381,413 425,372l0,-226C381,98 335,73 288,73 z M272,573l71,0l97,148l-64,0l-67,-99l-4,0l-66,99l-64,0z"/>
<glyph unicode="&#xE020;" horiz-adv-x="600" d="M125,-106l-30,-59C148,-199 217,-217 280,-217C424,-217 507,-141 507,-19l0,505l-66,0l-7,-54l-3,0C388,473 339,498 282,498C164,498 60,402 60,250C60,97 145,5 270,5C330,5 390,37 428,76l-1,-98C425,-100 373,-151 280,-151C231,-151 175,-138 125,-106 z M288,73C199,73 144,142 144,251C144,355 214,429 296,429C339,429 381,413 425,372l0,-226C381,98 335,73 288,73 z M185,601l245,0l0,57l-245,0z"/>
<glyph unicode="&#xE021;" horiz-adv-x="600" d="M125,-106l-30,-59C148,-199 217,-217 280,-217C424,-217 507,-141 507,-19l0,505l-66,0l-7,-54l-3,0C388,473 339,498 282,498C164,498 60,402 60,250C60,97 145,5 270,5C330,5 390,37 428,76l-1,-98C425,-100 373,-151 280,-151C231,-151 175,-138 125,-106 z M288,73C199,73 144,142 144,251C144,355 214,429 296,429C339,429 381,413 425,372l0,-226C381,98 335,73 288,73 z M166,579l47,0C219,616 231,634 253,634C286,634 313,579 361,579C415,579 443,626 449,688l-47,0C396,652 384,634 362,634C330,634 302,688 253,688C200,688 172,642 166,579z"/>
<glyph unicode="&amp;" horiz-adv-x="600" d="M122,175C122,226 154,265 196,302C241,231 300,162 363,106C329,74 289,54 248,54C178,54 122,102 122,175 z M192,514C192,568 219,609 265,609C309,609 325,575 325,537C325,479 278,439 222,399C203,439 192,478 192,514 z M577,56C542,67 504,88 464,119C512,188 546,268 570,354l-76,0C475,279 448,215 411,162C351,214 293,279 251,346C320,399 392,454 392,538C392,615 346,668 265,668C178,668 121,600 121,513C121,466 137,412 165,358C101,311 42,256 42,170C42,64 122,-12 238,-12C312,-12 369,17 417,63C465,26 511,1 554,-12z"/>
<glyph unicode="0" horiz-adv-x="600" d="M300,-12C442,-12 529,109 529,321C529,535 442,650 300,650C158,650 71,535 71,321C71,109 158,-12 300,-12 z M300,584C389,584 452,505 452,321C452,138 389,54 300,54C211,54 148,138 148,321C148,505 211,584 300,584 z M300,261C333,261 362,286 362,328C362,369 333,394 300,394C267,394 238,369 238,328C238,286 267,261 300,261z"/>
<glyph unicode="1" horiz-adv-x="600" d="M361,68l0,570l-61,0C260,617 211,601 143,591l0,-53l136,0l0,-470l-181,0l0,-68l430,0l0,68z"/>
<glyph unicode="2" horiz-adv-x="600" d="M73,0l449,0l0,71l-210,0C274,71 232,68 193,65C367,223 487,342 487,462C487,575 407,650 279,650C189,650 126,611 69,553l47,-47C157,549 209,583 269,583C363,583 408,531 408,458C408,352 289,240 73,49z"/>
<glyph unicode="3" horiz-adv-x="600" d="M57,78C104,31 177,-12 287,-12C414,-12 518,57 518,170C518,258 445,314 360,332l0,4C439,362 496,411 496,488C496,591 405,650 285,650C203,650 134,616 81,570l44,-52C167,556 222,583 282,583C360,583 412,544 412,482C412,415 354,363 203,363l0,-63C371,300 435,249 435,173C435,102 369,56 282,56C200,56 141,92 99,132z"/>
<glyph unicode="4" horiz-adv-x="600" d="M130,242l173,218C324,491 348,522 368,553l5,0C371,518 369,475 368,440l0,-198 z M545,242l-99,0l0,396l-88,0l-319,-407l0,-55l329,0l0,-176l78,0l0,176l99,0z"/>
<glyph unicode="5" horiz-adv-x="600" d="M56,75C105,31 172,-12 286,-12C408,-12 522,66 522,204C522,342 425,404 303,404C254,404 222,394 185,378l17,189l288,0l0,71l-361,0l-21,-307l44,-28C197,328 229,342 282,342C377,342 439,290 439,202C439,113 367,56 277,56C191,56 139,91 97,129z"/>
<glyph unicode="6" horiz-adv-x="600" d="M321,53C228,53 169,119 157,242C211,304 270,328 320,328C408,328 456,280 456,193C456,109 397,53 321,53 z M522,582C480,621 422,650 344,650C205,650 77,551 77,295C77,90 182,-12 321,-12C435,-12 534,71 534,193C534,324 453,390 335,390C271,390 205,358 154,307C157,512 247,581 349,581C397,581 443,562 476,531z"/>
<glyph unicode="7" horiz-adv-x="600" d="M226,0l86,0C321,250 363,394 532,587l0,51l-462,0l0,-71l368,0C292,388 237,242 226,0z"/>
<glyph unicode="8" horiz-adv-x="600" d="M143,171C143,235 190,276 252,310C364,272 452,250 452,161C452,95 399,49 304,49C206,49 143,100 143,171 z M352,348C257,378 183,410 183,486C183,548 232,589 303,589C387,589 432,539 432,476C432,429 404,386 352,348 z M68,163C68,62 158,-12 302,-12C448,-12 531,63 531,158C531,249 476,289 406,324l0,4C459,365 503,420 503,480C503,579 430,650 305,650C191,650 108,584 108,486C108,419 152,370 205,337l0,-4C137,301 68,251 68,163z"/>
<glyph unicode="9" horiz-adv-x="600" d="M281,310C192,310 145,358 145,445C145,529 204,585 280,585C374,585 431,519 444,395C389,334 330,310 281,310 z M79,55C121,17 179,-12 257,-12C395,-12 524,87 524,343C524,548 418,650 279,650C166,650 67,567 67,445C67,314 147,248 265,248C330,248 394,279 446,330C442,126 353,56 252,56C203,56 157,76 125,107z"/>
<glyph unicode="&#xE022;" horiz-adv-x="600" d="M300,-12C442,-12 529,97 529,290C529,481 442,586 300,586C158,586 71,481 71,290C71,97 158,-12 300,-12 z M300,519C389,519 452,448 452,290C452,128 389,54 300,54C211,54 148,128 148,290C148,448 211,519 300,519 z M300,230C333,230 362,255 362,297C362,338 333,363 300,363C267,363 238,338 238,297C238,255 267,230 300,230z"/>
<glyph unicode="&#xE023;" horiz-adv-x="600" d="M361,68l0,506l-61,0C260,553 211,537 143,527l0,-53l136,0l0,-406l-181,0l0,-68l430,0l0,68z"/>
<glyph unicode="&#xE024;" horiz-adv-x="600" d="M73,0l449,0l0,71l-194,0C290,71 248,68 209,65C380,188 487,291 487,393C487,510 407,586 279,586C189,586 126,547 69,489l47,-47C157,485 209,519 269,519C363,519 408,466 408,389C408,304 292,195 73,49z"/>
<glyph unicode="&#xE025;" horiz-adv-x="600" d="M57,4C104,-43 177,-86 287,-86C414,-86 518,-16 518,100C518,190 445,245 360,264l0,4C439,294 496,344 496,422C496,525 405,586 285,586C203,586 134,552 81,506l44,-52C167,492 222,519 282,519C360,519 412,478 412,416C412,347 354,295 203,295l0,-64C371,231 435,181 435,103C435,29 369,-17 282,-17C200,-17 141,18 99,58z"/>
<glyph unicode="&#xE026;" horiz-adv-x="600" d="M129,161l175,231C325,423 348,456 368,489l5,0C371,454 369,411 368,376l0,-215 z M545,161l-99,0l0,413l-88,0l-319,-425l0,-55l329,0l0,-168l78,0l0,168l99,0z"/>
<glyph unicode="&#xE027;" horiz-adv-x="600" d="M56,2C105,-43 172,-86 286,-86C408,-86 522,-6 522,134C522,275 425,336 303,336C254,336 222,327 185,310l17,193l288,0l0,71l-361,0l-21,-311l44,-28C197,260 229,274 282,274C377,274 439,222 439,132C439,40 367,-17 277,-17C191,-17 139,18 97,55z"/>
<glyph unicode="&#xE028;" horiz-adv-x="600" d="M322,53C228,53 171,119 158,243C212,304 272,328 321,328C409,328 457,280 457,193C457,109 398,53 322,53 z M523,582C481,621 423,650 345,650C207,650 78,551 78,295C78,90 183,-12 322,-12C436,-12 535,71 535,193C535,324 454,390 336,390C272,390 208,358 156,308C160,512 248,581 350,581C399,581 444,562 477,531z"/>
<glyph unicode="&#xE029;" horiz-adv-x="600" d="M226,-74l86,0C322,181 363,328 532,523l0,51l-462,0l0,-71l368,0C292,322 237,171 226,-74z"/>
<glyph unicode="&#xE02A;" horiz-adv-x="600" d="M143,171C143,235 190,276 252,310C364,272 452,250 452,161C452,95 399,49 304,49C206,49 143,100 143,171 z M352,348C257,378 183,410 183,486C183,548 232,589 303,589C387,589 432,539 432,476C432,429 404,386 352,348 z M68,163C68,62 158,-12 302,-12C448,-12 531,63 531,158C531,249 476,289 406,324l0,4C459,365 503,420 503,480C503,579 430,650 305,650C191,650 108,584 108,486C108,419 152,370 205,337l0,-4C137,301 68,251 68,163z"/>
<glyph unicode="&#xE02B;" horiz-adv-x="600" d="M281,237C192,237 145,288 145,378C145,465 204,521 280,521C376,521 434,452 444,323C389,261 330,237 281,237 z M79,-18C121,-57 179,-86 257,-86C395,-86 524,15 524,279C524,484 418,586 279,586C166,586 67,502 67,378C67,245 147,175 265,175C330,175 394,207 446,257C440,51 352,-17 252,-17C203,-17 157,2 125,33z"/>
<glyph unicode="." horiz-adv-x="600" d="M219,72C219,22 255,-12 300,-12C345,-12 381,22 381,72C381,123 345,157 300,157C255,157 219,123 219,72z"/>
<glyph unicode="," horiz-adv-x="600" d="M220,-213C330,-172 396,-90 396,27C396,105 365,155 306,155C263,155 226,128 226,79C226,29 261,4 304,4C310,4 317,5 323,6C320,-73 279,-124 197,-161z"/>
<glyph unicode=":" horiz-adv-x="600" d="M219,431C219,380 255,346 300,346C345,346 381,380 381,431C381,481 345,515 300,515C255,515 219,481 219,431 z M219,72C219,22 255,-12 300,-12C345,-12 381,22 381,72C381,123 345,157 300,157C255,157 219,123 219,72z"/>
<glyph unicode=";" horiz-adv-x="600" d="M300,346C345,346 381,380 381,431C381,481 345,515 300,515C255,515 219,481 219,431C219,380 255,346 300,346 z M220,-213C330,-172 396,-90 396,27C396,105 365,155 306,155C263,155 226,128 226,79C226,29 261,4 304,4C310,4 317,5 323,6C320,-73 279,-124 197,-161z"/>
<glyph unicode="&#x2026;" horiz-adv-x="600" d="M32,63C32,19 63,-12 102,-12C140,-12 171,19 171,63C171,108 140,138 102,138C63,138 32,108 32,63 z M230,63C230,19 261,-12 300,-12C339,-12 370,19 370,63C370,108 339,138 300,138C261,138 230,108 230,63 z M429,63C429,19 460,-12 498,-12C537,-12 568,19 568,63C568,108 537,138 498,138C460,138 429,108 429,63z"/>
<glyph unicode="!" horiz-adv-x="600" d="M272,232l56,0l10,344l2,94l-80,0l2,-94 z M227,66C227,18 260,-12 300,-12C340,-12 373,18 373,66C373,113 340,142 300,142C260,142 227,113 227,66z"/>
<glyph unicode="&#xA1;" horiz-adv-x="600" d="M328,254l-56,0l-10,-344l-2,-94l80,0l-2,94 z M373,421C373,468 340,498 300,498C260,498 227,468 227,421C227,373 260,344 300,344C340,344 373,373 373,421z"/>
<glyph unicode="?" horiz-adv-x="600" d="M242,232l73,0C297,362 479,395 479,526C479,621 404,682 293,682C216,682 154,648 109,601l49,-45C194,592 237,614 288,614C361,614 398,572 398,517C398,415 218,375 242,232 z M213,66C213,18 246,-12 286,-12C326,-12 359,18 359,66C359,113 326,142 286,142C246,142 213,113 213,66z"/>
<glyph unicode="&#xBF;" horiz-adv-x="600" d="M359,254l-73,0C304,124 123,91 123,-40C123,-135 197,-196 308,-196C385,-196 448,-162 492,-115l-48,45C408,-106 364,-127 314,-127C241,-127 203,-86 203,-31C203,71 383,111 359,254 z M389,421C389,468 355,498 315,498C275,498 242,468 242,421C242,373 275,344 315,344C355,344 389,373 389,421z"/>
<glyph unicode="'" horiz-adv-x="600" d="M272,352l56,0l25,225l2,110l-110,0l2,-110z"/>
<glyph unicode="&quot;" horiz-adv-x="600" d="M157,352l56,0l26,225l1,110l-110,0l2,-110 z M387,352l56,0l25,225l2,110l-110,0l1,-110z"/>
<glyph unicode="&#x2018;" horiz-adv-x="600" d="M353,699C263,653 209,570 209,470C209,395 247,350 299,350C342,350 373,381 373,427C373,469 344,499 303,499C294,499 285,497 277,493C281,562 318,615 380,651z"/>
<glyph unicode="&#x2019;" horiz-adv-x="600" d="M245,350C334,396 388,478 388,578C388,654 351,699 298,699C255,699 224,667 224,621C224,579 253,550 295,550C304,550 313,552 321,556C317,486 280,433 217,398z"/>
<glyph unicode="&#x201C;" horiz-adv-x="600" d="M238,699C148,653 95,570 95,470C95,395 132,350 185,350C228,350 258,381 258,427C258,469 229,499 188,499C179,499 170,497 161,493C166,562 203,615 265,651 z M468,699C378,653 324,570 324,470C324,395 362,350 414,350C457,350 488,381 488,427C488,469 459,499 417,499C408,499 399,497 390,493C395,562 432,615 495,651z"/>
<glyph unicode="&#x201D;" horiz-adv-x="600" d="M130,350C220,396 273,478 273,578C273,654 236,699 183,699C140,699 110,667 110,621C110,579 139,550 180,550C189,550 198,552 206,556C202,486 165,433 103,398 z M359,350C449,396 503,478 503,578C503,654 465,699 413,699C370,699 339,667 339,621C339,579 368,550 410,550C418,550 427,552 435,555C431,486 393,433 332,398z"/>
<glyph unicode="&#x201A;" horiz-adv-x="600" d="M245,-226C334,-180 388,-98 388,2C388,78 351,123 298,123C255,123 224,91 224,46C224,3 253,-26 295,-26C304,-26 313,-24 321,-20C317,-90 280,-143 217,-178z"/>
<glyph unicode="&#x201E;" horiz-adv-x="600" d="M130,-226C220,-180 273,-98 273,2C273,78 236,123 183,123C140,123 110,91 110,46C110,3 139,-26 180,-26C189,-26 198,-24 206,-20C202,-90 165,-143 103,-178 z M359,-226C449,-180 503,-98 503,2C503,78 465,123 413,123C370,123 339,91 339,46C339,3 368,-26 410,-26C418,-26 427,-24 435,-21C431,-90 393,-143 332,-178z"/>
<glyph unicode="&#x2039;" horiz-adv-x="600" d="M350,52l39,34l-127,166l127,165l-39,35l-153,-160l0,-80z"/>
<glyph unicode="&#x203A;" horiz-adv-x="600" d="M211,86l39,-34l153,160l0,80l-153,160l-39,-35l127,-165z"/>
<glyph unicode="&#xAB;" horiz-adv-x="600" d="M235,52l39,34l-127,166l127,165l-39,35l-153,-160l0,-80 z M464,52l40,34l-127,166l127,165l-40,35l-152,-160l0,-80z"/>
<glyph unicode="&#xBB;" horiz-adv-x="600" d="M96,86l40,-34l152,160l0,80l-152,160l-40,-35l127,-165 z M326,86l39,-34l153,160l0,80l-153,160l-39,-35l127,-165z"/>
<glyph unicode="-" horiz-adv-x="600" d="M85,299l430,0l0,62l-430,0z"/>
<glyph unicode="&#xAD;" horiz-adv-x="600" d="M85,299l430,0l0,62l-430,0z"/>
<glyph unicode="&#x2013;" horiz-adv-x="600" d="M80,216l440,0l0,72l-440,0z"/>
<glyph unicode="&#x2014;" horiz-adv-x="600" d="M20,216l560,0l0,72l-560,0z"/>
<glyph unicode="&#x2012;" horiz-adv-x="600" d="M80,216l440,0l0,72l-440,0z"/>
<glyph unicode="&#x2015;" horiz-adv-x="600" d="M20,216l560,0l0,72l-560,0z"/>
<glyph unicode="&#xB7;" horiz-adv-x="600" d="M219,347C219,297 255,263 300,263C345,263 381,297 381,347C381,397 345,432 300,432C255,432 219,397 219,347z"/>
<glyph unicode="&#x2022;" horiz-adv-x="600" d="M300,115C379,115 449,174 449,262C449,350 379,409 300,409C221,409 151,350 151,262C151,174 221,115 300,115z"/>
<glyph unicode="_" horiz-adv-x="600" d="M60,-69l0,-71l480,0l0,71z"/>
<glyph unicode="(" horiz-adv-x="600" d="M433,-176l45,42C344,-21 282,110 282,278C282,446 344,577 478,690l-45,42C294,624 208,471 208,278C208,85 294,-68 433,-176z"/>
<glyph unicode=")" horiz-adv-x="600" d="M167,-176C306,-68 392,85 392,278C392,471 306,624 167,732l-45,-42C256,577 318,446 318,278C318,110 256,-21 122,-134z"/>
<glyph unicode="[" horiz-adv-x="600" d="M226,-152l276,0l0,48l-211,0l0,764l211,0l0,48l-276,0z"/>
<glyph unicode="]" horiz-adv-x="600" d="M99,-104l0,-48l276,0l0,860l-276,0l0,-48l210,0l0,-764z"/>
<glyph unicode="{" horiz-adv-x="600" d="M256,-19C256,-122 315,-152 441,-152l61,0l0,48l-52,0C348,-104 326,-79 326,-14C326,47 332,99 332,167C332,232 310,264 241,276l0,4C310,292 332,324 332,389C332,451 326,513 326,570C326,635 348,660 450,660l52,0l0,48l-61,0C315,708 256,678 256,575C256,506 265,445 265,382C265,343 238,305 120,304l0,-52C238,251 265,213 265,174C265,107 256,54 256,-19z"/>
<glyph unicode="}" horiz-adv-x="600" d="M99,-104l0,-48l61,0C285,-152 344,-122 344,-19C344,54 335,107 335,174C335,213 362,251 480,252l0,52C362,305 335,343 335,382C335,445 344,506 344,575C344,678 285,708 160,708l-61,0l0,-48l51,0C252,660 275,635 275,570C275,513 269,451 269,389C269,324 290,292 359,280l0,-4C290,264 269,232 269,167C269,99 275,47 275,-14C275,-79 252,-104 150,-104z"/>
<glyph unicode="/" horiz-adv-x="600" d="M501,710l-74,0l-328,-870l74,0z"/>
<glyph unicode="|" horiz-adv-x="600" d="M263,-250l74,0l0,1000l-74,0z"/>
<glyph unicode="\" horiz-adv-x="600" d="M427,-160l74,0l-328,870l-74,0z"/>
<glyph unicode="&#xA6;" horiz-adv-x="600" d="M263,291l74,0l0,459l-74,0 z M263,214l0,-464l74,0l0,464z"/>
<glyph unicode="*" horiz-adv-x="600" d="M180,111l120,159l120,-159l42,30l-108,165l162,70l-16,46l-167,-55l-9,189l-48,0l-9,-189l-167,55l-16,-46l162,-70l-108,-165z"/>
<glyph unicode="&#x2020;" horiz-adv-x="600" d="M265,-80l70,0l-5,571l143,-5l0,71l-143,-5l5,160l-70,0l5,-160l-143,5l0,-71l143,5z"/>
<glyph unicode="&#x2021;" horiz-adv-x="600" d="M127,75l143,5l-5,-160l70,0l-5,160l143,-5l0,71l-143,-7l5,177l-5,177l143,-7l0,71l-143,-5l5,160l-70,0l5,-160l-143,5l0,-71l143,7l-5,-177l5,-177l-143,7z"/>
<glyph unicode="&#xA7;" horiz-adv-x="600" d="M371,192C286,242 162,260 162,348C162,389 189,415 230,436C315,387 438,368 438,278C438,233 414,211 371,192 z M463,627C423,658 368,684 302,684C202,684 151,623 151,554C151,520 163,494 182,473C129,445 91,402 91,343C91,158 373,183 373,69C373,31 341,0 287,0C231,0 193,20 158,52l-50,-45C150,-37 214,-64 287,-64C382,-64 448,-6 448,73C448,107 437,133 419,154C473,183 509,220 509,284C509,468 226,449 226,557C226,591 250,620 306,620C352,620 389,600 423,574z"/>
<glyph unicode="&#xB6;" horiz-adv-x="600" d="M404,-80l81,0l0,736l-81,0 z M350,656l-43,0C173,656 72,600 72,443C72,292 177,226 318,226l32,0z"/>
<glyph unicode="&#xA9;" horiz-adv-x="600" d="M30,323C30,119 147,-11 300,-11C453,-11 570,119 570,323C570,527 453,653 300,653C147,653 30,527 30,323 z M76,323C76,498 166,612 300,612C434,612 524,498 524,323C524,148 434,31 300,31C166,31 76,148 76,323 z M146,323C146,199 218,125 308,125C358,125 391,145 421,172l-30,42C368,195 345,180 310,180C251,180 212,235 212,323C212,401 253,457 314,457C341,457 360,445 381,426l34,39C389,492 358,512 311,512C224,512 146,439 146,323z"/>
<glyph unicode="&#x2117;" horiz-adv-x="600" d="M193,137l65,0l0,115l49,0C382,252 443,295 443,383C443,464 383,500 307,500l-114,0 z M258,302l0,147l39,0C348,449 378,429 378,381C378,326 349,302 297,302 z M30,323C30,119 147,-11 300,-11C453,-11 570,119 570,323C570,527 453,653 300,653C147,653 30,527 30,323 z M76,323C76,498 166,612 300,612C434,612 524,498 524,323C524,148 434,31 300,31C166,31 76,148 76,323z"/>
<glyph unicode="&#xAE;" horiz-adv-x="600" d="M300,319C403,319 488,399 488,516C488,633 403,713 300,713C196,713 112,633 112,516C112,399 196,319 300,319 z M300,356C216,356 151,421 151,516C151,610 216,677 300,677C384,677 448,610 448,516C448,421 384,356 300,356 z M227,417l41,0l0,70l41,0l35,-70l46,0l-46,83C366,508 382,531 382,555C382,603 345,620 303,620l-76,0 z M268,519l0,67l28,0C326,586 338,573 338,553C338,531 321,519 294,519z"/>
<glyph unicode="&#x2122;" horiz-adv-x="600" d="M292,366l54,0l0,137l-7,105l4,0l72,-187l42,0l71,187l4,0l-7,-105l0,-137l55,0l0,310l-71,0l-44,-114l-26,-80l-4,0l-27,80l-45,114l-71,0 z M91,366l60,0l0,256l96,0l0,54l-252,0l0,-54l96,0z"/>
<glyph unicode="&#x2120;" horiz-adv-x="600" d="M125,354C193,354 234,398 234,445C234,491 212,514 173,532l-46,23C101,567 86,578 86,598C86,618 102,636 133,636C156,636 180,622 200,606l30,39C207,666 172,683 135,683C72,683 31,647 31,595C31,548 61,525 90,510l46,-24C166,471 178,466 178,440C178,416 160,401 129,401C96,401 73,416 48,439l-33,-37C45,372 81,354 125,354 z M292,366l54,0l0,137l-7,105l4,0l72,-187l42,0l71,187l4,0l-7,-105l0,-137l55,0l0,310l-71,0l-44,-114l-26,-80l-4,0l-27,80l-45,114l-71,0z"/>
<glyph unicode="@" horiz-adv-x="600" d="M546,397C546,532 481,635 343,635C178,635 49,505 49,250C49,-7 183,-144 341,-144C407,-144 460,-125 512,-89l-28,45C445,-73 403,-89 343,-89C213,-89 112,33 112,247C112,468 219,580 339,580C444,580 488,500 488,404l0,-14C318,369 224,321 224,219C224,138 282,88 353,88C405,88 456,121 485,158l4,0l7,-58l50,0 z M290,221C290,282 344,317 482,336l0,-126C445,168 406,146 370,146C321,146 290,174 290,221z"/>
<glyph unicode="&#xE02C;" horiz-adv-x="600" d="M546,463C546,576 482,668 346,668C180,668 49,552 49,323C49,100 183,-18 341,-18C407,-18 460,2 512,37l-28,45C445,53 403,37 343,37C213,37 112,140 112,320C112,515 221,613 342,613C444,613 488,548 488,473l0,-10C318,442 224,393 224,292C224,211 282,161 353,161C405,161 456,193 485,231l4,0l7,-58l50,0 z M290,293C290,355 344,389 482,409l0,-126C445,241 406,219 370,219C321,219 290,246 290,293z"/>
<glyph unicode="#" horiz-adv-x="600" d="M142,0l54,0l24,204l133,0l-25,-204l54,0l24,204l93,0l0,57l-86,0l19,148l87,0l0,58l-81,0l23,183l-53,0l-24,-183l-132,0l23,183l-53,0l-24,-183l-91,0l0,-58l85,0l-19,-148l-86,0l0,-57l79,0 z M227,261l18,148l133,0l-19,-148z"/>
<glyph unicode="&#xE02D;" horiz-adv-x="600" d="M197,316l103,140l103,-140l42,29l-92,147l143,57l-16,46l-147,-42l-9,159l-48,0l-9,-161l-147,44l-16,-46l143,-57l-92,-147z"/>
<glyph unicode="&#xE02E;" horiz-adv-x="600" d="M134,216l332,0l0,72l-332,0z"/>
<glyph unicode="&#xE02F;" horiz-adv-x="600" d="M134,216l332,0l0,72l-332,0z"/>
<glyph unicode="&#xE030;" horiz-adv-x="600" d="M327,287C387,263 435,237 435,189C435,138 392,102 314,102C307,102 300,102 293,103 z M288,383C233,404 190,427 190,467C190,518 233,550 300,550C306,550 313,550 319,549 z M374,538C401,529 424,513 451,493l44,48C465,570 431,594 387,607l25,137l-56,7l-25,-134C323,618 315,618 306,618C192,618 110,559 110,465C110,378 192,340 274,308l-36,-195C195,125 157,147 124,170l-39,-57C120,84 170,58 225,44l-28,-151l56,-6l27,148C288,34 296,34 304,34C429,34 515,99 515,195C515,291 426,331 341,363z"/>
<glyph unicode="&#xE031;" horiz-adv-x="600" d="M300,428C381,428 439,490 439,595C439,698 381,757 300,757C219,757 161,698 161,595C161,490 219,428 300,428 z M300,478C257,478 222,516 222,595C222,674 257,708 300,708C343,708 378,674 378,595C378,516 343,478 300,478z"/>
<glyph unicode="&#xE032;" horiz-adv-x="600" d="M290,440l63,0l0,305l-50,0C275,729 252,719 208,712l0,-42l82,0z"/>
<glyph unicode="&#xE033;" horiz-adv-x="600" d="M184,440l238,0l0,53l-136,0C353,553 407,600 407,654C407,720 364,757 292,757C244,757 203,731 173,696l40,-33C232,688 257,705 284,705C323,705 345,682 345,646C345,602 288,555 184,476z"/>
<glyph unicode="&#xE034;" horiz-adv-x="600" d="M172,482C205,448 253,428 299,428C367,428 420,462 420,521C420,562 392,588 349,598C388,612 405,635 405,673C405,726 361,757 299,757C253,757 209,739 184,712l30,-38C234,694 263,708 287,708C325,708 342,691 342,665C342,634 316,614 261,614l0,-38C326,576 357,559 357,525C357,492 331,478 295,478C259,478 224,497 204,521z"/>
<glyph unicode="&#xE035;" horiz-adv-x="600" d="M236,556l54,73l45,65l3,0l-4,-82l0,-56 z M441,556l-50,0l0,189l-71,0l-148,-201l0,-31l162,0l0,-73l57,0l0,73l50,0z"/>
<glyph unicode="&#xE036;" horiz-adv-x="600" d="M172,482C208,448 246,428 301,428C372,428 425,471 425,534C425,597 379,633 313,633C293,633 273,629 257,621l10,70l139,0l0,54l-189,0l-17,-155l31,-20C251,584 269,593 295,593C336,593 362,573 362,535C362,499 334,478 296,478C256,478 227,497 204,521z"/>
<glyph unicode="&#xE037;" horiz-adv-x="600" d="M311,478C276,478 242,499 235,551C261,575 284,585 310,585C351,585 369,563 369,532C369,499 347,478 311,478 z M422,725C397,743 368,757 329,757C238,757 175,694 175,580C175,486 234,428 312,428C379,428 427,475 427,532C427,588 393,627 325,627C290,627 259,614 234,593C239,669 275,708 331,708C358,708 378,698 396,684z"/>
<glyph unicode="&#xE038;" horiz-adv-x="600" d="M253,440l65,0C323,546 341,616 426,709l0,36l-243,0l0,-53l169,0C287,609 259,543 253,440z"/>
<glyph unicode="&#xE039;" horiz-adv-x="600" d="M233,520C233,543 250,565 280,579C325,566 367,555 367,518C367,492 334,473 300,473C263,473 233,493 233,520 z M320,617C279,629 245,643 245,672C245,695 267,712 300,712C336,712 356,694 356,670C356,650 346,633 320,617 z M175,516C175,469 225,428 300,428C371,428 425,467 425,516C425,560 397,582 362,597l0,4C388,615 415,636 415,673C415,722 366,757 300,757C238,757 186,722 186,673C186,637 210,619 240,601l0,-4C206,581 175,558 175,516z"/>
<glyph unicode="&#xE03A;" horiz-adv-x="600" d="M231,653C231,686 253,708 289,708C324,708 357,685 364,634C339,610 316,601 290,601C249,601 231,622 231,653 z M178,461C203,442 232,428 271,428C362,428 425,491 425,605C425,699 366,757 288,757C221,757 173,711 173,653C173,597 207,558 275,558C310,558 340,571 365,592C360,517 325,478 269,478C242,478 222,487 204,501z"/>
<glyph unicode="&#xE03B;" horiz-adv-x="600" d="M236,599C236,499 275,429 341,364l46,32C327,456 302,521 302,599C302,677 327,742 387,802l-46,33C275,769 236,699 236,599z"/>
<glyph unicode="&#xE03C;" horiz-adv-x="600" d="M364,599C364,699 325,769 259,835l-46,-33C273,742 298,677 298,599C298,521 273,456 213,396l46,-32C325,429 364,499 364,599z"/>
<glyph unicode="&#xE03D;" horiz-adv-x="600" d="M254,479C254,451 274,432 300,432C326,432 346,451 346,479C346,508 326,527 300,527C274,527 254,508 254,479z"/>
<glyph unicode="&#xE03E;" horiz-adv-x="600" d="M260,324C319,346 356,395 356,454C356,502 336,527 302,527C277,527 255,509 255,481C255,453 278,439 301,439C303,439 306,439 308,440C308,402 283,376 244,361z"/>
<glyph unicode="&#xE03F;" horiz-adv-x="600" d="M300,-182C381,-182 439,-120 439,-15C439,88 381,147 300,147C219,147 161,88 161,-15C161,-120 219,-182 300,-182 z M300,-132C257,-132 222,-94 222,-15C222,64 257,98 300,98C343,98 378,64 378,-15C378,-94 343,-132 300,-132z"/>
<glyph unicode="&#xE040;" horiz-adv-x="600" d="M290,-170l63,0l0,305l-50,0C275,119 252,109 208,102l0,-42l82,0z"/>
<glyph unicode="&#xE041;" horiz-adv-x="600" d="M184,-170l238,0l0,53l-136,0C353,-57 407,-10 407,44C407,110 364,147 292,147C244,147 203,121 173,86l40,-33C232,78 257,95 284,95C323,95 345,72 345,36C345,-8 288,-55 184,-134z"/>
<glyph unicode="&#xE042;" horiz-adv-x="600" d="M172,-128C205,-162 253,-182 299,-182C367,-182 420,-148 420,-89C420,-48 392,-22 349,-12C388,2 405,25 405,63C405,116 361,147 299,147C253,147 209,129 184,102l30,-38C234,84 263,98 287,98C325,98 342,81 342,55C342,24 316,4 261,4l0,-38C326,-34 357,-51 357,-85C357,-118 331,-132 295,-132C259,-132 224,-113 204,-89z"/>
<glyph unicode="&#xE043;" horiz-adv-x="600" d="M236,-54l54,73l45,65l3,0l-4,-82l0,-56 z M441,-54l-50,0l0,189l-71,0l-148,-201l0,-31l162,0l0,-73l57,0l0,73l50,0z"/>
<glyph unicode="&#xE044;" horiz-adv-x="600" d="M172,-128C208,-162 246,-182 301,-182C372,-182 425,-139 425,-76C425,-13 379,23 313,23C293,23 273,19 257,11l10,70l139,0l0,54l-189,0l-17,-155l31,-20C251,-26 269,-17 295,-17C336,-17 362,-37 362,-75C362,-111 334,-132 296,-132C256,-132 227,-113 204,-89z"/>
<glyph unicode="&#xE045;" horiz-adv-x="600" d="M311,-132C276,-132 242,-111 235,-59C261,-35 284,-25 310,-25C351,-25 369,-47 369,-78C369,-111 347,-132 311,-132 z M422,115C397,133 368,147 329,147C238,147 175,84 175,-30C175,-124 234,-182 312,-182C379,-182 427,-135 427,-78C427,-22 393,17 325,17C290,17 259,4 234,-17C239,59 275,98 331,98C358,98 378,88 396,74z"/>
<glyph unicode="&#xE046;" horiz-adv-x="600" d="M253,-170l65,0C323,-64 341,6 426,99l0,36l-243,0l0,-53l169,0C287,-1 259,-67 253,-170z"/>
<glyph unicode="&#xE047;" horiz-adv-x="600" d="M233,-90C233,-67 250,-45 280,-31C325,-44 367,-55 367,-92C367,-118 334,-137 300,-137C263,-137 233,-117 233,-90 z M320,7C279,19 245,33 245,62C245,85 267,102 300,102C336,102 356,84 356,60C356,40 346,23 320,7 z M175,-94C175,-141 225,-182 300,-182C371,-182 425,-143 425,-94C425,-50 397,-28 362,-13l0,4C388,5 415,26 415,63C415,112 366,147 300,147C238,147 186,112 186,63C186,27 210,9 240,-9l0,-4C206,-29 175,-52 175,-94z"/>
<glyph unicode="&#xE048;" horiz-adv-x="600" d="M231,43C231,76 253,98 289,98C324,98 357,75 364,24C339,0 316,-9 290,-9C249,-9 231,12 231,43 z M178,-149C203,-168 232,-182 271,-182C362,-182 425,-119 425,-5C425,89 366,147 288,147C221,147 173,101 173,43C173,-13 207,-52 275,-52C310,-52 340,-39 365,-18C360,-93 325,-132 269,-132C242,-132 222,-123 204,-109z"/>
<glyph unicode="&#xE049;" horiz-adv-x="600" d="M236,-11C236,-111 275,-181 341,-246l46,32C327,-154 302,-89 302,-11C302,67 327,132 387,192l-46,33C275,159 236,89 236,-11z"/>
<glyph unicode="&#xE04A;" horiz-adv-x="600" d="M364,-11C364,89 325,159 259,225l-46,-33C273,132 298,67 298,-11C298,-89 273,-154 213,-214l46,-32C325,-181 364,-111 364,-11z"/>
<glyph unicode="&#xE04B;" horiz-adv-x="600" d="M254,-131C254,-159 274,-178 300,-178C326,-178 346,-159 346,-131C346,-102 326,-83 300,-83C274,-83 254,-102 254,-131z"/>
<glyph unicode="&#xE04C;" horiz-adv-x="600" d="M260,-286C319,-264 356,-215 356,-156C356,-108 336,-83 302,-83C277,-83 255,-101 255,-129C255,-157 278,-171 301,-171C303,-171 306,-171 308,-170C308,-208 283,-234 244,-249z"/>
<glyph unicode="&#xE04D;" horiz-adv-x="600" d="M300,-12C381,-12 439,50 439,155C439,258 381,317 300,317C219,317 161,258 161,155C161,50 219,-12 300,-12 z M300,38C257,38 222,76 222,155C222,234 257,268 300,268C343,268 378,234 378,155C378,76 343,38 300,38z"/>
<glyph unicode="&#xE04E;" horiz-adv-x="600" d="M290,0l63,0l0,305l-50,0C275,289 252,279 208,272l0,-42l82,0z"/>
<glyph unicode="&#xE04F;" horiz-adv-x="600" d="M183,0l239,0l0,53l-136,0C352,113 407,160 407,214C407,280 363,317 291,317C243,317 203,291 173,256l39,-33C231,248 257,265 284,265C322,265 344,242 344,206C344,162 287,115 183,36z"/>
<glyph unicode="&#xE050;" horiz-adv-x="600" d="M172,42C205,8 253,-12 299,-12C367,-12 420,22 420,81C420,122 392,148 349,158C388,172 405,195 405,233C405,286 361,317 299,317C253,317 209,299 184,272l30,-38C234,254 263,268 287,268C325,268 342,251 342,225C342,194 316,174 261,174l0,-38C326,136 357,119 357,85C357,52 331,38 295,38C259,38 224,57 204,81z"/>
<glyph unicode="&#xE051;" horiz-adv-x="600" d="M236,116l54,73l45,65l3,0l-4,-82l0,-56 z M441,116l-50,0l0,189l-71,0l-148,-201l0,-31l162,0l0,-73l57,0l0,73l50,0z"/>
<glyph unicode="&#xE052;" horiz-adv-x="600" d="M172,42C208,8 246,-12 301,-12C372,-12 425,31 425,94C425,157 379,193 313,193C293,193 273,189 257,181l10,70l139,0l0,54l-189,0l-17,-155l31,-20C251,144 269,153 295,153C336,153 362,133 362,95C362,59 334,38 296,38C256,38 227,57 204,81z"/>
<glyph unicode="&#xE053;" horiz-adv-x="600" d="M312,38C277,38 244,59 236,110C262,135 285,145 311,145C352,145 370,123 370,92C370,59 349,38 312,38 z M423,285C398,303 370,317 330,317C239,317 176,254 176,140C176,46 235,-12 313,-12C381,-12 429,35 429,92C429,148 394,187 326,187C290,187 260,174 235,152C239,228 276,268 333,268C359,268 379,258 397,244z"/>
<glyph unicode="&#xE054;" horiz-adv-x="600" d="M253,0l65,0C323,106 341,176 426,269l0,36l-243,0l0,-53l169,0C287,169 259,103 253,0z"/>
<glyph unicode="&#xE055;" horiz-adv-x="600" d="M233,80C233,103 250,125 280,139C325,126 367,115 367,78C367,52 334,33 300,33C263,33 233,53 233,80 z M320,177C279,189 245,203 245,232C245,255 267,272 300,272C336,272 356,254 356,230C356,210 346,193 320,177 z M175,76C175,29 225,-12 300,-12C371,-12 425,27 425,76C425,120 397,142 362,157l0,4C388,175 415,196 415,233C415,282 366,317 300,317C238,317 186,282 186,233C186,197 210,179 240,161l0,-4C206,141 175,118 175,76z"/>
<glyph unicode="&#xE056;" horiz-adv-x="600" d="M231,213C231,246 253,268 289,268C324,268 357,245 364,194C339,170 316,161 290,161C249,161 231,182 231,213 z M178,21C203,2 232,-12 271,-12C362,-12 425,51 425,165C425,259 366,317 288,317C221,317 173,271 173,213C173,157 207,118 275,118C310,118 340,131 365,152C360,77 325,38 269,38C242,38 222,47 204,61z"/>
<glyph unicode="&#xE057;" horiz-adv-x="600" d="M236,159C236,59 275,-11 341,-76l46,32C327,16 302,81 302,159C302,237 327,302 387,362l-46,33C275,329 236,259 236,159z"/>
<glyph unicode="&#xE058;" horiz-adv-x="600" d="M364,159C364,259 325,329 259,395l-46,-33C273,302 298,237 298,159C298,81 273,16 213,-44l46,-32C325,-11 364,59 364,159z"/>
<glyph unicode="&#xE059;" horiz-adv-x="600" d="M254,39C254,11 274,-8 300,-8C326,-8 346,11 346,39C346,68 326,87 300,87C274,87 254,68 254,39z"/>
<glyph unicode="&#xE05A;" horiz-adv-x="600" d="M260,-116C319,-94 356,-45 356,14C356,62 336,87 302,87C277,87 255,69 255,41C255,13 278,-1 301,-1C303,-1 306,-1 308,0C308,-38 283,-64 244,-79z"/>
<glyph unicode="&#xE05B;" horiz-adv-x="600" d="M300,321C381,321 439,383 439,487C439,591 381,650 300,650C219,650 161,591 161,487C161,383 219,321 300,321 z M300,370C257,370 222,409 222,487C222,567 257,600 300,600C343,600 378,567 378,487C378,409 343,370 300,370z"/>
<glyph unicode="&#xE05C;" horiz-adv-x="600" d="M290,333l63,0l0,305l-50,0C275,621 252,612 208,605l0,-42l82,0z"/>
<glyph unicode="&#xE05D;" horiz-adv-x="600" d="M184,333l238,0l0,53l-136,0C353,445 407,492 407,547C407,612 364,650 292,650C244,650 203,624 173,589l40,-34C232,581 257,597 284,597C323,597 345,575 345,539C345,494 288,448 184,368z"/>
<glyph unicode="&#xE05E;" horiz-adv-x="600" d="M172,375C205,341 253,321 299,321C367,321 420,355 420,414C420,455 392,481 349,491C388,505 405,528 405,566C405,618 361,650 299,650C253,650 209,632 184,605l30,-38C234,587 263,600 287,600C325,600 342,583 342,557C342,527 316,507 261,507l0,-38C326,469 357,452 357,417C357,385 331,370 295,370C259,370 224,390 204,414z"/>
<glyph unicode="&#xE05F;" horiz-adv-x="600" d="M236,448l54,74l45,64l3,0l-4,-82l0,-56 z M441,448l-50,0l0,190l-71,0l-148,-201l0,-31l162,0l0,-73l57,0l0,73l50,0z"/>
<glyph unicode="&#xE060;" horiz-adv-x="600" d="M172,375C208,341 246,321 301,321C372,321 425,363 425,426C425,490 379,526 313,526C293,526 273,522 257,513l10,70l139,0l0,55l-189,0l-17,-155l31,-21C251,477 269,486 295,486C336,486 362,465 362,428C362,392 334,370 296,370C256,370 227,390 204,414z"/>
<glyph unicode="&#xE061;" horiz-adv-x="600" d="M311,370C276,370 242,392 235,443C261,468 284,477 310,477C351,477 369,456 369,425C369,392 347,370 311,370 z M422,617C397,636 368,650 329,650C238,650 175,587 175,473C175,379 234,321 312,321C379,321 427,367 427,425C427,481 393,520 325,520C290,520 259,507 234,485C239,561 275,600 331,600C358,600 378,590 396,577z"/>
<glyph unicode="&#xE062;" horiz-adv-x="600" d="M253,333l65,0C323,438 341,508 426,602l0,36l-243,0l0,-53l169,0C287,502 259,436 253,333z"/>
<glyph unicode="&#xE063;" horiz-adv-x="600" d="M233,413C233,436 250,458 280,472C325,459 367,447 367,411C367,384 334,365 300,365C263,365 233,386 233,413 z M320,510C279,522 245,536 245,564C245,587 267,604 300,604C336,604 356,586 356,562C356,543 346,525 320,510 z M175,409C175,362 225,321 300,321C371,321 425,359 425,409C425,453 397,474 362,490l0,4C388,508 415,528 415,566C415,614 366,650 300,650C238,650 186,615 186,566C186,530 210,512 240,494l0,-4C206,473 175,450 175,409z"/>
<glyph unicode="&#xE064;" horiz-adv-x="600" d="M231,546C231,578 253,600 289,600C324,600 357,578 365,526C339,502 316,493 290,493C249,493 231,515 231,546 z M178,353C203,334 232,321 271,321C362,321 425,384 425,498C425,591 366,650 288,650C221,650 173,603 173,546C173,489 207,451 275,451C310,451 340,464 365,484C360,409 324,370 269,370C242,370 222,380 204,393z"/>
<glyph unicode="&#xE065;" horiz-adv-x="600" d="M236,425C236,326 275,255 341,190l46,33C327,283 302,348 302,425C302,503 327,568 387,628l-46,33C275,596 236,525 236,425z"/>
<glyph unicode="&#xE066;" horiz-adv-x="600" d="M364,425C364,525 325,596 259,661l-46,-33C273,568 298,503 298,425C298,348 273,283 213,223l46,-33C325,255 364,326 364,425z"/>
<glyph unicode="&#xE067;" horiz-adv-x="600" d="M254,306C254,277 274,258 300,258C326,258 346,277 346,306C346,334 326,354 300,354C274,354 254,334 254,306z"/>
<glyph unicode="&#xE068;" horiz-adv-x="600" d="M260,151C319,172 356,221 356,280C356,328 336,354 302,354C277,354 255,336 255,308C255,280 278,266 301,266C303,266 306,266 308,267C308,228 283,202 244,187z"/>
<glyph unicode="&#xAA;" horiz-adv-x="600" d="M167,345C167,288 213,252 270,252C312,252 351,272 383,297l2,0l5,-37l52,0l0,195C442,539 402,590 318,590C265,590 214,568 180,548l25,-43C234,522 270,539 308,539C360,539 377,505 378,465C234,450 167,415 167,345 z M230,349C230,387 270,412 378,424l0,-82C348,317 319,302 289,302C256,302 230,317 230,349z"/>
<glyph unicode="&#xE069;" horiz-adv-x="600" d="M203,421C203,492 244,537 294,537C320,537 347,529 374,506l0,-161C348,318 321,305 291,305C236,305 203,348 203,421 z M137,421C137,314 192,252 276,252C315,252 352,272 378,297l2,0l5,-37l53,0l0,322l-52,0l-5,-31l-2,0C349,577 320,590 283,590C206,590 137,526 137,421z"/>
<glyph unicode="&#xBA;" horiz-adv-x="600" d="M142,421C142,314 216,252 300,252C385,252 458,314 458,421C458,528 385,590 300,590C216,590 142,528 142,421 z M208,421C208,490 243,538 300,538C357,538 392,490 392,421C392,351 357,304 300,304C243,304 208,351 208,421z"/>
<glyph unicode="&#xE06A;" horiz-adv-x="600" d="M167,345C167,288 213,252 270,252C312,252 351,272 383,297l2,0l5,-37l52,0l0,195C442,539 402,590 318,590C265,590 214,568 180,548l25,-43C234,522 270,539 308,539C360,539 377,505 378,465C234,450 167,415 167,345 z M230,349C230,387 270,412 378,424l0,-82C348,317 319,302 289,302C256,302 230,317 230,349z"/>
<glyph unicode="&#xE06B;" horiz-adv-x="600" d="M172,260l50,0l7,32l1,0C260,267 295,252 327,252C403,252 472,316 472,426C472,526 425,590 338,590C301,590 264,572 234,547l2,56l0,125l-64,0 z M236,335l0,162C266,524 294,537 321,537C382,537 406,493 406,425C406,349 367,305 314,305C292,305 264,313 236,335z"/>
<glyph unicode="&#xE06C;" horiz-adv-x="600" d="M181,421C181,314 252,252 346,252C388,252 429,268 461,294l-27,41C412,318 385,304 352,304C289,304 246,351 246,421C246,490 291,538 354,538C380,538 402,528 422,511l32,41C430,573 397,590 351,590C261,590 181,528 181,421z"/>
<glyph unicode="&#xE06D;" horiz-adv-x="600" d="M137,421C137,314 192,252 276,252C315,252 352,272 378,297l2,0l5,-37l53,0l0,468l-64,0l0,-121l2,-54C348,576 322,590 283,590C206,590 137,526 137,421 z M203,421C203,492 243,537 295,537C321,537 346,529 374,506l0,-161C347,318 321,305 291,305C235,305 203,348 203,421z"/>
<glyph unicode="&#xE06E;" horiz-adv-x="600" d="M160,421C160,314 234,252 326,252C372,252 412,267 444,286l-23,41C395,311 367,302 335,302C273,302 228,341 223,406l231,0C456,414 457,426 457,438C457,529 407,590 317,590C237,590 160,526 160,421 z M222,447C230,507 272,540 318,540C371,540 401,506 401,447z"/>
<glyph unicode="&#xE06F;" horiz-adv-x="600" d="M503,720C474,730 444,736 411,736C319,736 277,684 277,607l0,-25l-79,-3l0,-48l79,0l0,-271l63,0l0,271l128,0l0,51l-128,0l0,27C340,655 363,686 418,686C444,686 466,681 489,672z"/>
<glyph unicode="&#xE070;" horiz-adv-x="600" d="M203,210C203,226 213,243 241,258C255,254 270,253 290,253l59,0C396,253 421,245 421,217C421,187 375,157 304,157C238,157 203,178 203,210 z M149,202C149,145 205,114 298,114C411,114 482,165 482,228C482,282 441,305 356,305l-71,0C243,305 222,315 222,339C222,353 230,364 244,373C263,366 280,362 297,362C368,362 423,402 423,473C423,498 412,520 398,534l82,0l0,48l-134,0C332,588 315,590 297,590C226,590 167,546 167,474C167,436 186,408 208,391l0,-3C184,372 169,349 169,328C169,301 185,284 202,275l0,-3C168,253 149,227 149,202 z M297,404C258,404 228,431 228,474C228,517 258,546 297,546C335,546 366,517 366,474C366,431 335,404 297,404z"/>
<glyph unicode="&#xE071;" horiz-adv-x="600" d="M175,260l64,0l0,227C272,519 295,536 329,536C377,536 396,510 396,455l0,-195l64,0l0,203C460,545 426,590 351,590C303,590 267,565 235,534l4,69l0,125l-64,0z"/>
<glyph unicode="&#xE072;" horiz-adv-x="600" d="M175,531l141,0l0,-271l64,0l0,322l-205,0 z M347,645C375,645 395,662 395,690C395,717 375,736 347,736C319,736 299,717 299,690C299,662 319,645 347,645z"/>
<glyph unicode="&#xE073;" horiz-adv-x="600" d="M164,531l141,0l0,-277C305,201 288,171 226,171C206,171 182,177 160,188l-20,-46C164,129 195,119 229,119C337,119 368,179 368,258l0,324l-204,0 z M336,645C363,645 384,662 384,690C384,717 363,736 336,736C308,736 287,717 287,690C287,662 308,645 336,645z"/>
<glyph unicode="&#xE074;" horiz-adv-x="600" d="M189,260l64,0l0,85l70,67l107,-152l71,0l-140,194l124,128l-71,0l-159,-160l-2,0l0,306l-64,0z"/>
<glyph unicode="&#xE075;" horiz-adv-x="600" d="M196,678l81,0l0,-310C277,294 310,252 381,252C412,252 432,258 458,265l-12,50C425,308 411,304 396,304C361,304 341,321 341,364l0,364l-145,0z"/>
<glyph unicode="&#xE076;" horiz-adv-x="600" d="M130,260l61,0l0,230C207,520 221,536 241,536C263,536 273,519 273,485l0,-225l53,0l0,230C340,520 355,536 376,536C398,536 407,519 407,485l0,-225l61,0l0,230C468,554 442,590 397,590C361,590 338,568 321,535C313,572 292,590 260,590C223,590 203,569 187,540l-2,0l-5,42l-50,0z"/>
<glyph unicode="&#xE077;" horiz-adv-x="600" d="M175,260l64,0l0,227C272,519 295,536 329,536C377,536 396,510 396,455l0,-195l64,0l0,203C460,545 425,590 351,590C302,590 267,565 236,534l-3,0l-5,48l-53,0z"/>
<glyph unicode="&#xE078;" horiz-adv-x="600" d="M142,421C142,314 216,252 300,252C385,252 458,314 458,421C458,528 385,590 300,590C216,590 142,528 142,421 z M208,421C208,490 243,538 300,538C357,538 392,490 392,421C392,351 357,304 300,304C243,304 208,351 208,421z"/>
<glyph unicode="&#xE079;" horiz-adv-x="600" d="M234,289C264,265 295,252 327,252C403,252 472,316 472,426C472,526 425,590 339,590C299,590 262,570 232,546l-3,0l-5,36l-52,0l0,-455l64,0l0,107 z M236,335l0,162C267,524 294,537 321,537C382,537 406,493 406,425C406,349 367,305 314,305C292,305 264,313 236,335z"/>
<glyph unicode="&#xE07A;" horiz-adv-x="600" d="M137,421C137,314 192,252 276,252C315,252 350,271 377,294l-3,-55l0,-112l64,0l0,455l-52,0l-5,-31l-2,0C349,577 322,590 283,590C206,590 137,526 137,421 z M203,421C203,492 243,537 295,537C321,537 346,529 374,506l0,-161C347,318 321,305 291,305C235,305 203,348 203,421z"/>
<glyph unicode="&#xE07B;" horiz-adv-x="600" d="M243,260l64,0l0,183C339,509 382,533 423,533C447,533 460,530 483,523l13,54C476,586 457,590 432,590C380,590 334,559 304,507l-2,0l-5,75l-54,0z"/>
<glyph unicode="&#xE07C;" horiz-adv-x="600" d="M162,297C198,272 251,252 308,252C401,252 451,296 451,350C451,411 386,430 328,447C285,460 244,472 244,500C244,523 265,542 315,542C351,542 380,530 407,513l30,40C406,573 363,590 315,590C230,590 180,550 180,497C180,442 244,420 300,403C343,390 388,376 388,346C388,321 363,301 310,301C261,301 226,315 192,339z"/>
<glyph unicode="&#xE07D;" horiz-adv-x="600" d="M241,387C241,306 273,252 369,252C403,252 437,260 463,271l-13,46C430,309 410,303 384,303C325,303 305,331 305,387l0,144l145,0l0,51l-145,0l0,90l-53,0l-8,-90l-80,-3l0,-48l77,0z"/>
<glyph unicode="&#xE07E;" horiz-adv-x="600" d="M443,582l-64,0l0,-224C347,321 322,307 288,307C241,307 223,332 223,387l0,195l-64,0l0,-203C159,297 193,252 266,252C315,252 352,276 383,311l2,0l6,-51l52,0z"/>
<glyph unicode="&#xE07F;" horiz-adv-x="600" d="M269,260l74,0l118,322l-61,0l-62,-176C327,374 318,342 307,310l-2,0C295,342 286,374 274,406l-61,176l-66,0z"/>
<glyph unicode="&#xE080;" horiz-adv-x="600" d="M152,260l74,0l34,151C268,449 272,477 277,504l3,0C286,471 291,441 297,411l35,-151l77,0l67,322l-60,0l-36,-178C374,373 370,343 364,313l-3,0C355,343 350,373 343,404l-37,154l-51,0l-36,-154C212,374 206,343 201,313l-3,0C193,343 189,373 183,404l-37,178l-64,0z"/>
<glyph unicode="&#xE081;" horiz-adv-x="600" d="M159,260l67,0l43,70C281,350 292,369 303,388l2,0C318,369 332,350 343,330l47,-70l69,0l-111,161l104,161l-68,0l-38,-66C335,498 325,480 315,462l-3,0C301,480 289,498 279,516l-43,66l-68,0l102,-154z"/>
<glyph unicode="&#xE082;" horiz-adv-x="600" d="M168,180l-13,-49C167,127 181,124 198,124C268,124 305,171 330,239l130,343l-62,0l-60,-170C329,384 319,351 309,322l-2,0C295,352 284,385 273,412l-69,170l-64,0l138,-320l-7,-23C257,202 233,176 194,176C185,176 175,179 168,180z"/>
<glyph unicode="&#xE083;" horiz-adv-x="600" d="M146,260l310,0l0,51l-219,0l212,237l0,34l-279,0l0,-51l189,0l-213,-237z"/>
<glyph unicode="&#xE084;" horiz-adv-x="600" d="M160,421C160,314 234,252 326,252C372,252 412,267 444,286l-23,41C395,311 367,302 335,302C273,302 228,341 223,406l231,0C456,414 457,426 457,438C457,529 407,590 317,590C237,590 160,526 160,421 z M222,447C230,507 272,540 318,540C371,540 401,506 401,447 z M313,638l49,0l-60,101l-69,0z"/>
<glyph unicode="&#xE085;" horiz-adv-x="600" d="M160,421C160,314 234,252 326,252C372,252 412,267 444,286l-23,41C395,311 367,302 335,302C273,302 228,341 223,406l231,0C456,414 457,426 457,438C457,529 407,590 317,590C237,590 160,526 160,421 z M222,447C230,507 272,540 318,540C371,540 401,506 401,447 z M399,739l-68,0l-61,-101l48,0z"/>
<glyph unicode="&#xE086;" horiz-adv-x="600" d="M154,408C154,313 209,252 298,252C383,252 450,317 450,421C450,528 387,590 293,590C247,590 207,576 175,555l22,-41C225,530 252,540 286,540C348,540 383,502 387,440l-229,0C156,432 154,420 154,408 z M211,398l177,0C382,336 349,302 297,302C243,302 211,335 211,398z"/>
<glyph unicode="&#xE087;" horiz-adv-x="600" d="M203,421C203,492 244,537 294,537C320,537 347,529 374,506l0,-161C348,318 321,305 291,305C236,305 203,348 203,421 z M137,421C137,314 192,252 276,252C315,252 352,272 378,297l2,0l5,-37l53,0l0,322l-52,0l-5,-31l-2,0C349,577 320,590 283,590C206,590 137,526 137,421z"/>
<glyph unicode="&#xE088;" horiz-adv-x="600" d="M183,200l-23,-44C196,133 242,121 283,121C381,121 438,168 438,248l0,334l-53,0l-6,-30l-1,0C349,577 320,590 283,590C208,590 137,526 137,426C137,326 192,264 276,264C315,264 350,282 375,305l-1,-56C373,201 343,171 283,171C252,171 216,179 183,200 z M291,316C236,316 202,359 202,427C202,493 243,537 294,537C320,537 347,529 374,506l0,-148C347,330 321,316 291,316z"/>
<glyph unicode="&#xB0;" horiz-adv-x="600" d="M300,429C367,429 426,479 426,556C426,635 367,685 300,685C233,685 175,635 175,556C175,479 233,429 300,429 z M300,475C256,475 225,509 225,556C225,605 256,639 300,639C345,639 376,605 376,556C376,509 345,475 300,475z"/>
<glyph unicode="&#xA4;" horiz-adv-x="600" d="M102,83l87,89C221,147 259,134 300,134C340,134 379,147 410,172l88,-89l44,45l-84,85C480,244 494,283 494,329C494,375 481,415 458,446l84,86l-44,45l-87,-90C379,511 340,524 300,524C259,524 220,511 189,487l-87,90l-44,-45l83,-86C119,415 106,375 106,329C106,283 119,244 142,213l-84,-85 z M182,329C182,409 235,463 300,463C365,463 418,409 418,329C418,249 365,195 300,195C235,195 182,249 182,329z"/>
<glyph unicode="$" horiz-adv-x="600" d="M495,541C455,580 409,611 336,617l0,131l-60,0l0,-132C179,606 114,549 114,465C114,291 431,313 431,189C431,138 389,102 310,102C235,102 174,134 124,170l-39,-57C131,74 202,41 276,35l0,-145l60,0l0,146C441,47 512,109 512,195C512,378 194,357 194,467C194,518 237,550 304,550C371,550 406,528 451,493z"/>
<glyph unicode="&#xA3;" horiz-adv-x="600" d="M200,71l0,4C250,116 275,159 275,229C275,249 273,267 269,285l173,0l0,56l-189,0C238,383 223,422 223,464C223,533 271,581 358,581C414,581 451,559 482,528l48,47C491,618 436,650 354,650C227,650 144,579 144,466C144,424 161,383 176,341l-99,-4l0,-52l117,0C199,267 202,249 202,230C202,155 161,87 78,50l0,-50l453,0l0,71z"/>
<glyph unicode="&#xA5;" horiz-adv-x="600" d="M53,638l185,-320l-161,0l0,-47l181,0l0,-65l-181,0l0,-48l181,0l0,-158l82,0l0,158l183,0l0,48l-183,0l0,65l183,0l0,47l-162,0l186,320l-82,0l-92,-171C349,423 327,379 303,332l-4,0C274,379 253,423 230,467l-92,171z"/>
<glyph unicode="&#x20AC;" horiz-adv-x="600" d="M517,125C477,79 436,54 379,54C287,54 227,122 208,235l253,0l0,48l-259,0C201,295 201,308 201,321C201,331 201,341 202,350l299,0l0,49l-294,0C225,514 287,584 385,584C436,584 474,560 508,525l49,47C517,616 456,650 388,650C247,650 147,556 122,399l-64,-5l0,-44l59,0C116,340 116,329 116,318C116,306 116,294 117,282l-59,-4l0,-43l64,0C147,79 244,-12 374,-12C456,-12 516,23 566,81z"/>
<glyph unicode="&#xA2;" horiz-adv-x="600" d="M314,142C239,159 194,221 194,310C194,398 240,460 314,477 z M470,185C442,161 407,141 365,138l0,344C400,480 430,464 456,440l40,52C465,521 423,547 365,550l0,103l-51,0l0,-106C201,532 113,448 113,310C113,169 195,84 314,71l0,-104l51,0l0,103C417,74 466,98 506,133z"/>
<glyph unicode="&#x192;" horiz-adv-x="600" d="M536,648C514,659 479,668 445,668C333,668 285,597 268,464l-6,-56l-41,0l-70,-4l0,-59l104,0l-24,-219C218,24 193,-30 124,-30C103,-30 83,-24 65,-17l-16,-62C69,-88 97,-97 132,-97C250,-97 292,-14 307,108l27,237l149,0l0,63l-142,0l7,63C356,539 383,601 449,601C478,601 498,595 516,586z"/>
<glyph unicode="&#x20A1;" horiz-adv-x="600" d="M347,583C353,584 359,584 365,584C379,584 392,582 405,579l-62,-524C322,57 303,62 287,71 z M252,97C206,141 181,220 181,321C181,454 226,547 308,575 z M497,125C462,85 427,61 381,55l60,508C458,553 473,540 488,525l49,47C514,597 484,620 449,634l14,114l-38,0l-12,-103C399,648 385,650 370,650C365,650 360,650 355,650l12,98l-38,0l-12,-103C181,621 96,501 96,318C96,168 152,61 242,14l-15,-124l38,0l13,109C296,-6 315,-10 335,-11l-12,-99l38,0l12,99C445,-6 500,28 546,81z"/>
<glyph unicode="&#x20A4;" horiz-adv-x="600" d="M200,71l0,4C250,116 275,159 275,229C275,231 275,233 275,235l167,0l0,49l-173,0C265,304 258,324 252,343l190,0l0,49l-206,0C228,416 223,439 223,464C223,533 271,581 358,581C414,581 451,559 482,528l48,47C491,618 436,650 354,650C227,650 144,579 144,466C144,441 150,416 158,392l-80,-4l0,-45l97,0C182,323 190,304 195,284l-30,0l-87,-5l0,-44l124,0C202,233 202,232 202,230C202,155 161,87 78,50l0,-50l453,0l0,71z"/>
<glyph unicode="&#x20A6;" horiz-adv-x="600" d="M416,283l-68,0l-5,14l-19,46l90,0l0,-26 z M430,74l-4,0l-62,166l55,0 z M186,283l0,38l-1,22l72,0l0,-1l24,-59 z M170,563l4,0l67,-178l-59,0 z M551,343l0,42l-72,0l0,253l-65,0l0,-253l-107,0l-102,253l-84,0l0,-253l-74,-5l0,-37l74,0l0,-60l-74,-5l0,-38l74,0l0,-240l65,0l0,240l112,0l97,-240l84,0l0,240l72,0l0,43l-72,0l0,60z"/>
<glyph unicode="&#x20A7;" horiz-adv-x="600" d="M197,302l0,115l214,0C401,341 347,302 256,302 z M256,581C347,581 401,551 411,473l-214,0l0,108 z M554,473l-64,0C477,593 387,638 266,638l-148,0l0,-165l-75,-5l0,-51l75,0l0,-417l79,0l0,245l69,0C385,245 478,300 490,417l64,0z"/>
<glyph unicode="&#x20AB;" horiz-adv-x="600" d="M121,0l378,0l0,49l-378,0 z M397,222C362,185 328,169 291,169C222,169 182,218 182,300C182,367 233,418 295,418C335,418 361,406 397,377 z M468,598l0,67l-71,0l0,-67l-155,0l0,-49l155,0l0,-34l4,-83C366,461 335,478 283,478C194,478 109,409 109,299C109,177 175,110 276,110C328,110 369,133 400,163l4,0l6,-43l58,0l0,429l78,5l0,44z"/>
<glyph unicode="&#x20B1;" horiz-adv-x="600" d="M197,418l0,59l214,0C412,467 413,456 413,444C413,435 412,426 411,418 z M197,302l0,75l204,0C379,327 329,302 256,302 z M256,581C327,581 375,563 398,518l-201,0l0,63 z M554,518l-74,0C452,605 370,638 266,638l-148,0l0,-120l-75,-4l0,-37l75,0l0,-59l-75,-5l0,-36l75,0l0,-377l79,0l0,245l69,0C371,245 455,287 482,377l72,0l0,41l-64,0C491,426 491,435 491,444C491,456 490,467 489,477l65,0z"/>
<glyph unicode="&#x20B2;" horiz-adv-x="600" d="M526,331l-191,0l0,-69l116,0l0,-169C430,73 388,56 345,56C234,56 169,157 169,321C169,482 235,584 351,584C401,584 440,560 474,524l49,46C487,611 432,644 371,649l0,99l-60,0l0,-101C173,627 84,506 84,318C84,126 177,5 311,-10l0,-100l60,0l0,100C430,-4 482,20 526,61z"/>
<glyph unicode="&#x20B5;" horiz-adv-x="600" d="M330,56C235,73 181,172 181,321C181,465 234,562 330,581 z M497,125C463,86 428,62 383,56l0,527C425,578 458,556 488,525l49,47C500,613 445,645 383,649l0,96l-53,0l0,-97C188,629 96,508 96,318C96,123 191,2 330,-11l0,-99l53,0l0,100C450,-3 502,30 546,81z"/>
<glyph unicode="&#x20B9;" horiz-adv-x="600" d="M524,638l-416,0l0,-68l79,0C288,570 352,547 368,486l-184,0l-76,-5l0,-44l263,0C364,357 297,319 187,319l-79,0l0,-67l89,0l199,-252l94,0l-208,259C379,278 447,336 453,437l71,0l0,49l-73,0C441,532 411,569 367,589l157,0z"/>
<glyph unicode="&#x20BA;" horiz-adv-x="600" d="M244,66l0,236l182,87l0,52l-182,-86l0,72l182,86l0,53l-182,-86l0,158l-84,0l0,-199l-104,-49l0,-52l104,48l0,-72l-104,-48l0,-53l104,48l0,-273C371,-16 536,65 536,234C536,251 534,268 528,291l-69,-18C465,254 465,241 465,230C465,125 343,69 244,66z"/>
<glyph unicode="&#x2044;" horiz-adv-x="600" d="M77,32l167,203l-33,30l-183,-188 z M523,624l-167,-203l33,-30l183,188z"/>
<glyph unicode="&#x2215;" horiz-adv-x="600" d="M77,32l167,203l-33,30l-183,-188 z M523,624l-167,-203l33,-30l183,188z"/>
<glyph unicode="&#xE089;" horiz-adv-x="600" d="M77,32l167,203l-33,30l-183,-188 z M523,624l-167,-203l33,-30l183,188z"/>
<glyph unicode="%" horiz-adv-x="600" d="M166,321C246,321 305,383 305,487C305,591 246,650 166,650C85,650 26,591 26,487C26,383 85,321 166,321 z M166,370C122,370 88,409 88,487C88,567 122,600 166,600C209,600 243,567 243,487C243,409 209,370 166,370 z M77,32l167,203l-32,30l-183,-188 z M524,624l-168,-203l33,-30l183,188 z M434,-12C515,-12 574,50 574,155C574,258 515,317 434,317C354,317 295,258 295,155C295,50 354,-12 434,-12 z M434,38C391,38 357,76 357,155C357,234 391,268 434,268C478,268 512,234 512,155C512,76 478,38 434,38z"/>
<glyph unicode="&#x2030;" horiz-adv-x="600" d="M165,389C234,389 282,438 282,521C282,602 234,650 165,650C96,650 48,602 48,521C48,438 96,389 165,389 z M165,431C129,431 102,459 102,521C102,581 129,608 165,608C201,608 227,581 227,521C227,459 201,431 165,431 z M551,510l-446,-201l14,-31l456,174 z M165,-12C234,-12 282,37 282,120C282,201 234,249 165,249C96,249 48,201 48,120C48,37 96,-12 165,-12 z M165,30C129,30 102,58 102,120C102,179 129,206 165,206C201,206 227,180 227,120C227,58 201,30 165,30 z M436,-12C505,-12 553,37 553,120C553,201 505,249 436,249C367,249 319,201 319,120C319,37 367,-12 436,-12 z M436,30C400,30 373,58 373,120C373,179 400,206 436,206C472,206 498,180 498,120C498,58 472,30 436,30z"/>
</font>
</svg>
