<font horiz-adv-x="1000">
<!-- Source is a trademark of Adobe Systems Incorporated in the United States and/or other countries. -->
<font-face font-family="SourceCodePro-Semibold" units-per-em="1000" underline-position="-100" underline-thickness="50"/>
<missing-glyph horiz-adv-x="600" d="M48,0l504,0l0,660l-504,0 z M130,133l0,416l111,-209 z M359,340l110,209l0,-416 z M194,75l57,104l47,100l4,0l46,-100l56,-104 z M298,401l-46,94l-49,89l193,0l-48,-89l-46,-94z"/>
<glyph unicode=" " horiz-adv-x="600"/>
<glyph unicode="A" horiz-adv-x="600" d="M215,268l23,80C258,417 278,491 296,564l4,0C319,492 339,417 358,348l23,-80 z M457,0l123,0l-212,654l-136,0l-212,-654l118,0l51,177l218,0z"/>
<glyph unicode="B" horiz-adv-x="600" d="M93,0l209,0C446,0 551,61 551,192C551,280 499,331 404,347l0,4C481,371 518,431 518,493C518,613 420,654 286,654l-193,0 z M209,383l0,181l69,0C362,564 404,539 404,479C404,418 366,383 275,383 z M209,90l0,210l81,0C388,300 438,268 438,200C438,126 386,90 290,90z"/>
<glyph unicode="C" horiz-adv-x="600" d="M60,325C60,108 192,-12 359,-12C441,-12 508,22 561,83l-64,71C460,113 419,89 366,89C254,89 179,179 179,328C179,475 254,565 363,565C414,565 452,544 484,512l65,72C507,627 443,666 363,666C190,666 60,539 60,325z"/>
<glyph unicode="D" horiz-adv-x="600" d="M75,0l175,0C437,0 552,113 552,330C552,546 437,654 244,654l-169,0 z M191,94l0,466l46,0C362,560 433,490 433,330C433,169 362,94 237,94z"/>
<glyph unicode="E" horiz-adv-x="600" d="M104,0l428,0l0,98l-312,0l0,193l256,0l0,98l-256,0l0,167l302,0l0,98l-418,0z"/>
<glyph unicode="F" horiz-adv-x="600" d="M121,0l116,0l0,273l255,0l0,98l-255,0l0,185l300,0l0,98l-416,0z"/>
<glyph unicode="G" horiz-adv-x="600" d="M48,325C48,108 174,-12 340,-12C424,-12 497,24 540,66l0,288l-218,0l0,-95l113,0l0,-141C416,99 382,89 347,89C231,89 168,179 168,328C168,475 241,565 345,565C402,565 436,543 466,512l64,72C491,625 432,666 345,666C175,666 48,540 48,325z"/>
<glyph unicode="H" horiz-adv-x="600" d="M72,0l116,0l0,290l224,0l0,-290l116,0l0,654l-116,0l0,-263l-224,0l0,263l-116,0z"/>
<glyph unicode="I" horiz-adv-x="600" d="M84,0l432,0l0,98l-158,0l0,458l158,0l0,98l-432,0l0,-98l158,0l0,-458l-158,0z"/>
<glyph unicode="J" horiz-adv-x="600" d="M70,96C121,18 201,-12 274,-12C446,-12 505,91 505,216l0,438l-381,0l0,-97l265,0l0,-331C389,127 351,88 271,88C224,88 177,115 140,167z"/>
<glyph unicode="K" horiz-adv-x="600" d="M83,0l117,0l0,191l95,117l163,-308l129,0l-223,399l201,255l-129,0l-233,-297l-3,0l0,297l-117,0z"/>
<glyph unicode="L" horiz-adv-x="600" d="M120,0l422,0l0,98l-307,0l0,556l-115,0z"/>
<glyph unicode="M" horiz-adv-x="600" d="M73,0l94,0l0,290C167,352 157,477 152,539l3,0l46,-160l70,-203l56,0l69,203l47,160l3,0C441,477 432,352 432,290l0,-290l95,0l0,654l-120,0l-77,-254l-27,-99l-3,0l-28,99l-79,254l-120,0z"/>
<glyph unicode="N" horiz-adv-x="600" d="M74,0l111,0l0,286C185,359 174,438 169,507l3,0l61,-138l175,-369l118,0l0,654l-111,0l0,-284C415,297 426,214 431,147l-3,0l-61,139l-175,368l-118,0z"/>
<glyph unicode="O" horiz-adv-x="600" d="M300,-12C452,-12 557,118 557,330C557,541 452,666 300,666C148,666 43,541 43,330C43,118 148,-12 300,-12 z M300,89C216,89 162,183 162,330C162,476 216,565 300,565C384,565 438,476 438,330C438,183 384,89 300,89z"/>
<glyph unicode="P" horiz-adv-x="600" d="M87,0l116,0l0,240l104,0C448,240 556,307 556,452C556,604 451,654 307,654l-220,0 z M203,333l0,228l95,0C393,561 442,534 442,452C442,372 395,333 298,333z"/>
<glyph unicode="Q" horiz-adv-x="600" d="M161,330C161,476 213,566 298,566C382,566 434,476 434,330C434,183 382,88 298,88C213,88 161,183 161,330 z M546,-64C533,-70 515,-76 495,-76C438,-76 388,-54 365,-3C479,30 553,151 553,330C553,541 450,666 298,666C146,666 43,541 43,330C43,145 122,22 243,-6C280,-102 360,-170 482,-170C517,-170 545,-163 567,-153z"/>
<glyph unicode="R" horiz-adv-x="600" d="M200,561l90,0C380,561 429,535 429,460C429,386 380,348 290,348l-90,0 z M569,0l-156,273C491,300 543,361 543,460C543,606 438,654 302,654l-218,0l0,-654l116,0l0,256l98,0l140,-256z"/>
<glyph unicode="S" horiz-adv-x="600" d="M58,84C123,23 210,-12 302,-12C454,-12 544,76 544,182C544,277 485,326 402,359l-86,37C257,419 204,437 204,488C204,536 246,565 314,565C374,565 420,544 464,509l60,74C470,634 394,666 314,666C181,666 87,586 87,482C87,386 158,335 227,308l89,-39C381,244 426,227 426,173C426,122 384,89 304,89C240,89 175,119 126,163z"/>
<glyph unicode="T" horiz-adv-x="600" d="M242,0l116,0l0,556l206,0l0,98l-528,0l0,-98l206,0z"/>
<glyph unicode="U" horiz-adv-x="600" d="M72,250C72,71 158,-12 301,-12C445,-12 528,71 528,250l0,404l-111,0l0,-413C417,134 372,89 301,89C231,89 188,134 188,241l0,413l-116,0z"/>
<glyph unicode="V" horiz-adv-x="600" d="M232,0l137,0l203,654l-119,0l-91,-329C342,251 327,187 305,112l-4,0C279,187 264,251 243,325l-92,329l-123,0z"/>
<glyph unicode="W" horiz-adv-x="600" d="M101,0l121,0l55,239C286,280 293,322 299,361l3,0C307,322 314,280 323,239l58,-239l123,0l89,654l-110,0l-34,-379C446,222 442,167 439,111l-4,0C424,167 409,222 398,275l-56,212l-74,0l-57,-212C199,221 184,166 173,111l-3,0C167,166 163,220 160,275l-36,379l-117,0z"/>
<glyph unicode="X" horiz-adv-x="600" d="M36,0l123,0l82,154C258,188 274,221 292,261l4,0C316,221 333,188 351,154l85,-154l128,0l-192,332l180,322l-123,0l-74,-145C340,479 326,448 309,409l-4,0C285,448 270,479 254,509l-77,145l-129,0l180,-317z"/>
<glyph unicode="Y" horiz-adv-x="600" d="M242,0l116,0l0,227l215,427l-120,0l-81,-175C350,428 327,380 303,327l-4,0C276,380 255,428 232,478l-82,176l-123,0l215,-427z"/>
<glyph unicode="Z" horiz-adv-x="600" d="M61,0l482,0l0,98l-340,0l336,486l0,70l-448,0l0,-97l305,0l-335,-487z"/>
<glyph unicode="a" horiz-adv-x="600" d="M71,132C71,46 139,-12 235,-12C301,-12 367,21 419,61l3,0l9,-61l94,0l0,291C525,428 450,503 314,503C230,503 149,470 90,435l42,-77C183,386 238,410 293,410C373,410 406,369 410,314C168,297 71,242 71,132 z M182,141C182,194 234,230 410,242l0,-104C365,102 319,78 270,78C221,78 182,97 182,141z"/>
<glyph unicode="b" horiz-adv-x="600" d="M82,0l91,0l10,54l3,0C229,12 283,-12 329,-12C442,-12 547,85 547,254C547,405 473,503 346,503C293,503 237,478 194,438l4,86l0,182l-116,0 z M198,128l0,221C238,390 277,408 314,408C394,408 428,350 428,252C428,141 375,83 306,83C275,83 234,95 198,128z"/>
<glyph unicode="c" horiz-adv-x="600" d="M73,245C73,82 190,-12 344,-12C414,-12 487,13 543,62l-48,74C457,107 411,82 355,82C258,82 192,147 192,245C192,344 260,409 358,409C402,409 441,393 479,362l55,72C493,473 431,503 352,503C202,503 73,409 73,245z"/>
<glyph unicode="d" horiz-adv-x="600" d="M53,245C53,83 137,-12 263,-12C318,-12 373,19 411,57l3,0l9,-57l95,0l0,706l-116,0l0,-178l5,-83C367,481 328,503 270,503C158,503 53,405 53,245 z M172,246C172,349 229,408 297,408C333,408 367,396 402,363l0,-221C368,102 332,83 291,83C216,83 172,140 172,246z"/>
<glyph unicode="e" horiz-adv-x="600" d="M62,245C62,83 181,-12 330,-12C402,-12 469,12 522,45l-39,72C438,92 396,77 345,77C256,77 188,126 180,214l357,0C539,226 542,248 542,270C542,406 460,503 314,503C186,503 62,406 62,245 z M179,292C192,372 251,414 317,414C395,414 436,368 436,292z"/>
<glyph unicode="f" horiz-adv-x="600" d="M582,691C538,708 489,718 436,718C292,718 228,634 228,518l0,-27l-136,-5l0,-86l136,0l0,-400l114,0l0,400l187,0l0,91l-187,0l0,29C342,589 375,627 450,627C490,627 522,620 558,606z"/>
<glyph unicode="g" horiz-adv-x="600" d="M158,-71C158,-48 171,-27 206,-6C225,-12 249,-14 281,-14l78,0C424,-14 458,-24 458,-62C458,-104 396,-142 300,-142C209,-142 158,-115 158,-71 z M62,-86C62,-174 151,-217 286,-217C459,-217 569,-140 569,-43C569,42 503,77 376,77l-100,0C215,77 183,91 183,124C183,143 194,157 213,169C239,160 265,156 288,156C398,156 484,213 484,322C484,356 468,386 451,406l115,0l0,85l-201,0C343,499 317,503 288,503C180,503 86,439 86,326C86,268 114,224 149,200l0,-4C113,171 90,136 90,103C90,62 114,36 140,21l0,-4C89,-10 62,-47 62,-86 z M288,228C237,228 195,264 195,326C195,386 237,424 288,424C339,424 382,386 382,326C382,264 339,228 288,228z"/>
<glyph unicode="h" horiz-adv-x="600" d="M82,0l116,0l0,335C243,381 276,404 324,404C391,404 416,368 416,289l0,-289l116,0l0,304C532,431 480,503 367,503C292,503 236,464 191,419l7,105l0,182l-116,0z"/>
<glyph unicode="i" horiz-adv-x="600" d="M84,400l213,0l0,-400l115,0l0,491l-328,0 z M346,577C394,577 428,608 428,654C428,700 394,732 346,732C299,732 264,700 264,654C264,608 299,577 346,577z"/>
<glyph unicode="j" horiz-adv-x="600" d="M84,400l213,0l0,-397C297,-74 273,-115 189,-115C157,-115 121,-107 84,-90l-35,-83C89,-192 138,-206 195,-206C363,-206 412,-111 412,9l0,482l-328,0 z M346,577C394,577 428,608 428,654C428,700 394,732 346,732C299,732 264,700 264,654C264,608 299,577 346,577z"/>
<glyph unicode="k" horiz-adv-x="600" d="M90,0l116,0l0,128l94,94l154,-222l126,0l-211,293l190,198l-128,0l-221,-227l-4,0l0,442l-116,0z"/>
<glyph unicode="l" horiz-adv-x="600" d="M71,615l155,0l0,-436C226,58 286,-12 401,-12C458,-12 493,0 540,16l-27,85C480,88 454,82 429,82C379,82 341,107 341,173l0,533l-270,0z"/>
<glyph unicode="m" horiz-adv-x="600" d="M48,0l109,0l0,343C176,384 193,404 219,404C247,404 261,383 261,339l0,-339l90,0l0,343C370,384 389,404 415,404C443,404 456,383 456,339l0,-339l109,0l0,348C565,446 525,503 456,503C402,503 368,468 345,421C333,475 302,503 255,503C199,503 169,471 147,428l-3,0l-9,63l-87,0z"/>
<glyph unicode="n" horiz-adv-x="600" d="M82,0l116,0l0,335C243,381 276,404 324,404C391,404 416,368 416,289l0,-289l116,0l0,304C532,431 480,503 367,503C292,503 236,464 190,417l-4,0l-9,74l-95,0z"/>
<glyph unicode="o" horiz-adv-x="600" d="M53,245C53,82 171,-12 300,-12C429,-12 547,82 547,245C547,409 429,503 300,503C171,503 53,409 53,245 z M172,245C172,344 220,409 300,409C380,409 428,344 428,245C428,147 380,82 300,82C220,82 172,147 172,245z"/>
<glyph unicode="p" horiz-adv-x="600" d="M194,46C234,9 284,-12 329,-12C442,-12 547,85 547,253C547,405 474,503 346,503C290,503 231,474 189,435l-3,0l-9,56l-95,0l0,-685l116,0l0,154 z M198,128l0,221C238,390 277,408 314,408C394,408 428,350 428,252C428,141 375,83 305,83C275,83 234,95 198,128z"/>
<glyph unicode="q" horiz-adv-x="600" d="M53,245C53,83 137,-12 263,-12C316,-12 369,16 407,53l-5,-82l0,-165l116,0l0,685l-91,0l-10,-52l-3,0C371,482 327,503 270,503C158,503 53,405 53,245 z M172,246C172,349 229,408 297,408C333,408 367,396 402,363l0,-221C368,102 332,83 291,83C216,83 172,140 172,246z"/>
<glyph unicode="r" horiz-adv-x="600" d="M130,0l116,0l0,271C296,366 362,401 429,401C466,401 486,396 518,386l24,97C513,497 487,503 447,503C362,503 288,459 238,380l-3,0l-10,111l-95,0z"/>
<glyph unicode="s" horiz-adv-x="600" d="M62,64C123,22 211,-12 303,-12C452,-12 533,56 533,140C533,221 459,258 345,288C266,308 207,327 207,362C207,393 234,416 310,416C366,416 416,396 460,367l53,71C463,471 389,503 309,503C170,503 92,442 92,356C92,282 179,240 273,215C372,189 418,168 418,134C418,100 383,75 306,75C230,75 171,99 116,137z"/>
<glyph unicode="t" horiz-adv-x="600" d="M190,198C190,72 241,-12 390,-12C449,-12 504,1 548,16l-22,84C494,88 460,80 418,80C335,80 305,117 305,198l0,202l224,0l0,91l-224,0l0,134l-95,0l-15,-134l-136,-5l0,-86l131,0z"/>
<glyph unicode="u" horiz-adv-x="600" d="M515,491l-115,0l0,-331C356,106 323,87 277,87C209,87 185,123 185,202l0,289l-115,0l0,-304C70,60 120,-12 234,-12C307,-12 362,24 408,78l4,0l9,-78l94,0z"/>
<glyph unicode="v" horiz-adv-x="600" d="M237,0l131,0l191,491l-110,0l-95,-255C336,187 321,138 305,88l-4,0C285,138 270,187 252,236l-95,255l-116,0z"/>
<glyph unicode="w" horiz-adv-x="600" d="M101,0l133,0l42,204C286,267 292,310 298,348l4,0C310,297 317,251 325,205l43,-205l135,0l91,491l-106,0l-45,-255C436,189 431,143 423,95l-4,0C411,143 402,189 392,236l-46,207l-86,0l-46,-207C204,190 196,143 189,95l-4,0C178,143 173,189 165,236l-45,255l-114,0z"/>
<glyph unicode="x" horiz-adv-x="600" d="M51,0l121,0l64,96C254,127 271,155 289,184l4,0C313,156 334,124 353,97l71,-97l125,0l-179,243l167,248l-121,0l-58,-92C343,372 325,342 310,314l-4,0C288,342 268,371 252,398l-64,93l-125,0l166,-236z"/>
<glyph unicode="y" horiz-adv-x="600" d="M89,-102l-22,-90C86,-198 111,-202 137,-202C255,-202 314,-133 356,-22l205,513l-109,0l-89,-241C347,204 329,153 314,106l-4,0C292,155 274,206 256,250l-101,241l-115,0l220,-485l-12,-31C228,-74 192,-109 130,-109C116,-109 102,-106 89,-102z"/>
<glyph unicode="z" horiz-adv-x="600" d="M71,0l466,0l0,92l-305,0l296,338l0,61l-423,0l0,-91l261,0l-295,-338z"/>
<glyph unicode="&#xC0;" horiz-adv-x="600" d="M363,704l-84,116l-126,0l117,-116 z M215,268l23,80C258,417 278,491 296,564l4,0C319,492 339,417 358,348l23,-80 z M457,0l123,0l-212,654l-136,0l-212,-654l118,0l51,177l218,0z"/>
<glyph unicode="&#xC1;" horiz-adv-x="600" d="M447,820l-126,0l-84,-116l93,0 z M215,268l23,80C258,417 278,491 296,564l4,0C319,492 339,417 358,348l23,-80 z M457,0l123,0l-212,654l-136,0l-212,-654l118,0l51,177l218,0z"/>
<glyph unicode="&#xC2;" horiz-adv-x="600" d="M298,768l4,0l60,-64l90,0l-96,116l-112,0l-96,-116l90,0 z M215,268l23,80C258,417 278,491 296,564l4,0C319,492 339,417 358,348l23,-80 z M457,0l123,0l-212,654l-136,0l-212,-654l118,0l51,177l218,0z"/>
<glyph unicode="&#xC3;" horiz-adv-x="600" d="M397,829C391,796 376,781 358,781C324,781 292,829 238,829C188,829 150,784 142,707l61,0C209,740 224,756 242,756C276,756 308,707 362,707C412,707 450,753 458,829 z M215,268l23,80C258,417 278,491 296,564l4,0C319,492 339,417 358,348l23,-80 z M457,0l123,0l-212,654l-136,0l-212,-654l118,0l51,177l218,0z"/>
<glyph unicode="&#xC4;" horiz-adv-x="600" d="M393,708C428,708 452,733 452,767C452,802 428,827 393,827C358,827 333,802 333,767C333,733 358,708 393,708 z M207,708C242,708 267,733 267,767C267,802 242,827 207,827C172,827 148,802 148,767C148,733 172,708 207,708 z M215,268l23,80C258,417 278,491 296,564l4,0C319,492 339,417 358,348l23,-80 z M457,0l123,0l-212,654l-136,0l-212,-654l118,0l51,177l218,0z"/>
<glyph unicode="&#x100;" horiz-adv-x="600" d="M433,800l-266,0l0,-76l266,0 z M215,268l23,80C258,417 278,491 296,564l4,0C319,492 339,417 358,348l23,-80 z M457,0l123,0l-212,654l-136,0l-212,-654l118,0l51,177l218,0z"/>
<glyph unicode="&#x102;" horiz-adv-x="600" d="M364,820C358,791 340,766 300,766C260,766 242,791 236,820l-66,0C177,756 216,705 300,705C384,705 423,756 430,820 z M215,268l23,80C258,417 278,491 296,564l4,0C319,492 339,417 358,348l23,-80 z M457,0l123,0l-212,654l-136,0l-212,-654l118,0l51,177l218,0z"/>
<glyph unicode="&#xC5;" horiz-adv-x="600" d="M300,838C324,838 344,820 344,791C344,761 324,744 300,744C275,744 256,761 256,791C256,820 275,838 300,838 z M300,698C360,698 403,734 403,791C403,847 360,884 300,884C239,884 197,847 197,791C197,734 239,698 300,698 z M215,268l23,80C258,417 278,491 296,564l4,0C319,492 339,417 358,348l23,-80 z M457,0l123,0l-212,654l-136,0l-212,-654l118,0l51,177l218,0z"/>
<glyph unicode="&#x1CD;" horiz-adv-x="600" d="M356,704l96,116l-90,0l-60,-64l-4,0l-60,64l-90,0l96,-116 z M215,268l23,80C258,417 278,491 296,564l4,0C319,492 339,417 358,348l23,-80 z M457,0l123,0l-212,654l-136,0l-212,-654l118,0l51,177l218,0z"/>
<glyph unicode="&#x1EA0;" horiz-adv-x="600" d="M300,-85C253,-85 218,-117 218,-163C218,-210 253,-240 300,-240C347,-240 382,-210 382,-163C382,-117 347,-85 300,-85 z M215,268l23,80C258,417 278,491 296,564l4,0C319,492 339,417 358,348l23,-80 z M580,0l-212,654l-136,0l-212,-654l118,0l51,177l218,0l50,-177z"/>
<glyph unicode="&#x1EA2;" horiz-adv-x="600" d="M268,694C335,702 394,730 394,793C394,845 346,876 240,879l-13,-61C284,815 308,803 308,780C308,759 286,749 258,743 z M215,268l23,80C258,417 278,491 296,564l4,0C319,492 339,417 358,348l23,-80 z M457,0l123,0l-212,654l-136,0l-212,-654l118,0l51,177l218,0z"/>
<glyph unicode="&#x1EA4;" horiz-adv-x="600" d="M565,886l-93,0l-70,-116l68,0 z M298,762l4,0l58,-58l84,0l-94,110l-100,0l-94,-110l84,0 z M215,268l23,80C258,417 278,491 296,564l4,0C319,492 339,417 358,348l23,-80 z M457,0l123,0l-212,654l-136,0l-212,-654l118,0l51,177l218,0z"/>
<glyph unicode="&#x1EA6;" horiz-adv-x="600" d="M511,770l-69,116l-93,0l94,-116 z M298,762l4,0l58,-58l84,0l-94,110l-100,0l-94,-110l84,0 z M215,268l23,80C258,417 278,491 296,564l4,0C319,492 339,417 358,348l23,-80 z M457,0l123,0l-212,654l-136,0l-212,-654l118,0l51,177l218,0z"/>
<glyph unicode="&#x1EA8;" horiz-adv-x="600" d="M426,752C483,758 530,780 530,835C530,880 491,908 397,912l-11,-52C435,857 454,847 454,825C454,806 437,798 415,793 z M298,762l4,0l58,-58l84,0l-94,110l-100,0l-94,-110l84,0 z M215,268l23,80C258,417 278,491 296,564l4,0C319,492 339,417 358,348l23,-80 z M457,0l123,0l-212,654l-136,0l-212,-654l118,0l51,177l218,0z"/>
<glyph unicode="&#x1EAA;" horiz-adv-x="600" d="M388,952C383,924 369,912 351,912C321,912 296,952 244,952C199,952 166,916 159,850l53,0C217,878 231,890 249,890C279,890 304,850 356,850C401,850 434,886 441,952 z M298,762l4,0l58,-58l84,0l-94,110l-100,0l-94,-110l84,0 z M215,268l23,80C258,417 278,491 296,564l4,0C319,492 339,417 358,348l23,-80 z M457,0l123,0l-212,654l-136,0l-212,-654l118,0l51,177l218,0z"/>
<glyph unicode="&#x1EAC;" horiz-adv-x="600" d="M298,768l4,0l60,-64l90,0l-96,116l-112,0l-96,-116l90,0 z M300,-85C253,-85 218,-117 218,-163C218,-210 253,-240 300,-240C347,-240 382,-210 382,-163C382,-117 347,-85 300,-85 z M215,268l23,80C258,417 278,491 296,564l4,0C319,492 339,417 358,348l23,-80 z M580,0l-212,654l-136,0l-212,-654l118,0l51,177l218,0l50,-177z"/>
<glyph unicode="&#x1EAE;" horiz-adv-x="600" d="M419,917l-92,0l-69,-112l62,0 z M373,818C365,786 346,760 300,760C254,760 235,786 227,818l-56,0C178,755 218,705 300,705C382,705 422,755 429,818 z M215,268l23,80C258,417 278,491 296,564l4,0C319,492 339,417 358,348l23,-80 z M457,0l123,0l-212,654l-136,0l-212,-654l118,0l51,177l218,0z"/>
<glyph unicode="&#x1EB0;" horiz-adv-x="600" d="M342,805l-69,112l-92,0l99,-112 z M373,818C365,786 346,760 300,760C254,760 235,786 227,818l-56,0C178,755 218,705 300,705C382,705 422,755 429,818 z M215,268l23,80C258,417 278,491 296,564l4,0C319,492 339,417 358,348l23,-80 z M457,0l123,0l-212,654l-136,0l-212,-654l118,0l51,177l218,0z"/>
<glyph unicode="&#x1EB2;" horiz-adv-x="600" d="M272,803C329,810 376,831 376,886C376,932 337,960 243,963l-11,-51C281,908 300,898 300,876C300,857 283,849 261,844 z M373,818C365,786 346,760 300,760C254,760 235,786 227,818l-56,0C178,755 218,705 300,705C382,705 422,755 429,818 z M215,268l23,80C258,417 278,491 296,564l4,0C319,492 339,417 358,348l23,-80 z M457,0l123,0l-212,654l-136,0l-212,-654l118,0l51,177l218,0z"/>
<glyph unicode="&#x1EB4;" horiz-adv-x="600" d="M386,953C380,925 366,911 347,911C317,911 288,953 243,953C198,953 164,915 157,849l54,0C215,876 231,891 249,891C279,891 307,849 354,849C399,849 433,887 440,953 z M171,818C178,755 218,705 300,705C382,705 422,755 429,818l-56,0C365,786 346,760 300,760C254,760 235,786 227,818 z M215,268l23,80C258,417 278,491 296,564l4,0C319,492 339,417 358,348l23,-80 z M457,0l123,0l-212,654l-136,0l-212,-654l118,0l51,177l218,0z"/>
<glyph unicode="&#x1EB6;" horiz-adv-x="600" d="M364,820C358,791 340,766 300,766C260,766 242,791 236,820l-66,0C177,756 216,705 300,705C384,705 423,756 430,820 z M300,-85C253,-85 218,-117 218,-163C218,-210 253,-240 300,-240C347,-240 382,-210 382,-163C382,-117 347,-85 300,-85 z M215,268l23,80C258,417 278,491 296,564l4,0C319,492 339,417 358,348l23,-80 z M580,0l-212,654l-136,0l-212,-654l118,0l51,177l218,0l50,-177z"/>
<glyph unicode="&#x104;" horiz-adv-x="600" d="M215,268l23,80C258,417 278,491 296,564l4,0C319,492 338,417 358,348l23,-80 z M578,-126C567,-135 553,-140 537,-140C515,-140 495,-126 495,-98C495,-58 529,-12 580,0l-212,654l-136,0l-212,-654l118,0l51,177l218,0l50,-177l30,0C453,-21 408,-69 408,-127C408,-186 455,-218 514,-218C544,-218 584,-204 606,-186z"/>
<glyph unicode="&#xC6;" horiz-adv-x="600" d="M207,261l36,105C265,430 289,497 311,565l3,0l0,-304 z M418,98l0,194l132,0l0,98l-132,0l0,166l166,0l0,98l-352,0l-234,-654l120,0l58,170l138,0l0,-170l279,0l0,98z"/>
<glyph unicode="&#x243;" horiz-adv-x="600" d="M210,84l0,92l124,0l0,59l-124,0l0,83l86,0C393,318 445,283 445,206C445,125 391,84 296,84 z M210,570l73,0C368,570 410,545 410,485C410,422 371,389 280,389l-70,0 z M410,363C486,383 522,437 522,496C522,612 425,654 291,654l-197,0l0,-419l-76,-5l0,-54l76,0l0,-176l214,0C452,0 556,63 556,198C556,290 504,342 410,359z"/>
<glyph unicode="&#xC7;" horiz-adv-x="600" d="M497,154C460,113 419,89 366,89C254,89 179,179 179,328C179,475 254,565 363,565C414,565 452,544 484,512l65,72C507,627 443,666 363,666C190,666 60,539 60,325C60,130 167,13 309,-8l-34,-67C318,-86 336,-100 336,-121C336,-148 300,-161 250,-167l10,-50C345,-211 421,-182 421,-119C421,-78 395,-58 362,-46l16,35C452,-6 512,27 561,83z"/>
<glyph unicode="&#x106;" horiz-adv-x="600" d="M60,325C60,108 192,-12 359,-12C441,-12 508,22 561,83l-64,71C460,113 419,89 366,89C254,89 179,179 179,328C179,475 254,565 363,565C414,565 452,544 484,512l65,72C507,627 443,666 363,666C190,666 60,539 60,325 z M497,820l-125,0l-85,-116l94,0z"/>
<glyph unicode="&#x108;" horiz-adv-x="600" d="M60,325C60,108 192,-12 359,-12C441,-12 508,22 561,83l-64,71C460,113 419,89 366,89C254,89 179,179 179,328C179,475 254,565 363,565C414,565 452,544 484,512l65,72C507,627 443,666 363,666C190,666 60,539 60,325 z M288,704l60,64l4,0l60,-64l90,0l-96,116l-112,0l-96,-116z"/>
<glyph unicode="&#x10C;" horiz-adv-x="600" d="M60,325C60,108 192,-12 359,-12C441,-12 508,22 561,83l-64,71C460,113 419,89 366,89C254,89 179,179 179,328C179,475 254,565 363,565C414,565 452,544 484,512l65,72C507,627 443,666 363,666C190,666 60,539 60,325 z M412,820l-60,-64l-4,0l-60,64l-90,0l96,-116l112,0l96,116z"/>
<glyph unicode="&#x10A;" horiz-adv-x="600" d="M60,325C60,108 192,-12 359,-12C441,-12 508,22 561,83l-64,71C460,113 419,89 366,89C254,89 179,179 179,328C179,475 254,565 363,565C414,565 452,544 484,512l65,72C507,627 443,666 363,666C190,666 60,539 60,325 z M350,707C391,707 422,734 422,773C422,811 391,838 350,838C310,838 279,811 279,773C279,734 310,707 350,707z"/>
<glyph unicode="&#x10E;" horiz-adv-x="600" d="M75,0l175,0C437,0 552,113 552,330C552,546 437,654 244,654l-169,0 z M191,94l0,466l46,0C362,560 433,490 433,330C433,169 362,94 237,94 z M360,820l-60,-64l-4,0l-60,64l-90,0l96,-116l112,0l96,116z"/>
<glyph unicode="&#x1E0C;" horiz-adv-x="600" d="M75,0l175,0C437,0 552,113 552,330C552,546 437,654 244,654l-169,0 z M191,94l0,466l46,0C362,560 433,490 433,330C433,169 362,94 237,94 z M290,-240C337,-240 372,-210 372,-163C372,-117 337,-85 290,-85C243,-85 208,-117 208,-163C208,-210 243,-240 290,-240z"/>
<glyph unicode="&#x1E0E;" horiz-adv-x="600" d="M75,0l175,0C437,0 552,113 552,330C552,546 437,654 244,654l-169,0 z M191,94l0,466l46,0C362,560 433,490 433,330C433,169 362,94 237,94 z M420,-104l-261,0l0,-76l261,0z"/>
<glyph unicode="&#x110;" horiz-adv-x="600" d="M81,0l175,0C442,0 558,113 558,330C558,546 442,654 250,654l-169,0l0,-284l-72,-5l0,-54l72,0 z M197,94l0,217l125,0l0,59l-125,0l0,190l46,0C367,560 439,490 439,330C439,169 367,94 243,94z"/>
<glyph unicode="&#xC8;" horiz-adv-x="600" d="M104,0l428,0l0,98l-312,0l0,193l256,0l0,98l-256,0l0,167l302,0l0,98l-418,0 z M296,704l93,0l-84,116l-126,0z"/>
<glyph unicode="&#xC9;" horiz-adv-x="600" d="M104,0l428,0l0,98l-312,0l0,193l256,0l0,98l-256,0l0,167l302,0l0,98l-418,0 z M473,820l-126,0l-84,-116l93,0z"/>
<glyph unicode="&#xCA;" horiz-adv-x="600" d="M104,0l428,0l0,98l-312,0l0,193l256,0l0,98l-256,0l0,167l302,0l0,98l-418,0 z M264,704l60,64l4,0l60,-64l90,0l-96,116l-112,0l-96,-116z"/>
<glyph unicode="&#x11A;" horiz-adv-x="600" d="M104,0l428,0l0,98l-312,0l0,193l256,0l0,98l-256,0l0,167l302,0l0,98l-418,0 z M388,820l-60,-64l-4,0l-60,64l-90,0l96,-116l112,0l96,116z"/>
<glyph unicode="&#xCB;" horiz-adv-x="600" d="M104,0l428,0l0,98l-312,0l0,193l256,0l0,98l-256,0l0,167l302,0l0,98l-418,0 z M233,708C268,708 293,733 293,767C293,802 268,827 233,827C198,827 174,802 174,767C174,733 198,708 233,708 z M419,708C454,708 478,733 478,767C478,802 454,827 419,827C384,827 359,802 359,767C359,733 384,708 419,708z"/>
<glyph unicode="&#x112;" horiz-adv-x="600" d="M104,0l428,0l0,98l-312,0l0,193l256,0l0,98l-256,0l0,167l302,0l0,98l-418,0 z M193,724l266,0l0,76l-266,0z"/>
<glyph unicode="&#x114;" horiz-adv-x="600" d="M104,0l428,0l0,98l-312,0l0,193l256,0l0,98l-256,0l0,167l302,0l0,98l-418,0 z M326,705C410,705 449,756 456,820l-66,0C384,791 366,766 326,766C286,766 268,791 262,820l-66,0C203,756 242,705 326,705z"/>
<glyph unicode="&#x116;" horiz-adv-x="600" d="M104,0l428,0l0,98l-312,0l0,193l256,0l0,98l-256,0l0,167l302,0l0,98l-418,0 z M326,707C367,707 397,734 397,773C397,811 367,838 326,838C285,838 255,811 255,773C255,734 285,707 326,707z"/>
<glyph unicode="&#x1EB8;" horiz-adv-x="600" d="M104,0l428,0l0,98l-312,0l0,193l256,0l0,98l-256,0l0,167l302,0l0,98l-418,0 z M326,-240C374,-240 408,-210 408,-163C408,-117 374,-85 326,-85C279,-85 244,-117 244,-163C244,-210 279,-240 326,-240z"/>
<glyph unicode="&#x1EBA;" horiz-adv-x="600" d="M104,0l428,0l0,98l-312,0l0,193l256,0l0,98l-256,0l0,167l302,0l0,98l-418,0 z M294,694C361,702 420,730 420,793C420,845 372,876 266,879l-13,-61C310,815 334,803 334,780C334,759 312,749 284,743z"/>
<glyph unicode="&#x1EBC;" horiz-adv-x="600" d="M104,0l428,0l0,98l-312,0l0,193l256,0l0,98l-256,0l0,167l302,0l0,98l-418,0 z M388,707C438,707 476,753 484,829l-61,0C417,796 402,781 384,781C350,781 318,829 264,829C214,829 176,784 168,707l61,0C235,740 250,756 268,756C302,756 334,707 388,707z"/>
<glyph unicode="&#x1EBE;" horiz-adv-x="600" d="M104,0l428,0l0,98l-312,0l0,193l256,0l0,98l-256,0l0,167l302,0l0,98l-418,0 z M428,770l68,0l95,116l-93,0 z M182,704l84,0l58,58l4,0l58,-58l84,0l-94,110l-100,0z"/>
<glyph unicode="&#x1EC0;" horiz-adv-x="600" d="M104,0l428,0l0,98l-312,0l0,193l256,0l0,98l-256,0l0,167l302,0l0,98l-418,0 z M468,886l-93,0l94,-116l68,0 z M182,704l84,0l58,58l4,0l58,-58l84,0l-94,110l-100,0z"/>
<glyph unicode="&#x1EC2;" horiz-adv-x="600" d="M104,0l428,0l0,98l-312,0l0,193l256,0l0,98l-256,0l0,167l302,0l0,98l-418,0 z M452,752C509,758 556,780 556,835C556,880 517,908 423,912l-11,-52C461,857 480,847 480,825C480,806 463,798 441,793 z M182,704l84,0l58,58l4,0l58,-58l84,0l-94,110l-100,0z"/>
<glyph unicode="&#x1EC4;" horiz-adv-x="600" d="M104,0l428,0l0,98l-312,0l0,193l256,0l0,98l-256,0l0,167l302,0l0,98l-418,0 z M182,704l84,0l58,58l4,0l58,-58l84,0l-94,110l-100,0 z M238,850C243,878 257,890 275,890C305,890 330,850 382,850C427,850 460,886 467,952l-53,0C409,924 395,912 377,912C347,912 322,952 270,952C225,952 192,916 185,850z"/>
<glyph unicode="&#x1EC6;" horiz-adv-x="600" d="M104,0l428,0l0,98l-312,0l0,193l256,0l0,98l-256,0l0,167l302,0l0,98l-418,0 z M264,704l60,64l4,0l60,-64l90,0l-96,116l-112,0l-96,-116 z M326,-240C374,-240 408,-210 408,-163C408,-117 374,-85 326,-85C279,-85 244,-117 244,-163C244,-210 279,-240 326,-240z"/>
<glyph unicode="&#x118;" horiz-adv-x="600" d="M104,0l325,0C393,-22 352,-69 352,-127C352,-186 399,-218 458,-218C488,-218 528,-204 550,-186l-28,60C511,-134 498,-140 484,-140C461,-140 439,-127 439,-98C439,-50 482,-4 528,0l4,0l0,98l-312,0l0,193l256,0l0,98l-256,0l0,167l302,0l0,98l-418,0z"/>
<glyph unicode="&#x11C;" horiz-adv-x="600" d="M48,325C48,108 174,-12 340,-12C424,-12 497,24 540,66l0,288l-218,0l0,-95l113,0l0,-141C416,99 382,89 347,89C231,89 168,179 168,328C168,475 241,565 345,565C402,565 436,543 466,512l64,72C491,625 432,666 345,666C175,666 48,540 48,325 z M269,704l60,64l4,0l60,-64l90,0l-96,116l-112,0l-96,-116z"/>
<glyph unicode="&#x11E;" horiz-adv-x="600" d="M48,325C48,108 174,-12 340,-12C424,-12 497,24 540,66l0,288l-218,0l0,-95l113,0l0,-141C416,99 382,89 347,89C231,89 168,179 168,328C168,475 241,565 345,565C402,565 436,543 466,512l64,72C491,625 432,666 345,666C175,666 48,540 48,325 z M331,705C414,705 454,756 461,820l-66,0C389,791 370,766 331,766C291,766 272,791 266,820l-65,0C208,756 247,705 331,705z"/>
<glyph unicode="&#x120;" horiz-adv-x="600" d="M48,325C48,108 174,-12 340,-12C424,-12 497,24 540,66l0,288l-218,0l0,-95l113,0l0,-141C416,99 382,89 347,89C231,89 168,179 168,328C168,475 241,565 345,565C402,565 436,543 466,512l64,72C491,625 432,666 345,666C175,666 48,540 48,325 z M331,707C372,707 402,734 402,773C402,811 372,838 331,838C290,838 260,811 260,773C260,734 290,707 331,707z"/>
<glyph unicode="&#x122;" horiz-adv-x="600" d="M48,325C48,108 174,-12 340,-12C424,-12 497,24 540,66l0,288l-218,0l0,-95l113,0l0,-141C416,99 382,89 347,89C231,89 168,179 168,328C168,475 241,565 345,565C402,565 436,543 466,512l64,72C491,625 432,666 345,666C175,666 48,540 48,325 z M302,-45l-23,-46C308,-98 326,-109 326,-132C326,-156 291,-167 241,-173l9,-50C336,-217 412,-188 412,-125C412,-78 381,-54 302,-45z"/>
<glyph unicode="&#x1E6;" horiz-adv-x="600" d="M48,325C48,108 174,-12 340,-12C424,-12 497,24 540,66l0,288l-218,0l0,-95l113,0l0,-141C416,99 382,89 347,89C231,89 168,179 168,328C168,475 241,565 345,565C402,565 436,543 466,512l64,72C491,625 432,666 345,666C175,666 48,540 48,325 z M393,820l-60,-64l-4,0l-60,64l-90,0l96,-116l112,0l96,116z"/>
<glyph unicode="&#x1E20;" horiz-adv-x="600" d="M48,325C48,108 174,-12 340,-12C424,-12 497,24 540,66l0,288l-218,0l0,-95l113,0l0,-141C416,99 382,89 347,89C231,89 168,179 168,328C168,475 241,565 345,565C402,565 436,543 466,512l64,72C491,625 432,666 345,666C175,666 48,540 48,325 z M198,724l266,0l0,76l-266,0z"/>
<glyph unicode="&#xE000;" horiz-adv-x="600" d="M48,325C48,108 174,-12 340,-12C424,-12 497,24 540,66l0,288l-218,0l0,-95l113,0l0,-141C416,99 382,89 347,89C231,89 168,179 168,328C168,475 241,565 345,565C402,565 436,543 466,512l64,72C491,625 432,666 345,666C175,666 48,540 48,325 z M392,707C442,707 480,753 488,829l-60,0C422,796 407,781 388,781C355,781 322,829 269,829C219,829 181,784 173,707l61,0C240,740 255,756 273,756C307,756 339,707 392,707z"/>
<glyph unicode="&#x124;" horiz-adv-x="600" d="M72,0l116,0l0,290l224,0l0,-290l116,0l0,654l-116,0l0,-263l-224,0l0,263l-116,0 z M237,704l60,64l4,0l60,-64l90,0l-96,116l-112,0l-96,-116z"/>
<glyph unicode="&#x1E24;" horiz-adv-x="600" d="M72,0l116,0l0,290l224,0l0,-290l116,0l0,654l-116,0l0,-263l-224,0l0,263l-116,0 z M299,-240C347,-240 381,-210 381,-163C381,-117 347,-85 299,-85C252,-85 217,-117 217,-163C217,-210 252,-240 299,-240z"/>
<glyph unicode="&#x1E2A;" horiz-adv-x="600" d="M72,0l116,0l0,290l224,0l0,-290l116,0l0,654l-116,0l0,-263l-224,0l0,263l-116,0 z M299,-208C389,-208 429,-141 432,-75l-67,0C361,-111 340,-142 299,-142C258,-142 238,-111 233,-75l-66,0C170,-141 210,-208 299,-208z"/>
<glyph unicode="&#x126;" horiz-adv-x="600" d="M412,391l-224,0l0,98l224,0 z M594,548l-66,0l0,106l-116,0l0,-106l-224,0l0,106l-116,0l0,-106l-66,-5l0,-54l66,0l0,-489l116,0l0,290l224,0l0,-290l116,0l0,489l66,0z"/>
<glyph unicode="&#xCC;" horiz-adv-x="600" d="M84,0l432,0l0,98l-158,0l0,458l158,0l0,98l-432,0l0,-98l158,0l0,-458l-158,0 z M270,704l93,0l-84,116l-126,0z"/>
<glyph unicode="&#xCD;" horiz-adv-x="600" d="M84,0l432,0l0,98l-158,0l0,458l158,0l0,98l-432,0l0,-98l158,0l0,-458l-158,0 z M447,820l-126,0l-84,-116l93,0z"/>
<glyph unicode="&#xCE;" horiz-adv-x="600" d="M84,0l432,0l0,98l-158,0l0,458l158,0l0,98l-432,0l0,-98l158,0l0,-458l-158,0 z M238,704l60,64l4,0l60,-64l90,0l-96,116l-112,0l-96,-116z"/>
<glyph unicode="&#x128;" horiz-adv-x="600" d="M84,0l432,0l0,98l-158,0l0,458l158,0l0,98l-432,0l0,-98l158,0l0,-458l-158,0 z M362,707C412,707 450,753 458,829l-61,0C391,796 376,781 358,781C324,781 292,829 238,829C188,829 150,784 142,707l61,0C209,740 224,756 242,756C276,756 308,707 362,707z"/>
<glyph unicode="&#xCF;" horiz-adv-x="600" d="M84,0l432,0l0,98l-158,0l0,458l158,0l0,98l-432,0l0,-98l158,0l0,-458l-158,0 z M207,708C242,708 267,733 267,767C267,802 242,827 207,827C172,827 148,802 148,767C148,733 172,708 207,708 z M393,708C428,708 452,733 452,767C452,802 428,827 393,827C358,827 333,802 333,767C333,733 358,708 393,708z"/>
<glyph unicode="&#x12A;" horiz-adv-x="600" d="M84,0l432,0l0,98l-158,0l0,458l158,0l0,98l-432,0l0,-98l158,0l0,-458l-158,0 z M167,724l266,0l0,76l-266,0z"/>
<glyph unicode="&#x12C;" horiz-adv-x="600" d="M84,0l432,0l0,98l-158,0l0,458l158,0l0,98l-432,0l0,-98l158,0l0,-458l-158,0 z M300,705C384,705 423,756 430,820l-66,0C358,791 340,766 300,766C260,766 242,791 236,820l-66,0C177,756 216,705 300,705z"/>
<glyph unicode="&#x130;" horiz-adv-x="600" d="M84,0l432,0l0,98l-158,0l0,458l158,0l0,98l-432,0l0,-98l158,0l0,-458l-158,0 z M300,707C341,707 371,734 371,773C371,811 341,838 300,838C259,838 229,811 229,773C229,734 259,707 300,707z"/>
<glyph unicode="&#x1CF;" horiz-adv-x="600" d="M84,0l432,0l0,98l-158,0l0,458l158,0l0,98l-432,0l0,-98l158,0l0,-458l-158,0 z M362,820l-60,-64l-4,0l-60,64l-90,0l96,-116l112,0l96,116z"/>
<glyph unicode="&#x1EC8;" horiz-adv-x="600" d="M84,0l432,0l0,98l-158,0l0,458l158,0l0,98l-432,0l0,-98l158,0l0,-458l-158,0 z M268,694C335,702 394,730 394,793C394,845 346,876 240,879l-13,-61C284,815 308,803 308,780C308,759 286,749 258,743z"/>
<glyph unicode="&#x1ECA;" horiz-adv-x="600" d="M84,0l432,0l0,98l-158,0l0,458l158,0l0,98l-432,0l0,-98l158,0l0,-458l-158,0 z M300,-240C348,-240 382,-210 382,-163C382,-117 348,-85 300,-85C253,-85 218,-117 218,-163C218,-210 253,-240 300,-240z"/>
<glyph unicode="&#x12E;" horiz-adv-x="600" d="M84,0l188,0C241,-25 202,-66 202,-127C202,-186 248,-218 307,-218C338,-218 377,-204 399,-186l-28,60C360,-134 347,-140 332,-140C310,-140 288,-127 288,-98C288,-61 310,-27 358,0l158,0l0,98l-158,0l0,458l158,0l0,98l-432,0l0,-98l158,0l0,-458l-158,0z"/>
<glyph unicode="&#x134;" horiz-adv-x="600" d="M70,96C121,18 201,-12 274,-12C446,-12 505,91 505,216l0,438l-381,0l0,-97l265,0l0,-331C389,127 351,88 271,88C224,88 177,115 140,167 z M259,704l60,64l4,0l60,-64l90,0l-96,116l-112,0l-96,-116z"/>
<glyph unicode="&#x136;" horiz-adv-x="600" d="M83,0l117,0l0,191l95,117l163,-308l129,0l-223,399l201,255l-129,0l-233,-297l-3,0l0,297l-117,0 z M298,-45l-23,-46C304,-98 322,-109 322,-132C322,-156 286,-167 236,-173l10,-50C331,-217 407,-188 407,-125C407,-78 377,-54 298,-45z"/>
<glyph unicode="&#x139;" horiz-adv-x="600" d="M120,0l422,0l0,98l-307,0l0,556l-115,0 z M339,820l-125,0l-85,-116l94,0z"/>
<glyph unicode="&#x13D;" horiz-adv-x="600" d="M120,0l422,0l0,98l-307,0l0,556l-115,0 z M440,512l19,154l1,63l-77,0l5,-217z"/>
<glyph unicode="&#x13B;" horiz-adv-x="600" d="M120,0l422,0l0,98l-307,0l0,556l-115,0 z M306,-45l-23,-46C312,-98 330,-109 330,-132C330,-156 295,-167 245,-173l9,-50C340,-217 416,-188 416,-125C416,-78 385,-54 306,-45z"/>
<glyph unicode="&#x13F;" horiz-adv-x="600" d="M120,0l422,0l0,98l-307,0l0,556l-115,0 z M442,274C489,274 524,304 524,350C524,397 489,428 442,428C395,428 360,397 360,350C360,304 395,274 442,274z"/>
<glyph unicode="&#x1E36;" horiz-adv-x="600" d="M120,0l422,0l0,98l-307,0l0,556l-115,0 z M339,-240C386,-240 421,-210 421,-163C421,-117 386,-85 339,-85C292,-85 257,-117 257,-163C257,-210 292,-240 339,-240z"/>
<glyph unicode="&#x1E38;" horiz-adv-x="600" d="M120,0l422,0l0,98l-307,0l0,556l-115,0 z M60,724l265,0l0,76l-265,0 z M339,-240C386,-240 421,-210 421,-163C421,-117 386,-85 339,-85C292,-85 257,-117 257,-163C257,-210 292,-240 339,-240z"/>
<glyph unicode="&#x1E3A;" horiz-adv-x="600" d="M120,0l422,0l0,98l-307,0l0,556l-115,0 z M469,-104l-261,0l0,-76l261,0z"/>
<glyph unicode="&#x141;" horiz-adv-x="600" d="M235,98l0,171l216,116l0,91l-216,-116l0,294l-115,0l0,-350l-77,-43l0,-91l77,43l0,-213l422,0l0,98z"/>
<glyph unicode="&#x1E42;" horiz-adv-x="600" d="M73,0l94,0l0,290C167,352 157,477 152,539l3,0l46,-160l70,-203l56,0l69,203l47,160l3,0C441,477 432,352 432,290l0,-290l95,0l0,654l-120,0l-77,-254l-27,-99l-3,0l-28,99l-79,254l-120,0 z M300,-240C347,-240 382,-210 382,-163C382,-117 347,-85 300,-85C253,-85 218,-117 218,-163C218,-210 253,-240 300,-240z"/>
<glyph unicode="&#x143;" horiz-adv-x="600" d="M74,0l111,0l0,286C185,359 174,438 169,507l3,0l61,-138l175,-369l118,0l0,654l-111,0l0,-284C415,297 426,214 431,147l-3,0l-61,139l-175,368l-118,0 z M453,820l-126,0l-84,-116l93,0z"/>
<glyph unicode="&#x147;" horiz-adv-x="600" d="M74,0l111,0l0,286C185,359 174,438 169,507l3,0l61,-138l175,-369l118,0l0,654l-111,0l0,-284C415,297 426,214 431,147l-3,0l-61,139l-175,368l-118,0 z M368,820l-60,-64l-4,0l-60,64l-90,0l96,-116l112,0l96,116z"/>
<glyph unicode="&#xD1;" horiz-adv-x="600" d="M74,0l111,0l0,286C185,359 174,438 169,507l3,0l61,-138l175,-369l118,0l0,654l-111,0l0,-284C415,297 426,214 431,147l-3,0l-61,139l-175,368l-118,0 z M368,707C418,707 456,753 464,829l-61,0C397,796 382,781 364,781C330,781 298,829 244,829C194,829 156,784 148,707l61,0C215,740 230,756 248,756C282,756 314,707 368,707z"/>
<glyph unicode="&#x145;" horiz-adv-x="600" d="M74,0l111,0l0,286C185,359 174,438 169,507l3,0l61,-138l175,-369l118,0l0,654l-111,0l0,-284C415,297 426,214 431,147l-3,0l-61,139l-175,368l-118,0 z M268,-45l-24,-46C274,-98 292,-109 292,-132C292,-156 256,-167 206,-173l10,-50C301,-217 377,-188 377,-125C377,-78 346,-54 268,-45z"/>
<glyph unicode="&#x1E44;" horiz-adv-x="600" d="M74,0l111,0l0,286C185,359 174,438 169,507l3,0l61,-138l175,-369l118,0l0,654l-111,0l0,-284C415,297 426,214 431,147l-3,0l-61,139l-175,368l-118,0 z M306,707C347,707 377,734 377,773C377,811 347,838 306,838C265,838 235,811 235,773C235,734 265,707 306,707z"/>
<glyph unicode="&#x1E46;" horiz-adv-x="600" d="M74,0l111,0l0,286C185,359 174,438 169,507l3,0l61,-138l175,-369l118,0l0,654l-111,0l0,-284C415,297 426,214 431,147l-3,0l-61,139l-175,368l-118,0 z M300,-240C347,-240 382,-210 382,-163C382,-117 347,-85 300,-85C253,-85 218,-117 218,-163C218,-210 253,-240 300,-240z"/>
<glyph unicode="&#x1E48;" horiz-adv-x="600" d="M74,0l111,0l0,286C185,359 174,438 169,507l3,0l61,-138l175,-369l118,0l0,654l-111,0l0,-284C415,297 426,214 431,147l-3,0l-61,139l-175,368l-118,0 z M430,-104l-261,0l0,-76l261,0z"/>
<glyph unicode="&#xD2;" horiz-adv-x="600" d="M300,-12C452,-12 557,118 557,330C557,541 452,666 300,666C148,666 43,541 43,330C43,118 148,-12 300,-12 z M300,89C216,89 162,183 162,330C162,476 216,565 300,565C384,565 438,476 438,330C438,183 384,89 300,89 z M270,704l93,0l-84,116l-126,0z"/>
<glyph unicode="&#xD3;" horiz-adv-x="600" d="M300,-12C452,-12 557,118 557,330C557,541 452,666 300,666C148,666 43,541 43,330C43,118 148,-12 300,-12 z M300,89C216,89 162,183 162,330C162,476 216,565 300,565C384,565 438,476 438,330C438,183 384,89 300,89 z M447,820l-126,0l-84,-116l93,0z"/>
<glyph unicode="&#xD4;" horiz-adv-x="600" d="M300,-12C452,-12 557,118 557,330C557,541 452,666 300,666C148,666 43,541 43,330C43,118 148,-12 300,-12 z M300,89C216,89 162,183 162,330C162,476 216,565 300,565C384,565 438,476 438,330C438,183 384,89 300,89 z M238,704l60,64l4,0l60,-64l90,0l-96,116l-112,0l-96,-116z"/>
<glyph unicode="&#xD5;" horiz-adv-x="600" d="M300,-12C452,-12 557,118 557,330C557,541 452,666 300,666C148,666 43,541 43,330C43,118 148,-12 300,-12 z M300,89C216,89 162,183 162,330C162,476 216,565 300,565C384,565 438,476 438,330C438,183 384,89 300,89 z M362,707C412,707 450,753 458,829l-61,0C391,796 376,781 358,781C324,781 292,829 238,829C188,829 150,784 142,707l61,0C209,740 224,756 242,756C276,756 308,707 362,707z"/>
<glyph unicode="&#xD6;" horiz-adv-x="600" d="M300,-12C452,-12 557,118 557,330C557,541 452,666 300,666C148,666 43,541 43,330C43,118 148,-12 300,-12 z M300,89C216,89 162,183 162,330C162,476 216,565 300,565C384,565 438,476 438,330C438,183 384,89 300,89 z M207,708C242,708 267,733 267,767C267,802 242,827 207,827C172,827 148,802 148,767C148,733 172,708 207,708 z M393,708C428,708 452,733 452,767C452,802 428,827 393,827C358,827 333,802 333,767C333,733 358,708 393,708z"/>
<glyph unicode="&#x14C;" horiz-adv-x="600" d="M300,-12C452,-12 557,118 557,330C557,541 452,666 300,666C148,666 43,541 43,330C43,118 148,-12 300,-12 z M300,89C216,89 162,183 162,330C162,476 216,565 300,565C384,565 438,476 438,330C438,183 384,89 300,89 z M167,724l266,0l0,76l-266,0z"/>
<glyph unicode="&#x14E;" horiz-adv-x="600" d="M300,-12C452,-12 557,118 557,330C557,541 452,666 300,666C148,666 43,541 43,330C43,118 148,-12 300,-12 z M300,89C216,89 162,183 162,330C162,476 216,565 300,565C384,565 438,476 438,330C438,183 384,89 300,89 z M300,705C384,705 423,756 430,820l-66,0C358,791 340,766 300,766C260,766 242,791 236,820l-66,0C177,756 216,705 300,705z"/>
<glyph unicode="&#x150;" horiz-adv-x="600" d="M300,-12C452,-12 557,118 557,330C557,541 452,666 300,666C148,666 43,541 43,330C43,118 148,-12 300,-12 z M300,89C216,89 162,183 162,330C162,476 216,565 300,565C384,565 438,476 438,330C438,183 384,89 300,89 z M256,704l87,116l-102,0l-64,-116 z M346,704l79,0l87,116l-102,0z"/>
<glyph unicode="&#x1D1;" horiz-adv-x="600" d="M300,-12C452,-12 557,118 557,330C557,541 452,666 300,666C148,666 43,541 43,330C43,118 148,-12 300,-12 z M300,89C216,89 162,183 162,330C162,476 216,565 300,565C384,565 438,476 438,330C438,183 384,89 300,89 z M362,820l-60,-64l-4,0l-60,64l-90,0l96,-116l112,0l96,116z"/>
<glyph unicode="&#x1ECC;" horiz-adv-x="600" d="M300,-12C452,-12 557,118 557,330C557,541 452,666 300,666C148,666 43,541 43,330C43,118 148,-12 300,-12 z M300,89C216,89 162,183 162,330C162,476 216,565 300,565C384,565 438,476 438,330C438,183 384,89 300,89 z M300,-240C347,-240 382,-210 382,-163C382,-117 347,-85 300,-85C253,-85 218,-117 218,-163C218,-210 253,-240 300,-240z"/>
<glyph unicode="&#x1ECE;" horiz-adv-x="600" d="M300,-12C452,-12 557,118 557,330C557,541 452,666 300,666C148,666 43,541 43,330C43,118 148,-12 300,-12 z M300,89C216,89 162,183 162,330C162,476 216,565 300,565C384,565 438,476 438,330C438,183 384,89 300,89 z M268,694C335,702 394,730 394,793C394,845 346,876 240,879l-13,-61C284,815 308,803 308,780C308,759 286,749 258,743z"/>
<glyph unicode="&#x1ED0;" horiz-adv-x="600" d="M300,-12C452,-12 557,118 557,330C557,541 452,666 300,666C148,666 43,541 43,330C43,118 148,-12 300,-12 z M300,89C216,89 162,183 162,330C162,476 216,565 300,565C384,565 438,476 438,330C438,183 384,89 300,89 z M402,770l68,0l95,116l-93,0 z M156,704l84,0l58,58l4,0l58,-58l84,0l-94,110l-100,0z"/>
<glyph unicode="&#x1ED2;" horiz-adv-x="600" d="M300,-12C452,-12 557,118 557,330C557,541 452,666 300,666C148,666 43,541 43,330C43,118 148,-12 300,-12 z M300,89C216,89 162,183 162,330C162,476 216,565 300,565C384,565 438,476 438,330C438,183 384,89 300,89 z M442,886l-93,0l94,-116l68,0 z M156,704l84,0l58,58l4,0l58,-58l84,0l-94,110l-100,0z"/>
<glyph unicode="&#x1ED4;" horiz-adv-x="600" d="M300,-12C452,-12 557,118 557,330C557,541 452,666 300,666C148,666 43,541 43,330C43,118 148,-12 300,-12 z M300,89C216,89 162,183 162,330C162,476 216,565 300,565C384,565 438,476 438,330C438,183 384,89 300,89 z M426,752C483,758 530,780 530,835C530,880 491,908 397,912l-11,-52C435,857 454,847 454,825C454,806 437,798 415,793 z M156,704l84,0l58,58l4,0l58,-58l84,0l-94,110l-100,0z"/>
<glyph unicode="&#x1ED6;" horiz-adv-x="600" d="M300,-12C452,-12 557,118 557,330C557,541 452,666 300,666C148,666 43,541 43,330C43,118 148,-12 300,-12 z M300,89C216,89 162,183 162,330C162,476 216,565 300,565C384,565 438,476 438,330C438,183 384,89 300,89 z M156,704l84,0l58,58l4,0l58,-58l84,0l-94,110l-100,0 z M212,850C217,878 231,890 249,890C279,890 304,850 356,850C401,850 434,886 441,952l-53,0C383,924 369,912 351,912C321,912 296,952 244,952C199,952 166,916 159,850z"/>
<glyph unicode="&#x1ED8;" horiz-adv-x="600" d="M300,-12C452,-12 557,118 557,330C557,541 452,666 300,666C148,666 43,541 43,330C43,118 148,-12 300,-12 z M300,89C216,89 162,183 162,330C162,476 216,565 300,565C384,565 438,476 438,330C438,183 384,89 300,89 z M238,704l60,64l4,0l60,-64l90,0l-96,116l-112,0l-96,-116 z M300,-240C347,-240 382,-210 382,-163C382,-117 347,-85 300,-85C253,-85 218,-117 218,-163C218,-210 253,-240 300,-240z"/>
<glyph unicode="&#xD8;" horiz-adv-x="600" d="M426,440C434,408 438,371 438,330C438,183 384,89 300,89C266,89 237,104 215,132 z M177,209C167,244 162,284 162,330C162,476 216,565 300,565C336,565 366,549 389,520 z M568,648l-63,42l-53,-78C411,647 359,666 300,666C148,666 43,541 43,330C43,235 64,156 101,99l-63,-93l62,-42l52,76C193,6 243,-12 300,-12C452,-12 557,118 557,330C557,421 537,497 503,553z"/>
<glyph unicode="&#x152;" horiz-adv-x="600" d="M26,330C26,113 132,0 292,0l301,0l0,98l-187,0l0,193l134,0l0,98l-134,0l0,168l177,0l0,97l-286,0C135,654 26,546 26,330 z M145,330C145,492 194,560 284,560l18,0l0,-466l-18,0C194,94 145,168 145,330z"/>
<glyph unicode="&#x1A0;" horiz-adv-x="600" d="M300,89C216,89 162,183 162,330C162,476 216,565 300,565C384,565 438,476 438,330C438,183 384,89 300,89 z M473,742C481,730 488,715 488,698C488,659 463,643 420,635C385,655 344,666 300,666C148,666 43,541 43,330C43,118 148,-12 300,-12C452,-12 557,118 557,330C557,445 526,534 473,592C535,607 579,642 579,706C579,735 567,760 553,778z"/>
<glyph unicode="&#x1EDA;" horiz-adv-x="600" d="M447,820l-126,0l-84,-116l93,0 z M300,89C216,89 162,183 162,330C162,476 216,565 300,565C384,565 438,476 438,330C438,183 384,89 300,89 z M473,742C481,730 488,715 488,698C488,659 463,643 420,635C385,655 344,666 300,666C148,666 43,541 43,330C43,118 148,-12 300,-12C452,-12 557,118 557,330C557,445 526,534 473,592C535,607 579,642 579,706C579,735 567,760 553,778z"/>
<glyph unicode="&#x1EDC;" horiz-adv-x="600" d="M363,704l-84,116l-126,0l117,-116 z M300,89C216,89 162,183 162,330C162,476 216,565 300,565C384,565 438,476 438,330C438,183 384,89 300,89 z M473,742C481,730 488,715 488,698C488,659 463,643 420,635C385,655 344,666 300,666C148,666 43,541 43,330C43,118 148,-12 300,-12C452,-12 557,118 557,330C557,445 526,534 473,592C535,607 579,642 579,706C579,735 567,760 553,778z"/>
<glyph unicode="&#x1EDE;" horiz-adv-x="600" d="M268,694C335,702 394,730 394,793C394,845 346,876 240,879l-13,-61C284,815 308,803 308,780C308,759 286,749 258,743 z M300,89C216,89 162,183 162,330C162,476 216,565 300,565C384,565 438,476 438,330C438,183 384,89 300,89 z M473,742C481,730 488,715 488,698C488,659 463,643 420,635C385,655 344,666 300,666C148,666 43,541 43,330C43,118 148,-12 300,-12C452,-12 557,118 557,330C557,445 526,534 473,592C535,607 579,642 579,706C579,735 567,760 553,778z"/>
<glyph unicode="&#x1EE0;" horiz-adv-x="600" d="M397,829C391,796 376,781 358,781C324,781 292,829 238,829C188,829 150,784 142,707l61,0C209,740 224,756 242,756C276,756 308,707 362,707C412,707 450,753 458,829 z M300,89C216,89 162,183 162,330C162,476 216,565 300,565C384,565 438,476 438,330C438,183 384,89 300,89 z M473,742C481,730 488,715 488,698C488,659 463,643 420,635C385,655 344,666 300,666C148,666 43,541 43,330C43,118 148,-12 300,-12C452,-12 557,118 557,330C557,445 526,534 473,592C535,607 579,642 579,706C579,735 567,760 553,778z"/>
<glyph unicode="&#x1EE2;" horiz-adv-x="600" d="M300,-85C253,-85 218,-117 218,-163C218,-210 253,-240 300,-240C347,-240 382,-210 382,-163C382,-117 347,-85 300,-85 z M300,89C216,89 162,183 162,330C162,476 216,565 300,565C384,565 438,476 438,330C438,183 384,89 300,89 z M473,742C481,730 488,715 488,698C488,659 463,643 420,635C385,655 344,666 300,666C148,666 43,541 43,330C43,118 148,-12 300,-12C452,-12 557,118 557,330C557,445 526,534 473,592C535,607 579,642 579,706C579,735 567,760 553,778z"/>
<glyph unicode="&#x1EA;" horiz-adv-x="600" d="M392,-126C381,-134 368,-140 354,-140C331,-140 309,-127 309,-98C309,-65 330,-21 382,2C488,48 557,152 557,330C557,541 452,666 300,666C148,666 43,541 43,330C43,157 118,1 285,-11C252,-38 222,-79 222,-127C222,-186 269,-218 328,-218C358,-218 398,-204 420,-186 z M300,89C216,89 162,183 162,330C162,476 216,565 300,565C384,565 438,476 438,330C438,183 384,89 300,89z"/>
<glyph unicode="&#x154;" horiz-adv-x="600" d="M450,820l-125,0l-85,-116l94,0 z M200,561l90,0C380,561 429,535 429,460C429,386 380,348 290,348l-90,0 z M569,0l-156,273C491,300 543,361 543,460C543,606 438,654 302,654l-218,0l0,-654l116,0l0,256l98,0l140,-256z"/>
<glyph unicode="&#x158;" horiz-adv-x="600" d="M360,704l96,116l-90,0l-60,-64l-4,0l-60,64l-90,0l96,-116 z M200,561l90,0C380,561 429,535 429,460C429,386 380,348 290,348l-90,0 z M569,0l-156,273C491,300 543,361 543,460C543,606 438,654 302,654l-218,0l0,-654l116,0l0,256l98,0l140,-256z"/>
<glyph unicode="&#x156;" horiz-adv-x="600" d="M264,-91C294,-98 312,-109 312,-132C312,-156 276,-167 226,-173l10,-50C321,-217 397,-188 397,-125C397,-78 366,-54 288,-45 z M200,561l90,0C380,561 429,535 429,460C429,386 380,348 290,348l-90,0 z M413,273C491,300 543,361 543,460C543,606 438,654 302,654l-218,0l0,-654l116,0l0,256l98,0l140,-256l131,0z"/>
<glyph unicode="&#x1E5A;" horiz-adv-x="600" d="M320,-85C273,-85 238,-117 238,-163C238,-210 273,-240 320,-240C367,-240 402,-210 402,-163C402,-117 367,-85 320,-85 z M200,561l90,0C380,561 429,535 429,460C429,386 380,348 290,348l-90,0 z M413,273C491,300 543,361 543,460C543,606 438,654 302,654l-218,0l0,-654l116,0l0,256l98,0l140,-256l131,0z"/>
<glyph unicode="&#x1E5C;" horiz-adv-x="600" d="M436,800l-265,0l0,-76l265,0 z M320,-85C273,-85 238,-117 238,-163C238,-210 273,-240 320,-240C367,-240 402,-210 402,-163C402,-117 367,-85 320,-85 z M200,561l90,0C380,561 429,535 429,460C429,386 380,348 290,348l-90,0 z M413,273C491,300 543,361 543,460C543,606 438,654 302,654l-218,0l0,-654l116,0l0,256l98,0l140,-256l131,0z"/>
<glyph unicode="&#x1E5E;" horiz-adv-x="600" d="M200,561l90,0C380,561 429,535 429,460C429,386 380,348 290,348l-90,0 z M200,256l98,0l140,-256l131,0l-156,273C491,300 543,361 543,460C543,606 438,654 302,654l-218,0l0,-654l116,0 z M189,-180l261,0l0,76l-261,0z"/>
<glyph unicode="&#x15A;" horiz-adv-x="600" d="M58,84C123,23 210,-12 302,-12C454,-12 544,76 544,182C544,277 485,326 402,359l-86,37C257,419 204,437 204,488C204,536 246,565 314,565C374,565 420,544 464,509l60,74C470,634 394,666 314,666C181,666 87,586 87,482C87,386 158,335 227,308l89,-39C381,244 426,227 426,173C426,122 384,89 304,89C240,89 175,119 126,163 z M456,820l-126,0l-84,-116l94,0z"/>
<glyph unicode="&#x15C;" horiz-adv-x="600" d="M58,84C123,23 210,-12 302,-12C454,-12 544,76 544,182C544,277 485,326 402,359l-86,37C257,419 204,437 204,488C204,536 246,565 314,565C374,565 420,544 464,509l60,74C470,634 394,666 314,666C181,666 87,586 87,482C87,386 158,335 227,308l89,-39C381,244 426,227 426,173C426,122 384,89 304,89C240,89 175,119 126,163 z M247,704l60,64l4,0l60,-64l90,0l-96,116l-112,0l-96,-116z"/>
<glyph unicode="&#x160;" horiz-adv-x="600" d="M58,84C123,23 210,-12 302,-12C454,-12 544,76 544,182C544,277 485,326 402,359l-86,37C257,419 204,437 204,488C204,536 246,565 314,565C374,565 420,544 464,509l60,74C470,634 394,666 314,666C181,666 87,586 87,482C87,386 158,335 227,308l89,-39C381,244 426,227 426,173C426,122 384,89 304,89C240,89 175,119 126,163 z M371,820l-60,-64l-4,0l-60,64l-90,0l96,-116l112,0l96,116z"/>
<glyph unicode="&#x15E;" horiz-adv-x="600" d="M316,396C257,419 204,437 204,488C204,536 246,565 314,565C374,565 420,544 464,509l60,74C470,634 394,666 314,666C181,666 87,586 87,482C87,386 158,335 227,308l89,-39C381,244 426,227 426,173C426,122 384,89 304,89C240,89 175,119 126,163l-68,-79C115,30 189,-3 269,-10l-33,-65C278,-86 296,-100 296,-121C296,-148 261,-161 211,-167l9,-50C306,-211 382,-182 382,-119C382,-78 356,-58 323,-46l17,36C469,3 544,85 544,182C544,277 485,326 402,359z"/>
<glyph unicode="&#x218;" horiz-adv-x="600" d="M58,84C123,23 210,-12 302,-12C454,-12 544,76 544,182C544,277 485,326 402,359l-86,37C257,419 204,437 204,488C204,536 246,565 314,565C374,565 420,544 464,509l60,74C470,634 394,666 314,666C181,666 87,586 87,482C87,386 158,335 227,308l89,-39C381,244 426,227 426,173C426,122 384,89 304,89C240,89 175,119 126,163 z M278,-45l-24,-46C284,-98 302,-109 302,-132C302,-156 266,-167 216,-173l10,-50C311,-217 387,-188 387,-125C387,-78 356,-54 278,-45z"/>
<glyph unicode="&#x1E60;" horiz-adv-x="600" d="M58,84C123,23 210,-12 302,-12C454,-12 544,76 544,182C544,277 485,326 402,359l-86,37C257,419 204,437 204,488C204,536 246,565 314,565C374,565 420,544 464,509l60,74C470,634 394,666 314,666C181,666 87,586 87,482C87,386 158,335 227,308l89,-39C381,244 426,227 426,173C426,122 384,89 304,89C240,89 175,119 126,163 z M309,707C350,707 380,734 380,773C380,811 350,838 309,838C268,838 238,811 238,773C238,734 268,707 309,707z"/>
<glyph unicode="&#x1E62;" horiz-adv-x="600" d="M58,84C123,23 210,-12 302,-12C454,-12 544,76 544,182C544,277 485,326 402,359l-86,37C257,419 204,437 204,488C204,536 246,565 314,565C374,565 420,544 464,509l60,74C470,634 394,666 314,666C181,666 87,586 87,482C87,386 158,335 227,308l89,-39C381,244 426,227 426,173C426,122 384,89 304,89C240,89 175,119 126,163 z M310,-240C357,-240 392,-210 392,-163C392,-117 357,-85 310,-85C263,-85 228,-117 228,-163C228,-210 263,-240 310,-240z"/>
<glyph unicode="&#x1E9E;" horiz-adv-x="600" d="M71,0l119,0l0,419C190,522 230,571 304,571C352,571 383,539 398,501l-96,-139l7,-70C408,270 443,226 443,175C443,121 418,83 379,83C351,83 325,96 297,128l-62,-72C267,18 321,-12 392,-12C503,-12 564,69 564,174C564,271 508,331 421,360l94,137C489,598 417,666 307,666C143,666 71,565 71,437z"/>
<glyph unicode="&#x164;" horiz-adv-x="600" d="M242,0l116,0l0,556l206,0l0,98l-528,0l0,-98l206,0 z M362,820l-60,-64l-4,0l-60,64l-90,0l96,-116l112,0l96,116z"/>
<glyph unicode="&#x162;" horiz-adv-x="600" d="M358,0l0,556l206,0l0,98l-528,0l0,-98l206,0l0,-556l24,0l-38,-75C270,-86 288,-100 288,-121C288,-148 253,-161 203,-167l9,-50C298,-211 374,-182 374,-119C374,-78 348,-58 315,-46l22,46z"/>
<glyph unicode="&#x21A;" horiz-adv-x="600" d="M242,0l116,0l0,556l206,0l0,98l-528,0l0,-98l206,0 z M268,-45l-23,-46C274,-98 292,-109 292,-132C292,-156 256,-167 206,-173l10,-50C301,-217 377,-188 377,-125C377,-78 347,-54 268,-45z"/>
<glyph unicode="&#x1E6C;" horiz-adv-x="600" d="M242,0l116,0l0,556l206,0l0,98l-528,0l0,-98l206,0 z M300,-240C348,-240 382,-210 382,-163C382,-117 348,-85 300,-85C253,-85 218,-117 218,-163C218,-210 253,-240 300,-240z"/>
<glyph unicode="&#x1E6E;" horiz-adv-x="600" d="M242,0l116,0l0,556l206,0l0,98l-528,0l0,-98l206,0 z M431,-104l-262,0l0,-76l262,0z"/>
<glyph unicode="&#xD9;" horiz-adv-x="600" d="M72,250C72,71 158,-12 301,-12C445,-12 528,71 528,250l0,404l-111,0l0,-413C417,134 372,89 301,89C231,89 188,134 188,241l0,413l-116,0 z M270,704l93,0l-84,116l-126,0z"/>
<glyph unicode="&#xDA;" horiz-adv-x="600" d="M72,250C72,71 158,-12 301,-12C445,-12 528,71 528,250l0,404l-111,0l0,-413C417,134 372,89 301,89C231,89 188,134 188,241l0,413l-116,0 z M447,820l-126,0l-84,-116l93,0z"/>
<glyph unicode="&#xDB;" horiz-adv-x="600" d="M72,250C72,71 158,-12 301,-12C445,-12 528,71 528,250l0,404l-111,0l0,-413C417,134 372,89 301,89C231,89 188,134 188,241l0,413l-116,0 z M238,704l60,64l4,0l60,-64l90,0l-96,116l-112,0l-96,-116z"/>
<glyph unicode="&#x168;" horiz-adv-x="600" d="M72,250C72,71 158,-12 301,-12C445,-12 528,71 528,250l0,404l-111,0l0,-413C417,134 372,89 301,89C231,89 188,134 188,241l0,413l-116,0 z M362,707C412,707 450,753 458,829l-61,0C391,796 376,781 358,781C324,781 292,829 238,829C188,829 150,784 142,707l61,0C209,740 224,756 242,756C276,756 308,707 362,707z"/>
<glyph unicode="&#xDC;" horiz-adv-x="600" d="M72,250C72,71 158,-12 301,-12C445,-12 528,71 528,250l0,404l-111,0l0,-413C417,134 372,89 301,89C231,89 188,134 188,241l0,413l-116,0 z M207,708C242,708 267,733 267,767C267,802 242,827 207,827C172,827 148,802 148,767C148,733 172,708 207,708 z M393,708C428,708 452,733 452,767C452,802 428,827 393,827C358,827 333,802 333,767C333,733 358,708 393,708z"/>
<glyph unicode="&#x16A;" horiz-adv-x="600" d="M72,250C72,71 158,-12 301,-12C445,-12 528,71 528,250l0,404l-111,0l0,-413C417,134 372,89 301,89C231,89 188,134 188,241l0,413l-116,0 z M167,724l266,0l0,76l-266,0z"/>
<glyph unicode="&#x16C;" horiz-adv-x="600" d="M72,250C72,71 158,-12 301,-12C445,-12 528,71 528,250l0,404l-111,0l0,-413C417,134 372,89 301,89C231,89 188,134 188,241l0,413l-116,0 z M300,705C384,705 423,756 430,820l-66,0C358,791 340,766 300,766C260,766 242,791 236,820l-66,0C177,756 216,705 300,705z"/>
<glyph unicode="&#x16E;" horiz-adv-x="600" d="M72,250C72,71 158,-12 301,-12C445,-12 528,71 528,250l0,404l-111,0l0,-413C417,134 372,89 301,89C231,89 188,134 188,241l0,413l-116,0 z M300,698C360,698 403,734 403,791C403,847 360,884 300,884C239,884 197,847 197,791C197,734 239,698 300,698 z M300,744C275,744 256,761 256,791C256,820 275,838 300,838C324,838 344,820 344,791C344,761 324,744 300,744z"/>
<glyph unicode="&#x170;" horiz-adv-x="600" d="M72,250C72,71 158,-12 301,-12C445,-12 528,71 528,250l0,404l-111,0l0,-413C417,134 372,89 301,89C231,89 188,134 188,241l0,413l-116,0 z M256,704l87,116l-102,0l-64,-116 z M346,704l79,0l87,116l-102,0z"/>
<glyph unicode="&#x1D3;" horiz-adv-x="600" d="M72,250C72,71 158,-12 301,-12C445,-12 528,71 528,250l0,404l-111,0l0,-413C417,134 372,89 301,89C231,89 188,134 188,241l0,413l-116,0 z M362,820l-60,-64l-4,0l-60,64l-90,0l96,-116l112,0l96,116z"/>
<glyph unicode="&#x1D5;" horiz-adv-x="600" d="M72,250C72,71 158,-12 301,-12C445,-12 528,71 528,250l0,404l-111,0l0,-413C417,134 372,89 301,89C231,89 188,134 188,241l0,413l-116,0 z M167,866l266,0l0,58l-266,0 z M207,708C238,708 261,730 261,761C261,792 238,815 207,815C176,815 154,792 154,761C154,730 176,708 207,708 z M393,708C424,708 446,730 446,761C446,792 424,815 393,815C362,815 339,792 339,761C339,730 362,708 393,708z"/>
<glyph unicode="&#x1D7;" horiz-adv-x="600" d="M72,250C72,71 158,-12 301,-12C445,-12 528,71 528,250l0,404l-111,0l0,-413C417,134 372,89 301,89C231,89 188,134 188,241l0,413l-116,0 z M237,846l93,0l115,116l-123,0 z M207,708C238,708 261,730 261,761C261,792 238,815 207,815C176,815 154,792 154,761C154,730 176,708 207,708 z M393,708C424,708 446,730 446,761C446,792 424,815 393,815C362,815 339,792 339,761C339,730 362,708 393,708z"/>
<glyph unicode="&#x1D9;" horiz-adv-x="600" d="M72,250C72,71 158,-12 301,-12C445,-12 528,71 528,250l0,404l-111,0l0,-413C417,134 372,89 301,89C231,89 188,134 188,241l0,413l-116,0 z M207,708C238,708 261,730 261,761C261,792 238,815 207,815C176,815 154,792 154,761C154,730 176,708 207,708 z M393,708C424,708 446,730 446,761C446,792 424,815 393,815C362,815 339,792 339,761C339,730 362,708 393,708 z M362,962l-60,-64l-4,0l-60,64l-90,0l96,-116l112,0l96,116z"/>
<glyph unicode="&#x1DB;" horiz-adv-x="600" d="M72,250C72,71 158,-12 301,-12C445,-12 528,71 528,250l0,404l-111,0l0,-413C417,134 372,89 301,89C231,89 188,134 188,241l0,413l-116,0 z M278,962l-123,0l115,-116l93,0 z M393,708C424,708 446,730 446,761C446,792 424,815 393,815C362,815 339,792 339,761C339,730 362,708 393,708 z M207,708C238,708 261,730 261,761C261,792 238,815 207,815C176,815 154,792 154,761C154,730 176,708 207,708z"/>
<glyph unicode="&#x1EE4;" horiz-adv-x="600" d="M72,250C72,71 158,-12 301,-12C445,-12 528,71 528,250l0,404l-111,0l0,-413C417,134 372,89 301,89C231,89 188,134 188,241l0,413l-116,0 z M300,-240C347,-240 382,-210 382,-163C382,-117 347,-85 300,-85C253,-85 218,-117 218,-163C218,-210 253,-240 300,-240z"/>
<glyph unicode="&#x1EE6;" horiz-adv-x="600" d="M72,250C72,71 158,-12 301,-12C445,-12 528,71 528,250l0,404l-111,0l0,-413C417,134 372,89 301,89C231,89 188,134 188,241l0,413l-116,0 z M268,694C335,702 394,730 394,793C394,845 346,876 240,879l-13,-61C284,815 308,803 308,780C308,759 286,749 258,743z"/>
<glyph unicode="&#x172;" horiz-adv-x="600" d="M72,250C72,88 141,-5 285,-10C264,-31 220,-68 220,-127C220,-186 267,-218 326,-218C356,-218 396,-204 418,-186l-28,60C379,-134 366,-140 352,-140C329,-140 307,-127 307,-98C307,-66 331,-28 404,7C483,43 528,119 528,250l0,404l-111,0l0,-413C417,134 371,89 301,89C231,89 188,134 188,241l0,413l-116,0z"/>
<glyph unicode="&#x1AF;" horiz-adv-x="600" d="M539,762C547,750 554,735 554,718C554,670 516,658 470,654l-53,0l0,-413C417,134 372,89 301,89C231,89 188,134 188,241l0,413l-116,0l0,-404C72,71 158,-12 301,-12C445,-12 528,71 528,250l0,359C593,622 646,655 646,726C646,755 634,780 619,798z"/>
<glyph unicode="&#x1EE8;" horiz-adv-x="600" d="M447,820l-126,0l-84,-116l93,0 z M539,762C547,750 554,735 554,718C554,670 516,658 470,654l-53,0l0,-413C417,134 372,89 301,89C231,89 188,134 188,241l0,413l-116,0l0,-404C72,71 158,-12 301,-12C445,-12 528,71 528,250l0,359C593,622 646,655 646,726C646,755 634,780 619,798z"/>
<glyph unicode="&#x1EEA;" horiz-adv-x="600" d="M363,704l-84,116l-126,0l117,-116 z M539,762C547,750 554,735 554,718C554,670 516,658 470,654l-53,0l0,-413C417,134 372,89 301,89C231,89 188,134 188,241l0,413l-116,0l0,-404C72,71 158,-12 301,-12C445,-12 528,71 528,250l0,359C593,622 646,655 646,726C646,755 634,780 619,798z"/>
<glyph unicode="&#x1EEC;" horiz-adv-x="600" d="M268,694C335,702 394,730 394,793C394,845 346,876 240,879l-13,-61C284,815 308,803 308,780C308,759 286,749 258,743 z M539,762C547,750 554,735 554,718C554,670 516,658 470,654l-53,0l0,-413C417,134 372,89 301,89C231,89 188,134 188,241l0,413l-116,0l0,-404C72,71 158,-12 301,-12C445,-12 528,71 528,250l0,359C593,622 646,655 646,726C646,755 634,780 619,798z"/>
<glyph unicode="&#x1EEE;" horiz-adv-x="600" d="M397,829C391,796 376,781 358,781C324,781 292,829 238,829C188,829 150,784 142,707l61,0C209,740 224,756 242,756C276,756 308,707 362,707C412,707 450,753 458,829 z M539,762C547,750 554,735 554,718C554,670 516,658 470,654l-53,0l0,-413C417,134 372,89 301,89C231,89 188,134 188,241l0,413l-116,0l0,-404C72,71 158,-12 301,-12C445,-12 528,71 528,250l0,359C593,622 646,655 646,726C646,755 634,780 619,798z"/>
<glyph unicode="&#x1EF0;" horiz-adv-x="600" d="M300,-85C253,-85 218,-117 218,-163C218,-210 253,-240 300,-240C347,-240 382,-210 382,-163C382,-117 347,-85 300,-85 z M539,762C547,750 554,735 554,718C554,670 516,658 470,654l-53,0l0,-413C417,134 372,89 301,89C231,89 188,134 188,241l0,413l-116,0l0,-404C72,71 158,-12 301,-12C445,-12 528,71 528,250l0,359C593,622 646,655 646,726C646,755 634,780 619,798z"/>
<glyph unicode="&#x1E80;" horiz-adv-x="600" d="M101,0l121,0l55,239C286,280 293,322 299,361l3,0C307,322 314,280 323,239l58,-239l123,0l89,654l-110,0l-34,-379C446,222 442,167 439,111l-4,0C424,167 409,222 398,275l-56,212l-74,0l-57,-212C199,221 184,166 173,111l-3,0C167,166 163,220 160,275l-36,379l-117,0 z M270,704l93,0l-84,116l-126,0z"/>
<glyph unicode="&#x1E82;" horiz-adv-x="600" d="M101,0l121,0l55,239C286,280 293,322 299,361l3,0C307,322 314,280 323,239l58,-239l123,0l89,654l-110,0l-34,-379C446,222 442,167 439,111l-4,0C424,167 409,222 398,275l-56,212l-74,0l-57,-212C199,221 184,166 173,111l-3,0C167,166 163,220 160,275l-36,379l-117,0 z M447,820l-126,0l-84,-116l93,0z"/>
<glyph unicode="&#x174;" horiz-adv-x="600" d="M101,0l121,0l55,239C286,280 293,322 299,361l3,0C307,322 314,280 323,239l58,-239l123,0l89,654l-110,0l-34,-379C446,222 442,167 439,111l-4,0C424,167 409,222 398,275l-56,212l-74,0l-57,-212C199,221 184,166 173,111l-3,0C167,166 163,220 160,275l-36,379l-117,0 z M238,704l60,64l4,0l60,-64l90,0l-96,116l-112,0l-96,-116z"/>
<glyph unicode="&#x1E84;" horiz-adv-x="600" d="M101,0l121,0l55,239C286,280 293,322 299,361l3,0C307,322 314,280 323,239l58,-239l123,0l89,654l-110,0l-34,-379C446,222 442,167 439,111l-4,0C424,167 409,222 398,275l-56,212l-74,0l-57,-212C199,221 184,166 173,111l-3,0C167,166 163,220 160,275l-36,379l-117,0 z M207,708C242,708 267,733 267,767C267,802 242,827 207,827C172,827 148,802 148,767C148,733 172,708 207,708 z M393,708C428,708 452,733 452,767C452,802 428,827 393,827C358,827 333,802 333,767C333,733 358,708 393,708z"/>
<glyph unicode="&#x1EF2;" horiz-adv-x="600" d="M242,0l116,0l0,227l215,427l-120,0l-81,-175C350,428 327,380 303,327l-4,0C276,380 255,428 232,478l-82,176l-123,0l215,-427 z M270,704l93,0l-84,116l-126,0z"/>
<glyph unicode="&#xDD;" horiz-adv-x="600" d="M242,0l116,0l0,227l215,427l-120,0l-81,-175C350,428 327,380 303,327l-4,0C276,380 255,428 232,478l-82,176l-123,0l215,-427 z M447,820l-126,0l-84,-116l93,0z"/>
<glyph unicode="&#x176;" horiz-adv-x="600" d="M242,0l116,0l0,227l215,427l-120,0l-81,-175C350,428 327,380 303,327l-4,0C276,380 255,428 232,478l-82,176l-123,0l215,-427 z M238,704l60,64l4,0l60,-64l90,0l-96,116l-112,0l-96,-116z"/>
<glyph unicode="&#x178;" horiz-adv-x="600" d="M242,0l116,0l0,227l215,427l-120,0l-81,-175C350,428 327,380 303,327l-4,0C276,380 255,428 232,478l-82,176l-123,0l215,-427 z M207,708C242,708 267,733 267,767C267,802 242,827 207,827C172,827 148,802 148,767C148,733 172,708 207,708 z M393,708C428,708 452,733 452,767C452,802 428,827 393,827C358,827 333,802 333,767C333,733 358,708 393,708z"/>
<glyph unicode="&#x1E8E;" horiz-adv-x="600" d="M242,0l116,0l0,227l215,427l-120,0l-81,-175C350,428 327,380 303,327l-4,0C276,380 255,428 232,478l-82,176l-123,0l215,-427 z M300,707C341,707 371,734 371,773C371,811 341,838 300,838C259,838 229,811 229,773C229,734 259,707 300,707z"/>
<glyph unicode="&#x1EF4;" horiz-adv-x="600" d="M242,0l116,0l0,227l215,427l-120,0l-81,-175C350,428 327,380 303,327l-4,0C276,380 255,428 232,478l-82,176l-123,0l215,-427 z M300,-240C347,-240 382,-210 382,-163C382,-117 347,-85 300,-85C253,-85 218,-117 218,-163C218,-210 253,-240 300,-240z"/>
<glyph unicode="&#x1EF6;" horiz-adv-x="600" d="M242,0l116,0l0,227l215,427l-120,0l-81,-175C350,428 327,380 303,327l-4,0C276,380 255,428 232,478l-82,176l-123,0l215,-427 z M268,694C335,702 394,730 394,793C394,845 346,876 240,879l-13,-61C284,815 308,803 308,780C308,759 286,749 258,743z"/>
<glyph unicode="&#x1EF8;" horiz-adv-x="600" d="M242,0l116,0l0,227l215,427l-120,0l-81,-175C350,428 327,380 303,327l-4,0C276,380 255,428 232,478l-82,176l-123,0l215,-427 z M362,707C412,707 450,753 458,829l-61,0C391,796 376,781 358,781C324,781 292,829 238,829C188,829 150,784 142,707l61,0C209,740 224,756 242,756C276,756 308,707 362,707z"/>
<glyph unicode="&#x179;" horiz-adv-x="600" d="M61,0l482,0l0,98l-340,0l336,486l0,70l-448,0l0,-97l305,0l-335,-487 z M462,820l-126,0l-84,-116l93,0z"/>
<glyph unicode="&#x17D;" horiz-adv-x="600" d="M61,0l482,0l0,98l-340,0l336,486l0,70l-448,0l0,-97l305,0l-335,-487 z M377,820l-60,-64l-4,0l-60,64l-90,0l96,-116l112,0l96,116z"/>
<glyph unicode="&#x17B;" horiz-adv-x="600" d="M61,0l482,0l0,98l-340,0l336,486l0,70l-448,0l0,-97l305,0l-335,-487 z M315,707C356,707 386,734 386,773C386,811 356,838 315,838C274,838 244,811 244,773C244,734 274,707 315,707z"/>
<glyph unicode="&#x1E92;" horiz-adv-x="600" d="M61,0l482,0l0,98l-340,0l336,486l0,70l-448,0l0,-97l305,0l-335,-487 z M311,-240C358,-240 393,-210 393,-163C393,-117 358,-85 311,-85C264,-85 229,-117 229,-163C229,-210 264,-240 311,-240z"/>
<glyph unicode="&#xD0;" horiz-adv-x="600" d="M81,0l175,0C442,0 558,113 558,330C558,546 442,654 250,654l-169,0l0,-284l-72,-5l0,-54l72,0 z M197,94l0,217l125,0l0,59l-125,0l0,190l46,0C367,560 439,490 439,330C439,169 367,94 243,94z"/>
<glyph unicode="&#xDE;" horiz-adv-x="600" d="M87,0l116,0l0,136l104,0C448,136 556,202 556,348C556,499 450,550 307,550l-104,0l0,104l-116,0 z M203,229l0,228l94,0C392,457 441,429 441,348C441,268 395,229 297,229z"/>
<glyph unicode="&#x18F;" horiz-adv-x="600" d="M438,274C426,155 376,87 305,87C234,87 186,154 178,273 z M179,514C209,544 247,567 297,567C385,567 433,492 439,359l-377,0C61,347 60,335 60,324C60,118 157,-12 305,-12C454,-12 555,117 555,328C555,540 458,666 309,666C229,666 170,635 128,593z"/>
<glyph unicode="&#xE0;" horiz-adv-x="600" d="M71,132C71,46 139,-12 235,-12C301,-12 367,21 419,61l3,0l9,-61l94,0l0,291C525,428 450,503 314,503C230,503 149,470 90,435l42,-77C183,386 238,410 293,410C373,410 406,369 410,314C168,297 71,242 71,132 z M182,141C182,194 234,230 410,242l0,-104C365,102 319,78 270,78C221,78 182,97 182,141 z M299,573l85,0l-89,158l-121,0z"/>
<glyph unicode="&#xE1;" horiz-adv-x="600" d="M71,132C71,46 139,-12 235,-12C301,-12 367,21 419,61l3,0l9,-61l94,0l0,291C525,428 450,503 314,503C230,503 149,470 90,435l42,-77C183,386 238,410 293,410C373,410 406,369 410,314C168,297 71,242 71,132 z M182,141C182,194 234,230 410,242l0,-104C365,102 319,78 270,78C221,78 182,97 182,141 z M447,731l-120,0l-90,-158l86,0z"/>
<glyph unicode="&#xE2;" horiz-adv-x="600" d="M71,132C71,46 139,-12 235,-12C301,-12 367,21 419,61l3,0l9,-61l94,0l0,291C525,428 450,503 314,503C230,503 149,470 90,435l42,-77C183,386 238,410 293,410C373,410 406,369 410,314C168,297 71,242 71,132 z M182,141C182,194 234,230 410,242l0,-104C365,102 319,78 270,78C221,78 182,97 182,141 z M163,573l86,0l60,97l4,0l60,-97l85,0l-98,158l-98,0z"/>
<glyph unicode="&#xE3;" horiz-adv-x="600" d="M71,132C71,46 139,-12 235,-12C301,-12 367,21 419,61l3,0l9,-61l94,0l0,291C525,428 450,503 314,503C230,503 149,470 90,435l42,-77C183,386 238,410 293,410C373,410 406,369 410,314C168,297 71,242 71,132 z M182,141C182,194 234,230 410,242l0,-104C365,102 319,78 270,78C221,78 182,97 182,141 z M154,577l62,0C223,615 236,631 257,631C288,631 316,577 365,577C422,577 458,624 467,704l-61,0C398,666 386,650 364,650C335,650 305,704 257,704C200,704 164,657 154,577z"/>
<glyph unicode="&#xE4;" horiz-adv-x="600" d="M71,132C71,46 139,-12 235,-12C301,-12 367,21 419,61l3,0l9,-61l94,0l0,291C525,428 450,503 314,503C230,503 149,470 90,435l42,-77C183,386 238,410 293,410C373,410 406,369 410,314C168,297 71,242 71,132 z M182,141C182,194 234,230 410,242l0,-104C365,102 319,78 270,78C221,78 182,97 182,141 z M208,579C247,579 274,608 274,646C274,684 247,714 208,714C169,714 142,684 142,646C142,608 169,579 208,579 z M414,579C453,579 480,608 480,646C480,684 453,714 414,714C374,714 347,684 347,646C347,608 374,579 414,579z"/>
<glyph unicode="&#x101;" horiz-adv-x="600" d="M71,132C71,46 139,-12 235,-12C301,-12 367,21 419,61l3,0l9,-61l94,0l0,291C525,428 450,503 314,503C230,503 149,470 90,435l42,-77C183,386 238,410 293,410C373,410 406,369 410,314C168,297 71,242 71,132 z M182,141C182,194 234,230 410,242l0,-104C365,102 319,78 270,78C221,78 182,97 182,141 z M180,596l261,0l0,76l-261,0z"/>
<glyph unicode="&#x103;" horiz-adv-x="600" d="M71,132C71,46 139,-12 235,-12C301,-12 367,21 419,61l3,0l9,-61l94,0l0,291C525,428 450,503 314,503C230,503 149,470 90,435l42,-77C183,386 238,410 293,410C373,410 406,369 410,314C168,297 71,242 71,132 z M182,141C182,194 234,230 410,242l0,-104C365,102 319,78 270,78C221,78 182,97 182,141 z M311,575C405,575 446,648 450,720l-67,0C377,677 355,640 311,640C266,640 244,677 239,720l-67,0C176,648 217,575 311,575z"/>
<glyph unicode="&#xE5;" horiz-adv-x="600" d="M71,132C71,46 139,-12 235,-12C301,-12 367,21 419,61l3,0l9,-61l94,0l0,291C525,428 450,503 314,503C230,503 149,470 90,435l42,-77C183,386 238,410 293,410C373,410 406,369 410,314C168,297 71,242 71,132 z M182,141C182,194 234,230 410,242l0,-104C365,102 319,78 270,78C221,78 182,97 182,141 z M311,545C372,545 414,584 414,642C414,701 372,740 311,740C250,740 208,701 208,642C208,584 250,545 311,545 z M311,591C286,591 266,612 266,642C266,673 286,694 311,694C335,694 355,673 355,642C355,612 335,591 311,591z"/>
<glyph unicode="&#x1CE;" horiz-adv-x="600" d="M71,132C71,46 139,-12 235,-12C301,-12 367,21 419,61l3,0l9,-61l94,0l0,291C525,428 450,503 314,503C230,503 149,470 90,435l42,-77C183,386 238,410 293,410C373,410 406,369 410,314C168,297 71,242 71,132 z M182,141C182,194 234,230 410,242l0,-104C365,102 319,78 270,78C221,78 182,97 182,141 z M262,573l98,0l98,158l-85,0l-60,-97l-4,0l-60,97l-86,0z"/>
<glyph unicode="&#x1EA1;" horiz-adv-x="600" d="M71,132C71,46 139,-12 235,-12C301,-12 367,21 419,61l3,0l9,-61l94,0l0,291C525,428 450,503 314,503C230,503 149,470 90,435l42,-77C183,386 238,410 293,410C373,410 406,369 410,314C168,297 71,242 71,132 z M182,141C182,194 234,230 410,242l0,-104C365,102 319,78 270,78C221,78 182,97 182,141 z M306,-240C354,-240 388,-210 388,-163C388,-117 354,-85 306,-85C259,-85 224,-117 224,-163C224,-210 259,-240 306,-240z"/>
<glyph unicode="&#x1EA3;" horiz-adv-x="600" d="M71,132C71,46 139,-12 235,-12C301,-12 367,21 419,61l3,0l9,-61l94,0l0,291C525,428 450,503 314,503C230,503 149,470 90,435l42,-77C183,386 238,410 293,410C373,410 406,369 410,314C168,297 71,242 71,132 z M182,141C182,194 234,230 410,242l0,-104C365,102 319,78 270,78C221,78 182,97 182,141 z M279,555C346,563 404,590 404,653C404,706 357,736 251,740l-13,-61C294,676 319,663 319,641C319,619 297,610 269,603z"/>
<glyph unicode="&#x1EA5;" horiz-adv-x="600" d="M71,132C71,46 139,-12 235,-12C301,-12 367,21 419,61l3,0l9,-61l94,0l0,291C525,428 450,503 314,503C230,503 149,470 90,435l42,-77C183,386 238,410 293,410C373,410 406,369 410,314C168,297 71,242 71,132 z M182,141C182,194 234,230 410,242l0,-104C365,102 319,78 270,78C221,78 182,97 182,141 z M183,573l73,0l53,69l4,0l52,-69l74,0l-82,124l-93,0 z M409,643l67,0l93,116l-89,0z"/>
<glyph unicode="&#x1EA7;" horiz-adv-x="600" d="M71,132C71,46 139,-12 235,-12C301,-12 367,21 419,61l3,0l9,-61l94,0l0,291C525,428 450,503 314,503C230,503 149,470 90,435l42,-77C183,386 238,410 293,410C373,410 406,369 410,314C168,297 71,242 71,132 z M182,141C182,194 234,230 410,242l0,-104C365,102 319,78 270,78C221,78 182,97 182,141 z M183,573l73,0l53,69l4,0l52,-69l74,0l-82,124l-93,0 z M466,759l-90,0l94,-116l66,0z"/>
<glyph unicode="&#x1EA9;" horiz-adv-x="600" d="M71,132C71,46 139,-12 235,-12C301,-12 367,21 419,61l3,0l9,-61l94,0l0,291C525,428 450,503 314,503C230,503 149,470 90,435l42,-77C183,386 238,410 293,410C373,410 406,369 410,314C168,297 71,242 71,132 z M182,141C182,194 234,230 410,242l0,-104C365,102 319,78 270,78C221,78 182,97 182,141 z M183,573l73,0l53,69l4,0l52,-69l74,0l-82,124l-93,0 z M438,628C493,638 543,657 543,716C543,763 502,790 408,793l-10,-52C447,738 465,726 465,704C465,685 450,676 428,670z"/>
<glyph unicode="&#x1EAB;" horiz-adv-x="600" d="M71,132C71,46 139,-12 235,-12C301,-12 367,21 419,61l3,0l9,-61l94,0l0,291C525,428 450,503 314,503C230,503 149,470 90,435l42,-77C183,386 238,410 293,410C373,410 406,369 410,314C168,297 71,242 71,132 z M182,141C182,194 234,230 410,242l0,-104C365,102 319,78 270,78C221,78 182,97 182,141 z M175,572l77,0l57,62l4,0l57,-62l77,0l-84,108l-105,0 z M225,716C230,744 244,756 262,756C292,756 313,716 364,716C410,716 442,752 449,818l-53,0C391,790 378,778 359,778C329,778 309,818 257,818C212,818 179,782 172,716z"/>
<glyph unicode="&#x1EAD;" horiz-adv-x="600" d="M71,132C71,46 139,-12 235,-12C301,-12 367,21 419,61l3,0l9,-61l94,0l0,291C525,428 450,503 314,503C230,503 149,470 90,435l42,-77C183,386 238,410 293,410C373,410 406,369 410,314C168,297 71,242 71,132 z M182,141C182,194 234,230 410,242l0,-104C365,102 319,78 270,78C221,78 182,97 182,141 z M163,573l86,0l60,97l4,0l60,-97l85,0l-98,158l-98,0 z M306,-240C354,-240 388,-210 388,-163C388,-117 354,-85 306,-85C259,-85 224,-117 224,-163C224,-210 259,-240 306,-240z"/>
<glyph unicode="&#x1EAF;" horiz-adv-x="600" d="M71,132C71,46 139,-12 235,-12C301,-12 367,21 419,61l3,0l9,-61l94,0l0,291C525,428 450,503 314,503C230,503 149,470 90,435l42,-77C183,386 238,410 293,410C373,410 406,369 410,314C168,297 71,242 71,132 z M182,141C182,194 234,230 410,242l0,-104C365,102 319,78 270,78C221,78 182,97 182,141 z M269,684l61,0l89,116l-87,0 z M311,575C400,575 440,642 444,708l-55,0C383,668 359,634 311,634C263,634 239,668 233,708l-55,0C182,642 221,575 311,575z"/>
<glyph unicode="&#x1EB1;" horiz-adv-x="600" d="M71,132C71,46 139,-12 235,-12C301,-12 367,21 419,61l3,0l9,-61l94,0l0,291C525,428 450,503 314,503C230,503 149,470 90,435l42,-77C183,386 238,410 293,410C373,410 406,369 410,314C168,297 71,242 71,132 z M182,141C182,194 234,230 410,242l0,-104C365,102 319,78 270,78C221,78 182,97 182,141 z M290,800l-87,0l88,-116l62,0 z M311,575C400,575 440,642 444,708l-55,0C383,668 359,634 311,634C263,634 239,668 233,708l-55,0C182,642 221,575 311,575z"/>
<glyph unicode="&#x1EB3;" horiz-adv-x="600" d="M71,132C71,46 139,-12 235,-12C301,-12 367,21 419,61l3,0l9,-61l94,0l0,291C525,428 450,503 314,503C230,503 149,470 90,435l42,-77C183,386 238,410 293,410C373,410 406,369 410,314C168,297 71,242 71,132 z M182,141C182,194 234,230 410,242l0,-104C365,102 319,78 270,78C221,78 182,97 182,141 z M311,575C400,575 440,642 444,708l-55,0C383,668 359,634 311,634C263,634 239,668 233,708l-55,0C182,642 221,575 311,575 z M280,691C336,700 385,719 385,779C385,826 344,852 250,855l-10,-51C290,801 307,789 307,767C307,747 292,739 271,733z"/>
<glyph unicode="&#x1EB5;" horiz-adv-x="600" d="M71,132C71,46 139,-12 235,-12C301,-12 367,21 419,61l3,0l9,-61l94,0l0,291C525,428 450,503 314,503C230,503 149,470 90,435l42,-77C183,386 238,410 293,410C373,410 406,369 410,314C168,297 71,242 71,132 z M182,141C182,194 234,230 410,242l0,-104C365,102 319,78 270,78C221,78 182,97 182,141 z M311,575C400,575 439,629 443,688l-57,0C380,659 358,632 311,632C263,632 242,659 236,688l-57,0C182,629 221,575 311,575 z M172,716l53,0C230,744 244,756 262,756C292,756 313,716 364,716C410,716 442,752 449,818l-53,0C391,790 378,778 359,778C329,778 309,818 257,818C212,818 179,782 172,716z"/>
<glyph unicode="&#x1EB7;" horiz-adv-x="600" d="M71,132C71,46 139,-12 235,-12C301,-12 367,21 419,61l3,0l9,-61l94,0l0,291C525,428 450,503 314,503C230,503 149,470 90,435l42,-77C183,386 238,410 293,410C373,410 406,369 410,314C168,297 71,242 71,132 z M182,141C182,194 234,230 410,242l0,-104C365,102 319,78 270,78C221,78 182,97 182,141 z M311,575C405,575 446,648 450,720l-67,0C377,677 355,640 311,640C266,640 244,677 239,720l-67,0C176,648 217,575 311,575 z M306,-240C354,-240 388,-210 388,-163C388,-117 354,-85 306,-85C259,-85 224,-117 224,-163C224,-210 259,-240 306,-240z"/>
<glyph unicode="&#x105;" horiz-adv-x="600" d="M71,132C71,46 139,-12 235,-12C301,-12 367,21 419,61l3,0l10,-60C400,-20 358,-64 358,-120C358,-178 401,-208 456,-208C484,-208 524,-196 546,-178l-26,54C510,-132 496,-137 482,-137C460,-137 438,-124 438,-95C438,-60 465,-20 525,0l0,291C525,428 450,503 314,503C230,503 149,470 90,435l42,-77C183,386 238,410 293,410C373,410 406,369 410,314C168,297 71,242 71,132 z M182,141C182,194 234,230 410,242l0,-104C365,102 319,78 270,78C221,78 182,97 182,141z"/>
<glyph unicode="&#xE6;" horiz-adv-x="600" d="M16,134C16,48 66,-12 150,-12C199,-12 246,16 300,72C332,20 379,-12 450,-12C495,-12 544,6 580,33l-40,75C513,90 486,79 454,79C391,79 355,130 347,214l243,0C592,229 595,250 595,272C595,397 544,503 444,503C383,503 342,473 309,418C289,468 252,503 191,503C133,503 79,479 31,450l42,-77C106,394 150,411 181,411C231,411 250,373 253,314C95,287 16,233 16,134 z M346,287C352,370 386,414 433,414C486,414 502,356 502,287 z M121,142C121,191 159,225 252,242l1,-23C254,188 259,156 268,130C241,97 207,78 180,78C144,78 121,100 121,142z"/>
<glyph unicode="&#x180;" horiz-adv-x="600" d="M198,329C238,370 277,388 314,388C394,388 428,333 428,242C428,137 375,83 306,83C275,83 234,95 198,128 z M198,504l0,60l196,0l0,59l-196,0l0,83l-116,0l0,-84l-69,-4l0,-54l69,0l0,-564l91,0l10,54l3,0C229,12 283,-12 329,-12C442,-12 547,81 547,244C547,389 473,483 346,483C293,483 237,458 194,418z"/>
<glyph unicode="&#xE7;" horiz-adv-x="600" d="M376,-10C436,-4 495,20 543,62l-48,74C457,107 411,82 355,82C258,82 192,147 192,245C192,344 260,409 358,409C402,409 441,393 479,362l55,72C493,473 431,503 352,503C202,503 73,409 73,245C73,96 171,5 305,-10l-33,-65C315,-86 333,-100 333,-121C333,-148 297,-161 247,-167l10,-50C342,-211 418,-182 418,-119C418,-78 392,-58 359,-46z"/>
<glyph unicode="&#x107;" horiz-adv-x="600" d="M73,245C73,82 190,-12 344,-12C414,-12 487,13 543,62l-48,74C457,107 411,82 355,82C258,82 192,147 192,245C192,344 260,409 358,409C402,409 441,393 479,362l55,72C493,473 431,503 352,503C202,503 73,409 73,245 z M478,731l-120,0l-90,-158l86,0z"/>
<glyph unicode="&#x109;" horiz-adv-x="600" d="M73,245C73,82 190,-12 344,-12C414,-12 487,13 543,62l-48,74C457,107 411,82 355,82C258,82 192,147 192,245C192,344 260,409 358,409C402,409 441,393 479,362l55,72C493,473 431,503 352,503C202,503 73,409 73,245 z M194,573l86,0l60,97l4,0l60,-97l86,0l-99,158l-98,0z"/>
<glyph unicode="&#x10D;" horiz-adv-x="600" d="M73,245C73,82 190,-12 344,-12C414,-12 487,13 543,62l-48,74C457,107 411,82 355,82C258,82 192,147 192,245C192,344 260,409 358,409C402,409 441,393 479,362l55,72C493,473 431,503 352,503C202,503 73,409 73,245 z M293,573l98,0l99,158l-86,0l-60,-97l-4,0l-60,97l-86,0z"/>
<glyph unicode="&#x10B;" horiz-adv-x="600" d="M73,245C73,82 190,-12 344,-12C414,-12 487,13 543,62l-48,74C457,107 411,82 355,82C258,82 192,147 192,245C192,344 260,409 358,409C402,409 441,393 479,362l55,72C493,473 431,503 352,503C202,503 73,409 73,245 z M342,577C389,577 424,608 424,654C424,700 389,732 342,732C295,732 260,700 260,654C260,608 295,577 342,577z"/>
<glyph unicode="&#x10F;" horiz-adv-x="600" d="M37,245C37,83 121,-12 247,-12C302,-12 357,19 395,57l3,0l9,-57l94,0l0,706l-115,0l0,-178l5,-83C351,481 311,503 254,503C142,503 37,405 37,245 z M155,246C155,349 213,408 281,408C317,408 351,396 386,363l0,-221C352,102 315,83 275,83C200,83 155,140 155,246 z M594,548l19,154l1,63l-76,0l4,-217z"/>
<glyph unicode="&#x1E0D;" horiz-adv-x="600" d="M53,245C53,83 137,-12 263,-12C318,-12 373,19 411,57l3,0l9,-57l95,0l0,706l-116,0l0,-178l5,-83C367,481 328,503 270,503C158,503 53,405 53,245 z M172,246C172,349 229,408 297,408C333,408 367,396 402,363l0,-221C368,102 332,83 291,83C216,83 172,140 172,246 z M308,-240C355,-240 390,-210 390,-163C390,-117 355,-85 308,-85C260,-85 226,-117 226,-163C226,-210 260,-240 308,-240z"/>
<glyph unicode="&#x1E0F;" horiz-adv-x="600" d="M53,245C53,83 137,-12 263,-12C318,-12 373,19 411,57l3,0l9,-57l95,0l0,706l-116,0l0,-178l5,-83C367,481 328,503 270,503C158,503 53,405 53,245 z M172,246C172,349 229,408 297,408C333,408 367,396 402,363l0,-221C368,102 332,83 291,83C216,83 172,140 172,246 z M438,-104l-262,0l0,-76l262,0z"/>
<glyph unicode="&#x111;" horiz-adv-x="600" d="M402,142C368,102 332,83 291,83C216,83 172,136 172,236C172,332 229,388 299,388C333,388 367,375 402,343 z M586,623l-68,0l0,83l-116,0l0,-83l-164,0l0,-59l164,0l0,-56l5,-83C367,461 328,483 270,483C158,483 53,389 53,235C53,79 137,-12 263,-12C318,-12 373,19 411,57l3,0l9,-57l95,0l0,564l68,5z"/>
<glyph unicode="&#xE8;" horiz-adv-x="600" d="M62,245C62,83 181,-12 330,-12C402,-12 469,12 522,45l-39,72C438,92 396,77 345,77C256,77 188,126 180,214l357,0C539,226 542,248 542,270C542,406 460,503 314,503C186,503 62,406 62,245 z M179,292C192,372 251,414 317,414C395,414 436,368 436,292 z M302,573l85,0l-89,158l-121,0z"/>
<glyph unicode="&#xE9;" horiz-adv-x="600" d="M62,245C62,83 181,-12 330,-12C402,-12 469,12 522,45l-39,72C438,92 396,77 345,77C256,77 188,126 180,214l357,0C539,226 542,248 542,270C542,406 460,503 314,503C186,503 62,406 62,245 z M179,292C192,372 251,414 317,414C395,414 436,368 436,292 z M450,731l-120,0l-90,-158l86,0z"/>
<glyph unicode="&#xEA;" horiz-adv-x="600" d="M62,245C62,83 181,-12 330,-12C402,-12 469,12 522,45l-39,72C438,92 396,77 345,77C256,77 188,126 180,214l357,0C539,226 542,248 542,270C542,406 460,503 314,503C186,503 62,406 62,245 z M179,292C192,372 251,414 317,414C395,414 436,368 436,292 z M166,573l86,0l60,97l4,0l60,-97l85,0l-99,158l-97,0z"/>
<glyph unicode="&#x11B;" horiz-adv-x="600" d="M62,245C62,83 181,-12 330,-12C402,-12 469,12 522,45l-39,72C438,92 396,77 345,77C256,77 188,126 180,214l357,0C539,226 542,248 542,270C542,406 460,503 314,503C186,503 62,406 62,245 z M179,292C192,372 251,414 317,414C395,414 436,368 436,292 z M265,573l97,0l99,158l-85,0l-60,-97l-4,0l-60,97l-86,0z"/>
<glyph unicode="&#xEB;" horiz-adv-x="600" d="M62,245C62,83 181,-12 330,-12C402,-12 469,12 522,45l-39,72C438,92 396,77 345,77C256,77 188,126 180,214l357,0C539,226 542,248 542,270C542,406 460,503 314,503C186,503 62,406 62,245 z M179,292C192,372 251,414 317,414C395,414 436,368 436,292 z M211,579C250,579 277,608 277,646C277,684 250,714 211,714C171,714 144,684 144,646C144,608 171,579 211,579 z M416,579C455,579 483,608 483,646C483,684 455,714 416,714C377,714 350,684 350,646C350,608 377,579 416,579z"/>
<glyph unicode="&#x113;" horiz-adv-x="600" d="M62,245C62,83 181,-12 330,-12C402,-12 469,12 522,45l-39,72C438,92 396,77 345,77C256,77 188,126 180,214l357,0C539,226 542,248 542,270C542,406 460,503 314,503C186,503 62,406 62,245 z M179,292C192,372 251,414 317,414C395,414 436,368 436,292 z M183,596l261,0l0,76l-261,0z"/>
<glyph unicode="&#x115;" horiz-adv-x="600" d="M62,245C62,83 181,-12 330,-12C402,-12 469,12 522,45l-39,72C438,92 396,77 345,77C256,77 188,126 180,214l357,0C539,226 542,248 542,270C542,406 460,503 314,503C186,503 62,406 62,245 z M179,292C192,372 251,414 317,414C395,414 436,368 436,292 z M314,575C407,575 449,648 452,720l-66,0C380,677 358,640 314,640C269,640 247,677 242,720l-67,0C178,648 220,575 314,575z"/>
<glyph unicode="&#x117;" horiz-adv-x="600" d="M62,245C62,83 181,-12 330,-12C402,-12 469,12 522,45l-39,72C438,92 396,77 345,77C256,77 188,126 180,214l357,0C539,226 542,248 542,270C542,406 460,503 314,503C186,503 62,406 62,245 z M179,292C192,372 251,414 317,414C395,414 436,368 436,292 z M314,577C361,577 396,608 396,654C396,700 361,732 314,732C266,732 232,700 232,654C232,608 266,577 314,577z"/>
<glyph unicode="&#x1EB9;" horiz-adv-x="600" d="M62,245C62,83 181,-12 330,-12C402,-12 469,12 522,45l-39,72C438,92 396,77 345,77C256,77 188,126 180,214l357,0C539,226 542,248 542,270C542,406 460,503 314,503C186,503 62,406 62,245 z M179,292C192,372 251,414 317,414C395,414 436,368 436,292 z M314,-240C361,-240 396,-210 396,-163C396,-117 361,-85 314,-85C266,-85 232,-117 232,-163C232,-210 266,-240 314,-240z"/>
<glyph unicode="&#x1EBB;" horiz-adv-x="600" d="M62,245C62,83 181,-12 330,-12C402,-12 469,12 522,45l-39,72C438,92 396,77 345,77C256,77 188,126 180,214l357,0C539,226 542,248 542,270C542,406 460,503 314,503C186,503 62,406 62,245 z M179,292C192,372 251,414 317,414C395,414 436,368 436,292 z M282,555C349,563 407,590 407,653C407,706 360,736 254,740l-13,-61C297,676 322,663 322,641C322,619 300,610 272,603z"/>
<glyph unicode="&#x1EBD;" horiz-adv-x="600" d="M62,245C62,83 181,-12 330,-12C402,-12 469,12 522,45l-39,72C438,92 396,77 345,77C256,77 188,126 180,214l357,0C539,226 542,248 542,270C542,406 460,503 314,503C186,503 62,406 62,245 z M179,292C192,372 251,414 317,414C395,414 436,368 436,292 z M157,577l61,0C226,615 239,631 260,631C290,631 318,577 368,577C425,577 461,624 470,704l-61,0C401,666 389,650 367,650C338,650 308,704 260,704C202,704 166,657 157,577z"/>
<glyph unicode="&#x1EBF;" horiz-adv-x="600" d="M62,245C62,83 181,-12 330,-12C402,-12 469,12 522,45l-39,72C438,92 396,77 345,77C256,77 188,126 180,214l357,0C539,226 542,248 542,270C542,406 460,503 314,503C186,503 62,406 62,245 z M179,292C192,372 251,414 317,414C395,414 436,368 436,292 z M186,573l73,0l53,69l4,0l52,-69l74,0l-82,124l-93,0 z M412,643l66,0l94,116l-90,0z"/>
<glyph unicode="&#x1EC1;" horiz-adv-x="600" d="M62,245C62,83 181,-12 330,-12C402,-12 469,12 522,45l-39,72C438,92 396,77 345,77C256,77 188,126 180,214l357,0C539,226 542,248 542,270C542,406 460,503 314,503C186,503 62,406 62,245 z M179,292C192,372 251,414 317,414C395,414 436,368 436,292 z M186,573l73,0l53,69l4,0l52,-69l74,0l-82,124l-93,0 z M468,759l-89,0l93,-116l67,0z"/>
<glyph unicode="&#x1EC3;" horiz-adv-x="600" d="M62,245C62,83 181,-12 330,-12C402,-12 469,12 522,45l-39,72C438,92 396,77 345,77C256,77 188,126 180,214l357,0C539,226 542,248 542,270C542,406 460,503 314,503C186,503 62,406 62,245 z M179,292C192,372 251,414 317,414C395,414 436,368 436,292 z M186,573l73,0l53,69l4,0l52,-69l74,0l-82,124l-93,0 z M440,628C496,638 546,657 546,716C546,763 505,790 411,793l-11,-52C450,738 468,726 468,704C468,685 453,676 431,670z"/>
<glyph unicode="&#x1EC5;" horiz-adv-x="600" d="M62,245C62,83 181,-12 330,-12C402,-12 469,12 522,45l-39,72C438,92 396,77 345,77C256,77 188,126 180,214l357,0C539,226 542,248 542,270C542,406 460,503 314,503C186,503 62,406 62,245 z M179,292C192,372 251,414 317,414C395,414 436,368 436,292 z M178,572l77,0l57,62l4,0l56,-62l78,0l-84,108l-105,0 z M228,716C233,744 247,756 265,756C295,756 316,716 367,716C412,716 445,752 452,818l-53,0C394,790 380,778 362,778C332,778 312,818 260,818C215,818 182,782 175,716z"/>
<glyph unicode="&#x1EC7;" horiz-adv-x="600" d="M62,245C62,83 181,-12 330,-12C402,-12 469,12 522,45l-39,72C438,92 396,77 345,77C256,77 188,126 180,214l357,0C539,226 542,248 542,270C542,406 460,503 314,503C186,503 62,406 62,245 z M179,292C192,372 251,414 317,414C395,414 436,368 436,292 z M166,573l86,0l60,97l4,0l60,-97l85,0l-99,158l-97,0 z M314,-240C361,-240 396,-210 396,-163C396,-117 361,-85 314,-85C266,-85 232,-117 232,-163C232,-210 266,-240 314,-240z"/>
<glyph unicode="&#x119;" horiz-adv-x="600" d="M483,117C438,92 396,77 345,77C256,77 188,126 180,214l357,0C539,226 542,248 542,270C542,406 460,503 314,503C186,503 62,406 62,245C62,83 181,-12 330,-12C350,-12 366,-11 392,-4C364,-27 330,-69 330,-120C330,-178 372,-208 427,-208C455,-208 494,-196 517,-178l-26,54C480,-132 468,-137 453,-137C429,-137 409,-123 409,-95C409,-53 432,-18 522,45 z M179,292C192,372 251,414 317,414C395,414 436,368 436,292z"/>
<glyph unicode="&#x11D;" horiz-adv-x="600" d="M158,-71C158,-48 171,-27 206,-6C225,-12 249,-14 281,-14l78,0C424,-14 458,-24 458,-62C458,-104 396,-142 300,-142C209,-142 158,-115 158,-71 z M62,-86C62,-174 151,-217 286,-217C459,-217 569,-140 569,-43C569,42 503,77 376,77l-100,0C215,77 183,91 183,124C183,143 194,157 213,169C239,160 265,156 288,156C398,156 484,213 484,322C484,356 468,386 451,406l115,0l0,85l-201,0C343,499 317,503 288,503C180,503 86,439 86,326C86,268 114,224 149,200l0,-4C113,171 90,136 90,103C90,62 114,36 140,21l0,-4C89,-10 62,-47 62,-86 z M288,228C237,228 195,264 195,326C195,386 237,424 288,424C339,424 382,386 382,326C382,264 339,228 288,228 z M158,573l86,0l60,97l4,0l60,-97l85,0l-98,158l-98,0z"/>
<glyph unicode="&#x11F;" horiz-adv-x="600" d="M158,-71C158,-48 171,-27 206,-6C225,-12 249,-14 281,-14l78,0C424,-14 458,-24 458,-62C458,-104 396,-142 300,-142C209,-142 158,-115 158,-71 z M62,-86C62,-174 151,-217 286,-217C459,-217 569,-140 569,-43C569,42 503,77 376,77l-100,0C215,77 183,91 183,124C183,143 194,157 213,169C239,160 265,156 288,156C398,156 484,213 484,322C484,356 468,386 451,406l115,0l0,85l-201,0C343,499 317,503 288,503C180,503 86,439 86,326C86,268 114,224 149,200l0,-4C113,171 90,136 90,103C90,62 114,36 140,21l0,-4C89,-10 62,-47 62,-86 z M288,228C237,228 195,264 195,326C195,386 237,424 288,424C339,424 382,386 382,326C382,264 339,228 288,228 z M306,575C400,575 441,648 445,720l-67,0C372,677 350,640 306,640C261,640 239,677 234,720l-67,0C171,648 212,575 306,575z"/>
<glyph unicode="&#x121;" horiz-adv-x="600" d="M158,-71C158,-48 171,-27 206,-6C225,-12 249,-14 281,-14l78,0C424,-14 458,-24 458,-62C458,-104 396,-142 300,-142C209,-142 158,-115 158,-71 z M62,-86C62,-174 151,-217 286,-217C459,-217 569,-140 569,-43C569,42 503,77 376,77l-100,0C215,77 183,91 183,124C183,143 194,157 213,169C239,160 265,156 288,156C398,156 484,213 484,322C484,356 468,386 451,406l115,0l0,85l-201,0C343,499 317,503 288,503C180,503 86,439 86,326C86,268 114,224 149,200l0,-4C113,171 90,136 90,103C90,62 114,36 140,21l0,-4C89,-10 62,-47 62,-86 z M288,228C237,228 195,264 195,326C195,386 237,424 288,424C339,424 382,386 382,326C382,264 339,228 288,228 z M306,577C353,577 388,608 388,654C388,700 353,732 306,732C259,732 224,700 224,654C224,608 259,577 306,577z"/>
<glyph unicode="&#x123;" horiz-adv-x="600" d="M158,-71C158,-48 171,-27 206,-6C225,-12 249,-14 281,-14l78,0C424,-14 458,-24 458,-62C458,-104 396,-142 300,-142C209,-142 158,-115 158,-71 z M62,-86C62,-174 151,-217 286,-217C459,-217 569,-140 569,-43C569,42 503,77 376,77l-100,0C215,77 183,91 183,124C183,143 194,157 213,169C239,160 265,156 288,156C398,156 484,213 484,322C484,356 468,386 451,406l115,0l0,85l-201,0C343,499 317,503 288,503C180,503 86,439 86,326C86,268 114,224 149,200l0,-4C113,171 90,136 90,103C90,62 114,36 140,21l0,-4C89,-10 62,-47 62,-86 z M288,228C237,228 195,264 195,326C195,386 237,424 288,424C339,424 382,386 382,326C382,264 339,228 288,228 z M337,543l24,46C331,596 313,607 313,630C313,654 349,665 399,671l-10,50C304,715 228,686 228,623C228,576 259,552 337,543z"/>
<glyph unicode="&#x1E7;" horiz-adv-x="600" d="M158,-71C158,-48 171,-27 206,-6C225,-12 249,-14 281,-14l78,0C424,-14 458,-24 458,-62C458,-104 396,-142 300,-142C209,-142 158,-115 158,-71 z M62,-86C62,-174 151,-217 286,-217C459,-217 569,-140 569,-43C569,42 503,77 376,77l-100,0C215,77 183,91 183,124C183,143 194,157 213,169C239,160 265,156 288,156C398,156 484,213 484,322C484,356 468,386 451,406l115,0l0,85l-201,0C343,499 317,503 288,503C180,503 86,439 86,326C86,268 114,224 149,200l0,-4C113,171 90,136 90,103C90,62 114,36 140,21l0,-4C89,-10 62,-47 62,-86 z M288,228C237,228 195,264 195,326C195,386 237,424 288,424C339,424 382,386 382,326C382,264 339,228 288,228 z M257,573l98,0l98,158l-85,0l-60,-97l-4,0l-60,97l-86,0z"/>
<glyph unicode="&#x1E21;" horiz-adv-x="600" d="M158,-71C158,-48 171,-27 206,-6C225,-12 249,-14 281,-14l78,0C424,-14 458,-24 458,-62C458,-104 396,-142 300,-142C209,-142 158,-115 158,-71 z M62,-86C62,-174 151,-217 286,-217C459,-217 569,-140 569,-43C569,42 503,77 376,77l-100,0C215,77 183,91 183,124C183,143 194,157 213,169C239,160 265,156 288,156C398,156 484,213 484,322C484,356 468,386 451,406l115,0l0,85l-201,0C343,499 317,503 288,503C180,503 86,439 86,326C86,268 114,224 149,200l0,-4C113,171 90,136 90,103C90,62 114,36 140,21l0,-4C89,-10 62,-47 62,-86 z M288,228C237,228 195,264 195,326C195,386 237,424 288,424C339,424 382,386 382,326C382,264 339,228 288,228 z M175,596l261,0l0,76l-261,0z"/>
<glyph unicode="&#xE001;" horiz-adv-x="600" d="M158,-71C158,-48 171,-27 206,-6C225,-12 249,-14 281,-14l78,0C424,-14 458,-24 458,-62C458,-104 396,-142 300,-142C209,-142 158,-115 158,-71 z M62,-86C62,-174 151,-217 286,-217C459,-217 569,-140 569,-43C569,42 503,77 376,77l-100,0C215,77 183,91 183,124C183,143 194,157 213,169C239,160 265,156 288,156C398,156 484,213 484,322C484,356 468,386 451,406l115,0l0,85l-201,0C343,499 317,503 288,503C180,503 86,439 86,326C86,268 114,224 149,200l0,-4C113,171 90,136 90,103C90,62 114,36 140,21l0,-4C89,-10 62,-47 62,-86 z M288,228C237,228 195,264 195,326C195,386 237,424 288,424C339,424 382,386 382,326C382,264 339,228 288,228 z M149,577l62,0C218,615 231,631 252,631C283,631 311,577 360,577C417,577 453,624 462,704l-61,0C393,666 381,650 359,650C330,650 300,704 252,704C195,704 159,657 149,577z"/>
<glyph unicode="&#x125;" horiz-adv-x="600" d="M82,0l116,0l0,335C243,381 276,404 324,404C391,404 416,368 416,289l0,-289l116,0l0,304C532,431 480,503 367,503C292,503 236,464 191,419l7,105l0,182l-116,0 z M85,749l60,65l4,0l60,-65l90,0l-96,116l-112,0l-96,-116z"/>
<glyph unicode="&#x1E25;" horiz-adv-x="600" d="M82,0l116,0l0,335C243,381 276,404 324,404C391,404 416,368 416,289l0,-289l116,0l0,304C532,431 480,503 367,503C292,503 236,464 191,419l7,105l0,182l-116,0 z M311,-240C358,-240 393,-210 393,-163C393,-117 358,-85 311,-85C263,-85 229,-117 229,-163C229,-210 263,-240 311,-240z"/>
<glyph unicode="&#x1E2B;" horiz-adv-x="600" d="M82,0l116,0l0,335C243,381 276,404 324,404C391,404 416,368 416,289l0,-289l116,0l0,304C532,431 480,503 367,503C292,503 236,464 191,419l7,105l0,182l-116,0 z M310,-208C400,-208 439,-141 443,-75l-67,0C371,-111 351,-142 310,-142C269,-142 249,-111 244,-75l-67,0C181,-141 221,-208 310,-208z"/>
<glyph unicode="&#x127;" horiz-adv-x="600" d="M198,504l0,60l196,0l0,59l-196,0l0,83l-116,0l0,-84l-69,-4l0,-54l69,0l0,-564l116,0l0,315C243,361 276,384 324,384C391,384 416,348 416,269l0,-269l116,0l0,284C532,411 480,483 367,483C292,483 236,444 191,399z"/>
<glyph unicode="&#xEC;" horiz-adv-x="600" d="M84,400l213,0l0,-400l115,0l0,491l-328,0 z M334,573l86,0l-90,158l-120,0z"/>
<glyph unicode="&#xED;" horiz-adv-x="600" d="M84,400l213,0l0,-400l115,0l0,491l-328,0 z M483,731l-121,0l-89,-158l85,0z"/>
<glyph unicode="&#xEE;" horiz-adv-x="600" d="M84,400l213,0l0,-400l115,0l0,491l-328,0 z M199,573l85,0l60,97l4,0l60,-97l86,0l-99,158l-97,0z"/>
<glyph unicode="&#x129;" horiz-adv-x="600" d="M84,400l213,0l0,-400l115,0l0,491l-328,0 z M190,577l61,0C259,615 271,631 293,631C323,631 351,577 400,577C458,577 494,624 503,704l-61,0C434,666 421,650 400,650C370,650 341,704 292,704C235,704 199,657 190,577z"/>
<glyph unicode="&#xEF;" horiz-adv-x="600" d="M84,400l213,0l0,-400l115,0l0,491l-328,0 z M244,579C283,579 310,608 310,646C310,684 283,714 244,714C204,714 177,684 177,646C177,608 204,579 244,579 z M449,579C488,579 516,608 516,646C516,684 488,714 449,714C410,714 383,684 383,646C383,608 410,579 449,579z"/>
<glyph unicode="&#x12B;" horiz-adv-x="600" d="M84,400l213,0l0,-400l115,0l0,491l-328,0 z M216,596l261,0l0,76l-261,0z"/>
<glyph unicode="&#x12D;" horiz-adv-x="600" d="M84,400l213,0l0,-400l115,0l0,491l-328,0 z M346,575C440,575 482,648 485,720l-67,0C413,677 391,640 346,640C302,640 280,677 274,720l-66,0C211,648 253,575 346,575z"/>
<glyph unicode="&#x1D0;" horiz-adv-x="600" d="M84,400l213,0l0,-400l115,0l0,491l-328,0 z M298,573l97,0l99,158l-86,0l-60,-97l-4,0l-60,97l-85,0z"/>
<glyph unicode="&#x1EC9;" horiz-adv-x="600" d="M84,400l213,0l0,-400l115,0l0,491l-328,0 z M315,555C382,563 440,590 440,653C440,706 392,736 286,740l-12,-61C330,676 355,663 355,641C355,619 333,610 304,603z"/>
<glyph unicode="&#x1ECB;" horiz-adv-x="600" d="M84,400l213,0l0,-400l115,0l0,491l-328,0 z M346,577C394,577 428,608 428,654C428,700 394,732 346,732C299,732 264,700 264,654C264,608 299,577 346,577 z M346,-240C394,-240 428,-210 428,-163C428,-117 394,-85 346,-85C299,-85 264,-117 264,-163C264,-210 299,-240 346,-240z"/>
<glyph unicode="&#x12F;" horiz-adv-x="600" d="M297,0l31,0C301,-24 263,-64 263,-120C263,-178 307,-208 362,-208C390,-208 429,-196 452,-178l-26,54C413,-132 402,-137 388,-137C365,-137 344,-123 344,-95C344,-60 365,-24 412,0l0,491l-328,0l0,-91l213,0 z M346,577C394,577 428,608 428,654C428,700 394,732 346,732C299,732 264,700 264,654C264,608 299,577 346,577z"/>
<glyph unicode="&#xE002;" horiz-adv-x="600" d="M297,0l31,0C301,-24 263,-64 263,-120C263,-178 307,-208 362,-208C390,-208 429,-196 452,-178l-26,54C413,-132 402,-137 388,-137C365,-137 344,-123 344,-95C344,-60 365,-24 412,0l0,491l-328,0l0,-91l213,0z"/>
<glyph unicode="&#x131;" horiz-adv-x="600" d="M84,400l213,0l0,-400l115,0l0,491l-328,0z"/>
<glyph unicode="&#x135;" horiz-adv-x="600" d="M84,400l213,0l0,-397C297,-74 273,-115 189,-115C157,-115 121,-107 84,-90l-35,-83C89,-192 138,-206 195,-206C363,-206 412,-111 412,9l0,482l-328,0 z M199,573l85,0l60,97l4,0l60,-97l86,0l-99,158l-97,0z"/>
<glyph unicode="&#x137;" horiz-adv-x="600" d="M90,0l116,0l0,128l94,94l154,-222l126,0l-211,293l190,198l-128,0l-221,-227l-4,0l0,442l-116,0 z M297,-45l-23,-46C303,-98 321,-109 321,-132C321,-156 286,-167 236,-173l9,-50C330,-217 406,-188 406,-125C406,-78 376,-54 297,-45z"/>
<glyph unicode="&#x138;" horiz-adv-x="600" d="M90,0l116,0l0,126l94,91l154,-217l126,0l-211,293l190,198l-128,0l-222,-225l-3,-1l0,226l-116,0z"/>
<glyph unicode="&#x13A;" horiz-adv-x="600" d="M71,615l155,0l0,-436C226,58 286,-12 401,-12C458,-12 493,0 540,16l-27,85C480,88 454,82 429,82C379,82 341,107 341,173l0,533l-270,0 z M417,874l-125,0l-85,-116l94,0z"/>
<glyph unicode="&#x13E;" horiz-adv-x="600" d="M71,615l155,0l0,-436C226,58 286,-12 401,-12C458,-12 493,0 540,16l-27,85C480,88 454,82 429,82C379,82 341,107 341,173l0,533l-270,0 z M460,548l19,154l2,63l-77,0l4,-217z"/>
<glyph unicode="&#x140;" horiz-adv-x="600" d="M27,615l155,0l0,-436C182,58 242,-12 356,-12C414,-12 448,0 496,16l-27,85C436,88 410,82 385,82C335,82 297,107 297,173l0,533l-270,0 z M454,272C502,272 536,303 536,349C536,396 502,427 454,427C407,427 372,396 372,349C372,303 407,272 454,272z"/>
<glyph unicode="&#x13C;" horiz-adv-x="600" d="M71,615l155,0l0,-436C226,58 286,-12 401,-12C458,-12 493,0 540,16l-27,85C480,88 454,82 429,82C379,82 341,107 341,173l0,533l-270,0 z M334,-45l-24,-46C340,-98 358,-109 358,-132C358,-156 322,-167 272,-173l10,-50C367,-217 443,-188 443,-125C443,-78 412,-54 334,-45z"/>
<glyph unicode="&#x1E37;" horiz-adv-x="600" d="M71,615l155,0l0,-436C226,58 286,-12 401,-12C458,-12 493,0 540,16l-27,85C480,88 454,82 429,82C379,82 341,107 341,173l0,533l-270,0 z M366,-240C413,-240 448,-210 448,-163C448,-117 413,-85 366,-85C319,-85 284,-117 284,-163C284,-210 319,-240 366,-240z"/>
<glyph unicode="&#x1E39;" horiz-adv-x="600" d="M71,615l155,0l0,-436C226,58 286,-12 401,-12C458,-12 493,0 540,16l-27,85C480,88 454,82 429,82C379,82 341,107 341,173l0,533l-270,0 z M147,813l261,0l0,76l-261,0 z M366,-240C413,-240 448,-210 448,-163C448,-117 413,-85 366,-85C319,-85 284,-117 284,-163C284,-210 319,-240 366,-240z"/>
<glyph unicode="&#x1E3B;" horiz-adv-x="600" d="M71,615l155,0l0,-436C226,58 286,-12 401,-12C458,-12 493,0 540,16l-27,85C480,88 454,82 429,82C379,82 341,107 341,173l0,533l-270,0 z M496,-104l-261,0l0,-76l261,0z"/>
<glyph unicode="&#x142;" horiz-adv-x="600" d="M513,101C480,88 454,82 429,82C379,82 341,107 341,173l0,188l156,86l0,95l-156,-86l0,250l-270,0l0,-91l155,0l0,-217l-118,-67l0,-95l118,68l0,-125C226,58 286,-12 401,-12C458,-12 493,0 540,16z"/>
<glyph unicode="&#x1E43;" horiz-adv-x="600" d="M48,0l109,0l0,343C176,384 193,404 219,404C247,404 261,383 261,339l0,-339l90,0l0,343C370,384 389,404 415,404C443,404 456,383 456,339l0,-339l109,0l0,348C565,446 525,503 456,503C402,503 368,468 345,421C333,475 302,503 255,503C199,503 169,471 147,428l-3,0l-9,63l-87,0 z M304,-240C351,-240 386,-210 386,-163C386,-117 351,-85 304,-85C257,-85 222,-117 222,-163C222,-210 257,-240 304,-240z"/>
<glyph unicode="&#x144;" horiz-adv-x="600" d="M82,0l116,0l0,335C243,381 276,404 324,404C391,404 416,368 416,289l0,-289l116,0l0,304C532,431 480,503 367,503C292,503 236,464 190,417l-4,0l-9,74l-95,0 z M453,731l-121,0l-89,-158l85,0z"/>
<glyph unicode="&#x148;" horiz-adv-x="600" d="M82,0l116,0l0,335C243,381 276,404 324,404C391,404 416,368 416,289l0,-289l116,0l0,304C532,431 480,503 367,503C292,503 236,464 190,417l-4,0l-9,74l-95,0 z M268,573l97,0l99,158l-86,0l-60,-97l-4,0l-60,97l-85,0z"/>
<glyph unicode="&#xF1;" horiz-adv-x="600" d="M82,0l116,0l0,335C243,381 276,404 324,404C391,404 416,368 416,289l0,-289l116,0l0,304C532,431 480,503 367,503C292,503 236,464 190,417l-4,0l-9,74l-95,0 z M160,577l61,0C229,615 241,631 263,631C293,631 321,577 370,577C428,577 464,624 473,704l-61,0C404,666 391,650 370,650C340,650 311,704 262,704C205,704 169,657 160,577z"/>
<glyph unicode="&#x146;" horiz-adv-x="600" d="M82,0l116,0l0,335C243,381 276,404 324,404C391,404 416,368 416,289l0,-289l116,0l0,304C532,431 480,503 367,503C292,503 236,464 190,417l-4,0l-9,74l-95,0 z M277,-45l-23,-46C283,-98 301,-109 301,-132C301,-156 266,-167 216,-173l9,-50C310,-217 386,-188 386,-125C386,-78 356,-54 277,-45z"/>
<glyph unicode="&#x1E45;" horiz-adv-x="600" d="M82,0l116,0l0,335C243,381 276,404 324,404C391,404 416,368 416,289l0,-289l116,0l0,304C532,431 480,503 367,503C292,503 236,464 190,417l-4,0l-9,74l-95,0 z M316,577C364,577 398,608 398,654C398,700 364,732 316,732C269,732 234,700 234,654C234,608 269,577 316,577z"/>
<glyph unicode="&#x1E47;" horiz-adv-x="600" d="M82,0l116,0l0,335C243,381 276,404 324,404C391,404 416,368 416,289l0,-289l116,0l0,304C532,431 480,503 367,503C292,503 236,464 190,417l-4,0l-9,74l-95,0 z M310,-240C357,-240 392,-210 392,-163C392,-117 357,-85 310,-85C262,-85 228,-117 228,-163C228,-210 262,-240 310,-240z"/>
<glyph unicode="&#x1E49;" horiz-adv-x="600" d="M82,0l116,0l0,335C243,381 276,404 324,404C391,404 416,368 416,289l0,-289l116,0l0,304C532,431 480,503 367,503C292,503 236,464 190,417l-4,0l-9,74l-95,0 z M440,-104l-262,0l0,-76l262,0z"/>
<glyph unicode="&#x149;" horiz-adv-x="600" d="M-1,319C103,369 159,453 159,557C159,645 118,698 55,698C5,698 -30,662 -30,608C-30,560 3,527 51,527C58,527 66,528 73,531C69,465 31,416 -34,382 z M310,421l-9,70l-95,0l0,-491l116,0l0,339C362,382 388,404 430,404C484,404 506,369 506,293l0,-293l115,0l0,308C621,432 574,503 472,503C404,503 357,466 314,421z"/>
<glyph unicode="&#xF2;" horiz-adv-x="600" d="M53,245C53,82 171,-12 300,-12C429,-12 547,82 547,245C547,409 429,503 300,503C171,503 53,409 53,245 z M172,245C172,344 220,409 300,409C380,409 428,344 428,245C428,147 380,82 300,82C220,82 172,147 172,245 z M288,573l86,0l-90,158l-120,0z"/>
<glyph unicode="&#xF3;" horiz-adv-x="600" d="M53,245C53,82 171,-12 300,-12C429,-12 547,82 547,245C547,409 429,503 300,503C171,503 53,409 53,245 z M172,245C172,344 220,409 300,409C380,409 428,344 428,245C428,147 380,82 300,82C220,82 172,147 172,245 z M436,731l-120,0l-90,-158l86,0z"/>
<glyph unicode="&#xF4;" horiz-adv-x="600" d="M53,245C53,82 171,-12 300,-12C429,-12 547,82 547,245C547,409 429,503 300,503C171,503 53,409 53,245 z M172,245C172,344 220,409 300,409C380,409 428,344 428,245C428,147 380,82 300,82C220,82 172,147 172,245 z M152,573l86,0l60,97l4,0l60,-97l86,0l-99,158l-98,0z"/>
<glyph unicode="&#xF5;" horiz-adv-x="600" d="M53,245C53,82 171,-12 300,-12C429,-12 547,82 547,245C547,409 429,503 300,503C171,503 53,409 53,245 z M172,245C172,344 220,409 300,409C380,409 428,344 428,245C428,147 380,82 300,82C220,82 172,147 172,245 z M144,577l61,0C212,615 225,631 246,631C277,631 305,577 354,577C411,577 447,624 456,704l-61,0C388,666 375,650 354,650C324,650 295,704 246,704C189,704 153,657 144,577z"/>
<glyph unicode="&#xF6;" horiz-adv-x="600" d="M53,245C53,82 171,-12 300,-12C429,-12 547,82 547,245C547,409 429,503 300,503C171,503 53,409 53,245 z M172,245C172,344 220,409 300,409C380,409 428,344 428,245C428,147 380,82 300,82C220,82 172,147 172,245 z M197,579C236,579 264,608 264,646C264,684 236,714 197,714C158,714 131,684 131,646C131,608 158,579 197,579 z M403,579C442,579 469,608 469,646C469,684 442,714 403,714C364,714 336,684 336,646C336,608 364,579 403,579z"/>
<glyph unicode="&#x14D;" horiz-adv-x="600" d="M53,245C53,82 171,-12 300,-12C429,-12 547,82 547,245C547,409 429,503 300,503C171,503 53,409 53,245 z M172,245C172,344 220,409 300,409C380,409 428,344 428,245C428,147 380,82 300,82C220,82 172,147 172,245 z M170,596l260,0l0,76l-260,0z"/>
<glyph unicode="&#x14F;" horiz-adv-x="600" d="M53,245C53,82 171,-12 300,-12C429,-12 547,82 547,245C547,409 429,503 300,503C171,503 53,409 53,245 z M172,245C172,344 220,409 300,409C380,409 428,344 428,245C428,147 380,82 300,82C220,82 172,147 172,245 z M300,575C394,575 435,648 439,720l-67,0C367,677 345,640 300,640C255,640 233,677 228,720l-67,0C165,648 206,575 300,575z"/>
<glyph unicode="&#x151;" horiz-adv-x="600" d="M53,245C53,82 171,-12 300,-12C429,-12 547,82 547,245C547,409 429,503 300,503C171,503 53,409 53,245 z M172,245C172,344 220,409 300,409C380,409 428,344 428,245C428,147 380,82 300,82C220,82 172,147 172,245 z M188,572l73,0l91,147l-94,0 z M347,572l73,0l92,147l-95,0z"/>
<glyph unicode="&#x1D2;" horiz-adv-x="600" d="M53,245C53,82 171,-12 300,-12C429,-12 547,82 547,245C547,409 429,503 300,503C171,503 53,409 53,245 z M172,245C172,344 220,409 300,409C380,409 428,344 428,245C428,147 380,82 300,82C220,82 172,147 172,245 z M251,573l98,0l99,158l-86,0l-60,-97l-4,0l-60,97l-86,0z"/>
<glyph unicode="&#x1ECD;" horiz-adv-x="600" d="M53,245C53,82 171,-12 300,-12C429,-12 547,82 547,245C547,409 429,503 300,503C171,503 53,409 53,245 z M172,245C172,344 220,409 300,409C380,409 428,344 428,245C428,147 380,82 300,82C220,82 172,147 172,245 z M300,-240C348,-240 382,-210 382,-163C382,-117 348,-85 300,-85C253,-85 218,-117 218,-163C218,-210 253,-240 300,-240z"/>
<glyph unicode="&#x1ECF;" horiz-adv-x="600" d="M53,245C53,82 171,-12 300,-12C429,-12 547,82 547,245C547,409 429,503 300,503C171,503 53,409 53,245 z M172,245C172,344 220,409 300,409C380,409 428,344 428,245C428,147 380,82 300,82C220,82 172,147 172,245 z M268,555C335,563 394,590 394,653C394,706 346,736 240,740l-13,-61C284,676 308,663 308,641C308,619 286,610 258,603z"/>
<glyph unicode="&#x1ED1;" horiz-adv-x="600" d="M53,245C53,82 171,-12 300,-12C429,-12 547,82 547,245C547,409 429,503 300,503C171,503 53,409 53,245 z M172,245C172,344 220,409 300,409C380,409 428,344 428,245C428,147 380,82 300,82C220,82 172,147 172,245 z M172,573l74,0l52,69l4,0l52,-69l74,0l-82,124l-92,0 z M398,643l67,0l93,116l-89,0z"/>
<glyph unicode="&#x1ED3;" horiz-adv-x="600" d="M53,245C53,82 171,-12 300,-12C429,-12 547,82 547,245C547,409 429,503 300,503C171,503 53,409 53,245 z M172,245C172,344 220,409 300,409C380,409 428,344 428,245C428,147 380,82 300,82C220,82 172,147 172,245 z M172,573l74,0l52,69l4,0l52,-69l74,0l-82,124l-92,0 z M455,759l-90,0l94,-116l67,0z"/>
<glyph unicode="&#x1ED5;" horiz-adv-x="600" d="M53,245C53,82 171,-12 300,-12C429,-12 547,82 547,245C547,409 429,503 300,503C171,503 53,409 53,245 z M172,245C172,344 220,409 300,409C380,409 428,344 428,245C428,147 380,82 300,82C220,82 172,147 172,245 z M172,573l74,0l52,69l4,0l52,-69l74,0l-82,124l-92,0 z M427,628C482,638 532,657 532,716C532,763 491,790 397,793l-10,-52C437,738 454,726 454,704C454,685 439,676 418,670z"/>
<glyph unicode="&#x1ED7;" horiz-adv-x="600" d="M53,245C53,82 171,-12 300,-12C429,-12 547,82 547,245C547,409 429,503 300,503C171,503 53,409 53,245 z M172,245C172,344 220,409 300,409C380,409 428,344 428,245C428,147 380,82 300,82C220,82 172,147 172,245 z M164,572l77,0l57,62l4,0l57,-62l77,0l-84,108l-104,0 z M214,716C220,744 233,756 252,756C282,756 302,716 354,716C399,716 432,752 438,818l-52,0C380,790 367,778 348,778C318,778 298,818 246,818C201,818 168,782 162,716z"/>
<glyph unicode="&#x1ED9;" horiz-adv-x="600" d="M53,245C53,82 171,-12 300,-12C429,-12 547,82 547,245C547,409 429,503 300,503C171,503 53,409 53,245 z M172,245C172,344 220,409 300,409C380,409 428,344 428,245C428,147 380,82 300,82C220,82 172,147 172,245 z M152,573l86,0l60,97l4,0l60,-97l86,0l-99,158l-98,0 z M300,-240C347,-240 382,-210 382,-163C382,-117 347,-85 300,-85C253,-85 218,-117 218,-163C218,-210 253,-240 300,-240z"/>
<glyph unicode="&#xF8;" horiz-adv-x="600" d="M412,334C423,308 428,278 428,245C428,147 380,78 300,78C268,78 242,89 221,108 z M187,158C177,183 172,212 172,245C172,344 220,413 300,413C331,413 358,402 378,384 z M536,480l-46,36l-48,-56C401,488 351,503 300,503C171,503 53,409 53,245C53,173 76,114 114,71l-50,-59l46,-36l47,56C198,3 248,-12 300,-12C429,-12 547,82 547,245C547,318 523,378 486,421z"/>
<glyph unicode="&#x153;" horiz-adv-x="600" d="M116,246C116,344 144,410 198,410C246,410 275,344 275,246C275,147 246,81 198,81C144,81 116,147 116,246 z M11,246C11,82 90,-12 191,-12C252,-12 293,21 322,82C350,21 399,-12 456,-12C500,-12 545,6 580,33l-40,75C514,90 491,79 461,79C402,79 366,130 358,214l232,0C593,235 594,250 594,272C594,398 543,503 447,503C391,503 348,466 321,402C296,465 252,503 193,503C92,503 11,409 11,246 z M357,287C364,368 392,414 438,414C487,414 502,355 502,287z"/>
<glyph unicode="&#x1A1;" horiz-adv-x="600" d="M300,82C220,82 172,147 172,245C172,344 220,409 300,409C380,409 428,344 428,245C428,147 380,82 300,82 z M464,589C472,577 479,562 479,545C479,505 454,489 405,481C372,495 337,503 300,503C171,503 53,409 53,245C53,82 171,-12 300,-12C429,-12 547,82 547,245C547,330 515,396 467,440C527,456 570,491 570,553C570,582 558,608 544,626z"/>
<glyph unicode="&#x1EDB;" horiz-adv-x="600" d="M436,731l-120,0l-90,-158l86,0 z M300,82C220,82 172,147 172,245C172,344 220,409 300,409C380,409 428,344 428,245C428,147 380,82 300,82 z M464,589C472,577 479,562 479,545C479,505 454,489 405,481C372,495 337,503 300,503C171,503 53,409 53,245C53,82 171,-12 300,-12C429,-12 547,82 547,245C547,330 515,396 467,440C527,456 570,491 570,553C570,582 558,608 544,626z"/>
<glyph unicode="&#x1EDD;" horiz-adv-x="600" d="M374,573l-90,158l-120,0l124,-158 z M300,82C220,82 172,147 172,245C172,344 220,409 300,409C380,409 428,344 428,245C428,147 380,82 300,82 z M464,589C472,577 479,562 479,545C479,505 454,489 405,481C372,495 337,503 300,503C171,503 53,409 53,245C53,82 171,-12 300,-12C429,-12 547,82 547,245C547,330 515,396 467,440C527,456 570,491 570,553C570,582 558,608 544,626z"/>
<glyph unicode="&#x1EDF;" horiz-adv-x="600" d="M268,555C335,563 394,590 394,653C394,706 346,736 240,740l-13,-61C284,676 308,663 308,641C308,619 286,610 258,603 z M300,82C220,82 172,147 172,245C172,344 220,409 300,409C380,409 428,344 428,245C428,147 380,82 300,82 z M464,589C472,577 479,562 479,545C479,505 454,489 405,481C372,495 337,503 300,503C171,503 53,409 53,245C53,82 171,-12 300,-12C429,-12 547,82 547,245C547,330 515,396 467,440C527,456 570,491 570,553C570,582 558,608 544,626z"/>
<glyph unicode="&#x1EE1;" horiz-adv-x="600" d="M395,704C388,666 375,650 354,650C324,650 295,704 246,704C189,704 153,657 144,577l61,0C212,615 225,631 246,631C277,631 305,577 354,577C411,577 447,624 456,704 z M300,82C220,82 172,147 172,245C172,344 220,409 300,409C380,409 428,344 428,245C428,147 380,82 300,82 z M464,589C472,577 479,562 479,545C479,505 454,489 405,481C372,495 337,503 300,503C171,503 53,409 53,245C53,82 171,-12 300,-12C429,-12 547,82 547,245C547,330 515,396 467,440C527,456 570,491 570,553C570,582 558,608 544,626z"/>
<glyph unicode="&#x1EE3;" horiz-adv-x="600" d="M301,-85C254,-85 219,-117 219,-163C219,-210 254,-240 301,-240C348,-240 383,-210 383,-163C383,-117 348,-85 301,-85 z M300,82C220,82 172,147 172,245C172,344 220,409 300,409C380,409 428,344 428,245C428,147 380,82 300,82 z M464,589C472,577 479,562 479,545C479,505 454,489 405,481C372,495 337,503 300,503C171,503 53,409 53,245C53,82 171,-12 300,-12C429,-12 547,82 547,245C547,330 515,396 467,440C527,456 570,491 570,553C570,582 558,608 544,626z"/>
<glyph unicode="&#x1EB;" horiz-adv-x="600" d="M224,-120C224,-178 267,-208 322,-208C350,-208 390,-196 412,-178l-26,54C375,-132 362,-137 348,-137C326,-137 304,-124 304,-95C304,-62 326,-24 373,-2C478,42 547,112 547,245C547,409 430,503 300,503C170,503 53,409 53,245C53,93 156,-1 279,-10C256,-30 224,-70 224,-120 z M172,245C172,344 220,409 300,409C380,409 428,344 428,245C428,147 380,82 300,82C220,82 172,147 172,245z"/>
<glyph unicode="&#x155;" horiz-adv-x="600" d="M130,0l116,0l0,271C296,366 362,401 429,401C466,401 486,396 518,386l24,97C513,497 487,503 447,503C362,503 288,459 238,380l-3,0l-10,111l-95,0 z M477,731l-121,0l-89,-158l85,0z"/>
<glyph unicode="&#x157;" horiz-adv-x="600" d="M130,0l116,0l0,271C296,366 362,401 429,401C466,401 486,396 518,386l24,97C513,497 487,503 447,503C362,503 288,459 238,380l-3,0l-10,111l-95,0 z M169,-45l-23,-46C175,-98 193,-109 193,-132C193,-156 158,-167 108,-173l9,-50C202,-217 278,-188 278,-125C278,-78 248,-54 169,-45z"/>
<glyph unicode="&#x159;" horiz-adv-x="600" d="M130,0l116,0l0,271C296,366 362,401 429,401C466,401 486,396 518,386l24,97C513,497 487,503 447,503C362,503 288,459 238,380l-3,0l-10,111l-95,0 z M292,573l97,0l99,158l-86,0l-60,-97l-4,0l-60,97l-85,0z"/>
<glyph unicode="&#x1E5B;" horiz-adv-x="600" d="M130,0l116,0l0,271C296,366 362,401 429,401C466,401 486,396 518,386l24,97C513,497 487,503 447,503C362,503 288,459 238,380l-3,0l-10,111l-95,0 z M202,-240C249,-240 284,-210 284,-163C284,-117 249,-85 202,-85C154,-85 120,-117 120,-163C120,-210 154,-240 202,-240z"/>
<glyph unicode="&#x1E5D;" horiz-adv-x="600" d="M130,0l116,0l0,271C296,366 362,401 429,401C466,401 486,396 518,386l24,97C513,497 487,503 447,503C362,503 288,459 238,380l-3,0l-10,111l-95,0 z M210,596l261,0l0,76l-261,0 z M202,-240C249,-240 284,-210 284,-163C284,-117 249,-85 202,-85C154,-85 120,-117 120,-163C120,-210 154,-240 202,-240z"/>
<glyph unicode="&#x1E5F;" horiz-adv-x="600" d="M130,0l116,0l0,271C296,366 362,401 429,401C466,401 486,396 518,386l24,97C513,497 487,503 447,503C362,503 288,459 238,380l-3,0l-10,111l-95,0 z M332,-104l-262,0l0,-76l262,0z"/>
<glyph unicode="&#x15B;" horiz-adv-x="600" d="M62,64C123,22 211,-12 303,-12C452,-12 533,56 533,140C533,221 459,258 345,288C266,308 207,327 207,362C207,393 234,416 310,416C366,416 416,396 460,367l53,71C463,471 389,503 309,503C170,503 92,442 92,356C92,282 179,240 273,215C372,189 418,168 418,134C418,100 383,75 306,75C230,75 171,99 116,137 z M444,731l-120,0l-90,-158l86,0z"/>
<glyph unicode="&#x15D;" horiz-adv-x="600" d="M62,64C123,22 211,-12 303,-12C452,-12 533,56 533,140C533,221 459,258 345,288C266,308 207,327 207,362C207,393 234,416 310,416C366,416 416,396 460,367l53,71C463,471 389,503 309,503C170,503 92,442 92,356C92,282 179,240 273,215C372,189 418,168 418,134C418,100 383,75 306,75C230,75 171,99 116,137 z M160,573l86,0l60,97l4,0l60,-97l86,0l-99,158l-98,0z"/>
<glyph unicode="&#x161;" horiz-adv-x="600" d="M62,64C123,22 211,-12 303,-12C452,-12 533,56 533,140C533,221 459,258 345,288C266,308 207,327 207,362C207,393 234,416 310,416C366,416 416,396 460,367l53,71C463,471 389,503 309,503C170,503 92,442 92,356C92,282 179,240 273,215C372,189 418,168 418,134C418,100 383,75 306,75C230,75 171,99 116,137 z M259,573l98,0l99,158l-86,0l-60,-97l-4,0l-60,97l-86,0z"/>
<glyph unicode="&#x15F;" horiz-adv-x="600" d="M513,438C463,471 389,503 309,503C170,503 92,442 92,356C92,282 179,240 273,215C372,189 418,168 418,134C418,100 383,75 306,75C230,75 171,99 116,137l-54,-73C117,26 194,-5 276,-11l-33,-64C286,-86 304,-100 304,-121C304,-148 268,-161 218,-167l10,-50C313,-211 389,-182 389,-119C389,-78 364,-58 330,-46l17,36C468,2 533,65 533,140C533,221 459,258 345,288C266,308 207,327 207,362C207,393 234,416 310,416C366,416 416,396 460,367z"/>
<glyph unicode="&#x219;" horiz-adv-x="600" d="M62,64C123,22 211,-12 303,-12C452,-12 533,56 533,140C533,221 459,258 345,288C266,308 207,327 207,362C207,393 234,416 310,416C366,416 416,396 460,367l53,71C463,471 389,503 309,503C170,503 92,442 92,356C92,282 179,240 273,215C372,189 418,168 418,134C418,100 383,75 306,75C230,75 171,99 116,137 z M276,-45l-23,-46C282,-98 300,-109 300,-132C300,-156 264,-167 214,-173l10,-50C309,-217 385,-188 385,-125C385,-78 355,-54 276,-45z"/>
<glyph unicode="&#x1E61;" horiz-adv-x="600" d="M62,64C123,22 211,-12 303,-12C452,-12 533,56 533,140C533,221 459,258 345,288C266,308 207,327 207,362C207,393 234,416 310,416C366,416 416,396 460,367l53,71C463,471 389,503 309,503C170,503 92,442 92,356C92,282 179,240 273,215C372,189 418,168 418,134C418,100 383,75 306,75C230,75 171,99 116,137 z M308,577C355,577 390,608 390,654C390,700 355,732 308,732C261,732 226,700 226,654C226,608 261,577 308,577z"/>
<glyph unicode="&#x1E63;" horiz-adv-x="600" d="M62,64C123,22 211,-12 303,-12C452,-12 533,56 533,140C533,221 459,258 345,288C266,308 207,327 207,362C207,393 234,416 310,416C366,416 416,396 460,367l53,71C463,471 389,503 309,503C170,503 92,442 92,356C92,282 179,240 273,215C372,189 418,168 418,134C418,100 383,75 306,75C230,75 171,99 116,137 z M308,-240C356,-240 390,-210 390,-163C390,-117 356,-85 308,-85C261,-85 226,-117 226,-163C226,-210 261,-240 308,-240z"/>
<glyph unicode="&#xDF;" horiz-adv-x="600" d="M74,0l115,0l0,496C189,580 224,627 287,627C331,627 357,595 357,553C357,472 282,442 282,357C282,222 460,230 460,135C460,102 436,75 395,75C363,75 332,85 299,108l-41,-79C301,3 343,-12 399,-12C505,-12 568,57 568,144C568,296 390,290 390,371C390,431 465,462 465,560C465,642 406,718 288,718C149,718 74,630 74,507z"/>
<glyph unicode="&#x165;" horiz-adv-x="600" d="M190,198C190,72 241,-12 390,-12C449,-12 504,1 548,16l-22,84C494,88 460,80 418,80C335,80 305,117 305,198l0,202l224,0l0,91l-224,0l0,134l-95,0l-15,-134l-136,-5l0,-86l131,0 z M445,548l19,154l1,63l-77,0l5,-217z"/>
<glyph unicode="&#x163;" horiz-adv-x="600" d="M408,-12C460,-9 509,3 548,16l-22,84C494,88 460,80 418,80C335,80 305,117 305,198l0,202l224,0l0,91l-224,0l0,134l-95,0l-15,-134l-136,-5l0,-86l131,0l0,-202C190,88 229,9 339,-8l-34,-67C348,-86 366,-100 366,-121C366,-148 330,-161 280,-167l10,-50C375,-211 451,-182 451,-119C451,-78 426,-58 392,-46z"/>
<glyph unicode="&#x21B;" horiz-adv-x="600" d="M190,198C190,72 241,-12 390,-12C449,-12 504,1 548,16l-22,84C494,88 460,80 418,80C335,80 305,117 305,198l0,202l224,0l0,91l-224,0l0,134l-95,0l-15,-134l-136,-5l0,-86l131,0 z M341,-45l-23,-46C347,-98 365,-109 365,-132C365,-156 330,-167 280,-173l9,-50C374,-217 450,-188 450,-125C450,-78 420,-54 341,-45z"/>
<glyph unicode="&#x1E6D;" horiz-adv-x="600" d="M190,198C190,72 241,-12 390,-12C449,-12 504,1 548,16l-22,84C494,88 460,80 418,80C335,80 305,117 305,198l0,202l224,0l0,91l-224,0l0,134l-95,0l-15,-134l-136,-5l0,-86l131,0 z M374,-240C421,-240 456,-210 456,-163C456,-117 421,-85 374,-85C326,-85 292,-117 292,-163C292,-210 326,-240 374,-240z"/>
<glyph unicode="&#x1E6F;" horiz-adv-x="600" d="M190,198C190,72 241,-12 390,-12C449,-12 504,1 548,16l-22,84C494,88 460,80 418,80C335,80 305,117 305,198l0,202l224,0l0,91l-224,0l0,134l-95,0l-15,-134l-136,-5l0,-86l131,0 z M504,-104l-262,0l0,-76l262,0z"/>
<glyph unicode="&#x1E97;" horiz-adv-x="600" d="M190,198C190,72 241,-12 390,-12C449,-12 504,1 548,16l-22,84C494,88 460,80 418,80C335,80 305,117 305,198l0,202l224,0l0,91l-224,0l0,134l-95,0l-15,-134l-136,-5l0,-86l131,0 z M162,716C201,716 228,746 228,784C228,822 201,851 162,851C122,851 95,822 95,784C95,746 122,716 162,716 z M367,716C406,716 434,746 434,784C434,822 406,851 367,851C328,851 301,822 301,784C301,746 328,716 367,716z"/>
<glyph unicode="&#xF9;" horiz-adv-x="600" d="M515,491l-115,0l0,-331C356,106 323,87 277,87C209,87 185,123 185,202l0,289l-115,0l0,-304C70,60 120,-12 234,-12C307,-12 362,24 408,78l4,0l9,-78l94,0 z M283,573l86,0l-90,158l-120,0z"/>
<glyph unicode="&#xFA;" horiz-adv-x="600" d="M515,491l-115,0l0,-331C356,106 323,87 277,87C209,87 185,123 185,202l0,289l-115,0l0,-304C70,60 120,-12 234,-12C307,-12 362,24 408,78l4,0l9,-78l94,0 z M432,731l-121,0l-89,-158l85,0z"/>
<glyph unicode="&#xFB;" horiz-adv-x="600" d="M515,491l-115,0l0,-331C356,106 323,87 277,87C209,87 185,123 185,202l0,289l-115,0l0,-304C70,60 120,-12 234,-12C307,-12 362,24 408,78l4,0l9,-78l94,0 z M148,573l85,0l60,97l4,0l60,-97l86,0l-99,158l-98,0z"/>
<glyph unicode="&#x169;" horiz-adv-x="600" d="M515,491l-115,0l0,-331C356,106 323,87 277,87C209,87 185,123 185,202l0,289l-115,0l0,-304C70,60 120,-12 234,-12C307,-12 362,24 408,78l4,0l9,-78l94,0 z M139,577l61,0C208,615 220,631 242,631C272,631 300,577 349,577C406,577 442,624 452,704l-62,0C383,666 370,650 349,650C319,650 290,704 241,704C184,704 148,657 139,577z"/>
<glyph unicode="&#xFC;" horiz-adv-x="600" d="M515,491l-115,0l0,-331C356,106 323,87 277,87C209,87 185,123 185,202l0,289l-115,0l0,-304C70,60 120,-12 234,-12C307,-12 362,24 408,78l4,0l9,-78l94,0 z M192,579C232,579 259,608 259,646C259,684 232,714 192,714C153,714 126,684 126,646C126,608 153,579 192,579 z M398,579C437,579 464,608 464,646C464,684 437,714 398,714C359,714 332,684 332,646C332,608 359,579 398,579z"/>
<glyph unicode="&#x16B;" horiz-adv-x="600" d="M515,491l-115,0l0,-331C356,106 323,87 277,87C209,87 185,123 185,202l0,289l-115,0l0,-304C70,60 120,-12 234,-12C307,-12 362,24 408,78l4,0l9,-78l94,0 z M165,596l261,0l0,76l-261,0z"/>
<glyph unicode="&#x16D;" horiz-adv-x="600" d="M515,491l-115,0l0,-331C356,106 323,87 277,87C209,87 185,123 185,202l0,289l-115,0l0,-304C70,60 120,-12 234,-12C307,-12 362,24 408,78l4,0l9,-78l94,0 z M295,575C389,575 430,648 434,720l-67,0C362,677 340,640 295,640C251,640 229,677 223,720l-67,0C160,648 201,575 295,575z"/>
<glyph unicode="&#x16F;" horiz-adv-x="600" d="M515,491l-115,0l0,-331C356,106 323,87 277,87C209,87 185,123 185,202l0,289l-115,0l0,-304C70,60 120,-12 234,-12C307,-12 362,24 408,78l4,0l9,-78l94,0 z M295,545C356,545 398,584 398,642C398,701 356,740 295,740C234,740 192,701 192,642C192,584 234,545 295,545 z M295,591C271,591 251,612 251,642C251,673 271,694 295,694C320,694 340,673 340,642C340,612 320,591 295,591z"/>
<glyph unicode="&#x171;" horiz-adv-x="600" d="M515,491l-115,0l0,-331C356,106 323,87 277,87C209,87 185,123 185,202l0,289l-115,0l0,-304C70,60 120,-12 234,-12C307,-12 362,24 408,78l4,0l9,-78l94,0 z M183,572l73,0l92,147l-95,0 z M342,572l73,0l92,147l-95,0z"/>
<glyph unicode="&#x1D4;" horiz-adv-x="600" d="M515,491l-115,0l0,-331C356,106 323,87 277,87C209,87 185,123 185,202l0,289l-115,0l0,-304C70,60 120,-12 234,-12C307,-12 362,24 408,78l4,0l9,-78l94,0 z M246,573l98,0l99,158l-86,0l-60,-97l-4,0l-60,97l-85,0z"/>
<glyph unicode="&#x1D6;" horiz-adv-x="600" d="M515,491l-115,0l0,-331C356,106 323,87 277,87C209,87 185,123 185,202l0,289l-115,0l0,-304C70,60 120,-12 234,-12C307,-12 362,24 408,78l4,0l9,-78l94,0 z M202,579C234,579 256,603 256,633C256,663 234,686 202,686C171,686 149,663 149,633C149,603 171,579 202,579 z M388,579C419,579 442,603 442,633C442,663 419,686 388,686C357,686 334,663 334,633C334,603 357,579 388,579 z M164,753l262,0l0,58l-262,0z"/>
<glyph unicode="&#x1D8;" horiz-adv-x="600" d="M515,491l-115,0l0,-331C356,106 323,87 277,87C209,87 185,123 185,202l0,289l-115,0l0,-304C70,60 120,-12 234,-12C307,-12 362,24 408,78l4,0l9,-78l94,0 z M235,729l76,0l109,107l-103,0 z M202,579C234,579 256,603 256,633C256,663 234,686 202,686C171,686 149,663 149,633C149,603 171,579 202,579 z M388,579C419,579 442,603 442,633C442,663 419,686 388,686C357,686 334,663 334,633C334,603 357,579 388,579z"/>
<glyph unicode="&#x1DA;" horiz-adv-x="600" d="M515,491l-115,0l0,-331C356,106 323,87 277,87C209,87 185,123 185,202l0,289l-115,0l0,-304C70,60 120,-12 234,-12C307,-12 362,24 408,78l4,0l9,-78l94,0 z M246,729l98,0l88,107l-80,0l-55,-61l-4,0l-54,61l-81,0 z M202,579C234,579 256,603 256,633C256,663 234,686 202,686C171,686 149,663 149,633C149,603 171,579 202,579 z M388,579C419,579 442,603 442,633C442,663 419,686 388,686C357,686 334,663 334,633C334,603 357,579 388,579z"/>
<glyph unicode="&#x1DC;" horiz-adv-x="600" d="M515,491l-115,0l0,-331C356,106 323,87 277,87C209,87 185,123 185,202l0,289l-115,0l0,-304C70,60 120,-12 234,-12C307,-12 362,24 408,78l4,0l9,-78l94,0 z M273,836l-103,0l110,-107l76,0 z M388,579C419,579 442,603 442,633C442,663 419,686 388,686C357,686 334,663 334,633C334,603 357,579 388,579 z M202,579C234,579 256,603 256,633C256,663 234,686 202,686C171,686 149,663 149,633C149,603 171,579 202,579z"/>
<glyph unicode="&#x1EE5;" horiz-adv-x="600" d="M515,491l-115,0l0,-331C356,106 323,87 277,87C209,87 185,123 185,202l0,289l-115,0l0,-304C70,60 120,-12 234,-12C307,-12 362,24 408,78l4,0l9,-78l94,0 z M320,-240C367,-240 402,-210 402,-163C402,-117 367,-85 320,-85C272,-85 238,-117 238,-163C238,-210 272,-240 320,-240z"/>
<glyph unicode="&#x1EE7;" horiz-adv-x="600" d="M515,491l-115,0l0,-331C356,106 323,87 277,87C209,87 185,123 185,202l0,289l-115,0l0,-304C70,60 120,-12 234,-12C307,-12 362,24 408,78l4,0l9,-78l94,0 z M264,555C330,563 389,590 389,653C389,706 341,736 235,740l-13,-61C279,676 304,663 304,641C304,619 282,610 253,603z"/>
<glyph unicode="&#x173;" horiz-adv-x="600" d="M515,491l-115,0l0,-331C356,106 323,87 277,87C209,87 185,123 185,202l0,289l-115,0l0,-304C70,60 120,-12 234,-12C307,-12 362,24 408,78l4,0l10,-77C388,-24 348,-64 348,-120C348,-178 391,-208 446,-208C474,-208 514,-196 536,-178l-26,54C500,-132 486,-137 472,-137C450,-137 428,-123 428,-95C428,-60 453,-24 515,0z"/>
<glyph unicode="&#x1B0;" horiz-adv-x="600" d="M504,599C512,587 519,572 519,555C519,507 479,494 437,491l-37,0l0,-331C356,106 323,87 277,87C209,87 185,123 185,202l0,289l-115,0l0,-304C70,60 120,-12 234,-12C307,-12 362,24 408,78l4,0l9,-78l94,0l0,452C565,467 610,500 610,563C610,592 598,618 584,636z"/>
<glyph unicode="&#x1EE9;" horiz-adv-x="600" d="M430,731l-120,0l-90,-158l86,0 z M504,599C512,587 519,572 519,555C519,507 479,494 437,491l-37,0l0,-331C356,106 323,87 277,87C209,87 185,123 185,202l0,289l-115,0l0,-304C70,60 120,-12 234,-12C307,-12 362,24 408,78l4,0l9,-78l94,0l0,452C565,467 610,500 610,563C610,592 598,618 584,636z"/>
<glyph unicode="&#x1EEB;" horiz-adv-x="600" d="M368,573l-90,158l-120,0l124,-158 z M504,599C512,587 519,572 519,555C519,507 479,494 437,491l-37,0l0,-331C356,106 323,87 277,87C209,87 185,123 185,202l0,289l-115,0l0,-304C70,60 120,-12 234,-12C307,-12 362,24 408,78l4,0l9,-78l94,0l0,452C565,467 610,500 610,563C610,592 598,618 584,636z"/>
<glyph unicode="&#x1EED;" horiz-adv-x="600" d="M262,555C329,563 388,590 388,653C388,706 340,736 234,740l-13,-61C278,676 302,663 302,641C302,619 280,610 252,603 z M504,599C512,587 519,572 519,555C519,507 479,494 437,491l-37,0l0,-331C356,106 323,87 277,87C209,87 185,123 185,202l0,289l-115,0l0,-304C70,60 120,-12 234,-12C307,-12 362,24 408,78l4,0l9,-78l94,0l0,452C565,467 610,500 610,563C610,592 598,618 584,636z"/>
<glyph unicode="&#x1EEF;" horiz-adv-x="600" d="M389,704C382,666 369,650 348,650C318,650 289,704 240,704C183,704 147,657 138,577l61,0C206,615 219,631 240,631C271,631 299,577 348,577C405,577 441,624 450,704 z M504,599C512,587 519,572 519,555C519,507 479,494 437,491l-37,0l0,-331C356,106 323,87 277,87C209,87 185,123 185,202l0,289l-115,0l0,-304C70,60 120,-12 234,-12C307,-12 362,24 408,78l4,0l9,-78l94,0l0,452C565,467 610,500 610,563C610,592 598,618 584,636z"/>
<glyph unicode="&#x1EF1;" horiz-adv-x="600" d="M308,-85C261,-85 226,-117 226,-163C226,-210 261,-240 308,-240C355,-240 390,-210 390,-163C390,-117 355,-85 308,-85 z M504,599C512,587 519,572 519,555C519,507 479,494 437,491l-37,0l0,-331C356,106 323,87 277,87C209,87 185,123 185,202l0,289l-115,0l0,-304C70,60 120,-12 234,-12C307,-12 362,24 408,78l4,0l9,-78l94,0l0,452C565,467 610,500 610,563C610,592 598,618 584,636z"/>
<glyph unicode="&#x1E81;" horiz-adv-x="600" d="M101,0l133,0l42,204C286,267 292,310 298,348l4,0C310,297 317,251 325,205l43,-205l135,0l91,491l-106,0l-45,-255C436,189 431,143 423,95l-4,0C411,143 402,189 392,236l-46,207l-86,0l-46,-207C204,190 196,143 189,95l-4,0C178,143 173,189 165,236l-45,255l-114,0 z M289,573l85,0l-89,158l-121,0z"/>
<glyph unicode="&#x1E83;" horiz-adv-x="600" d="M101,0l133,0l42,204C286,267 292,310 298,348l4,0C310,297 317,251 325,205l43,-205l135,0l91,491l-106,0l-45,-255C436,189 431,143 423,95l-4,0C411,143 402,189 392,236l-46,207l-86,0l-46,-207C204,190 196,143 189,95l-4,0C178,143 173,189 165,236l-45,255l-114,0 z M437,731l-120,0l-90,-158l86,0z"/>
<glyph unicode="&#x175;" horiz-adv-x="600" d="M101,0l133,0l42,204C286,267 292,310 298,348l4,0C310,297 317,251 325,205l43,-205l135,0l91,491l-106,0l-45,-255C436,189 431,143 423,95l-4,0C411,143 402,189 392,236l-46,207l-86,0l-46,-207C204,190 196,143 189,95l-4,0C178,143 173,189 165,236l-45,255l-114,0 z M153,573l86,0l60,97l4,0l60,-97l85,0l-99,158l-97,0z"/>
<glyph unicode="&#x1E85;" horiz-adv-x="600" d="M101,0l133,0l42,204C286,267 292,310 298,348l4,0C310,297 317,251 325,205l43,-205l135,0l91,491l-106,0l-45,-255C436,189 431,143 423,95l-4,0C411,143 402,189 392,236l-46,207l-86,0l-46,-207C204,190 196,143 189,95l-4,0C178,143 173,189 165,236l-45,255l-114,0 z M198,579C237,579 264,608 264,646C264,684 237,714 198,714C159,714 131,684 131,646C131,608 159,579 198,579 z M403,579C443,579 470,608 470,646C470,684 443,714 403,714C364,714 337,684 337,646C337,608 364,579 403,579z"/>
<glyph unicode="&#x1EF3;" horiz-adv-x="600" d="M89,-102l-22,-90C86,-198 111,-202 137,-202C255,-202 314,-133 356,-22l205,513l-109,0l-89,-241C347,204 329,153 314,106l-4,0C292,155 274,206 256,250l-101,241l-115,0l220,-485l-12,-31C228,-74 192,-109 130,-109C116,-109 102,-106 89,-102 z M294,573l85,0l-89,158l-121,0z"/>
<glyph unicode="&#xFD;" horiz-adv-x="600" d="M89,-102l-22,-90C86,-198 111,-202 137,-202C255,-202 314,-133 356,-22l205,513l-109,0l-89,-241C347,204 329,153 314,106l-4,0C292,155 274,206 256,250l-101,241l-115,0l220,-485l-12,-31C228,-74 192,-109 130,-109C116,-109 102,-106 89,-102 z M442,731l-120,0l-90,-158l86,0z"/>
<glyph unicode="&#x177;" horiz-adv-x="600" d="M89,-102l-22,-90C86,-198 111,-202 137,-202C255,-202 314,-133 356,-22l205,513l-109,0l-89,-241C347,204 329,153 314,106l-4,0C292,155 274,206 256,250l-101,241l-115,0l220,-485l-12,-31C228,-74 192,-109 130,-109C116,-109 102,-106 89,-102 z M158,573l86,0l60,97l4,0l60,-97l85,0l-99,158l-97,0z"/>
<glyph unicode="&#xFF;" horiz-adv-x="600" d="M89,-102l-22,-90C86,-198 111,-202 137,-202C255,-202 314,-133 356,-22l205,513l-109,0l-89,-241C347,204 329,153 314,106l-4,0C292,155 274,206 256,250l-101,241l-115,0l220,-485l-12,-31C228,-74 192,-109 130,-109C116,-109 102,-106 89,-102 z M203,579C242,579 269,608 269,646C269,684 242,714 203,714C164,714 136,684 136,646C136,608 164,579 203,579 z M408,579C448,579 475,608 475,646C475,684 448,714 408,714C369,714 342,684 342,646C342,608 369,579 408,579z"/>
<glyph unicode="&#x1E8F;" horiz-adv-x="600" d="M89,-102l-22,-90C86,-198 111,-202 137,-202C255,-202 314,-133 356,-22l205,513l-109,0l-89,-241C347,204 329,153 314,106l-4,0C292,155 274,206 256,250l-101,241l-115,0l220,-485l-12,-31C228,-74 192,-109 130,-109C116,-109 102,-106 89,-102 z M306,577C353,577 388,608 388,654C388,700 353,732 306,732C258,732 224,700 224,654C224,608 258,577 306,577z"/>
<glyph unicode="&#x1EF5;" horiz-adv-x="600" d="M89,-102l-22,-90C86,-198 111,-202 137,-202C255,-202 314,-133 356,-22l205,513l-109,0l-89,-241C347,204 329,153 314,106l-4,0C292,155 274,206 256,250l-101,241l-115,0l220,-485l-12,-31C228,-74 192,-109 130,-109C116,-109 102,-106 89,-102 z M473,-234C520,-234 555,-204 555,-157C555,-111 520,-79 473,-79C425,-79 391,-111 391,-157C391,-204 425,-234 473,-234z"/>
<glyph unicode="&#x1EF7;" horiz-adv-x="600" d="M89,-102l-22,-90C86,-198 111,-202 137,-202C255,-202 314,-133 356,-22l205,513l-109,0l-89,-241C347,204 329,153 314,106l-4,0C292,155 274,206 256,250l-101,241l-115,0l220,-485l-12,-31C228,-74 192,-109 130,-109C116,-109 102,-106 89,-102 z M276,555C343,563 401,590 401,653C401,706 354,736 248,740l-13,-61C291,676 316,663 316,641C316,619 294,610 266,603z"/>
<glyph unicode="&#x1EF9;" horiz-adv-x="600" d="M89,-102l-22,-90C86,-198 111,-202 137,-202C255,-202 314,-133 356,-22l205,513l-109,0l-89,-241C347,204 329,153 314,106l-4,0C292,155 274,206 256,250l-101,241l-115,0l220,-485l-12,-31C228,-74 192,-109 130,-109C116,-109 102,-106 89,-102 z M149,577l61,0C218,615 231,631 252,631C282,631 310,577 360,577C417,577 453,624 462,704l-61,0C393,666 381,650 359,650C330,650 300,704 252,704C194,704 158,657 149,577z"/>
<glyph unicode="&#x17A;" horiz-adv-x="600" d="M71,0l466,0l0,92l-305,0l296,338l0,61l-423,0l0,-91l261,0l-295,-338 z M458,731l-120,0l-90,-158l86,0z"/>
<glyph unicode="&#x17E;" horiz-adv-x="600" d="M71,0l466,0l0,92l-305,0l296,338l0,61l-423,0l0,-91l261,0l-295,-338 z M273,573l97,0l99,158l-85,0l-60,-97l-4,0l-60,97l-86,0z"/>
<glyph unicode="&#x17C;" horiz-adv-x="600" d="M71,0l466,0l0,92l-305,0l296,338l0,61l-423,0l0,-91l261,0l-295,-338 z M322,577C369,577 404,608 404,654C404,700 369,732 322,732C274,732 240,700 240,654C240,608 274,577 322,577z"/>
<glyph unicode="&#x1E93;" horiz-adv-x="600" d="M71,0l466,0l0,92l-305,0l296,338l0,61l-423,0l0,-91l261,0l-295,-338 z M317,-240C364,-240 399,-210 399,-163C399,-117 364,-85 317,-85C270,-85 235,-117 235,-163C235,-210 270,-240 317,-240z"/>
<glyph unicode="&#xF0;" horiz-adv-x="600" d="M300,82C223,82 160,136 160,225C160,311 210,364 299,364C346,364 392,346 433,296C434,283 434,270 434,256C434,148 387,82 300,82 z M514,666l-31,54l-136,-69C303,684 253,711 201,735l-51,-71C190,645 225,626 257,605l-127,-65l32,-53l150,76C365,516 402,459 420,384C385,429 332,451 278,451C154,451 53,365 53,225C53,79 166,-12 296,-12C450,-12 543,101 543,262C543,418 486,527 400,608z"/>
<glyph unicode="&#xFE;" horiz-adv-x="600" d="M198,-40l-3,86C234,12 281,-12 329,-12C440,-12 547,85 547,253C547,405 472,503 346,503C292,503 238,478 194,438l4,81l0,187l-116,0l0,-900l116,0 z M198,128l0,221C238,390 277,408 314,408C394,408 428,350 428,252C428,141 373,83 305,83C275,83 234,95 198,128z"/>
<glyph unicode="&#x237;" horiz-adv-x="600" d="M84,400l213,0l0,-397C297,-74 273,-115 189,-115C157,-115 121,-107 84,-90l-35,-83C89,-192 138,-206 195,-206C363,-206 412,-111 412,9l0,482l-328,0z"/>
<glyph unicode="&#x250;" horiz-adv-x="600" d="M538,359C538,445 469,503 373,503C307,503 241,470 190,430l-4,0l-8,61l-95,0l0,-291C83,64 158,-12 294,-12C379,-12 459,21 518,56l-42,77C425,105 371,81 315,81C235,81 202,122 198,178C441,194 538,249 538,359 z M426,350C426,297 375,261 198,249l0,104C243,390 289,413 339,413C388,413 426,394 426,350z"/>
<glyph unicode="&#x251;" horiz-adv-x="600" d="M172,246C172,349 229,408 297,408C333,408 367,396 402,363l0,-221C368,102 332,83 291,83C216,83 172,140 172,246 z M53,245C53,83 138,-12 263,-12C317,-12 374,19 411,57l3,0l9,-57l95,0l0,491l-91,0l-10,-52l-3,0C371,482 325,503 272,503C157,503 53,405 53,245z"/>
<glyph unicode="&#x252;" horiz-adv-x="600" d="M428,247C428,141 374,83 304,83C273,83 234,95 198,128l0,221C232,390 272,408 312,408C391,408 428,350 428,247 z M547,254C547,405 473,503 346,503C286,503 226,472 189,434l-3,0l-9,57l-95,0l0,-491l91,0l10,54l3,0C229,12 282,-12 329,-12C443,-12 547,85 547,254z"/>
<glyph unicode="&#x254;" horiz-adv-x="600" d="M527,245C527,409 407,503 261,503C176,503 108,473 66,434l54,-72C161,393 204,409 253,409C345,409 408,344 408,245C408,147 340,82 243,82C188,82 141,107 105,136l-49,-74C111,13 183,-12 255,-12C407,-12 527,82 527,245z"/>
<glyph unicode="&#x258;" horiz-adv-x="600" d="M538,245C538,406 426,503 296,503C150,503 58,406 58,270C58,248 61,226 63,214l357,0C409,124 344,77 255,77C204,77 162,92 117,117l-39,-72C131,12 198,-12 270,-12C419,-12 538,83 538,245 z M164,292C164,368 216,414 290,414C361,414 409,372 421,292z"/>
<glyph unicode="&#x259;" horiz-adv-x="600" d="M62,225C62,84 147,-12 292,-12C432,-12 542,86 542,246C542,407 440,503 285,503C215,503 146,483 93,450l39,-74C175,399 222,414 272,414C363,414 414,366 424,282l-357,0C65,270 62,247 62,225 z M168,204l257,0C416,120 366,77 290,77C214,77 168,123 168,204z"/>
<glyph unicode="&#x261;" horiz-adv-x="600" d="M126,-74l-40,-80C142,-190 216,-206 275,-206C432,-206 518,-129 518,-1l0,492l-91,0l-10,-52l-3,0C374,480 326,503 272,503C156,503 53,406 53,254C53,106 138,9 263,9C316,9 373,35 408,70l-2,-80C402,-73 358,-115 275,-115C230,-115 174,-103 126,-74 z M291,103C218,103 170,160 170,255C170,349 230,408 296,408C333,408 367,396 402,363l0,-200C368,121 330,103 291,103z"/>
<glyph unicode="&#x265;" horiz-adv-x="600" d="M518,491l-116,0l0,-335C357,110 324,87 276,87C209,87 184,123 184,202l0,289l-116,0l0,-304C68,60 120,-12 233,-12C308,-12 364,27 409,72l-7,-104l0,-162l116,0z"/>
<glyph unicode="&#x26F;" horiz-adv-x="600" d="M556,491l-109,0l0,-343C428,107 410,87 384,87C357,87 342,108 342,152l0,339l-90,0l0,-343C233,107 215,87 188,87C160,87 148,108 148,152l0,339l-109,0l0,-348C39,45 79,-12 147,-12C202,-12 236,23 259,70C271,16 302,-12 348,-12C405,-12 434,20 456,63l3,0l9,-63l88,0z"/>
<glyph unicode="&#x279;" horiz-adv-x="600" d="M470,491l-116,0l0,-271C304,125 238,90 171,90C134,90 114,95 82,106l-24,-98C87,-6 113,-12 153,-12C238,-12 312,32 362,112l3,0l10,-112l95,0z"/>
<glyph unicode="&#x287;" horiz-adv-x="600" d="M410,294C410,419 359,503 210,503C151,503 96,490 52,476l22,-84C106,403 140,412 182,412C265,412 295,374 295,293l0,-201l-224,0l0,-92l224,0l0,-134l95,0l15,134l136,0l0,92l-131,0z"/>
<glyph unicode="&#x28C;" horiz-adv-x="600" d="M363,491l-131,0l-191,-491l110,0l95,255C264,304 279,354 295,403l4,0C315,354 330,304 348,255l95,-255l116,0z"/>
<glyph unicode="&#x28D;" horiz-adv-x="600" d="M499,491l-133,0l-42,-204C314,225 308,182 302,143l-4,0C290,194 283,240 275,286l-43,205l-135,0l-91,-491l106,0l45,255C164,302 169,348 177,396l4,0C189,348 198,302 208,255l46,-207l86,0l46,207C396,301 404,348 411,396l4,0C422,348 427,302 435,255l45,-255l114,0z"/>
<glyph unicode="&#x28E;" horiz-adv-x="600" d="M514,619l22,89C516,714 492,718 467,718C352,718 295,647 254,537l-215,-537l109,0l89,241C253,287 271,338 286,386l4,0C308,336 326,286 344,241l101,-241l115,0l-220,485l22,54C381,588 415,626 474,626C488,626 501,623 514,619z"/>
<glyph unicode="&#x29E;" horiz-adv-x="600" d="M510,491l-116,0l0,-126l-94,-91l-154,217l-126,0l211,-293l-190,-198l128,0l221,225l4,0l0,-419l116,0z"/>
<glyph unicode="&#xFB01;" horiz-adv-x="600" d="M95,491l-66,-5l0,-86l66,0l0,-400l115,0l0,400l96,0l0,91l-96,0l0,53C210,601 232,627 273,627C290,627 308,623 326,615l22,86C326,710 294,718 258,718C142,718 95,644 95,542 z M410,0l116,0l0,491l-116,0 z M467,734C419,734 382,702 382,655C382,609 419,577 467,577C516,577 552,609 552,655C552,702 516,734 467,734z"/>
<glyph unicode="&#xFB02;" horiz-adv-x="600" d="M100,491l-66,-5l0,-86l66,0l0,-400l115,0l0,400l96,0l0,91l-96,0l0,53C215,601 236,627 277,627C294,627 313,623 330,615l22,86C330,710 298,718 262,718C146,718 100,644 100,542 z M555,84C546,82 542,82 537,82C525,82 512,92 512,120l0,586l-115,0l0,-580C397,41 427,-12 508,-12C536,-12 555,-8 569,-2z"/>
<glyph unicode="&#xE003;" horiz-adv-x="600" d="M172,246C172,349 229,408 297,408C333,408 367,396 402,363l0,-221C368,102 332,83 291,83C216,83 172,140 172,246 z M53,245C53,83 138,-12 263,-12C317,-12 374,19 411,57l3,0l9,-57l95,0l0,491l-91,0l-10,-52l-3,0C371,482 325,503 272,503C157,503 53,405 53,245z"/>
<glyph unicode="&#xE004;" horiz-adv-x="600" d="M172,246C172,349 229,408 297,408C333,408 367,396 402,363l0,-221C368,102 332,83 291,83C216,83 172,140 172,246 z M53,245C53,83 138,-12 263,-12C317,-12 374,19 411,57l3,0l9,-57l95,0l0,491l-91,0l-10,-52l-3,0C371,482 325,503 272,503C157,503 53,405 53,245 z M298,573l86,0l-90,158l-120,0z"/>
<glyph unicode="&#xE005;" horiz-adv-x="600" d="M172,246C172,349 229,408 297,408C333,408 367,396 402,363l0,-221C368,102 332,83 291,83C216,83 172,140 172,246 z M53,245C53,83 138,-12 263,-12C317,-12 374,19 411,57l3,0l9,-57l95,0l0,491l-91,0l-10,-52l-3,0C371,482 325,503 272,503C157,503 53,405 53,245 z M447,731l-121,0l-89,-158l85,0z"/>
<glyph unicode="&#xE006;" horiz-adv-x="600" d="M172,246C172,349 229,408 297,408C333,408 367,396 402,363l0,-221C368,102 332,83 291,83C216,83 172,140 172,246 z M53,245C53,83 138,-12 263,-12C317,-12 374,19 411,57l3,0l9,-57l95,0l0,491l-91,0l-10,-52l-3,0C371,482 325,503 272,503C157,503 53,405 53,245 z M163,573l85,0l60,97l4,0l60,-97l86,0l-99,158l-97,0z"/>
<glyph unicode="&#xE007;" horiz-adv-x="600" d="M172,246C172,349 229,408 297,408C333,408 367,396 402,363l0,-221C368,102 332,83 291,83C216,83 172,140 172,246 z M53,245C53,83 138,-12 263,-12C317,-12 374,19 411,57l3,0l9,-57l95,0l0,491l-91,0l-10,-52l-3,0C371,482 325,503 272,503C157,503 53,405 53,245 z M154,577l61,0C223,615 235,631 257,631C287,631 315,577 364,577C422,577 458,624 467,704l-61,0C398,666 385,650 364,650C334,650 305,704 256,704C199,704 163,657 154,577z"/>
<glyph unicode="&#xE008;" horiz-adv-x="600" d="M172,246C172,349 229,408 297,408C333,408 367,396 402,363l0,-221C368,102 332,83 291,83C216,83 172,140 172,246 z M53,245C53,83 138,-12 263,-12C317,-12 374,19 411,57l3,0l9,-57l95,0l0,491l-91,0l-10,-52l-3,0C371,482 325,503 272,503C157,503 53,405 53,245 z M208,579C247,579 274,608 274,646C274,684 247,714 208,714C168,714 141,684 141,646C141,608 168,579 208,579 z M413,579C452,579 480,608 480,646C480,684 452,714 413,714C374,714 347,684 347,646C347,608 374,579 413,579z"/>
<glyph unicode="&#xE009;" horiz-adv-x="600" d="M172,246C172,349 229,408 297,408C333,408 367,396 402,363l0,-221C368,102 332,83 291,83C216,83 172,140 172,246 z M53,245C53,83 138,-12 263,-12C317,-12 374,19 411,57l3,0l9,-57l95,0l0,491l-91,0l-10,-52l-3,0C371,482 325,503 272,503C157,503 53,405 53,245 z M180,596l261,0l0,76l-261,0z"/>
<glyph unicode="&#xE00A;" horiz-adv-x="600" d="M172,246C172,349 229,408 297,408C333,408 367,396 402,363l0,-221C368,102 332,83 291,83C216,83 172,140 172,246 z M53,245C53,83 138,-12 263,-12C317,-12 374,19 411,57l3,0l9,-57l95,0l0,491l-91,0l-10,-52l-3,0C371,482 325,503 272,503C157,503 53,405 53,245 z M310,575C404,575 446,648 449,720l-67,0C377,677 355,640 310,640C266,640 244,677 238,720l-66,0C175,648 217,575 310,575z"/>
<glyph unicode="&#xE00B;" horiz-adv-x="600" d="M172,246C172,349 229,408 297,408C333,408 367,396 402,363l0,-221C368,102 332,83 291,83C216,83 172,140 172,246 z M53,245C53,83 138,-12 263,-12C317,-12 374,19 411,57l3,0l9,-57l95,0l0,491l-91,0l-10,-52l-3,0C371,482 325,503 272,503C157,503 53,405 53,245 z M310,545C371,545 414,584 414,642C414,701 371,740 310,740C250,740 207,701 207,642C207,584 250,545 310,545 z M310,591C286,591 266,612 266,642C266,673 286,694 310,694C335,694 355,673 355,642C355,612 335,591 310,591z"/>
<glyph unicode="&#xE00C;" horiz-adv-x="600" d="M172,246C172,349 229,408 297,408C333,408 367,396 402,363l0,-221C368,102 332,83 291,83C216,83 172,140 172,246 z M53,245C53,83 138,-12 263,-12C317,-12 374,19 411,57l3,0l9,-57l95,0l0,491l-91,0l-10,-52l-3,0C371,482 325,503 272,503C157,503 53,405 53,245 z M262,573l97,0l99,158l-86,0l-60,-97l-4,0l-60,97l-85,0z"/>
<glyph unicode="&#xE00D;" horiz-adv-x="600" d="M172,246C172,349 229,408 297,408C333,408 367,396 402,363l0,-221C368,102 332,83 291,83C216,83 172,140 172,246 z M53,245C53,83 138,-12 263,-12C317,-12 374,19 411,57l3,0l9,-57l95,0l0,491l-91,0l-10,-52l-3,0C371,482 325,503 272,503C157,503 53,405 53,245 z M312,-240C360,-240 394,-210 394,-163C394,-117 360,-85 312,-85C265,-85 230,-117 230,-163C230,-210 265,-240 312,-240z"/>
<glyph unicode="&#xE00E;" horiz-adv-x="600" d="M172,246C172,349 229,408 297,408C333,408 367,396 402,363l0,-221C368,102 332,83 291,83C216,83 172,140 172,246 z M53,245C53,83 138,-12 263,-12C317,-12 374,19 411,57l3,0l9,-57l95,0l0,491l-91,0l-10,-52l-3,0C371,482 325,503 272,503C157,503 53,405 53,245 z M279,555C346,563 404,590 404,653C404,706 356,736 250,740l-12,-61C294,676 319,663 319,641C319,619 297,610 268,603z"/>
<glyph unicode="&#xE00F;" horiz-adv-x="600" d="M172,246C172,349 229,408 297,408C333,408 367,396 402,363l0,-221C368,102 332,83 291,83C216,83 172,140 172,246 z M53,245C53,83 138,-12 263,-12C317,-12 374,19 411,57l3,0l9,-57l95,0l0,491l-91,0l-10,-52l-3,0C371,482 325,503 272,503C157,503 53,405 53,245 z M182,573l74,0l52,69l4,0l53,-69l73,0l-81,124l-93,0 z M408,643l67,0l94,116l-90,0z"/>
<glyph unicode="&#xE010;" horiz-adv-x="600" d="M172,246C172,349 229,408 297,408C333,408 367,396 402,363l0,-221C368,102 332,83 291,83C216,83 172,140 172,246 z M53,245C53,83 138,-12 263,-12C317,-12 374,19 411,57l3,0l9,-57l95,0l0,491l-91,0l-10,-52l-3,0C371,482 325,503 272,503C157,503 53,405 53,245 z M182,573l74,0l52,69l4,0l53,-69l73,0l-81,124l-93,0 z M465,759l-89,0l93,-116l67,0z"/>
<glyph unicode="&#xE011;" horiz-adv-x="600" d="M172,246C172,349 229,408 297,408C333,408 367,396 402,363l0,-221C368,102 332,83 291,83C216,83 172,140 172,246 z M53,245C53,83 138,-12 263,-12C317,-12 374,19 411,57l3,0l9,-57l95,0l0,491l-91,0l-10,-52l-3,0C371,482 325,503 272,503C157,503 53,405 53,245 z M182,573l74,0l52,69l4,0l53,-69l73,0l-81,124l-93,0 z M437,628C493,638 542,657 542,716C542,763 502,790 408,793l-11,-52C447,738 464,726 464,704C464,685 450,676 428,670z"/>
<glyph unicode="&#xE012;" horiz-adv-x="600" d="M172,246C172,349 229,408 297,408C333,408 367,396 402,363l0,-221C368,102 332,83 291,83C216,83 172,140 172,246 z M53,245C53,83 138,-12 263,-12C317,-12 374,19 411,57l3,0l9,-57l95,0l0,491l-91,0l-10,-52l-3,0C371,482 325,503 272,503C157,503 53,405 53,245 z M174,572l78,0l56,62l4,0l57,-62l77,0l-83,108l-105,0 z M225,716C230,744 244,756 262,756C292,756 312,716 364,716C409,716 442,752 449,818l-53,0C391,790 377,778 359,778C329,778 308,818 257,818C212,818 179,782 172,716z"/>
<glyph unicode="&#xE013;" horiz-adv-x="600" d="M172,246C172,349 229,408 297,408C333,408 367,396 402,363l0,-221C368,102 332,83 291,83C216,83 172,140 172,246 z M53,245C53,83 138,-12 263,-12C317,-12 374,19 411,57l3,0l9,-57l95,0l0,491l-91,0l-10,-52l-3,0C371,482 325,503 272,503C157,503 53,405 53,245 z M163,573l85,0l60,97l4,0l60,-97l86,0l-99,158l-97,0 z M312,-240C359,-240 394,-210 394,-163C394,-117 359,-85 312,-85C264,-85 230,-117 230,-163C230,-210 264,-240 312,-240z"/>
<glyph unicode="&#xE014;" horiz-adv-x="600" d="M172,246C172,349 229,408 297,408C333,408 367,396 402,363l0,-221C368,102 332,83 291,83C216,83 172,140 172,246 z M53,245C53,83 138,-12 263,-12C317,-12 374,19 411,57l3,0l9,-57l95,0l0,491l-91,0l-10,-52l-3,0C371,482 325,503 272,503C157,503 53,405 53,245 z M268,684l62,0l88,116l-87,0 z M310,575C400,575 440,642 443,708l-55,0C382,668 359,634 310,634C262,634 238,668 232,708l-54,0C181,642 221,575 310,575z"/>
<glyph unicode="&#xE015;" horiz-adv-x="600" d="M172,246C172,349 229,408 297,408C333,408 367,396 402,363l0,-221C368,102 332,83 291,83C216,83 172,140 172,246 z M53,245C53,83 138,-12 263,-12C317,-12 374,19 411,57l3,0l9,-57l95,0l0,491l-91,0l-10,-52l-3,0C371,482 325,503 272,503C157,503 53,405 53,245 z M290,800l-88,0l89,-116l61,0 z M310,575C400,575 440,642 443,708l-55,0C382,668 359,634 310,634C262,634 238,668 232,708l-54,0C181,642 221,575 310,575z"/>
<glyph unicode="&#xE016;" horiz-adv-x="600" d="M172,246C172,349 229,408 297,408C333,408 367,396 402,363l0,-221C368,102 332,83 291,83C216,83 172,140 172,246 z M53,245C53,83 138,-12 263,-12C317,-12 374,19 411,57l3,0l9,-57l95,0l0,491l-91,0l-10,-52l-3,0C371,482 325,503 272,503C157,503 53,405 53,245 z M310,575C400,575 440,642 443,708l-55,0C382,668 359,634 310,634C262,634 238,668 232,708l-54,0C181,642 221,575 310,575 z M280,691C335,700 385,719 385,779C385,826 344,852 250,855l-10,-51C289,801 307,789 307,767C307,747 292,739 270,733z"/>
<glyph unicode="&#xE017;" horiz-adv-x="600" d="M172,246C172,349 229,408 297,408C333,408 367,396 402,363l0,-221C368,102 332,83 291,83C216,83 172,140 172,246 z M53,245C53,83 138,-12 263,-12C317,-12 374,19 411,57l3,0l9,-57l95,0l0,491l-91,0l-10,-52l-3,0C371,482 325,503 272,503C157,503 53,405 53,245 z M310,575C400,575 439,629 442,688l-57,0C379,659 358,632 310,632C263,632 242,659 236,688l-58,0C182,629 221,575 310,575 z M172,716l53,0C230,744 244,756 262,756C292,756 312,716 364,716C409,716 442,752 449,818l-53,0C391,790 377,778 359,778C329,778 308,818 257,818C212,818 179,782 172,716z"/>
<glyph unicode="&#xE018;" horiz-adv-x="600" d="M172,246C172,349 229,408 297,408C333,408 367,396 402,363l0,-221C368,102 332,83 291,83C216,83 172,140 172,246 z M53,245C53,83 138,-12 263,-12C317,-12 374,19 411,57l3,0l9,-57l95,0l0,491l-91,0l-10,-52l-3,0C371,482 325,503 272,503C157,503 53,405 53,245 z M310,575C404,575 446,648 449,720l-67,0C377,677 355,640 310,640C266,640 244,677 238,720l-66,0C175,648 217,575 310,575 z M312,-240C359,-240 394,-210 394,-163C394,-117 359,-85 312,-85C264,-85 230,-117 230,-163C230,-210 264,-240 312,-240z"/>
<glyph unicode="&#xE019;" horiz-adv-x="600" d="M172,246C172,349 229,408 297,408C333,408 367,396 402,363l0,-221C368,102 332,83 291,83C216,83 172,140 172,246 z M53,245C53,83 138,-12 263,-12C317,-12 374,19 411,57l3,0l10,-56C390,-24 350,-64 350,-120C350,-178 394,-208 448,-208C477,-208 516,-196 538,-178l-26,54C502,-132 489,-137 474,-137C451,-137 430,-123 430,-95C430,-60 455,-24 518,0l0,491l-91,0l-10,-52l-3,0C371,482 325,503 272,503C157,503 53,405 53,245z"/>
<glyph unicode="&#xE01A;" horiz-adv-x="600" d="M126,-74l-40,-80C142,-190 216,-206 275,-206C432,-206 518,-129 518,-1l0,492l-91,0l-10,-52l-3,0C374,480 326,503 272,503C156,503 53,406 53,254C53,106 138,9 263,9C316,9 373,35 408,70l-2,-80C402,-73 358,-115 275,-115C230,-115 174,-103 126,-74 z M291,103C218,103 170,160 170,255C170,349 230,408 296,408C333,408 367,396 402,363l0,-200C368,121 330,103 291,103z"/>
<glyph unicode="&#xE01B;" horiz-adv-x="600" d="M126,-74l-40,-80C142,-190 216,-206 275,-206C432,-206 518,-129 518,-1l0,492l-91,0l-10,-52l-3,0C374,480 326,503 272,503C156,503 53,406 53,254C53,106 138,9 263,9C316,9 373,35 408,70l-2,-80C402,-73 358,-115 275,-115C230,-115 174,-103 126,-74 z M291,103C218,103 170,160 170,255C170,349 230,408 296,408C333,408 367,396 402,363l0,-200C368,121 330,103 291,103 z M161,573l85,0l60,97l4,0l60,-97l86,0l-99,158l-97,0z"/>
<glyph unicode="&#xE01C;" horiz-adv-x="600" d="M126,-74l-40,-80C142,-190 216,-206 275,-206C432,-206 518,-129 518,-1l0,492l-91,0l-10,-52l-3,0C374,480 326,503 272,503C156,503 53,406 53,254C53,106 138,9 263,9C316,9 373,35 408,70l-2,-80C402,-73 358,-115 275,-115C230,-115 174,-103 126,-74 z M291,103C218,103 170,160 170,255C170,349 230,408 296,408C333,408 367,396 402,363l0,-200C368,121 330,103 291,103 z M308,575C402,575 444,648 447,720l-67,0C375,677 353,640 308,640C264,640 242,677 236,720l-66,0C173,648 215,575 308,575z"/>
<glyph unicode="&#xE01D;" horiz-adv-x="600" d="M126,-74l-40,-80C142,-190 216,-206 275,-206C432,-206 518,-129 518,-1l0,492l-91,0l-10,-52l-3,0C374,480 326,503 272,503C156,503 53,406 53,254C53,106 138,9 263,9C316,9 373,35 408,70l-2,-80C402,-73 358,-115 275,-115C230,-115 174,-103 126,-74 z M291,103C218,103 170,160 170,255C170,349 230,408 296,408C333,408 367,396 402,363l0,-200C368,121 330,103 291,103 z M308,577C356,577 390,608 390,654C390,700 356,732 308,732C261,732 226,700 226,654C226,608 261,577 308,577z"/>
<glyph unicode="&#xE01E;" horiz-adv-x="600" d="M126,-74l-40,-80C142,-190 216,-206 275,-206C432,-206 518,-129 518,-1l0,492l-91,0l-10,-52l-3,0C374,480 326,503 272,503C156,503 53,406 53,254C53,106 138,9 263,9C316,9 373,35 408,70l-2,-80C402,-73 358,-115 275,-115C230,-115 174,-103 126,-74 z M291,103C218,103 170,160 170,255C170,349 230,408 296,408C333,408 367,396 402,363l0,-200C368,121 330,103 291,103 z M340,543l23,46C334,596 316,607 316,630C316,654 352,665 402,671l-10,50C307,715 231,686 231,623C231,576 261,552 340,543z"/>
<glyph unicode="&#xE01F;" horiz-adv-x="600" d="M126,-74l-40,-80C142,-190 216,-206 275,-206C432,-206 518,-129 518,-1l0,492l-91,0l-10,-52l-3,0C374,480 326,503 272,503C156,503 53,406 53,254C53,106 138,9 263,9C316,9 373,35 408,70l-2,-80C402,-73 358,-115 275,-115C230,-115 174,-103 126,-74 z M291,103C218,103 170,160 170,255C170,349 230,408 296,408C333,408 367,396 402,363l0,-200C368,121 330,103 291,103 z M260,573l97,0l99,158l-86,0l-60,-97l-4,0l-60,97l-85,0z"/>
<glyph unicode="&#xE020;" horiz-adv-x="600" d="M126,-74l-40,-80C142,-190 216,-206 275,-206C432,-206 518,-129 518,-1l0,492l-91,0l-10,-52l-3,0C374,480 326,503 272,503C156,503 53,406 53,254C53,106 138,9 263,9C316,9 373,35 408,70l-2,-80C402,-73 358,-115 275,-115C230,-115 174,-103 126,-74 z M291,103C218,103 170,160 170,255C170,349 230,408 296,408C333,408 367,396 402,363l0,-200C368,121 330,103 291,103 z M178,596l261,0l0,76l-261,0z"/>
<glyph unicode="&#xE021;" horiz-adv-x="600" d="M126,-74l-40,-80C142,-190 216,-206 275,-206C432,-206 518,-129 518,-1l0,492l-91,0l-10,-52l-3,0C374,480 326,503 272,503C156,503 53,406 53,254C53,106 138,9 263,9C316,9 373,35 408,70l-2,-80C402,-73 358,-115 275,-115C230,-115 174,-103 126,-74 z M291,103C218,103 170,160 170,255C170,349 230,408 296,408C333,408 367,396 402,363l0,-200C368,121 330,103 291,103 z M152,577l61,0C221,615 233,631 255,631C285,631 313,577 362,577C420,577 456,624 465,704l-61,0C396,666 383,650 362,650C332,650 303,704 254,704C197,704 161,657 152,577z"/>
<glyph unicode="&amp;" horiz-adv-x="600" d="M142,179C142,218 163,250 192,279C233,220 285,163 340,115C312,91 281,77 249,77C188,77 142,118 142,179 z M199,504C199,554 222,588 257,588C295,588 308,561 308,526C308,477 271,442 224,409C208,442 199,474 199,504 z M582,82C551,91 517,109 480,134C524,202 556,279 578,361l-106,0C457,295 434,238 404,191C352,234 303,286 265,339C331,390 398,443 398,527C398,610 345,666 256,666C163,666 103,593 103,503C103,459 119,408 146,355C86,312 32,259 32,172C32,69 109,-12 235,-12C308,-12 367,15 415,56C462,23 508,0 553,-12z"/>
<glyph unicode="0" horiz-adv-x="600" d="M300,-12C445,-12 536,107 536,321C536,536 445,648 300,648C155,648 64,536 64,321C64,107 155,-12 300,-12 z M300,558C376,558 432,495 432,321C432,147 376,78 300,78C224,78 168,147 168,321C168,495 224,558 300,558 z M300,254C338,254 369,281 369,325C369,369 338,396 300,396C262,396 231,369 231,325C231,281 262,254 300,254z"/>
<glyph unicode="1" horiz-adv-x="600" d="M377,94l0,542l-84,0C249,612 200,596 129,584l0,-72l133,0l0,-418l-172,0l0,-94l443,0l0,94z"/>
<glyph unicode="2" horiz-adv-x="600" d="M65,0l463,0l0,98l-180,0C313,98 269,94 232,91C380,224 495,340 495,453C495,571 409,648 278,648C185,648 121,612 60,550l63,-64C161,524 208,557 263,557C343,557 385,514 385,447C385,348 264,238 65,67z"/>
<glyph unicode="3" horiz-adv-x="600" d="M50,78C97,28 174,-12 283,-12C413,-12 525,56 525,172C525,256 457,310 374,330l0,4C452,361 503,409 503,480C503,588 410,648 280,648C198,648 128,616 70,568l60,-71C172,533 220,557 275,557C343,557 387,525 387,472C387,413 335,370 198,370l0,-84C355,286 409,244 409,178C409,118 351,82 273,82C204,82 146,113 104,152z"/>
<glyph unicode="4" horiz-adv-x="600" d="M154,253l134,177C310,464 334,498 355,531l5,0C358,493 355,443 354,405l0,-152 z M552,253l-90,0l0,384l-133,0l-292,-395l0,-78l317,0l0,-164l108,0l0,164l90,0z"/>
<glyph unicode="5" horiz-adv-x="600" d="M51,76C102,29 172,-12 284,-12C411,-12 527,68 527,207C527,344 428,406 308,406C269,406 241,398 208,385l14,154l275,0l0,97l-375,0l-20,-314l55,-35C201,312 228,323 275,323C356,323 411,280 411,204C411,127 350,82 270,82C197,82 147,114 104,150z"/>
<glyph unicode="6" horiz-adv-x="600" d="M318,76C247,76 193,124 179,236C225,290 275,310 318,310C390,310 433,273 433,197C433,119 381,76 318,76 z M529,576C486,616 423,648 339,648C199,648 68,546 68,299C68,85 185,-12 319,-12C437,-12 540,70 540,197C540,330 456,394 342,394C286,394 224,365 175,317C180,494 258,554 348,554C393,554 438,534 467,506z"/>
<glyph unicode="7" horiz-adv-x="600" d="M209,0l117,0C337,249 370,381 536,566l0,70l-470,0l0,-97l343,0C270,366 221,226 209,0z"/>
<glyph unicode="8" horiz-adv-x="600" d="M166,175C166,228 202,265 251,294C352,259 427,238 427,165C427,106 380,70 303,70C222,70 166,112 166,175 z M348,359C263,387 200,415 200,479C200,534 243,566 302,566C372,566 411,525 411,469C411,429 390,393 348,359 z M64,163C64,60 155,-12 301,-12C451,-12 536,63 536,161C536,249 482,293 413,327l0,4C465,365 508,417 508,476C508,579 430,648 304,648C185,648 98,582 98,479C98,412 140,364 193,330l0,-4C126,294 64,246 64,163z"/>
<glyph unicode="9" horiz-adv-x="600" d="M281,326C209,326 166,364 166,440C166,517 219,560 282,560C353,560 407,512 421,401C375,347 325,326 281,326 z M70,60C113,20 177,-12 261,-12C400,-12 531,91 531,338C531,552 415,648 280,648C163,648 60,567 60,440C60,307 143,243 258,243C313,243 375,272 425,319C419,142 341,82 252,82C206,82 162,102 132,130z"/>
<glyph unicode="&#xE022;" horiz-adv-x="600" d="M300,-12C445,-12 536,97 536,292C536,484 445,588 300,588C155,588 64,484 64,292C64,97 155,-12 300,-12 z M300,498C376,498 432,441 432,292C432,140 376,78 300,78C224,78 168,140 168,292C168,441 224,498 300,498 z M300,224C338,224 369,252 369,296C369,339 338,367 300,367C262,367 231,339 231,296C231,252 262,224 300,224z"/>
<glyph unicode="&#xE023;" horiz-adv-x="600" d="M377,94l0,482l-84,0C249,552 200,535 129,524l0,-73l133,0l0,-357l-172,0l0,-94l443,0l0,94z"/>
<glyph unicode="&#xE024;" horiz-adv-x="600" d="M65,0l463,0l0,98l-158,0C335,98 290,94 253,91C397,195 495,290 495,390C495,510 409,588 278,588C185,588 121,552 60,489l63,-63C161,464 208,496 263,496C343,496 385,453 385,384C385,303 268,199 65,67z"/>
<glyph unicode="&#xE025;" horiz-adv-x="600" d="M50,2C97,-48 174,-88 283,-88C413,-88 525,-18 525,102C525,189 457,242 374,262l0,4C452,295 503,344 503,417C503,525 410,588 280,588C198,588 128,556 70,508l60,-72C172,473 220,496 275,496C343,496 387,462 387,409C387,347 335,302 198,302l0,-84C355,218 409,177 409,108C409,44 351,6 273,6C204,6 146,37 104,76z"/>
<glyph unicode="&#xE026;" horiz-adv-x="600" d="M153,178l136,190C311,401 335,436 355,471l5,0C358,433 355,382 354,344l0,-166 z M552,178l-90,0l0,398l-133,0l-292,-409l0,-79l317,0l0,-164l108,0l0,164l90,0z"/>
<glyph unicode="&#xE027;" horiz-adv-x="600" d="M51,0C102,-47 172,-88 284,-88C411,-88 527,-6 527,137C527,278 428,339 308,339C269,339 241,333 208,319l14,159l275,0l0,98l-375,0l-20,-320l55,-35C201,246 228,256 275,256C356,256 411,214 411,134C411,53 350,6 270,6C197,6 147,38 104,74z"/>
<glyph unicode="&#xE028;" horiz-adv-x="600" d="M318,76C247,76 194,124 180,236C226,290 276,310 319,310C391,310 434,273 434,197C434,119 381,76 318,76 z M530,576C487,616 424,648 340,648C200,648 69,546 69,299C69,85 185,-12 320,-12C438,-12 540,70 540,197C540,330 457,394 343,394C287,394 225,366 176,318C182,494 259,554 348,554C394,554 438,534 468,506z"/>
<glyph unicode="&#xE029;" horiz-adv-x="600" d="M209,-76l117,0C338,180 370,317 536,505l0,71l-470,0l0,-98l343,0C269,302 221,155 209,-76z"/>
<glyph unicode="&#xE02A;" horiz-adv-x="600" d="M166,175C166,228 202,265 251,294C352,259 427,238 427,165C427,106 380,70 303,70C222,70 166,112 166,175 z M348,359C263,387 200,415 200,479C200,534 243,566 302,566C372,566 411,525 411,469C411,429 390,393 348,359 z M64,163C64,60 155,-12 301,-12C451,-12 536,63 536,161C536,249 482,293 413,327l0,4C465,365 508,417 508,476C508,579 430,648 304,648C185,648 98,582 98,479C98,412 140,364 193,330l0,-4C126,294 64,246 64,163z"/>
<glyph unicode="&#xE02B;" horiz-adv-x="600" d="M281,251C209,251 166,294 166,374C166,457 219,500 282,500C356,500 411,448 423,327C376,272 325,251 281,251 z M70,-16C113,-56 177,-88 261,-88C400,-88 531,18 531,277C531,491 415,588 280,588C163,588 60,505 60,374C60,237 143,168 258,168C313,168 375,197 424,244C416,65 339,6 252,6C206,6 162,26 132,54z"/>
<glyph unicode="." horiz-adv-x="600" d="M201,89C201,31 243,-12 300,-12C357,-12 399,31 399,89C399,147 357,190 300,190C243,190 201,147 201,89z"/>
<glyph unicode="," horiz-adv-x="600" d="M219,-215C343,-174 413,-87 413,35C413,128 376,185 305,185C253,185 209,151 209,96C209,38 253,7 303,7C308,7 312,7 317,8C316,-62 274,-112 189,-146z"/>
<glyph unicode=":" horiz-adv-x="600" d="M201,430C201,371 243,328 300,328C357,328 399,371 399,430C399,487 357,531 300,531C243,531 201,487 201,430 z M201,89C201,31 243,-12 300,-12C357,-12 399,31 399,89C399,147 357,190 300,190C243,190 201,147 201,89z"/>
<glyph unicode=";" horiz-adv-x="600" d="M300,328C357,328 399,371 399,430C399,487 357,531 300,531C243,531 201,487 201,430C201,371 243,328 300,328 z M219,-215C343,-174 413,-87 413,35C413,128 376,185 305,185C253,185 209,151 209,96C209,38 253,7 303,7C308,7 312,7 317,8C316,-62 274,-112 189,-146z"/>
<glyph unicode="&#x2026;" horiz-adv-x="600" d="M15,74C15,24 49,-12 96,-12C143,-12 177,24 177,74C177,123 143,160 96,160C49,160 15,123 15,74 z M219,74C219,24 253,-12 300,-12C347,-12 381,24 381,74C381,123 347,160 300,160C253,160 219,123 219,74 z M423,74C423,24 457,-12 504,-12C551,-12 585,24 585,74C585,123 551,160 504,160C457,160 423,123 423,74z"/>
<glyph unicode="!" horiz-adv-x="600" d="M262,244l76,0l16,312l3,114l-114,0l3,-114 z M213,78C213,24 251,-12 300,-12C349,-12 387,24 387,78C387,131 349,166 300,166C251,166 213,131 213,78z"/>
<glyph unicode="&#xA1;" horiz-adv-x="600" d="M338,247l-76,0l-16,-312l-3,-114l114,0l-3,114 z M387,413C387,467 349,503 300,503C251,503 213,467 213,413C213,360 251,325 300,325C349,325 387,360 387,413z"/>
<glyph unicode="?" horiz-adv-x="600" d="M230,244l101,0C316,366 488,392 488,522C488,625 406,682 293,682C214,682 150,646 104,596l65,-60C202,568 239,588 285,588C342,588 377,556 377,508C377,420 207,382 230,244 z M199,78C199,24 237,-12 286,-12C335,-12 373,24 373,78C373,131 335,166 286,166C237,166 199,131 199,78z"/>
<glyph unicode="&#xBF;" horiz-adv-x="600" d="M371,247l-101,0C285,125 113,100 113,-31C113,-134 195,-191 308,-191C386,-191 451,-155 497,-105l-65,60C399,-76 362,-97 316,-97C259,-97 224,-65 224,-17C224,71 394,109 371,247 z M402,413C402,467 364,503 315,503C266,503 228,467 228,413C228,360 266,325 315,325C364,325 402,360 402,413z"/>
<glyph unicode="'" horiz-adv-x="600" d="M263,327l74,0l30,231l3,128l-140,0l3,-128z"/>
<glyph unicode="&quot;" horiz-adv-x="600" d="M139,327l74,0l30,231l3,128l-140,0l3,-128 z M387,327l74,0l30,231l3,128l-140,0l3,-128z"/>
<glyph unicode="&#x2018;" horiz-adv-x="600" d="M356,698C252,648 196,564 196,460C196,372 237,319 300,319C350,319 385,355 385,409C385,457 352,490 304,490C297,490 289,489 282,486C286,552 324,601 389,635z"/>
<glyph unicode="&#x2019;" horiz-adv-x="600" d="M243,319C346,369 402,453 402,557C402,645 362,698 298,698C249,698 213,662 213,608C213,560 247,527 294,527C302,527 310,528 318,531C313,465 275,416 210,382z"/>
<glyph unicode="&#x201C;" horiz-adv-x="600" d="M232,698C128,648 72,564 72,460C72,372 113,319 176,319C226,319 261,355 261,409C261,457 228,490 180,490C173,490 165,489 158,486C162,552 200,601 265,635 z M480,698C376,648 320,564 320,460C320,372 361,319 424,319C474,319 509,355 509,409C509,457 476,490 428,490C421,490 413,489 406,486C410,552 448,601 513,635z"/>
<glyph unicode="&#x201D;" horiz-adv-x="600" d="M119,319C222,369 278,453 278,557C278,645 238,698 174,698C125,698 89,662 89,608C89,560 123,527 170,527C178,527 186,528 194,531C189,465 151,416 86,382 z M367,319C470,369 526,453 526,557C526,645 486,698 422,698C373,698 337,662 337,608C337,560 371,527 418,527C426,527 434,528 442,531C437,465 399,416 334,382z"/>
<glyph unicode="&#x201A;" horiz-adv-x="600" d="M243,-229C346,-179 402,-95 402,9C402,97 362,150 298,150C249,150 213,114 213,60C213,12 247,-21 294,-21C302,-21 310,-20 318,-17C313,-83 275,-132 210,-166z"/>
<glyph unicode="&#x201E;" horiz-adv-x="600" d="M119,-229C222,-179 278,-95 278,9C278,97 238,150 174,150C125,150 89,114 89,60C89,12 123,-21 170,-21C178,-21 186,-20 194,-17C189,-83 151,-132 86,-166 z M367,-229C470,-179 526,-95 526,9C526,97 486,150 422,150C373,150 337,114 337,60C337,12 371,-21 418,-21C426,-21 434,-20 442,-17C437,-83 399,-132 334,-166z"/>
<glyph unicode="&#x2039;" horiz-adv-x="600" d="M348,38l51,45l-127,169l127,168l-51,46l-162,-157l0,-114z"/>
<glyph unicode="&#x203A;" horiz-adv-x="600" d="M201,83l51,-45l162,157l0,114l-162,157l-51,-46l127,-168z"/>
<glyph unicode="&#xAB;" horiz-adv-x="600" d="M224,38l51,45l-127,169l127,168l-51,46l-162,-157l0,-114 z M472,38l51,45l-127,169l127,168l-51,46l-162,-157l0,-114z"/>
<glyph unicode="&#xBB;" horiz-adv-x="600" d="M77,83l51,-45l162,157l0,114l-162,157l-51,-46l127,-168 z M325,83l51,-45l162,157l0,114l-162,157l-51,-46l127,-168z"/>
<glyph unicode="-" horiz-adv-x="600" d="M78,288l444,0l0,84l-444,0z"/>
<glyph unicode="&#xAD;" horiz-adv-x="600" d="M78,288l444,0l0,84l-444,0z"/>
<glyph unicode="&#x2013;" horiz-adv-x="600" d="M80,207l440,0l0,92l-440,0z"/>
<glyph unicode="&#x2014;" horiz-adv-x="600" d="M20,207l560,0l0,92l-560,0z"/>
<glyph unicode="&#x2012;" horiz-adv-x="600" d="M80,207l440,0l0,92l-440,0z"/>
<glyph unicode="&#x2015;" horiz-adv-x="600" d="M20,207l560,0l0,92l-560,0z"/>
<glyph unicode="&#xB7;" horiz-adv-x="600" d="M201,350C201,292 243,249 300,249C357,249 399,292 399,350C399,408 357,452 300,452C243,452 201,408 201,350z"/>
<glyph unicode="&#x2022;" horiz-adv-x="600" d="M300,108C386,108 456,172 456,262C456,352 386,416 300,416C214,416 144,352 144,262C144,172 214,108 300,108z"/>
<glyph unicode="_" horiz-adv-x="600" d="M60,-62l0,-90l480,0l0,90z"/>
<glyph unicode="(" horiz-adv-x="600" d="M412,-177l64,53C349,-9 293,115 293,278C293,441 349,565 476,680l-64,53C278,622 194,468 194,278C194,88 278,-66 412,-177z"/>
<glyph unicode=")" horiz-adv-x="600" d="M188,-177C322,-66 406,88 406,278C406,468 322,622 188,733l-64,-53C251,565 307,441 307,278C307,115 251,-9 124,-124z"/>
<glyph unicode="[" horiz-adv-x="600" d="M213,-152l286,0l0,63l-197,0l0,734l197,0l0,63l-286,0z"/>
<glyph unicode="]" horiz-adv-x="600" d="M102,-89l0,-63l286,0l0,860l-286,0l0,-63l196,0l0,-734z"/>
<glyph unicode="{" horiz-adv-x="600" d="M244,-14C244,-120 303,-152 430,-152l69,0l0,63l-46,0C360,-89 340,-69 340,-9C340,49 345,99 345,163C345,233 320,264 250,276l0,4C320,292 345,323 345,393C345,454 340,510 340,565C340,625 360,645 453,645l46,0l0,63l-69,0C303,708 244,676 244,570C244,501 254,451 254,388C254,352 226,314 113,313l0,-70C226,242 254,204 254,168C254,102 244,58 244,-14z"/>
<glyph unicode="}" horiz-adv-x="600" d="M102,-89l0,-63l69,0C298,-152 356,-120 356,-14C356,58 346,102 346,168C346,204 374,242 487,243l0,70C374,314 346,352 346,388C346,451 356,501 356,570C356,676 298,708 171,708l-69,0l0,-63l46,0C240,645 261,625 261,565C261,510 256,454 256,393C256,323 280,292 351,280l0,-4C280,264 256,233 256,163C256,99 261,49 261,-9C261,-69 240,-89 148,-89z"/>
<glyph unicode="/" horiz-adv-x="600" d="M514,710l-99,0l-329,-870l99,0z"/>
<glyph unicode="|" horiz-adv-x="600" d="M249,-250l102,0l0,1000l-102,0z"/>
<glyph unicode="\" horiz-adv-x="600" d="M415,-160l99,0l-329,870l-99,0z"/>
<glyph unicode="&#xA6;" horiz-adv-x="600" d="M249,302l102,0l0,448l-102,0 z M249,209l0,-459l102,0l0,459z"/>
<glyph unicode="*" horiz-adv-x="600" d="M182,101l118,150l118,-150l53,37l-103,161l158,69l-19,59l-165,-49l-10,183l-64,0l-10,-183l-165,49l-19,-59l158,-69l-103,-161z"/>
<glyph unicode="&#x2020;" horiz-adv-x="600" d="M253,-80l94,0l-7,544l152,-6l0,94l-152,-7l7,167l-94,0l7,-167l-152,7l0,-94l152,6z"/>
<glyph unicode="&#x2021;" horiz-adv-x="600" d="M108,80l152,7l-7,-167l94,0l-7,167l152,-7l0,94l-152,-9l7,151l-7,151l152,-9l0,94l-152,-7l7,167l-94,0l7,-167l-152,7l0,-94l152,9l-7,-151l7,-151l-152,9z"/>
<glyph unicode="&#xA7;" horiz-adv-x="600" d="M179,342C179,375 198,398 231,415C313,371 421,351 421,275C421,240 404,219 370,202C289,248 179,267 179,342 z M474,626C433,657 374,687 302,687C196,687 137,625 137,545C137,511 148,484 167,463C116,435 81,388 81,334C81,148 354,164 354,68C354,36 329,12 282,12C234,12 196,31 162,64l-68,-60C138,-47 208,-74 282,-74C392,-74 458,-11 458,73C458,106 448,131 432,152C486,183 519,223 519,284C519,466 242,460 242,550C242,579 262,600 308,600C349,600 387,580 420,553z"/>
<glyph unicode="&#xB6;" horiz-adv-x="600" d="M392,-80l114,0l0,734l-114,0 z M339,654l-43,0C164,654 60,598 60,436C60,284 167,212 303,212l36,0z"/>
<glyph unicode="&#xA9;" horiz-adv-x="600" d="M24,324C24,119 147,-10 300,-10C453,-10 576,119 576,324C576,530 453,654 300,654C147,654 24,530 24,324 z M80,324C80,494 168,603 300,603C432,603 520,494 520,324C520,155 432,42 300,42C168,42 80,155 80,324 z M142,323C142,201 215,126 310,126C357,126 391,145 422,170l-38,56C362,210 343,197 313,197C262,197 229,246 229,323C229,392 263,443 318,443C341,443 357,433 375,416l45,50C393,493 361,514 311,514C222,514 142,440 142,323z"/>
<glyph unicode="&#x2117;" horiz-adv-x="600" d="M185,138l85,0l0,103l36,0C385,241 451,285 451,378C451,467 387,502 306,502l-121,0 z M270,304l0,133l28,0C343,437 368,419 368,376C368,326 344,304 298,304 z M24,324C24,119 147,-10 300,-10C453,-10 576,119 576,324C576,530 453,654 300,654C147,654 24,530 24,324 z M80,324C80,494 168,603 300,603C432,603 520,494 520,324C520,155 432,42 300,42C168,42 80,155 80,324z"/>
<glyph unicode="&#xAE;" horiz-adv-x="600" d="M299,315C406,315 493,397 493,514C493,632 406,714 299,714C193,714 106,632 106,514C106,397 193,315 299,315 z M299,358C215,358 153,421 153,514C153,608 215,672 299,672C383,672 445,608 445,514C445,421 383,358 299,358 z M223,417l49,0l0,65l35,0l32,-65l54,0l-44,79C372,506 385,528 385,551C385,598 349,616 305,616l-82,0 z M272,518l0,60l25,0C321,578 332,565 332,548C332,530 319,518 295,518z"/>
<glyph unicode="&#x2122;" horiz-adv-x="600" d="M283,364l70,0l0,116l-9,110l4,0l62,-167l50,0l62,167l4,0l-8,-110l0,-116l69,0l0,312l-87,0l-39,-104l-23,-76l-4,0l-24,76l-40,104l-87,0 z M78,364l78,0l0,241l88,0l0,71l-253,0l0,-71l87,0z"/>
<glyph unicode="&#x2120;" horiz-adv-x="600" d="M116,352C188,352 232,399 232,449C232,496 210,520 171,538l-44,21C102,570 90,579 90,595C90,611 102,625 128,625C150,625 173,611 194,596l38,50C206,668 169,685 130,685C61,685 19,644 19,591C19,542 48,518 78,503l45,-23C149,467 160,462 160,442C160,423 146,412 122,412C91,412 68,427 44,449l-41,-49C36,369 72,352 116,352 z M283,364l70,0l0,116l-9,110l4,0l62,-167l50,0l62,167l4,0l-8,-110l0,-116l69,0l0,312l-87,0l-39,-104l-23,-76l-4,0l-24,76l-40,104l-87,0z"/>
<glyph unicode="@" horiz-adv-x="600" d="M548,398C548,535 482,640 337,640C173,640 40,515 40,252C40,-13 181,-146 340,-146C409,-146 462,-125 516,-91l-36,59C442,-58 403,-73 344,-73C224,-73 122,37 122,248C122,469 226,568 333,568C430,568 474,495 474,410l0,-15C312,375 217,328 217,224C217,144 273,88 345,88C398,88 444,118 471,154l4,0l9,-54l64,0 z M304,226C304,279 347,307 463,324l0,-109C433,184 402,165 370,165C329,165 304,188 304,226z"/>
<glyph unicode="&#xE02C;" horiz-adv-x="600" d="M548,454C548,571 483,666 342,666C177,666 40,556 40,320C40,92 181,-22 340,-22C409,-22 462,-1 516,33l-36,59C442,66 403,51 344,51C224,51 122,142 122,316C122,510 231,594 338,594C431,594 474,537 474,472l0,-9C312,443 217,396 217,292C217,212 273,156 345,156C398,156 444,186 471,222l4,0l9,-54l64,0 z M304,294C304,347 347,375 463,392l0,-109C433,252 402,233 370,233C329,233 304,256 304,294z"/>
<glyph unicode="#" horiz-adv-x="600" d="M132,0l70,0l23,195l118,0l-24,-195l70,0l24,195l93,0l0,76l-84,0l16,129l88,0l0,76l-79,0l21,174l-69,0l-22,-174l-118,0l21,174l-68,0l-23,-174l-91,0l0,-76l82,0l-16,-129l-86,0l0,-76l77,0 z M234,271l16,129l118,0l-16,-129z"/>
<glyph unicode="&#xE02D;" horiz-adv-x="600" d="M198,297l102,133l102,-133l53,37l-87,144l138,56l-19,59l-145,-37l-10,156l-64,0l-10,-157l-145,38l-19,-59l138,-56l-87,-144z"/>
<glyph unicode="&#xE02E;" horiz-adv-x="600" d="M129,207l342,0l0,92l-342,0z"/>
<glyph unicode="&#xE02F;" horiz-adv-x="600" d="M129,207l342,0l0,92l-342,0z"/>
<glyph unicode="&#xE030;" horiz-adv-x="600" d="M331,268C377,249 412,228 412,194C412,154 379,128 315,128C312,128 308,128 305,128 z M281,397C238,414 207,432 207,460C207,500 241,524 296,524C299,524 302,524 305,524 z M376,510C400,501 421,488 446,470l58,67C474,567 439,591 394,605l25,137l-72,9l-25,-133C316,618 310,618 304,618C180,618 96,556 96,458C96,365 181,325 262,294l-28,-154C196,152 161,171 126,193l-52,-79C111,83 163,58 216,45l-28,-151l72,-8l28,148C292,34 296,34 300,34C439,34 524,104 524,202C524,299 434,341 350,372z"/>
<glyph unicode="&#xE031;" horiz-adv-x="600" d="M300,428C383,428 444,492 444,596C444,700 383,760 300,760C217,760 156,700 156,596C156,492 217,428 300,428 z M300,492C266,492 238,523 238,596C238,670 266,696 300,696C334,696 362,670 362,596C362,523 334,492 300,492z"/>
<glyph unicode="&#xE032;" horiz-adv-x="600" d="M283,440l86,0l0,308l-67,0C272,730 249,721 202,714l0,-53l81,0z"/>
<glyph unicode="&#xE033;" horiz-adv-x="600" d="M178,440l250,0l0,70l-114,0C368,559 415,605 415,655C415,721 367,760 291,760C241,760 199,734 166,698l50,-45C234,677 257,691 279,691C313,691 332,672 332,641C332,602 271,552 178,486z"/>
<glyph unicode="&#xE034;" horiz-adv-x="600" d="M168,476C208,442 256,428 300,428C370,428 427,466 427,524C427,564 404,590 359,601C398,615 414,637 414,674C414,727 365,760 301,760C251,760 205,743 177,717l36,-50C233,683 260,696 283,696C314,696 330,682 330,662C330,634 305,620 259,620l0,-47C317,573 343,559 343,530C343,504 321,492 292,492C260,492 226,509 205,529z"/>
<glyph unicode="&#xE035;" horiz-adv-x="600" d="M246,561l44,67l39,63l3,0l-5,-91l0,-39 z M454,561l-51,0l0,187l-103,0l-134,-200l0,-41l161,0l0,-67l76,0l0,67l51,0z"/>
<glyph unicode="&#xE036;" horiz-adv-x="600" d="M168,476C210,442 251,428 301,428C376,428 430,474 430,536C430,598 386,634 320,634C303,634 284,631 271,625l7,52l136,0l0,71l-202,0l-15,-157l37,-25C253,578 269,586 292,586C324,586 346,570 346,538C346,509 323,492 292,492C257,492 227,509 205,529z"/>
<glyph unicode="&#xE037;" horiz-adv-x="600" d="M309,492C283,492 255,508 247,551C268,569 286,577 307,577C340,577 355,561 355,536C355,509 338,492 309,492 z M428,724C401,745 369,760 327,760C228,760 168,689 168,588C168,492 225,428 311,428C381,428 432,476 432,536C432,595 395,630 331,630C297,630 269,618 246,599C251,659 279,696 332,696C357,696 377,687 394,673z"/>
<glyph unicode="&#xE038;" horiz-adv-x="600" d="M243,440l88,0C337,545 353,613 433,703l0,45l-253,0l0,-70l158,0C277,597 249,537 243,440z"/>
<glyph unicode="&#xE039;" horiz-adv-x="600" d="M247,524C247,543 260,561 283,573C321,562 353,550 353,521C353,500 328,485 300,485C270,485 247,501 247,524 z M316,626C282,636 257,647 257,671C257,689 274,703 299,703C327,703 344,688 344,668C344,652 336,638 316,626 z M170,518C170,469 223,428 300,428C375,428 430,468 430,518C430,563 402,584 367,600l0,4C395,618 420,637 420,673C420,725 369,760 300,760C235,760 180,725 180,673C180,635 204,620 233,601l0,-4C201,580 170,559 170,518z"/>
<glyph unicode="&#xE03A;" horiz-adv-x="600" d="M245,653C245,679 262,696 291,696C318,696 345,681 352,637C332,619 313,611 293,611C260,611 245,627 245,653 z M172,465C199,443 231,428 273,428C372,428 432,499 432,601C432,697 375,760 289,760C219,760 168,712 168,652C168,594 205,558 269,558C302,558 330,569 353,589C348,530 321,492 268,492C243,492 223,502 206,515z"/>
<glyph unicode="&#xE03B;" horiz-adv-x="600" d="M225,602C225,500 264,427 331,357l63,41C337,459 310,527 310,602C310,678 337,746 394,807l-63,41C264,778 225,705 225,602z"/>
<glyph unicode="&#xE03C;" horiz-adv-x="600" d="M375,602C375,705 336,778 269,848l-63,-41C263,746 290,678 290,602C290,527 263,459 206,398l63,-41C336,427 375,500 375,602z"/>
<glyph unicode="&#xE03D;" horiz-adv-x="600" d="M245,488C245,455 269,432 300,432C331,432 355,455 355,488C355,520 331,544 300,544C269,544 245,520 245,488z"/>
<glyph unicode="&#xE03E;" horiz-adv-x="600" d="M254,317C324,339 365,392 365,459C365,514 342,544 302,544C272,544 246,523 246,491C246,458 272,440 300,440C302,440 304,440 306,440C306,402 280,379 235,363z"/>
<glyph unicode="&#xE03F;" horiz-adv-x="600" d="M300,-182C383,-182 444,-118 444,-14C444,90 383,150 300,150C217,150 156,90 156,-14C156,-118 217,-182 300,-182 z M300,-118C266,-118 238,-87 238,-14C238,60 266,86 300,86C334,86 362,60 362,-14C362,-87 334,-118 300,-118z"/>
<glyph unicode="&#xE040;" horiz-adv-x="600" d="M283,-170l86,0l0,308l-67,0C272,120 249,111 202,104l0,-53l81,0z"/>
<glyph unicode="&#xE041;" horiz-adv-x="600" d="M178,-170l250,0l0,70l-114,0C368,-51 415,-5 415,45C415,111 367,150 291,150C241,150 199,124 166,88l50,-45C234,67 257,81 279,81C313,81 332,62 332,31C332,-8 271,-58 178,-124z"/>
<glyph unicode="&#xE042;" horiz-adv-x="600" d="M168,-134C208,-168 256,-182 300,-182C370,-182 427,-144 427,-86C427,-46 404,-20 359,-9C398,5 414,27 414,64C414,117 365,150 301,150C251,150 205,133 177,107l36,-50C233,73 260,86 283,86C314,86 330,72 330,52C330,24 305,10 259,10l0,-47C317,-37 343,-51 343,-80C343,-106 321,-118 292,-118C260,-118 226,-101 205,-81z"/>
<glyph unicode="&#xE043;" horiz-adv-x="600" d="M246,-49l44,67l39,63l3,0l-5,-91l0,-39 z M454,-49l-51,0l0,187l-103,0l-134,-200l0,-41l161,0l0,-67l76,0l0,67l51,0z"/>
<glyph unicode="&#xE044;" horiz-adv-x="600" d="M168,-134C210,-168 251,-182 301,-182C376,-182 430,-136 430,-74C430,-12 386,24 320,24C303,24 284,21 271,15l7,52l136,0l0,71l-202,0l-15,-157l37,-25C253,-32 269,-24 292,-24C324,-24 346,-40 346,-72C346,-101 323,-118 292,-118C257,-118 227,-101 205,-81z"/>
<glyph unicode="&#xE045;" horiz-adv-x="600" d="M309,-118C283,-118 255,-102 247,-59C268,-41 286,-33 307,-33C340,-33 355,-49 355,-74C355,-101 338,-118 309,-118 z M428,114C401,135 369,150 327,150C228,150 168,79 168,-22C168,-118 225,-182 311,-182C381,-182 432,-134 432,-74C432,-15 395,20 331,20C297,20 269,8 246,-11C251,49 279,86 332,86C357,86 377,77 394,63z"/>
<glyph unicode="&#xE046;" horiz-adv-x="600" d="M243,-170l88,0C337,-65 353,3 433,93l0,45l-253,0l0,-70l158,0C277,-13 249,-73 243,-170z"/>
<glyph unicode="&#xE047;" horiz-adv-x="600" d="M247,-86C247,-67 260,-49 283,-37C321,-48 353,-60 353,-89C353,-110 328,-125 300,-125C270,-125 247,-109 247,-86 z M316,16C282,26 257,37 257,61C257,79 274,93 299,93C327,93 344,78 344,58C344,42 336,28 316,16 z M170,-92C170,-141 223,-182 300,-182C375,-182 430,-142 430,-92C430,-47 402,-26 367,-10l0,4C395,8 420,27 420,63C420,115 369,150 300,150C235,150 180,115 180,63C180,25 204,10 233,-9l0,-4C201,-30 170,-51 170,-92z"/>
<glyph unicode="&#xE048;" horiz-adv-x="600" d="M245,43C245,69 262,86 291,86C318,86 345,71 352,27C332,9 313,1 293,1C260,1 245,17 245,43 z M172,-145C199,-167 231,-182 273,-182C372,-182 432,-111 432,-9C432,87 375,150 289,150C219,150 168,102 168,42C168,-16 205,-52 269,-52C302,-52 330,-41 353,-21C348,-80 321,-118 268,-118C243,-118 223,-108 206,-95z"/>
<glyph unicode="&#xE049;" horiz-adv-x="600" d="M225,-8C225,-110 264,-183 331,-253l63,41C337,-151 310,-83 310,-8C310,68 337,136 394,197l-63,41C264,168 225,95 225,-8z"/>
<glyph unicode="&#xE04A;" horiz-adv-x="600" d="M375,-8C375,95 336,168 269,238l-63,-41C263,136 290,68 290,-8C290,-83 263,-151 206,-212l63,-41C336,-183 375,-110 375,-8z"/>
<glyph unicode="&#xE04B;" horiz-adv-x="600" d="M245,-122C245,-155 269,-178 300,-178C331,-178 355,-155 355,-122C355,-90 331,-66 300,-66C269,-66 245,-90 245,-122z"/>
<glyph unicode="&#xE04C;" horiz-adv-x="600" d="M254,-293C324,-271 365,-218 365,-151C365,-96 342,-66 302,-66C272,-66 246,-87 246,-119C246,-152 272,-170 300,-170C302,-170 304,-170 306,-170C306,-208 280,-231 235,-247z"/>
<glyph unicode="&#xE04D;" horiz-adv-x="600" d="M300,-12C383,-12 444,52 444,156C444,260 383,320 300,320C217,320 156,260 156,156C156,52 217,-12 300,-12 z M300,52C266,52 238,83 238,156C238,230 266,256 300,256C334,256 362,230 362,156C362,83 334,52 300,52z"/>
<glyph unicode="&#xE04E;" horiz-adv-x="600" d="M283,0l86,0l0,308l-67,0C272,290 249,281 202,274l0,-53l81,0z"/>
<glyph unicode="&#xE04F;" horiz-adv-x="600" d="M177,0l250,0l0,70l-114,0C367,119 413,165 413,215C413,281 366,320 290,320C239,320 198,294 164,258l51,-45C233,237 256,251 278,251C312,251 331,232 331,201C331,162 270,112 177,46z"/>
<glyph unicode="&#xE050;" horiz-adv-x="600" d="M168,36C208,2 256,-12 300,-12C370,-12 427,26 427,84C427,124 404,150 359,161C398,175 414,197 414,234C414,287 365,320 301,320C251,320 205,303 177,277l36,-50C233,243 260,256 283,256C314,256 330,242 330,222C330,194 305,180 259,180l0,-47C317,133 343,119 343,90C343,64 321,52 292,52C260,52 226,69 205,89z"/>
<glyph unicode="&#xE051;" horiz-adv-x="600" d="M246,121l44,67l39,63l3,0l-5,-91l0,-39 z M454,121l-51,0l0,187l-103,0l-134,-200l0,-41l161,0l0,-67l76,0l0,67l51,0z"/>
<glyph unicode="&#xE052;" horiz-adv-x="600" d="M168,36C210,2 251,-12 301,-12C376,-12 430,34 430,96C430,158 386,194 320,194C303,194 284,191 271,185l7,52l136,0l0,71l-202,0l-15,-157l37,-25C253,138 269,146 292,146C324,146 346,130 346,98C346,69 323,52 292,52C257,52 227,69 205,89z"/>
<glyph unicode="&#xE053;" horiz-adv-x="600" d="M309,52C283,52 256,68 248,111C269,129 287,137 308,137C340,137 356,121 356,96C356,69 339,52 309,52 z M429,284C402,305 369,320 328,320C228,320 169,249 169,148C169,52 226,-12 312,-12C382,-12 433,36 433,96C433,155 396,190 332,190C298,190 270,178 247,159C252,219 280,256 333,256C358,256 378,247 395,233z"/>
<glyph unicode="&#xE054;" horiz-adv-x="600" d="M243,0l88,0C337,105 353,173 433,263l0,45l-253,0l0,-70l158,0C277,157 249,97 243,0z"/>
<glyph unicode="&#xE055;" horiz-adv-x="600" d="M247,84C247,103 260,121 283,133C321,122 353,110 353,81C353,60 328,45 300,45C270,45 247,61 247,84 z M316,186C282,196 257,207 257,231C257,249 274,263 299,263C327,263 344,248 344,228C344,212 336,198 316,186 z M170,78C170,29 223,-12 300,-12C375,-12 430,28 430,78C430,123 402,144 367,160l0,4C395,178 420,197 420,233C420,285 369,320 300,320C235,320 180,285 180,233C180,195 204,180 233,161l0,-4C201,140 170,119 170,78z"/>
<glyph unicode="&#xE056;" horiz-adv-x="600" d="M245,213C245,239 262,256 291,256C318,256 345,241 352,197C332,179 313,171 293,171C260,171 245,187 245,213 z M172,25C199,3 231,-12 273,-12C372,-12 432,59 432,161C432,257 375,320 289,320C219,320 168,272 168,212C168,154 205,118 269,118C302,118 330,129 353,149C348,90 321,52 268,52C243,52 223,62 206,75z"/>
<glyph unicode="&#xE057;" horiz-adv-x="600" d="M225,162C225,60 264,-13 331,-83l63,41C337,19 310,87 310,162C310,238 337,306 394,367l-63,41C264,338 225,265 225,162z"/>
<glyph unicode="&#xE058;" horiz-adv-x="600" d="M375,162C375,265 336,338 269,408l-63,-41C263,306 290,238 290,162C290,87 263,19 206,-42l63,-41C336,-13 375,60 375,162z"/>
<glyph unicode="&#xE059;" horiz-adv-x="600" d="M245,48C245,15 269,-8 300,-8C331,-8 355,15 355,48C355,80 331,104 300,104C269,104 245,80 245,48z"/>
<glyph unicode="&#xE05A;" horiz-adv-x="600" d="M254,-123C324,-101 365,-48 365,19C365,74 342,104 302,104C272,104 246,83 246,51C246,18 272,0 300,0C302,0 304,0 306,0C306,-38 280,-61 235,-77z"/>
<glyph unicode="&#xE05B;" horiz-adv-x="600" d="M300,316C383,316 444,380 444,484C444,588 383,648 300,648C217,648 156,588 156,484C156,380 217,316 300,316 z M300,380C266,380 238,411 238,484C238,558 266,584 300,584C334,584 362,558 362,484C362,411 334,380 300,380z"/>
<glyph unicode="&#xE05C;" horiz-adv-x="600" d="M283,328l86,0l0,308l-67,0C272,618 249,609 202,602l0,-53l81,0z"/>
<glyph unicode="&#xE05D;" horiz-adv-x="600" d="M178,328l250,0l0,70l-114,0C368,447 415,493 415,543C415,609 367,648 291,648C241,648 199,622 166,586l50,-45C234,565 257,579 279,579C313,579 332,560 332,529C332,490 271,440 178,374z"/>
<glyph unicode="&#xE05E;" horiz-adv-x="600" d="M168,364C208,330 256,316 300,316C370,316 427,354 427,412C427,452 404,478 359,489C398,503 414,525 414,562C414,615 365,648 301,648C251,648 205,631 177,605l36,-50C233,571 260,584 283,584C314,584 330,570 330,550C330,522 305,508 259,508l0,-47C317,461 343,447 343,418C343,392 321,380 292,380C260,380 226,397 205,417z"/>
<glyph unicode="&#xE05F;" horiz-adv-x="600" d="M246,449l44,67l39,63l3,0l-5,-91l0,-39 z M454,449l-51,0l0,187l-103,0l-134,-200l0,-41l161,0l0,-67l76,0l0,67l51,0z"/>
<glyph unicode="&#xE060;" horiz-adv-x="600" d="M168,364C210,330 251,316 301,316C376,316 430,362 430,424C430,486 386,522 320,522C303,522 284,519 271,513l7,52l136,0l0,71l-202,0l-15,-157l37,-25C253,466 269,474 292,474C324,474 346,458 346,426C346,397 323,380 292,380C257,380 227,397 205,417z"/>
<glyph unicode="&#xE061;" horiz-adv-x="600" d="M309,380C283,380 255,396 247,439C268,457 286,465 307,465C340,465 355,449 355,424C355,397 338,380 309,380 z M428,612C401,633 369,648 327,648C228,648 168,577 168,476C168,380 225,316 311,316C381,316 432,364 432,424C432,483 395,518 331,518C297,518 269,506 246,487C251,547 279,584 332,584C357,584 377,575 394,561z"/>
<glyph unicode="&#xE062;" horiz-adv-x="600" d="M243,328l88,0C337,433 353,501 433,591l0,45l-253,0l0,-70l158,0C277,485 249,425 243,328z"/>
<glyph unicode="&#xE063;" horiz-adv-x="600" d="M247,412C247,431 260,449 283,461C321,450 353,438 353,409C353,388 328,373 300,373C270,373 247,389 247,412 z M316,514C282,524 257,535 257,559C257,577 274,591 299,591C327,591 344,576 344,556C344,540 336,526 316,514 z M170,406C170,357 223,316 300,316C375,316 430,356 430,406C430,451 402,472 367,488l0,4C395,506 420,525 420,561C420,613 369,648 300,648C235,648 180,613 180,561C180,523 204,508 233,489l0,-4C201,468 170,447 170,406z"/>
<glyph unicode="&#xE064;" horiz-adv-x="600" d="M245,541C245,567 262,584 291,584C318,584 345,569 352,525C332,507 313,499 293,499C260,499 245,515 245,541 z M172,353C199,331 231,316 273,316C372,316 432,387 432,489C432,585 375,648 289,648C219,648 168,600 168,540C168,482 205,446 269,446C302,446 330,457 353,477C348,418 321,380 268,380C243,380 223,390 206,403z"/>
<glyph unicode="&#xE065;" horiz-adv-x="600" d="M225,426C225,324 264,251 331,181l63,41C337,283 310,351 310,426C310,502 337,570 394,631l-63,41C264,602 225,529 225,426z"/>
<glyph unicode="&#xE066;" horiz-adv-x="600" d="M375,426C375,529 336,602 269,672l-63,-41C263,570 290,502 290,426C290,351 263,283 206,222l63,-41C336,251 375,324 375,426z"/>
<glyph unicode="&#xE067;" horiz-adv-x="600" d="M245,312C245,279 269,256 300,256C331,256 355,279 355,312C355,344 331,368 300,368C269,368 245,344 245,312z"/>
<glyph unicode="&#xE068;" horiz-adv-x="600" d="M254,141C324,163 365,216 365,283C365,338 342,368 302,368C272,368 246,347 246,315C246,282 272,264 300,264C302,264 304,264 306,264C306,226 280,203 235,187z"/>
<glyph unicode="&#xAA;" horiz-adv-x="600" d="M161,348C161,293 204,252 264,252C303,252 340,271 371,295l2,0l6,-35l69,0l0,191C448,544 401,593 316,593C263,593 211,574 173,551l31,-56C235,513 268,527 300,527C344,527 362,502 364,469C223,454 161,418 161,348 z M242,355C242,385 274,406 364,417l0,-68C341,329 316,317 290,317C263,317 242,329 242,355z"/>
<glyph unicode="&#xE069;" horiz-adv-x="600" d="M219,423C219,489 254,525 294,525C315,525 339,518 361,500l0,-146C340,330 318,321 293,321C248,321 219,355 219,423 z M133,422C133,315 188,252 272,252C307,252 343,271 368,294l2,0l6,-34l69,0l0,325l-66,0l-7,-31l-3,0C342,581 312,593 277,593C201,593 133,529 133,422z"/>
<glyph unicode="&#xBA;" horiz-adv-x="600" d="M137,422C137,315 214,252 300,252C386,252 463,315 463,422C463,531 386,593 300,593C214,593 137,531 137,422 z M224,422C224,484 251,526 300,526C350,526 376,484 376,422C376,361 350,320 300,320C251,320 224,361 224,422z"/>
<glyph unicode="&#xE06A;" horiz-adv-x="600" d="M161,348C161,293 204,252 264,252C303,252 340,271 371,295l2,0l6,-35l69,0l0,191C448,544 401,593 316,593C263,593 211,574 173,551l31,-56C235,513 268,527 300,527C344,527 362,502 364,469C223,454 161,418 161,348 z M242,355C242,385 274,406 364,417l0,-68C341,329 316,317 290,317C263,317 242,329 242,355z"/>
<glyph unicode="&#xE06B;" horiz-adv-x="600" d="M163,260l66,0l7,34l2,0C266,267 300,252 331,252C406,252 475,317 475,428C475,528 426,593 341,593C307,593 272,577 245,554l2,53l0,118l-84,0 z M247,345l0,146C271,514 294,525 318,525C367,525 388,489 388,427C388,355 355,321 312,321C293,321 269,327 247,345z"/>
<glyph unicode="&#xE06C;" horiz-adv-x="600" d="M175,422C175,315 249,252 347,252C387,252 430,266 464,293l-35,54C409,333 385,320 355,320C300,320 261,361 261,422C261,484 301,526 358,526C380,526 399,518 417,503l40,53C433,577 399,593 354,593C259,593 175,531 175,422z"/>
<glyph unicode="&#xE06D;" horiz-adv-x="600" d="M133,422C133,315 188,252 272,252C308,252 343,271 368,294l2,0l6,-34l69,0l0,465l-84,0l0,-116l3,-51C339,579 314,593 276,593C202,593 133,529 133,422 z M219,423C219,489 253,525 294,525C317,525 339,518 361,500l0,-146C340,330 318,321 293,321C246,321 219,355 219,423z"/>
<glyph unicode="&#xE06E;" horiz-adv-x="600" d="M154,422C154,315 230,252 326,252C369,252 414,266 448,288l-29,51C393,324 367,316 338,316C284,316 244,345 236,401l221,0C459,409 461,423 461,438C461,528 411,593 315,593C233,593 154,528 154,422 z M235,453C242,504 278,529 317,529C365,529 389,500 389,453z"/>
<glyph unicode="&#xE06F;" horiz-adv-x="600" d="M506,716C477,725 445,733 409,733C310,733 267,678 267,602l0,-17l-77,-3l0,-63l77,0l0,-259l83,0l0,259l120,0l0,66l-120,0l0,18C350,643 372,667 419,667C445,667 467,662 489,654z"/>
<glyph unicode="&#xE070;" horiz-adv-x="600" d="M211,216C211,229 219,242 240,254C253,251 267,249 289,249l50,0C380,249 403,244 403,220C403,194 362,171 301,171C244,171 211,188 211,216 z M141,204C141,146 202,118 291,118C408,118 483,168 483,234C483,291 438,315 352,315l-66,0C246,315 227,323 227,343C227,356 233,363 245,371C263,366 278,363 294,363C369,363 426,399 426,473C426,494 417,512 407,524l74,0l0,61l-135,0C331,591 312,593 294,593C220,593 157,552 157,476C157,438 176,408 200,392l0,-3C175,373 160,350 160,328C160,301 175,284 193,274l0,-3C159,253 141,229 141,204 z M294,415C261,415 236,437 236,476C236,513 261,537 294,537C325,537 351,513 351,476C351,437 325,415 294,415z"/>
<glyph unicode="&#xE071;" horiz-adv-x="600" d="M165,260l85,0l0,223C277,508 296,522 324,522C365,522 380,500 380,452l0,-192l84,0l0,203C464,545 431,593 357,593C308,593 273,569 245,542l5,65l0,118l-85,0z"/>
<glyph unicode="&#xE072;" horiz-adv-x="600" d="M172,519l133,0l0,-259l84,0l0,325l-217,0 z M346,639C380,639 404,660 404,693C404,725 380,747 346,747C312,747 288,725 288,693C288,660 312,639 346,639z"/>
<glyph unicode="&#xE073;" horiz-adv-x="600" d="M161,519l133,0l0,-252C294,217 278,192 225,192C206,192 185,197 162,208l-26,-60C162,136 193,126 229,126C344,126 377,191 377,271l0,314l-216,0 z M334,639C368,639 393,660 393,693C393,725 368,747 334,747C300,747 276,725 276,693C276,660 300,639 334,639z"/>
<glyph unicode="&#xE074;" horiz-adv-x="600" d="M174,260l84,0l0,83l58,55l94,-138l92,0l-137,193l124,132l-92,0l-136,-141l-3,0l0,281l-84,0z"/>
<glyph unicode="&#xE075;" horiz-adv-x="600" d="M189,659l75,0l0,-280C264,300 299,252 379,252C414,252 434,258 462,265l-15,65C428,323 415,320 401,320C367,320 348,334 348,375l0,350l-159,0z"/>
<glyph unicode="&#xE076;" horiz-adv-x="600" d="M123,260l79,0l0,224C214,509 225,522 240,522C257,522 265,510 265,484l0,-224l67,0l0,224C343,509 354,522 370,522C387,522 394,510 394,484l0,-224l80,0l0,230C474,555 447,593 401,593C364,593 341,570 326,539C319,575 297,593 267,593C229,593 209,572 195,544l-2,0l-7,41l-63,0z"/>
<glyph unicode="&#xE077;" horiz-adv-x="600" d="M165,260l85,0l0,223C277,508 296,522 324,522C365,522 380,500 380,452l0,-192l84,0l0,203C464,545 431,593 357,593C308,593 273,569 243,540l-3,0l-6,45l-69,0z"/>
<glyph unicode="&#xE078;" horiz-adv-x="600" d="M137,422C137,315 214,252 300,252C386,252 463,315 463,422C463,531 386,593 300,593C214,593 137,531 137,422 z M224,422C224,484 251,526 300,526C350,526 376,484 376,422C376,361 350,320 300,320C251,320 224,361 224,422z"/>
<glyph unicode="&#xE079;" horiz-adv-x="600" d="M244,287C272,265 300,252 331,252C406,252 475,317 475,428C475,528 427,593 342,593C305,593 268,575 240,552l-2,0l-6,33l-69,0l0,-451l84,0l0,100 z M247,345l0,146C272,514 294,525 318,525C367,525 388,489 388,427C388,355 355,321 312,321C293,321 270,327 247,345z"/>
<glyph unicode="&#xE07A;" horiz-adv-x="600" d="M133,422C133,315 188,252 272,252C306,252 340,269 365,290l-4,-52l0,-104l84,0l0,451l-66,0l-7,-32l-3,0C341,581 314,593 276,593C202,593 133,529 133,422 z M219,423C219,489 253,525 294,525C317,525 339,518 361,500l0,-146C340,330 318,321 293,321C246,321 219,355 219,423z"/>
<glyph unicode="&#xE07B;" horiz-adv-x="600" d="M229,260l84,0l0,175C341,497 382,520 420,520C444,520 457,517 479,510l16,70C477,589 459,593 432,593C383,593 337,565 307,512l-2,0l-7,73l-69,0z"/>
<glyph unicode="&#xE07C;" horiz-adv-x="600" d="M153,298C192,272 248,252 304,252C402,252 455,298 455,355C455,415 393,436 337,453C295,465 257,475 257,498C257,517 274,531 316,531C350,531 379,520 406,503l39,50C412,574 368,593 316,593C227,593 173,552 173,495C173,440 235,416 289,399C331,386 372,375 372,350C372,329 352,314 306,314C262,314 227,328 192,351z"/>
<glyph unicode="&#xE07D;" horiz-adv-x="600" d="M230,392C230,308 265,252 367,252C405,252 439,261 465,270l-15,61C431,323 411,318 388,318C335,318 315,341 315,393l0,126l136,0l0,66l-136,0l0,88l-71,0l-10,-88l-77,-3l0,-63l73,0z"/>
<glyph unicode="&#xE07E;" horiz-adv-x="600" d="M449,585l-84,0l0,-220C339,334 319,324 290,324C250,324 236,345 236,392l0,193l-85,0l0,-203C151,300 184,252 259,252C306,252 342,275 372,308l2,0l7,-48l68,0z"/>
<glyph unicode="&#xE07F;" horiz-adv-x="600" d="M254,260l97,0l118,325l-81,0l-54,-163C323,389 314,356 304,323l-2,0C292,356 283,389 272,422l-54,163l-85,0z"/>
<glyph unicode="&#xE080;" horiz-adv-x="600" d="M144,260l97,0l24,126C272,428 275,456 279,481l3,0C287,446 292,416 297,386l25,-126l99,0l58,325l-78,0l-26,-162C370,391 367,360 362,328l-3,0C354,360 349,391 342,423l-29,126l-61,0l-27,-126C218,392 213,360 208,328l-2,0C201,360 199,391 194,423l-28,162l-83,0z"/>
<glyph unicode="&#xE081;" horiz-adv-x="600" d="M141,260l88,0l36,60C275,340 286,359 297,378l2,0C311,359 324,340 336,320l41,-60l90,0l-111,160l104,165l-88,0l-32,-58C330,509 321,490 312,472l-3,0C298,490 286,509 276,527l-37,58l-90,0l103,-155z"/>
<glyph unicode="&#xE082;" horiz-adv-x="600" d="M171,199l-15,-63C169,132 182,129 201,129C277,129 313,173 342,250l123,335l-81,0l-49,-152C326,403 318,371 309,341l-3,0C296,372 287,404 276,433l-57,152l-85,0l134,-319l-6,-20C251,217 231,195 195,195C187,195 178,198 171,199z"/>
<glyph unicode="&#xE083;" horiz-adv-x="600" d="M149,260l313,0l0,66l-196,0l190,215l0,44l-285,0l0,-66l167,0l-189,-214z"/>
<glyph unicode="&#xE084;" horiz-adv-x="600" d="M154,422C154,315 230,252 326,252C369,252 414,266 448,288l-29,51C393,324 367,316 338,316C284,316 244,345 236,401l221,0C459,409 461,423 461,438C461,528 411,593 315,593C233,593 154,528 154,422 z M235,453C242,504 278,529 317,529C365,529 389,500 389,453 z M303,639l63,0l-60,106l-87,0z"/>
<glyph unicode="&#xE085;" horiz-adv-x="600" d="M154,422C154,315 230,252 326,252C369,252 414,266 448,288l-29,51C393,324 367,316 338,316C284,316 244,345 236,401l221,0C459,409 461,423 461,438C461,528 411,593 315,593C233,593 154,528 154,422 z M235,453C242,504 278,529 317,529C365,529 389,500 389,453 z M411,745l-88,0l-60,-106l63,0z"/>
<glyph unicode="&#xE086;" horiz-adv-x="600" d="M151,409C151,317 203,252 298,252C384,252 456,317 456,423C456,529 391,593 293,593C249,593 206,580 172,557l28,-52C227,520 253,529 283,529C336,529 368,501 374,446l-219,0C153,438 151,425 151,409 z M224,394l152,0C369,341 339,316 296,316C249,316 224,345 224,394z"/>
<glyph unicode="&#xE087;" horiz-adv-x="600" d="M219,423C219,489 254,525 294,525C315,525 339,518 361,500l0,-146C340,330 318,321 293,321C248,321 219,355 219,423 z M133,422C133,315 188,252 272,252C307,252 343,271 368,294l2,0l6,-34l69,0l0,325l-66,0l-7,-31l-3,0C342,581 312,593 277,593C201,593 133,529 133,422z"/>
<glyph unicode="&#xE088;" horiz-adv-x="600" d="M184,219l-29,-56C192,139 242,127 280,127C385,127 445,174 445,257l0,328l-68,0l-7,-30l-2,0C342,581 312,593 277,593C205,593 133,528 133,428C133,331 188,267 272,267C306,267 339,282 363,303l-2,-47C360,218 334,192 280,192C251,192 215,201 184,219 z M293,334C248,334 218,370 218,429C218,489 253,525 294,525C315,525 339,518 361,500l0,-131C340,344 318,334 293,334z"/>
<glyph unicode="&#xB0;" horiz-adv-x="600" d="M301,413C375,413 436,468 436,549C436,630 375,685 301,685C227,685 165,630 165,549C165,468 227,413 301,413 z M301,472C259,472 229,504 229,549C229,595 259,627 301,627C343,627 372,595 372,549C372,504 343,472 301,472z"/>
<glyph unicode="&#xA4;" horiz-adv-x="600" d="M106,73l88,90C226,142 262,132 300,132C337,132 374,142 405,163l89,-90l59,60l-83,83C492,247 506,285 506,329C506,374 493,412 471,443l82,83l-59,60l-88,-90C375,516 337,527 300,527C262,527 225,516 194,496l-88,90l-59,-60l81,-83C107,412 94,374 94,329C94,285 107,247 129,216l-82,-83 z M198,329C198,399 244,445 300,445C356,445 402,399 402,329C402,260 356,214 300,214C244,214 198,260 198,329z"/>
<glyph unicode="$" horiz-adv-x="600" d="M504,537C463,578 415,608 345,616l0,130l-80,0l0,-131C166,602 102,544 102,458C102,279 406,297 406,194C406,154 373,128 309,128C240,128 183,155 126,193l-52,-79C123,73 196,42 265,35l0,-145l80,0l0,147C454,53 518,117 518,202C518,385 213,370 213,460C213,500 247,524 302,524C363,524 399,505 446,470z"/>
<glyph unicode="&#xA3;" horiz-adv-x="600" d="M230,98l0,4C273,140 294,177 294,236C294,251 293,264 290,278l159,0l0,74l-179,0C259,384 249,415 249,448C249,515 292,554 368,554C414,554 447,536 476,507l64,63C497,618 440,648 359,648C229,648 139,574 139,454C139,421 151,386 164,352l-90,-5l0,-69l114,0C191,264 193,251 193,237C193,164 148,103 73,71l0,-71l468,0l0,98z"/>
<glyph unicode="&#xA5;" horiz-adv-x="600" d="M42,636l173,-306l-148,0l0,-59l175,0l0,-59l-175,0l0,-60l175,0l0,-152l115,0l0,152l176,0l0,60l-176,0l0,59l176,0l0,59l-149,0l174,306l-115,0l-76,-151C345,441 325,397 303,352l-4,0C277,397 258,441 236,485l-76,151z"/>
<glyph unicode="&#x20AC;" horiz-adv-x="600" d="M510,141C474,100 436,78 384,78C306,78 254,132 233,225l232,0l0,61l-240,0C224,297 224,308 224,320C224,329 224,337 225,345l280,0l0,61l-273,0C250,502 303,558 386,558C433,558 468,537 501,507l65,63C522,618 458,648 390,648C248,648 143,559 115,405l-64,-4l0,-56l57,0C107,336 107,326 107,316C107,305 107,295 108,285l-57,-4l0,-56l64,0C143,72 245,-12 378,-12C459,-12 522,22 575,81z"/>
<glyph unicode="&#xA2;" horiz-adv-x="600" d="M312,162C251,181 217,234 217,308C217,381 251,435 312,455 z M467,196C443,177 414,159 379,155l0,308C406,460 429,448 452,428l54,71C476,529 433,553 379,556l0,98l-67,0l0,-101C193,534 104,448 104,308C104,165 187,78 312,62l0,-99l67,0l0,99C427,67 476,88 515,123z"/>
<glyph unicode="&#x192;" horiz-adv-x="600" d="M543,646C522,657 481,666 449,666C324,666 274,600 254,460l-5,-49l-33,0l-72,-5l0,-80l95,0l-20,-182C204,36 183,-4 122,-5C102,-5 83,0 65,6l-17,-86C66,-89 98,-96 137,-97C268,-97 309,-7 324,113l25,213l138,0l0,85l-128,0l7,59C374,527 399,573 458,573C484,573 503,567 519,560z"/>
<glyph unicode="&#x20A1;" horiz-adv-x="600" d="M352,557C356,558 361,558 366,558C378,558 389,557 400,554l-56,-475C326,82 311,87 296,95 z M256,128C222,170 204,236 204,320C204,437 240,518 306,546 z M490,141C460,106 428,85 388,80l54,457C456,528 468,518 481,507l65,63C521,598 488,619 454,633l13,113l-44,0l-12,-101C399,647 386,648 374,648C370,648 366,648 362,648l12,98l-44,0l-12,-103C177,619 87,501 87,316C87,162 148,57 243,13l-15,-123l44,0l13,107C300,-7 316,-10 333,-11l-12,-99l44,0l12,99C449,-7 506,27 555,81z"/>
<glyph unicode="&#x20A4;" horiz-adv-x="600" d="M230,98l0,4C271,138 292,173 294,226l155,0l0,62l-161,0C284,306 279,324 273,341l176,0l0,62l-194,0C251,418 249,433 249,448C249,515 292,554 368,554C414,554 447,536 476,507l64,63C497,618 440,648 359,648C229,648 139,574 139,454C139,437 142,420 147,402l-73,-4l0,-57l94,0C175,323 181,306 186,288l-28,0l-84,-6l0,-56l119,0C188,158 144,101 73,71l0,-71l468,0l0,98z"/>
<glyph unicode="&#x20A6;" horiz-adv-x="600" d="M410,288l-55,0l-19,53l-1,2l70,0 z M427,92l-4,0l-51,146l42,0 z M195,288l0,1l-5,54l58,0l16,-47l3,-8 z M173,544l4,0l53,-152l-44,0 z M562,343l0,49l-71,0l0,244l-86,0l0,-244l-89,0l-97,244l-110,0l0,-244l-72,-5l0,-44l72,0l0,-55l-72,-5l0,-45l72,0l0,-238l86,0l0,238l92,0l94,-238l110,0l0,238l71,0l0,50l-71,0l0,55z"/>
<glyph unicode="&#x20A7;" horiz-adv-x="600" d="M213,305l0,93l178,0C379,337 333,305 259,305 z M259,562C332,562 378,536 391,472l-178,0l0,90 z M563,472l-64,0C483,592 389,636 269,636l-165,0l0,-165l-72,-5l0,-68l72,0l0,-398l109,0l0,230l56,0C387,230 483,283 500,398l63,0z"/>
<glyph unicode="&#x20AB;" horiz-adv-x="600" d="M112,0l399,0l0,62l-399,0 z M383,236C353,204 325,192 291,192C234,192 199,230 199,303C199,362 244,402 295,402C330,402 353,392 383,368 z M479,600l0,58l-96,0l0,-58l-155,0l0,-62l155,0l0,-24l4,-75C354,466 325,482 274,482C187,482 100,414 100,302C100,180 166,113 269,113C318,113 359,133 389,163l3,0l8,-40l79,0l0,415l75,6l0,56z"/>
<glyph unicode="&#x20B1;" horiz-adv-x="600" d="M213,411l0,52l179,0C393,454 394,444 394,433C394,425 394,418 393,411 z M213,305l0,56l164,0C356,324 316,305 259,305 z M259,562C315,562 354,547 376,512l-163,0l0,50 z M563,512l-73,0C460,602 374,636 269,636l-165,0l0,-124l-72,-5l0,-44l72,0l0,-52l-72,-5l0,-45l72,0l0,-361l109,0l0,230l56,0C373,230 461,272 491,361l72,0l0,50l-62,0C502,418 502,425 502,433C502,443 502,453 501,463l62,0z"/>
<glyph unicode="&#x20B2;" horiz-adv-x="600" d="M532,347l-199,0l0,-95l95,0l0,-145C412,93 381,82 349,82C251,82 192,169 192,320C192,468 249,558 351,558C397,558 433,537 465,505l65,63C492,608 439,639 382,646l0,100l-80,0l0,-102C166,620 75,501 75,316C75,125 169,10 302,-9l0,-101l80,0l0,101C438,-1 490,23 532,61z"/>
<glyph unicode="&#x20B5;" horiz-adv-x="600" d="M326,83C248,103 204,189 204,320C204,448 247,533 326,553 z M490,141C461,108 431,88 394,81l0,474C428,549 455,531 481,507l65,63C507,612 453,641 394,647l0,93l-68,0l0,-95C182,625 87,505 87,316C87,120 185,5 326,-10l0,-100l68,0l0,100C458,-1 510,31 555,81z"/>
<glyph unicode="&#x20B9;" horiz-adv-x="600" d="M524,636l-426,0l0,-92l76,0C261,544 317,525 334,474l-158,0l-78,-5l0,-57l239,0C324,349 267,319 174,319l-76,0l0,-93l87,0l181,-226l130,0l-197,240C382,264 441,320 451,412l73,0l0,62l-76,0C439,518 412,553 371,575l153,0z"/>
<glyph unicode="&#x20BA;" horiz-adv-x="600" d="M256,96l0,201l171,82l0,67l-171,-82l0,63l171,82l0,67l-171,-82l0,142l-116,0l0,-198l-94,-45l0,-67l94,44l0,-63l-94,-44l0,-67l94,44l0,-252C380,-18 544,72 544,247C544,262 541,280 536,302l-96,-24C445,262 445,251 445,242C445,155 347,101 256,96z"/>
<glyph unicode="&#x2044;" horiz-adv-x="600" d="M84,30l165,201l-42,39l-185,-181 z M516,624l-165,-201l42,-39l185,181z"/>
<glyph unicode="&#x2215;" horiz-adv-x="600" d="M84,30l165,201l-42,39l-185,-181 z M516,624l-165,-201l42,-39l185,181z"/>
<glyph unicode="&#xE089;" horiz-adv-x="600" d="M84,30l165,201l-42,39l-185,-181 z M516,624l-165,-201l42,-39l185,181z"/>
<glyph unicode="%" horiz-adv-x="600" d="M169,316C252,316 313,380 313,484C313,588 252,648 169,648C86,648 25,588 25,484C25,380 86,316 169,316 z M169,380C135,380 107,411 107,484C107,558 135,584 169,584C203,584 231,558 231,484C231,411 203,380 169,380 z M85,30l165,201l-42,39l-185,-181 z M516,624l-165,-201l42,-39l185,181 z M431,-12C514,-12 575,52 575,156C575,260 514,320 431,320C348,320 287,260 287,156C287,52 348,-12 431,-12 z M431,52C397,52 369,83 369,156C369,230 397,256 431,256C465,256 493,230 493,156C493,83 465,52 431,52z"/>
</font>
</svg>
