<?xml version="1.0" encoding="utf-8"?>
<svg xmlns="http://www.w3.org/2000/svg" viewBox="0 0 600 1000">
	<path fill="#f2ede7" d="m478 754c14-40 20-80 22-120 43 0 62 12 62 52 0 44-38 68-84 68m-226-340c-160 0-250 63-250 166 0 243 101 346 250 346 87 0 164-32 202-112 115 0 170-62 170-134 0-60-41-110-122-110 0-98-89-156-250-156"/>
	<path fill="#42210b" d="m252 678c133 0 199-32 232-88-20-61-107-106-232-106s-212 44-232 106c33 56 99 88 232 88"/>
	<g fill="#c7b299">
		<path d="m321 582c-61 44-106 58-148 58-37 0-57-16-57-32 0-12 8-20 35-26-27-6-35-14-35-26 0-16 20-32 57-32 42 0 87 14 148 58"/>
		<path d="m326 582c34-20 60-26 74-26 16 0 30 10 30 26s-14 26-30 26c-14 0-40-6-74-26"/>
	</g>
</svg>
